<svg width="456" height="353" viewBox="0 0 456 353" fill="none" xmlns="http://www.w3.org/2000/svg">
<rect x="51.7225" y="128.816" width="35.5213" height="155.023" fill="#AA4A4A"/>
<rect x="150.871" y="243.232" width="35.5213" height="40.6068" fill="#AA4A4A"/>
<rect x="133.383" y="337.089" width="20" height="14.8696" fill="#AA4A4A"/>
<rect x="245.383" y="337.089" width="20" height="14.8696" fill="#599BFF"/>
<rect x="250.131" y="243.225" width="35" height="40.8914" fill="#AA4A4A"/>
<rect x="342.959" y="271.215" width="35.5213" height="12.6236" fill="#AA4A4A"/>
<rect x="87.2438" y="92.802" width="35.5213" height="191.037" fill="#599BFF"/>
<rect x="186.392" y="163.515" width="35.5213" height="120.324" fill="#599BFF"/>
<rect x="285.541" y="203.374" width="35.5213" height="80.4653" fill="#599BFF"/>
<rect x="378.131" y="203.263" width="36" height="80.8535" fill="#599BFF"/>
<path d="M97.8798 86.9463C97.232 86.9463 96.6486 86.8175 96.1297 86.5599C95.6107 86.3022 95.1948 85.9489 94.8819 85.4998C94.5691 85.0508 94.3979 84.5392 94.3685 83.965H95.6935C95.745 84.4766 95.9769 84.8999 96.3891 85.2348C96.8051 85.5661 97.302 85.7317 97.8798 85.7317C98.3436 85.7317 98.7558 85.6231 99.1165 85.406C99.4809 85.1888 99.7662 84.8907 99.9723 84.5116C100.182 84.1288 100.287 83.6963 100.287 83.2141C100.287 82.7209 100.178 82.2811 99.9612 81.8946C99.7478 81.5045 99.4533 81.1971 99.0779 80.9726C98.7024 80.7481 98.2736 80.634 97.7915 80.6303C97.4455 80.6266 97.0903 80.68 96.7259 80.7904C96.3615 80.8972 96.0616 81.0352 95.826 81.2045L94.5451 81.0499L95.2297 75.4848H101.104V76.6994H96.3781L95.9806 80.0341H96.0468C96.2787 79.85 96.5695 79.6973 96.9192 79.5758C97.2688 79.4544 97.6332 79.3936 98.0123 79.3936C98.7043 79.3936 99.3208 79.5593 99.8619 79.8905C100.407 80.2181 100.834 80.6671 101.143 81.2376C101.456 81.8081 101.612 82.4596 101.612 83.1921C101.612 83.9135 101.45 84.5576 101.126 85.1244C100.806 85.6876 100.364 86.1329 99.8011 86.4605C99.238 86.7844 98.5975 86.9463 97.8798 86.9463Z" fill="black"/>
<path d="M164.301 350.23V349.237L168.033 345.151C168.471 344.673 168.832 344.257 169.116 343.903C169.399 343.546 169.609 343.211 169.745 342.899C169.885 342.582 169.955 342.251 169.955 341.905C169.955 341.507 169.859 341.163 169.668 340.872C169.48 340.582 169.222 340.357 168.895 340.199C168.567 340.041 168.199 339.961 167.791 339.961C167.356 339.961 166.977 340.052 166.653 340.232C166.333 340.409 166.085 340.657 165.908 340.977C165.735 341.298 165.648 341.673 165.648 342.104H164.345C164.345 341.441 164.498 340.86 164.804 340.359C165.109 339.858 165.525 339.468 166.051 339.188C166.581 338.909 167.176 338.769 167.835 338.769C168.497 338.769 169.084 338.909 169.596 339.188C170.107 339.468 170.509 339.845 170.799 340.32C171.09 340.795 171.236 341.323 171.236 341.905C171.236 342.321 171.16 342.727 171.009 343.125C170.862 343.519 170.604 343.959 170.236 344.444C169.872 344.927 169.366 345.516 168.718 346.211L166.178 348.928V349.016H171.434V350.23H164.301ZM177.403 350.385C176.571 350.385 175.862 350.159 175.277 349.706C174.692 349.25 174.245 348.589 173.935 347.724C173.626 346.855 173.472 345.806 173.472 344.577C173.472 343.355 173.626 342.312 173.935 341.447C174.248 340.578 174.697 339.915 175.282 339.459C175.871 338.999 176.578 338.769 177.403 338.769C178.227 338.769 178.932 338.999 179.517 339.459C180.106 339.915 180.555 340.578 180.864 341.447C181.177 342.312 181.334 343.355 181.334 344.577C181.334 345.806 181.179 346.855 180.87 347.724C180.561 348.589 180.113 349.25 179.528 349.706C178.943 350.159 178.234 350.385 177.403 350.385ZM177.403 349.17C178.227 349.17 178.867 348.773 179.324 347.978C179.78 347.183 180.008 346.049 180.008 344.577C180.008 343.598 179.904 342.764 179.694 342.076C179.488 341.388 179.19 340.863 178.799 340.502C178.413 340.142 177.947 339.961 177.403 339.961C176.585 339.961 175.947 340.364 175.487 341.171C175.027 341.973 174.797 343.108 174.797 344.577C174.797 345.556 174.9 346.388 175.106 347.072C175.312 347.757 175.608 348.278 175.995 348.635C176.385 348.992 176.854 349.17 177.403 349.17ZM183.431 350.23V349.237L187.164 345.151C187.602 344.673 187.962 344.257 188.246 343.903C188.529 343.546 188.739 343.211 188.875 342.899C189.015 342.582 189.085 342.251 189.085 341.905C189.085 341.507 188.989 341.163 188.798 340.872C188.61 340.582 188.353 340.357 188.025 340.199C187.697 340.041 187.329 339.961 186.921 339.961C186.486 339.961 186.107 340.052 185.783 340.232C185.463 340.409 185.215 340.657 185.038 340.977C184.865 341.298 184.779 341.673 184.779 342.104H183.476C183.476 341.441 183.628 340.86 183.934 340.359C184.239 339.858 184.655 339.468 185.182 339.188C185.712 338.909 186.306 338.769 186.965 338.769C187.627 338.769 188.214 338.909 188.726 339.188C189.238 339.468 189.639 339.845 189.93 340.32C190.22 340.795 190.366 341.323 190.366 341.905C190.366 342.321 190.29 342.727 190.139 343.125C189.992 343.519 189.735 343.959 189.367 344.444C189.002 344.927 188.496 345.516 187.848 346.211L185.309 348.928V349.016H190.565V350.23H183.431ZM196.82 338.923V350.23H195.451V340.359H195.384L192.624 342.192V340.801L195.451 338.923H196.82Z" fill="black"/>
<path d="M199.612 157.44C198.883 157.44 198.233 157.315 197.663 157.064C197.096 156.814 196.645 156.466 196.31 156.021C195.979 155.572 195.798 155.051 195.769 154.458H197.16C197.19 154.823 197.315 155.137 197.536 155.402C197.756 155.664 198.045 155.866 198.402 156.01C198.759 156.153 199.155 156.225 199.589 156.225C200.075 156.225 200.506 156.14 200.881 155.971C201.257 155.802 201.551 155.566 201.765 155.264C201.978 154.963 202.085 154.613 202.085 154.215C202.085 153.8 201.982 153.433 201.776 153.117C201.57 152.797 201.268 152.546 200.87 152.366C200.473 152.186 199.987 152.095 199.413 152.095H198.507V150.881H199.413C199.862 150.881 200.256 150.8 200.594 150.638C200.937 150.476 201.203 150.248 201.395 149.953C201.59 149.659 201.687 149.313 201.687 148.915C201.687 148.533 201.603 148.199 201.433 147.916C201.264 147.633 201.025 147.412 200.716 147.254C200.41 147.095 200.05 147.016 199.634 147.016C199.243 147.016 198.875 147.088 198.529 147.231C198.187 147.371 197.907 147.576 197.69 147.844C197.473 148.109 197.355 148.429 197.337 148.805H196.012C196.034 148.212 196.212 147.693 196.547 147.248C196.882 146.799 197.32 146.449 197.861 146.199C198.406 145.949 199.004 145.824 199.656 145.824C200.355 145.824 200.955 145.965 201.456 146.249C201.956 146.528 202.341 146.898 202.609 147.358C202.878 147.818 203.012 148.315 203.012 148.849C203.012 149.486 202.845 150.029 202.51 150.478C202.179 150.927 201.728 151.238 201.157 151.411V151.499C201.871 151.617 202.429 151.921 202.83 152.41C203.231 152.896 203.432 153.498 203.432 154.215C203.432 154.83 203.265 155.382 202.93 155.872C202.598 156.358 202.146 156.74 201.572 157.02C200.997 157.3 200.344 157.44 199.612 157.44Z" fill="black"/>
<path d="M168.08 225.393V236.7H166.711V226.828H166.645L163.884 228.661V227.27L166.711 225.393H168.08Z" fill="black"/>
<path d="M295.568 193.008V192.015L299.3 187.929C299.738 187.451 300.099 187.035 300.382 186.681C300.666 186.324 300.875 185.989 301.012 185.676C301.151 185.36 301.221 185.029 301.221 184.683C301.221 184.285 301.126 183.941 300.934 183.65C300.747 183.359 300.489 183.135 300.161 182.977C299.834 182.818 299.466 182.739 299.057 182.739C298.623 182.739 298.244 182.829 297.92 183.01C297.6 183.186 297.351 183.435 297.174 183.755C297.001 184.075 296.915 184.451 296.915 184.881H295.612C295.612 184.219 295.765 183.637 296.07 183.137C296.376 182.636 296.792 182.246 297.318 181.966C297.848 181.687 298.442 181.547 299.101 181.547C299.764 181.547 300.351 181.687 300.862 181.966C301.374 182.246 301.775 182.623 302.066 183.098C302.357 183.573 302.502 184.101 302.502 184.683C302.502 185.099 302.427 185.505 302.276 185.903C302.129 186.297 301.871 186.736 301.503 187.222C301.139 187.704 300.632 188.293 299.985 188.989L297.445 191.705V191.794H302.701V193.008H295.568Z" fill="black"/>
<path d="M390.377 193.17V192.176L394.109 188.091C394.547 187.612 394.908 187.196 395.191 186.843C395.475 186.486 395.685 186.151 395.821 185.838C395.961 185.522 396.03 185.19 396.03 184.845C396.03 184.447 395.935 184.103 395.743 183.812C395.556 183.521 395.298 183.297 394.97 183.139C394.643 182.98 394.275 182.901 393.866 182.901C393.432 182.901 393.053 182.991 392.729 183.172C392.409 183.348 392.16 183.597 391.984 183.917C391.811 184.237 391.724 184.613 391.724 185.043H390.421C390.421 184.381 390.574 183.799 390.879 183.299C391.185 182.798 391.601 182.408 392.127 182.128C392.657 181.848 393.252 181.709 393.91 181.709C394.573 181.709 395.16 181.848 395.672 182.128C396.183 182.408 396.584 182.785 396.875 183.26C397.166 183.735 397.311 184.263 397.311 184.845C397.311 185.26 397.236 185.667 397.085 186.065C396.938 186.458 396.68 186.898 396.312 187.384C395.948 187.866 395.442 188.455 394.794 189.151L392.254 191.867V191.956H397.51V193.17H390.377Z" fill="black"/>
<path d="M79.2558 313.755H80.7575L82.0163 315.411L82.3476 315.853L84.2247 318.348H82.723L81.4863 316.692L81.1771 316.272L79.2558 313.755ZM84.6885 311.635C84.6885 312.827 84.4731 313.858 84.0425 314.727C83.6119 315.595 83.0211 316.265 82.2703 316.736C81.5194 317.207 80.6618 317.443 79.6975 317.443C78.7332 317.443 77.8756 317.207 77.1247 316.736C76.3739 316.265 75.7831 315.595 75.3525 314.727C74.9218 313.858 74.7065 312.827 74.7065 311.635C74.7065 310.442 74.9218 309.412 75.3525 308.543C75.7831 307.674 76.3739 307.005 77.1247 306.533C77.8756 306.062 78.7332 305.827 79.6975 305.827C80.6618 305.827 81.5194 306.062 82.2703 306.533C83.0211 307.005 83.6119 307.674 84.0425 308.543C84.4731 309.412 84.6885 310.442 84.6885 311.635ZM83.3634 311.635C83.3634 310.656 83.1996 309.829 82.8721 309.156C82.5482 308.482 82.1083 307.973 81.5525 307.627C81.0004 307.281 80.3821 307.108 79.6975 307.108C79.0129 307.108 78.3927 307.281 77.8369 307.627C77.2848 307.973 76.845 308.482 76.5174 309.156C76.1935 309.829 76.0316 310.656 76.0316 311.635C76.0316 312.614 76.1935 313.44 76.5174 314.114C76.845 314.787 77.2848 315.297 77.8369 315.643C78.3927 315.989 79.0129 316.162 79.6975 316.162C80.3821 316.162 81.0004 315.989 81.5525 315.643C82.1083 315.297 82.5482 314.787 82.8721 314.114C83.1996 313.44 83.3634 312.614 83.3634 311.635ZM90.7671 305.981V317.288H89.3979V307.417H89.3316L86.5711 309.25V307.858L89.3979 305.981H90.7671Z" fill="black"/>
<path d="M178.404 313.755H179.906L181.165 315.411L181.496 315.853L183.373 318.348H181.871L180.635 316.692L180.325 316.272L178.404 313.755ZM183.837 311.635C183.837 312.827 183.621 313.858 183.191 314.727C182.76 315.595 182.169 316.265 181.419 316.736C180.668 317.207 179.81 317.443 178.846 317.443C177.881 317.443 177.024 317.207 176.273 316.736C175.522 316.265 174.931 315.595 174.501 314.727C174.07 313.858 173.855 312.827 173.855 311.635C173.855 310.442 174.07 309.412 174.501 308.543C174.931 307.674 175.522 307.005 176.273 306.533C177.024 306.062 177.881 305.827 178.846 305.827C179.81 305.827 180.668 306.062 181.419 306.533C182.169 307.005 182.76 307.674 183.191 308.543C183.621 309.412 183.837 310.442 183.837 311.635ZM182.512 311.635C182.512 310.656 182.348 309.829 182.02 309.156C181.696 308.482 181.257 307.973 180.701 307.627C180.149 307.281 179.53 307.108 178.846 307.108C178.161 307.108 177.541 307.281 176.985 307.627C176.433 307.973 175.993 308.482 175.666 309.156C175.342 309.829 175.18 310.656 175.18 311.635C175.18 312.614 175.342 313.44 175.666 314.114C175.993 314.787 176.433 315.297 176.985 315.643C177.541 315.989 178.161 316.162 178.846 316.162C179.53 316.162 180.149 315.989 180.701 315.643C181.257 315.297 181.696 314.787 182.02 314.114C182.348 313.44 182.512 312.614 182.512 311.635ZM185.94 317.288V316.295L189.672 312.209C190.11 311.731 190.471 311.315 190.755 310.961C191.038 310.604 191.248 310.269 191.384 309.956C191.524 309.64 191.594 309.309 191.594 308.963C191.594 308.565 191.498 308.221 191.307 307.93C191.119 307.639 190.861 307.415 190.534 307.257C190.206 307.098 189.838 307.019 189.43 307.019C188.995 307.019 188.616 307.109 188.292 307.29C187.972 307.466 187.724 307.715 187.547 308.035C187.374 308.355 187.287 308.731 187.287 309.161H185.984C185.984 308.499 186.137 307.917 186.443 307.417C186.748 306.916 187.164 306.526 187.69 306.246C188.22 305.967 188.815 305.827 189.474 305.827C190.136 305.827 190.723 305.967 191.235 306.246C191.747 306.526 192.148 306.903 192.438 307.378C192.729 307.853 192.875 308.381 192.875 308.963C192.875 309.379 192.799 309.785 192.648 310.183C192.501 310.577 192.243 311.016 191.875 311.502C191.511 311.984 191.005 312.573 190.357 313.269L187.817 315.985V316.074H193.073V317.288H185.94Z" fill="black"/>
<path d="M277.553 313.755H279.055L280.313 315.411L280.645 315.853L282.522 318.348H281.02L279.783 316.692L279.474 316.272L277.553 313.755ZM282.985 311.635C282.985 312.827 282.77 313.858 282.34 314.727C281.909 315.595 281.318 316.265 280.567 316.736C279.816 317.207 278.959 317.443 277.994 317.443C277.03 317.443 276.173 317.207 275.422 316.736C274.671 316.265 274.08 315.595 273.649 314.727C273.219 313.858 273.004 312.827 273.004 311.635C273.004 310.442 273.219 309.412 273.649 308.543C274.08 307.674 274.671 307.005 275.422 306.533C276.173 306.062 277.03 305.827 277.994 305.827C278.959 305.827 279.816 306.062 280.567 306.533C281.318 307.005 281.909 307.674 282.34 308.543C282.77 309.412 282.985 310.442 282.985 311.635ZM281.66 311.635C281.66 310.656 281.497 309.829 281.169 309.156C280.845 308.482 280.405 307.973 279.85 307.627C279.297 307.281 278.679 307.108 277.994 307.108C277.31 307.108 276.69 307.281 276.134 307.627C275.582 307.973 275.142 308.482 274.814 309.156C274.491 309.829 274.329 310.656 274.329 311.635C274.329 312.614 274.491 313.44 274.814 314.114C275.142 314.787 275.582 315.297 276.134 315.643C276.69 315.989 277.31 316.162 277.994 316.162C278.679 316.162 279.297 315.989 279.85 315.643C280.405 315.297 280.845 314.787 281.169 314.114C281.497 313.44 281.66 312.614 281.66 311.635ZM288.909 317.443C288.181 317.443 287.531 317.318 286.961 317.067C286.394 316.817 285.943 316.469 285.608 316.024C285.277 315.575 285.096 315.054 285.067 314.462H286.458C286.488 314.826 286.613 315.141 286.834 315.406C287.054 315.667 287.343 315.869 287.7 316.013C288.057 316.157 288.453 316.228 288.887 316.228C289.373 316.228 289.804 316.144 290.179 315.974C290.555 315.805 290.849 315.569 291.063 315.268C291.276 314.966 291.383 314.616 291.383 314.219C291.383 313.803 291.28 313.437 291.074 313.12C290.868 312.8 290.566 312.549 290.168 312.369C289.771 312.189 289.285 312.099 288.711 312.099H287.805V310.884H288.711C289.16 310.884 289.554 310.803 289.892 310.641C290.235 310.479 290.501 310.251 290.693 309.956C290.888 309.662 290.985 309.316 290.985 308.919C290.985 308.536 290.901 308.203 290.731 307.919C290.562 307.636 290.323 307.415 290.014 307.257C289.708 307.098 289.347 307.019 288.932 307.019C288.541 307.019 288.173 307.091 287.827 307.235C287.485 307.374 287.205 307.579 286.988 307.847C286.771 308.112 286.653 308.433 286.635 308.808H285.31C285.332 308.216 285.51 307.697 285.845 307.251C286.18 306.802 286.618 306.452 287.159 306.202C287.704 305.952 288.302 305.827 288.954 305.827C289.653 305.827 290.253 305.968 290.753 306.252C291.254 306.532 291.639 306.902 291.907 307.362C292.176 307.822 292.31 308.319 292.31 308.852C292.31 309.489 292.143 310.032 291.808 310.481C291.477 310.93 291.026 311.241 290.455 311.414V311.502C291.169 311.62 291.727 311.924 292.128 312.413C292.529 312.899 292.73 313.501 292.73 314.219C292.73 314.833 292.563 315.385 292.228 315.875C291.896 316.361 291.444 316.744 290.869 317.023C290.295 317.303 289.642 317.443 288.909 317.443Z" fill="black"/>
<path d="M59.9761 122.502V121.376L64.945 113.514H65.7621V115.258H65.21L61.4557 121.199V121.287H68.1471V122.502H59.9761ZM65.2983 124.821V122.16V121.635V113.514H66.6012V124.821H65.2983Z" fill="black"/>
<path d="M24.4583 239.262V248.052H23.3939V240.378H23.3424L21.1963 241.803V240.721L23.3939 239.262H24.4583Z" fill="black"/>
<path d="M19.1146 208.492V207.719L22.0161 204.543C22.3566 204.171 22.637 203.848 22.8573 203.573C23.0777 203.296 23.2408 203.035 23.3466 202.792C23.4554 202.546 23.5097 202.288 23.5097 202.019C23.5097 201.71 23.4353 201.443 23.2865 201.217C23.1406 200.991 22.9403 200.816 22.6856 200.693C22.431 200.57 22.1448 200.509 21.8272 200.509C21.4896 200.509 21.1948 200.579 20.943 200.719C20.6941 200.856 20.5009 201.049 20.3636 201.298C20.2291 201.547 20.1619 201.839 20.1619 202.174H19.1489C19.1489 201.659 19.2677 201.207 19.5052 200.818C19.7427 200.428 20.066 200.125 20.4752 199.908C20.8872 199.69 21.3494 199.581 21.8616 199.581C22.3766 199.581 22.833 199.69 23.2307 199.908C23.6285 200.125 23.9404 200.418 24.1664 200.788C24.3925 201.157 24.5055 201.567 24.5055 202.019C24.5055 202.343 24.4469 202.659 24.3295 202.968C24.2151 203.274 24.0148 203.616 23.7286 203.994C23.4454 204.369 23.0519 204.826 22.5483 205.367L20.5739 207.479V207.548H24.66V208.492H19.1146Z" fill="black"/>
<path d="M22.0847 168.758C21.5182 168.758 21.0131 168.661 20.5696 168.466C20.129 168.271 19.7784 168.001 19.518 167.655C19.2605 167.306 19.1203 166.901 19.0974 166.44H20.179C20.2019 166.723 20.2992 166.968 20.4709 167.174C20.6426 167.377 20.8672 167.535 21.1448 167.646C21.4223 167.758 21.7299 167.814 22.0676 167.814C22.4453 167.814 22.7801 167.748 23.0719 167.616C23.3638 167.485 23.5927 167.301 23.7587 167.067C23.9246 166.832 24.0076 166.56 24.0076 166.251C24.0076 165.928 23.9275 165.643 23.7673 165.397C23.607 165.148 23.3724 164.954 23.0634 164.813C22.7543 164.673 22.3766 164.603 21.9302 164.603H21.2263V163.659H21.9302C22.2793 163.659 22.5855 163.596 22.8487 163.47C23.1149 163.344 23.3223 163.167 23.4711 162.938C23.6228 162.709 23.6986 162.44 23.6986 162.131C23.6986 161.833 23.6328 161.574 23.5012 161.354C23.3695 161.134 23.1835 160.962 22.9432 160.839C22.7057 160.716 22.4253 160.654 22.1019 160.654C21.7986 160.654 21.5125 160.71 21.2435 160.822C20.9774 160.93 20.7599 161.089 20.5911 161.298C20.4223 161.504 20.3307 161.753 20.3164 162.045H19.2863C19.3034 161.584 19.4422 161.181 19.7026 160.835C19.963 160.485 20.3035 160.214 20.7241 160.019C21.1476 159.825 21.6126 159.727 22.1191 159.727C22.6628 159.727 23.1292 159.837 23.5183 160.058C23.9075 160.275 24.2065 160.563 24.4154 160.92C24.6243 161.278 24.7287 161.664 24.7287 162.079C24.7287 162.574 24.5985 162.996 24.3381 163.345C24.0806 163.695 23.7301 163.936 23.2865 164.071V164.14C23.8417 164.231 24.2752 164.467 24.5871 164.848C24.899 165.225 25.0549 165.693 25.0549 166.251C25.0549 166.729 24.9247 167.158 24.6643 167.539C24.4068 167.917 24.0548 168.214 23.6085 168.432C23.1621 168.649 22.6542 168.758 22.0847 168.758Z" fill="black"/>
<path d="M18.9086 134.37V133.495L22.7715 127.383H23.4067V128.739H22.9775L20.0589 133.357V133.426H25.2609V134.37H18.9086ZM23.0462 136.173V134.104V133.697V127.383H24.0591V136.173H23.0462Z" fill="black"/>
<line x1="60.4324" y1="71.7917" x2="60.4324" y2="302.288" stroke="#BEBEBE" stroke-width="0.454218"/>
<line x1="189.914" y1="71.7917" x2="189.914" y2="302.288" stroke="#BEBEBE" stroke-width="0.454218"/>
<line x1="319.396" y1="71.7917" x2="319.396" y2="302.288" stroke="#BEBEBE" stroke-width="0.454218"/>
<line x1="103.593" y1="92.8018" x2="103.593" y2="302.288" stroke="#BEBEBE" stroke-width="0.454218"/>
<line x1="233.074" y1="71.7917" x2="233.074" y2="302.288" stroke="#BEBEBE" stroke-width="0.454218"/>
<line x1="362.556" y1="71.7917" x2="362.556" y2="302.288" stroke="#BEBEBE" stroke-width="0.454218"/>
<line x1="146.753" y1="71.7917" x2="146.753" y2="302.288" stroke="#BEBEBE" stroke-width="0.454218"/>
<line x1="276.235" y1="71.7917" x2="276.235" y2="302.288" stroke="#BEBEBE" stroke-width="0.454218"/>
<line x1="405.717" y1="71.7917" x2="405.717" y2="302.288" stroke="#BEBEBE" stroke-width="0.454218"/>
<line x1="35.1722" y1="282.863" x2="430.523" y2="282.863" stroke="#BEBEBE" stroke-width="0.454218"/>
<line x1="35.1722" y1="203.146" x2="430.523" y2="203.146" stroke="#BEBEBE" stroke-width="0.454218"/>
<line x1="35.1722" y1="243.005" x2="430.523" y2="243.005" stroke="#BEBEBE" stroke-width="0.454218"/>
<line x1="35.1722" y1="163.288" x2="430.523" y2="163.288" stroke="#BEBEBE" stroke-width="0.454218"/>
<line x1="35.1722" y1="128.589" x2="430.523" y2="128.589" stroke="#BEBEBE" stroke-width="0.454218"/>
<line x1="35.1722" y1="92.5746" x2="430.523" y2="92.5746" stroke="#BEBEBE" stroke-width="0.454218"/>
<path d="M274.301 350.23V349.236L278.033 345.151C278.471 344.672 278.832 344.257 279.116 343.903C279.399 343.546 279.609 343.211 279.745 342.898C279.885 342.582 279.955 342.251 279.955 341.905C279.955 341.507 279.859 341.163 279.668 340.872C279.48 340.581 279.222 340.357 278.895 340.199C278.567 340.04 278.199 339.961 277.791 339.961C277.356 339.961 276.977 340.051 276.653 340.232C276.333 340.408 276.085 340.657 275.908 340.977C275.735 341.297 275.648 341.673 275.648 342.103H274.345C274.345 341.441 274.498 340.859 274.804 340.359C275.109 339.858 275.525 339.468 276.051 339.188C276.581 338.909 277.176 338.769 277.835 338.769C278.497 338.769 279.084 338.909 279.596 339.188C280.107 339.468 280.509 339.845 280.799 340.32C281.09 340.795 281.236 341.323 281.236 341.905C281.236 342.32 281.16 342.727 281.009 343.125C280.862 343.519 280.604 343.958 280.236 344.444C279.872 344.926 279.366 345.515 278.718 346.211L276.178 348.927V349.016H281.434V350.23H274.301ZM287.403 350.385C286.571 350.385 285.862 350.158 285.277 349.706C284.692 349.249 284.245 348.589 283.935 347.724C283.626 346.855 283.472 345.806 283.472 344.577C283.472 343.355 283.626 342.311 283.935 341.446C284.248 340.578 284.697 339.915 285.282 339.459C285.871 338.999 286.578 338.769 287.403 338.769C288.227 338.769 288.932 338.999 289.517 339.459C290.106 339.915 290.555 340.578 290.864 341.446C291.177 342.311 291.334 343.355 291.334 344.577C291.334 345.806 291.179 346.855 290.87 347.724C290.561 348.589 290.113 349.249 289.528 349.706C288.943 350.158 288.234 350.385 287.403 350.385ZM287.403 349.17C288.227 349.17 288.867 348.773 289.324 347.978C289.78 347.183 290.008 346.049 290.008 344.577C290.008 343.598 289.904 342.764 289.694 342.076C289.488 341.387 289.19 340.863 288.799 340.502C288.413 340.142 287.947 339.961 287.403 339.961C286.585 339.961 285.947 340.364 285.487 341.17C285.027 341.973 284.797 343.108 284.797 344.577C284.797 345.556 284.9 346.388 285.106 347.072C285.312 347.757 285.608 348.278 285.995 348.635C286.385 348.992 286.854 349.17 287.403 349.17ZM293.431 350.23V349.236L297.164 345.151C297.602 344.672 297.962 344.257 298.246 343.903C298.529 343.546 298.739 343.211 298.875 342.898C299.015 342.582 299.085 342.251 299.085 341.905C299.085 341.507 298.989 341.163 298.798 340.872C298.61 340.581 298.353 340.357 298.025 340.199C297.697 340.04 297.329 339.961 296.921 339.961C296.486 339.961 296.107 340.051 295.783 340.232C295.463 340.408 295.215 340.657 295.038 340.977C294.865 341.297 294.779 341.673 294.779 342.103H293.476C293.476 341.441 293.628 340.859 293.934 340.359C294.239 339.858 294.655 339.468 295.182 339.188C295.712 338.909 296.306 338.769 296.965 338.769C297.627 338.769 298.214 338.909 298.726 339.188C299.238 339.468 299.639 339.845 299.93 340.32C300.22 340.795 300.366 341.323 300.366 341.905C300.366 342.32 300.29 342.727 300.139 343.125C299.992 343.519 299.735 343.958 299.367 344.444C299.002 344.926 298.496 345.515 297.848 346.211L295.309 348.927V349.016H300.565V350.23H293.431ZM302.845 350.23V349.236L306.577 345.151C307.015 344.672 307.376 344.257 307.659 343.903C307.942 343.546 308.152 343.211 308.288 342.898C308.428 342.582 308.498 342.251 308.498 341.905C308.498 341.507 308.403 341.163 308.211 340.872C308.023 340.581 307.766 340.357 307.438 340.199C307.111 340.04 306.743 339.961 306.334 339.961C305.9 339.961 305.521 340.051 305.197 340.232C304.876 340.408 304.628 340.657 304.451 340.977C304.278 341.297 304.192 341.673 304.192 342.103H302.889C302.889 341.441 303.042 340.859 303.347 340.359C303.653 339.858 304.069 339.468 304.595 339.188C305.125 338.909 305.719 338.769 306.378 338.769C307.041 338.769 307.628 338.909 308.139 339.188C308.651 339.468 309.052 339.845 309.343 340.32C309.634 340.795 309.779 341.323 309.779 341.905C309.779 342.32 309.704 342.727 309.553 343.125C309.406 343.519 309.148 343.958 308.78 344.444C308.415 344.926 307.909 345.515 307.262 346.211L304.722 348.927V349.016H309.978V350.23H302.845Z" fill="black"/>
<path d="M370.492 313.755H371.994L373.253 315.411L373.584 315.853L375.461 318.348H373.96L372.723 316.692L372.414 316.272L370.492 313.755ZM375.925 311.635C375.925 312.827 375.71 313.858 375.279 314.727C374.848 315.595 374.258 316.265 373.507 316.736C372.756 317.207 371.898 317.443 370.934 317.443C369.97 317.443 369.112 317.207 368.361 316.736C367.61 316.265 367.02 315.595 366.589 314.727C366.158 313.858 365.943 312.827 365.943 311.635C365.943 310.442 366.158 309.412 366.589 308.543C367.02 307.674 367.61 307.005 368.361 306.533C369.112 306.062 369.97 305.827 370.934 305.827C371.898 305.827 372.756 306.062 373.507 306.533C374.258 307.005 374.848 307.674 375.279 308.543C375.71 309.412 375.925 310.442 375.925 311.635ZM374.6 311.635C374.6 310.656 374.436 309.829 374.109 309.156C373.785 308.482 373.345 307.973 372.789 307.627C372.237 307.281 371.619 307.108 370.934 307.108C370.249 307.108 369.629 307.281 369.073 307.627C368.521 307.973 368.082 308.482 367.754 309.156C367.43 309.829 367.268 310.656 367.268 311.635C367.268 312.614 367.43 313.44 367.754 314.114C368.082 314.787 368.521 315.297 369.073 315.643C369.629 315.989 370.249 316.162 370.934 316.162C371.619 316.162 372.237 315.989 372.789 315.643C373.345 315.297 373.785 314.787 374.109 314.114C374.436 313.44 374.6 312.614 374.6 311.635ZM377.764 314.97V313.843L382.732 305.981H383.55V307.726H382.997L379.243 313.667V313.755H385.935V314.97H377.764ZM383.086 317.288V314.627V314.103V305.981H384.389V317.288H383.086Z" fill="black"/>
<path d="M21.8616 98.2642C21.3579 98.2642 20.9044 98.1641 20.5009 97.9638C20.0975 97.7635 19.7741 97.4888 19.5309 97.1397C19.2877 96.7906 19.1546 96.3929 19.1318 95.9465H20.1619C20.2019 96.3442 20.3822 96.6733 20.7027 96.9337C21.026 97.1912 21.4123 97.32 21.8616 97.32C22.2221 97.32 22.5426 97.2355 22.823 97.0667C23.1063 96.8979 23.328 96.6661 23.4883 96.3714C23.6514 96.0738 23.7329 95.7376 23.7329 95.3627C23.7329 94.9793 23.6485 94.6374 23.4797 94.3369C23.3137 94.0336 23.0848 93.7947 22.7929 93.6201C22.5011 93.4456 22.1677 93.3569 21.7929 93.354C21.5239 93.3512 21.2478 93.3926 20.9645 93.4785C20.6812 93.5615 20.448 93.6688 20.2649 93.8004L19.2691 93.6802L19.8013 89.3537H24.3682V90.298H20.6941L20.3851 92.8905H20.4366C20.6168 92.7474 20.8429 92.6286 21.1147 92.5342C21.3866 92.4398 21.6698 92.3926 21.9646 92.3926C22.5025 92.3926 22.9818 92.5213 23.4024 92.7789C23.8259 93.0335 24.1578 93.3826 24.3982 93.8262C24.6414 94.2697 24.763 94.7761 24.763 95.3456C24.763 95.9064 24.6371 96.4072 24.3853 96.8478C24.1364 97.2856 23.793 97.6318 23.3552 97.8865C22.9174 98.1383 22.4195 98.2642 21.8616 98.2642Z" fill="black"/>
<path d="M24.2352 288.472C23.5885 288.472 23.0377 288.296 22.5827 287.944C22.1278 287.589 21.7801 287.075 21.5397 286.403C21.2994 285.728 21.1792 284.912 21.1792 283.956C21.1792 283.006 21.2994 282.195 21.5397 281.523C21.783 280.847 22.1321 280.332 22.587 279.978C23.0449 279.62 23.5943 279.441 24.2352 279.441C24.8762 279.441 25.4241 279.62 25.8791 279.978C26.3369 280.332 26.686 280.847 26.9264 281.523C27.1696 282.195 27.2912 283.006 27.2912 283.956C27.2912 284.912 27.171 285.728 26.9307 286.403C26.6903 287.075 26.3427 287.589 25.8877 287.944C25.4327 288.296 24.8819 288.472 24.2352 288.472ZM24.2352 287.527C24.8762 287.527 25.3741 287.218 25.7289 286.6C26.0837 285.982 26.2611 285.101 26.2611 283.956C26.2611 283.195 26.1796 282.547 26.0165 282.012C25.8562 281.477 25.6244 281.069 25.3211 280.789C25.0207 280.508 24.6587 280.368 24.2352 280.368C23.6 280.368 23.1035 280.682 22.7458 281.308C22.3882 281.932 22.2093 282.815 22.2093 283.956C22.2093 284.718 22.2894 285.364 22.4497 285.896C22.6099 286.429 22.8403 286.834 23.1407 287.111C23.444 287.389 23.8089 287.527 24.2352 287.527Z" fill="black"/>
<path d="M267.478 213.449V224.756H266.109V214.884H266.042L263.282 216.717V215.326L266.109 213.449H267.478Z" fill="black"/>
<path d="M360.263 262.472C359.534 262.472 358.885 262.347 358.314 262.097C357.747 261.846 357.296 261.498 356.961 261.053C356.63 260.604 356.45 260.083 356.42 259.491H357.812C357.841 259.855 357.966 260.17 358.187 260.435C358.408 260.696 358.697 260.898 359.054 261.042C359.411 261.186 359.807 261.257 360.241 261.257C360.727 261.257 361.157 261.173 361.533 261.003C361.908 260.834 362.203 260.599 362.416 260.297C362.63 259.995 362.736 259.645 362.736 259.248C362.736 258.832 362.633 258.466 362.427 258.149C362.221 257.829 361.919 257.579 361.522 257.398C361.124 257.218 360.638 257.128 360.064 257.128H359.159V255.913H360.064C360.513 255.913 360.907 255.832 361.246 255.67C361.588 255.508 361.855 255.28 362.046 254.986C362.241 254.691 362.339 254.345 362.339 253.948C362.339 253.565 362.254 253.232 362.085 252.948C361.916 252.665 361.676 252.444 361.367 252.286C361.062 252.127 360.701 252.048 360.285 252.048C359.895 252.048 359.527 252.12 359.181 252.264C358.839 252.404 358.559 252.608 358.342 252.876C358.125 253.141 358.007 253.462 357.988 253.837H356.663C356.685 253.245 356.864 252.726 357.199 252.28C357.534 251.831 357.972 251.482 358.513 251.231C359.058 250.981 359.656 250.856 360.307 250.856C361.007 250.856 361.606 250.998 362.107 251.281C362.608 251.561 362.992 251.931 363.261 252.391C363.53 252.851 363.664 253.348 363.664 253.881C363.664 254.518 363.496 255.061 363.162 255.51C362.83 255.959 362.379 256.27 361.809 256.443V256.531C362.523 256.649 363.081 256.953 363.482 257.442C363.883 257.928 364.084 258.53 364.084 259.248C364.084 259.862 363.916 260.414 363.581 260.904C363.25 261.39 362.797 261.773 362.223 262.052C361.649 262.332 360.995 262.472 360.263 262.472Z" fill="black"/>
</svg>
