<svg width="388" height="248" viewBox="0 0 388 248" fill="none" xmlns="http://www.w3.org/2000/svg">
<rect x="0.374268" y="0.172363" width="182.909" height="40.5555" fill="#E9EAEE"/>
<rect x="204.459" y="0.172363" width="182.909" height="40.5555" fill="#E9EAEE"/>
<rect x="0.374268" y="44.1831" width="182.909" height="40.5555" fill="#E9EAEE"/>
<rect x="204.459" y="44.1831" width="182.909" height="40.5555" fill="#E9EAEE"/>
<rect x="0.374268" y="88.1943" width="182.909" height="40.5555" fill="#E9EAEE"/>
<rect x="204.459" y="88.1943" width="182.909" height="40.5555" fill="#E9EAEE"/>
<rect x="0.374268" y="131.695" width="182.909" height="40.5555" fill="#E9EAEE"/>
<rect x="204.459" y="131.695" width="182.909" height="40.5555" fill="#E9EAEE"/>
<rect x="0.374268" y="175.196" width="182.909" height="40.5555" fill="#E9EAEE"/>
<rect x="204.459" y="175.196" width="182.909" height="40.5555" fill="#E9EAEE"/>
<rect x="0.374268" y="37.686" width="182.909" height="3.04123" fill="#725CFA"/>
<rect x="204.459" y="37.686" width="182.909" height="3.04123" fill="#725CFA"/>
<rect x="0.374268" y="81.6978" width="182.909" height="3.04123" fill="#E86D46"/>
<rect x="204.459" y="81.6978" width="182.909" height="3.04123" fill="#E86D46"/>
<rect x="0.374268" y="125.708" width="182.909" height="3.04123" fill="#1AB5B5"/>
<rect x="204.459" y="125.708" width="182.909" height="3.04123" fill="#1AB5B5"/>
<rect x="0.374268" y="169.209" width="182.909" height="3.04123" fill="#FFDB59"/>
<rect x="204.459" y="169.209" width="182.909" height="3.04123" fill="#FFDB59"/>
<rect x="0.374268" y="212.71" width="182.909" height="3.04123" fill="#F9AD3D"/>
<rect x="204.459" y="212.71" width="182.909" height="3.04123" fill="#F9AD3D"/>
<path d="M92.4861 23.5068V17.5218H94.6195C95.0832 17.5218 95.4679 17.6017 95.7738 17.7614C96.0816 17.9212 96.3115 18.1423 96.4635 18.4248C96.6155 18.7054 96.6915 19.0298 96.6915 19.398C96.6915 19.7642 96.6145 20.0867 96.4606 20.3653C96.3086 20.6419 96.0787 20.8572 95.7709 21.0111C95.465 21.165 95.0802 21.242 94.6166 21.242H93.0005V20.4646H94.5347C94.827 20.4646 95.0647 20.4228 95.2478 20.339C95.4329 20.2552 95.5683 20.1334 95.654 19.9737C95.7397 19.8139 95.7826 19.622 95.7826 19.398C95.7826 19.172 95.7388 18.9762 95.6511 18.8106C95.5654 18.645 95.43 18.5183 95.2449 18.4307C95.0617 18.341 94.8211 18.2962 94.523 18.2962H93.3892V23.5068H92.4861ZM95.4407 20.8066L96.9194 23.5068H95.8907L94.4412 20.8066H95.4407ZM103.467 19.4681H102.555C102.52 19.2733 102.455 19.1018 102.36 18.9538C102.264 18.8057 102.147 18.68 102.009 18.5768C101.871 18.4735 101.716 18.3956 101.544 18.343C101.375 18.2904 101.195 18.2641 101.004 18.2641C100.659 18.2641 100.35 18.3508 100.077 18.5242C99.8064 18.6976 99.5921 18.9518 99.4343 19.2869C99.2784 19.622 99.2005 20.0312 99.2005 20.5143C99.2005 21.0014 99.2784 21.4125 99.4343 21.7476C99.5921 22.0827 99.8074 22.3359 100.08 22.5074C100.353 22.6788 100.66 22.7646 101.001 22.7646C101.19 22.7646 101.369 22.7392 101.538 22.6886C101.71 22.636 101.865 22.559 102.003 22.4577C102.141 22.3564 102.258 22.2327 102.354 22.0866C102.451 21.9385 102.518 21.769 102.555 21.5781L103.467 21.581C103.418 21.8752 103.324 22.146 103.184 22.3934C103.045 22.6389 102.867 22.8512 102.649 23.0305C102.433 23.2078 102.185 23.3451 101.907 23.4425C101.628 23.54 101.324 23.5887 100.995 23.5887C100.477 23.5887 100.015 23.4659 99.6096 23.2204C99.2044 22.973 98.8849 22.6194 98.6511 22.1596C98.4193 21.6998 98.3033 21.1514 98.3033 20.5143C98.3033 19.8753 98.4202 19.3269 98.654 18.869C98.8878 18.4092 99.2073 18.0566 99.6126 17.8111C100.018 17.5637 100.479 17.44 100.995 17.44C101.312 17.44 101.609 17.4858 101.883 17.5773C102.16 17.6669 102.408 17.7994 102.628 17.9748C102.849 18.1482 103.031 18.3605 103.175 18.6119C103.319 18.8612 103.417 19.1466 103.467 19.4681ZM108.518 19.094C108.487 18.8174 108.358 18.6031 108.132 18.4511C107.906 18.2972 107.622 18.2203 107.279 18.2203C107.033 18.2203 106.821 18.2592 106.642 18.3371C106.463 18.4131 106.323 18.5183 106.224 18.6528C106.126 18.7852 106.078 18.9362 106.078 19.1057C106.078 19.248 106.111 19.3707 106.177 19.474C106.245 19.5772 106.334 19.6639 106.443 19.734C106.554 19.8022 106.673 19.8597 106.8 19.9065C106.926 19.9513 107.048 19.9883 107.165 20.0175L107.749 20.1695C107.94 20.2162 108.136 20.2796 108.337 20.3594C108.537 20.4393 108.724 20.5445 108.895 20.6751C109.066 20.8056 109.205 20.9673 109.31 21.1602C109.417 21.353 109.471 21.5839 109.471 21.8528C109.471 22.1918 109.383 22.4928 109.208 22.7558C109.034 23.0188 108.782 23.2263 108.451 23.3783C108.121 23.5302 107.723 23.6062 107.256 23.6062C106.807 23.6062 106.42 23.5351 106.092 23.3929C105.765 23.2506 105.509 23.049 105.324 22.7879C105.139 22.5249 105.036 22.2132 105.017 21.8528H105.923C105.94 22.069 106.011 22.2492 106.133 22.3934C106.258 22.5356 106.417 22.6418 106.61 22.7119C106.804 22.7801 107.018 22.8142 107.25 22.8142C107.505 22.8142 107.732 22.7743 107.931 22.6944C108.131 22.6126 108.289 22.4996 108.404 22.3554C108.519 22.2093 108.576 22.0388 108.576 21.844C108.576 21.6667 108.526 21.5216 108.424 21.4086C108.325 21.2956 108.19 21.2021 108.018 21.128C107.849 21.054 107.657 20.9887 107.443 20.9322L106.735 20.7393C106.256 20.6088 105.876 20.4169 105.596 20.1636C105.317 19.9104 105.178 19.5753 105.178 19.1583C105.178 18.8135 105.271 18.5125 105.458 18.2553C105.645 17.9982 105.899 17.7985 106.218 17.6562C106.538 17.5121 106.898 17.44 107.299 17.44C107.705 17.44 108.062 17.5111 108.372 17.6533C108.684 17.7955 108.929 17.9913 109.108 18.2407C109.288 18.4881 109.381 18.7726 109.389 19.094H108.518ZM111.713 23.5068H110.755L112.908 17.5218H113.952L116.105 23.5068H115.147L113.455 18.6089H113.408L111.713 23.5068ZM111.874 21.1631H114.983V21.9229H111.874V21.1631Z" fill="black"/>
<path d="M77.0991 244V242.75L80.9654 238.745C81.3782 238.309 81.7186 237.928 81.9864 237.601C82.2579 237.27 82.4606 236.955 82.5945 236.658C82.7284 236.36 82.7953 236.044 82.7953 235.709C82.7953 235.33 82.7061 235.003 82.5275 234.728C82.349 234.449 82.1054 234.235 81.7967 234.086C81.488 233.933 81.1402 233.857 80.7534 233.857C80.3442 233.857 79.9872 233.941 79.6822 234.108C79.3772 234.276 79.1429 234.512 78.9792 234.817C78.8156 235.122 78.7338 235.479 78.7338 235.888H77.0879C77.0879 235.192 77.2479 234.584 77.5677 234.064C77.8876 233.543 78.3265 233.139 78.8844 232.853C79.4423 232.563 80.0765 232.418 80.7869 232.418C81.5047 232.418 82.137 232.561 82.6837 232.847C83.2342 233.13 83.6638 233.517 83.9725 234.008C84.2812 234.495 84.4356 235.046 84.4356 235.659C84.4356 236.083 84.3556 236.498 84.1957 236.903C84.0395 237.309 83.7661 237.761 83.3756 238.259C82.985 238.754 82.442 239.354 81.7465 240.061L79.4758 242.438V242.522H84.6197V244H77.0991ZM92.0598 244.19C91.1783 244.186 90.4251 243.954 89.8002 243.492C89.1754 243.031 88.6974 242.36 88.3664 241.478C88.0354 240.597 87.8699 239.535 87.8699 238.293C87.8699 237.054 88.0354 235.996 88.3664 235.118C88.7012 234.24 89.181 233.571 89.8058 233.11C90.4344 232.648 91.1857 232.418 92.0598 232.418C92.9338 232.418 93.6833 232.65 94.3081 233.115C94.933 233.576 95.4109 234.246 95.742 235.124C96.0767 235.998 96.2441 237.054 96.2441 238.293C96.2441 239.539 96.0786 240.602 95.7475 241.484C95.4165 242.362 94.9386 243.033 94.3137 243.498C93.6889 243.959 92.9375 244.19 92.0598 244.19ZM92.0598 242.7C92.8334 242.7 93.4378 242.323 93.873 241.568C94.3119 240.812 94.5313 239.721 94.5313 238.293C94.5313 237.344 94.4309 236.543 94.23 235.888C94.0329 235.23 93.7484 234.731 93.3764 234.393C93.0082 234.051 92.5693 233.88 92.0598 233.88C91.2899 233.88 90.6855 234.259 90.2466 235.018C89.8077 235.776 89.5864 236.868 89.5827 238.293C89.5827 239.245 89.6812 240.05 89.8783 240.708C90.0792 241.363 90.3637 241.859 90.7319 242.198C91.1002 242.533 91.5428 242.7 92.0598 242.7ZM99.571 244V242.75L103.437 238.745C103.85 238.309 104.19 237.928 104.458 237.601C104.73 237.27 104.932 236.955 105.066 236.658C105.2 236.36 105.267 236.044 105.267 235.709C105.267 235.33 105.178 235.003 104.999 234.728C104.821 234.449 104.577 234.235 104.269 234.086C103.96 233.933 103.612 233.857 103.225 233.857C102.816 233.857 102.459 233.941 102.154 234.108C101.849 234.276 101.615 234.512 101.451 234.817C101.287 235.122 101.206 235.479 101.206 235.888H99.5598C99.5598 235.192 99.7198 234.584 100.04 234.064C100.359 233.543 100.798 233.139 101.356 232.853C101.914 232.563 102.548 232.418 103.259 232.418C103.977 232.418 104.609 232.561 105.156 232.847C105.706 233.13 106.136 233.517 106.444 234.008C106.753 234.495 106.907 235.046 106.907 235.659C106.907 236.083 106.828 236.498 106.668 236.903C106.511 237.309 106.238 237.761 105.847 238.259C105.457 238.754 104.914 239.354 104.218 240.061L101.948 242.438V242.522H107.092V244H99.571ZM114.889 232.574V244H113.159V234.304H113.092L110.359 236.089V234.437L113.209 232.574H114.889Z" fill="black"/>
<path d="M278.099 244V242.75L281.965 238.745C282.378 238.309 282.719 237.928 282.986 237.601C283.258 237.27 283.461 236.955 283.594 236.658C283.728 236.36 283.795 236.044 283.795 235.709C283.795 235.33 283.706 235.003 283.528 234.728C283.349 234.449 283.105 234.235 282.797 234.086C282.488 233.933 282.14 233.857 281.753 233.857C281.344 233.857 280.987 233.941 280.682 234.108C280.377 234.276 280.143 234.512 279.979 234.817C279.816 235.122 279.734 235.479 279.734 235.888H278.088C278.088 235.192 278.248 234.584 278.568 234.064C278.888 233.543 279.326 233.139 279.884 232.853C280.442 232.563 281.076 232.418 281.787 232.418C282.505 232.418 283.137 232.561 283.684 232.847C284.234 233.13 284.664 233.517 284.973 234.008C285.281 234.495 285.436 235.046 285.436 235.659C285.436 236.083 285.356 236.498 285.196 236.903C285.039 237.309 284.766 237.761 284.376 238.259C283.985 238.754 283.442 239.354 282.746 240.061L280.476 242.438V242.522H285.62V244H278.099ZM293.06 244.19C292.178 244.186 291.425 243.954 290.8 243.492C290.175 243.031 289.697 242.36 289.366 241.478C289.035 240.597 288.87 239.535 288.87 238.293C288.87 237.054 289.035 235.996 289.366 235.118C289.701 234.24 290.181 233.571 290.806 233.11C291.434 232.648 292.186 232.418 293.06 232.418C293.934 232.418 294.683 232.65 295.308 233.115C295.933 233.576 296.411 234.246 296.742 235.124C297.077 235.998 297.244 237.054 297.244 238.293C297.244 239.539 297.079 240.602 296.748 241.484C296.417 242.362 295.939 243.033 295.314 243.498C294.689 243.959 293.938 244.19 293.06 244.19ZM293.06 242.7C293.833 242.7 294.438 242.323 294.873 241.568C295.312 240.812 295.531 239.721 295.531 238.293C295.531 237.344 295.431 236.543 295.23 235.888C295.033 235.23 294.748 234.731 294.376 234.393C294.008 234.051 293.569 233.88 293.06 233.88C292.29 233.88 291.685 234.259 291.247 235.018C290.808 235.776 290.586 236.868 290.583 238.293C290.583 239.245 290.681 240.05 290.878 240.708C291.079 241.363 291.364 241.859 291.732 242.198C292.1 242.533 292.543 242.7 293.06 242.7ZM300.571 244V242.75L304.437 238.745C304.85 238.309 305.19 237.928 305.458 237.601C305.73 237.27 305.932 236.955 306.066 236.658C306.2 236.36 306.267 236.044 306.267 235.709C306.267 235.33 306.178 235.003 305.999 234.728C305.821 234.449 305.577 234.235 305.269 234.086C304.96 233.933 304.612 233.857 304.225 233.857C303.816 233.857 303.459 233.941 303.154 234.108C302.849 234.276 302.615 234.512 302.451 234.817C302.287 235.122 302.206 235.479 302.206 235.888H300.56C300.56 235.192 300.72 234.584 301.04 234.064C301.359 233.543 301.798 233.139 302.356 232.853C302.914 232.563 303.548 232.418 304.259 232.418C304.977 232.418 305.609 232.561 306.156 232.847C306.706 233.13 307.136 233.517 307.444 234.008C307.753 234.495 307.907 235.046 307.907 235.659C307.907 236.083 307.828 236.498 307.668 236.903C307.511 237.309 307.238 237.761 306.847 238.259C306.457 238.754 305.914 239.354 305.218 240.061L302.948 242.438V242.522H308.092V244H300.571ZM311.554 244V242.75L315.42 238.745C315.833 238.309 316.173 237.928 316.441 237.601C316.713 237.27 316.915 236.955 317.049 236.658C317.183 236.36 317.25 236.044 317.25 235.709C317.25 235.33 317.161 235.003 316.982 234.728C316.804 234.449 316.56 234.235 316.251 234.086C315.943 233.933 315.595 233.857 315.208 233.857C314.799 233.857 314.442 233.941 314.137 234.108C313.832 234.276 313.598 234.512 313.434 234.817C313.27 235.122 313.188 235.479 313.188 235.888H311.543C311.543 235.192 311.703 234.584 312.022 234.064C312.342 233.543 312.781 233.139 313.339 232.853C313.897 232.563 314.531 232.418 315.242 232.418C315.959 232.418 316.592 232.561 317.138 232.847C317.689 233.13 318.118 233.517 318.427 234.008C318.736 234.495 318.89 235.046 318.89 235.659C318.89 236.083 318.81 236.498 318.65 236.903C318.494 237.309 318.221 237.761 317.83 238.259C317.44 238.754 316.897 239.354 316.201 240.061L313.93 242.438V242.522H319.074V244H311.554Z" fill="black"/>
<path d="M296.571 23.5068V17.5218H298.704C299.168 17.5218 299.553 17.6017 299.859 17.7614C300.166 17.9212 300.396 18.1423 300.548 18.4248C300.7 18.7054 300.776 19.0298 300.776 19.398C300.776 19.7642 300.699 20.0867 300.545 20.3653C300.393 20.6419 300.163 20.8572 299.856 21.0111C299.55 21.165 299.165 21.242 298.701 21.242H297.085V20.4646H298.619C298.912 20.4646 299.149 20.4228 299.333 20.339C299.518 20.2552 299.653 20.1334 299.739 19.9737C299.824 19.8139 299.867 19.622 299.867 19.398C299.867 19.172 299.823 18.9762 299.736 18.8106C299.65 18.645 299.515 18.5183 299.33 18.4307C299.146 18.341 298.906 18.2962 298.608 18.2962H297.474V23.5068H296.571ZM299.525 20.8066L301.004 23.5068H299.975L298.526 20.8066H299.525ZM307.552 19.4681H306.64C306.605 19.2733 306.54 19.1018 306.444 18.9538C306.349 18.8057 306.232 18.68 306.094 18.5768C305.955 18.4735 305.8 18.3956 305.629 18.343C305.459 18.2904 305.279 18.2641 305.088 18.2641C304.743 18.2641 304.435 18.3508 304.162 18.5242C303.891 18.6976 303.677 18.9518 303.519 19.2869C303.363 19.622 303.285 20.0312 303.285 20.5143C303.285 21.0014 303.363 21.4125 303.519 21.7476C303.677 22.0827 303.892 22.3359 304.165 22.5074C304.438 22.6788 304.744 22.7646 305.085 22.7646C305.274 22.7646 305.454 22.7392 305.623 22.6886C305.795 22.636 305.949 22.559 306.088 22.4577C306.226 22.3564 306.343 22.2327 306.438 22.0866C306.536 21.9385 306.603 21.769 306.64 21.5781L307.552 21.581C307.503 21.8752 307.409 22.146 307.268 22.3934C307.13 22.6389 306.952 22.8512 306.734 23.0305C306.517 23.2078 306.27 23.3451 305.991 23.4425C305.713 23.54 305.409 23.5887 305.08 23.5887C304.561 23.5887 304.1 23.4659 303.694 23.2204C303.289 22.973 302.97 22.6194 302.736 22.1596C302.504 21.6998 302.388 21.1514 302.388 20.5143C302.388 19.8753 302.505 19.3269 302.739 18.869C302.973 18.4092 303.292 18.0566 303.697 17.8111C304.103 17.5637 304.563 17.44 305.08 17.44C305.397 17.44 305.693 17.4858 305.968 17.5773C306.245 17.6669 306.493 17.7994 306.713 17.9748C306.933 18.1482 307.115 18.3605 307.26 18.6119C307.404 18.8612 307.501 19.1466 307.552 19.4681ZM312.603 19.094C312.572 18.8174 312.443 18.6031 312.217 18.4511C311.991 18.2972 311.706 18.2203 311.364 18.2203C311.118 18.2203 310.906 18.2592 310.727 18.3371C310.547 18.4131 310.408 18.5183 310.309 18.6528C310.211 18.7852 310.162 18.9362 310.162 19.1057C310.162 19.248 310.196 19.3707 310.262 19.474C310.33 19.5772 310.419 19.6639 310.528 19.734C310.639 19.8022 310.758 19.8597 310.884 19.9065C311.011 19.9513 311.133 19.9883 311.25 20.0175L311.834 20.1695C312.025 20.2162 312.221 20.2796 312.421 20.3594C312.622 20.4393 312.808 20.5445 312.98 20.6751C313.151 20.8056 313.289 20.9673 313.395 21.1602C313.502 21.353 313.555 21.5839 313.555 21.8528C313.555 22.1918 313.468 22.4928 313.292 22.7558C313.119 23.0188 312.867 23.2263 312.535 23.3783C312.206 23.5302 311.808 23.6062 311.34 23.6062C310.892 23.6062 310.504 23.5351 310.177 23.3929C309.85 23.2506 309.594 23.049 309.409 22.7879C309.223 22.5249 309.121 22.2132 309.102 21.8528H310.008C310.025 22.069 310.095 22.2492 310.218 22.3934C310.343 22.5356 310.501 22.6418 310.694 22.7119C310.889 22.7801 311.103 22.8142 311.334 22.8142C311.59 22.8142 311.817 22.7743 312.015 22.6944C312.216 22.6126 312.374 22.4996 312.489 22.3554C312.604 22.2093 312.661 22.0388 312.661 21.844C312.661 21.6667 312.61 21.5216 312.509 21.4086C312.41 21.2956 312.274 21.2021 312.103 21.128C311.933 21.054 311.742 20.9887 311.527 20.9322L310.82 20.7393C310.341 20.6088 309.961 20.4169 309.68 20.1636C309.402 19.9104 309.262 19.5753 309.262 19.1583C309.262 18.8135 309.356 18.5125 309.543 18.2553C309.73 17.9982 309.983 17.7985 310.303 17.6562C310.622 17.5121 310.983 17.44 311.384 17.44C311.789 17.44 312.147 17.5111 312.457 17.6533C312.768 17.7955 313.014 17.9913 313.193 18.2407C313.372 18.4881 313.466 18.7726 313.474 19.094H312.603ZM315.798 23.5068H314.839L316.993 17.5218H318.036L320.19 23.5068H319.232L317.54 18.6089H317.493L315.798 23.5068ZM315.958 21.1631H319.068V21.9229H315.958V21.1631Z" fill="black"/>
<path d="M107.103 68.0791V62.0941H108.006V64.9522H108.079L110.589 62.0941H111.726L109.312 64.7885L111.735 68.0791H110.648L108.713 65.4051L108.006 66.2175V68.0791H107.103ZM113.273 68.0791V62.0941H115.407C115.87 62.0941 116.255 62.1739 116.561 62.3337C116.869 62.4935 117.099 62.7146 117.251 62.9971C117.403 63.2776 117.479 63.602 117.479 63.9702C117.479 64.3365 117.402 64.6589 117.248 64.9375C117.096 65.2142 116.866 65.4295 116.558 65.5834C116.252 65.7373 115.868 65.8143 115.404 65.8143H113.788V65.0369H115.322C115.614 65.0369 115.852 64.995 116.035 64.9112C116.22 64.8275 116.356 64.7057 116.441 64.5459C116.527 64.3862 116.57 64.1943 116.57 63.9702C116.57 63.7442 116.526 63.5484 116.438 63.3828C116.353 63.2172 116.217 63.0906 116.032 63.0029C115.849 62.9133 115.608 62.8685 115.31 62.8685H114.176V68.0791H113.273ZM116.228 65.3788L117.707 68.0791H116.678L115.229 65.3788H116.228ZM120.187 62.0941V68.0791H119.284V62.0941H120.187Z" fill="black"/>
<path d="M311.187 68.0791V62.0941H312.09V64.9522H312.163L314.674 62.0941H315.81L313.397 64.7885L315.819 68.0791H314.732L312.798 65.4051L312.09 66.2175V68.0791H311.187ZM317.358 68.0791V62.0941H319.491C319.955 62.0941 320.34 62.1739 320.646 62.3337C320.954 62.4935 321.183 62.7146 321.335 62.9971C321.487 63.2776 321.563 63.602 321.563 63.9702C321.563 64.3365 321.486 64.6589 321.333 64.9375C321.181 65.2142 320.951 65.4295 320.643 65.5834C320.337 65.7373 319.952 65.8143 319.488 65.8143H317.872V65.0369H319.407C319.699 65.0369 319.937 64.995 320.12 64.9112C320.305 64.8275 320.44 64.7057 320.526 64.5459C320.612 64.3862 320.655 64.1943 320.655 63.9702C320.655 63.7442 320.611 63.5484 320.523 63.3828C320.437 63.2172 320.302 63.0906 320.117 63.0029C319.934 62.9133 319.693 62.8685 319.395 62.8685H318.261V68.0791H317.358ZM320.313 65.3788L321.791 68.0791H320.763L319.313 65.3788H320.313ZM324.271 62.0941V68.0791H323.368V62.0941H324.271Z" fill="black"/>
<path d="M107.103 112.162V106.177H108.006V109.035H108.079L110.589 106.177H111.726L109.312 108.872L111.735 112.162H110.648L108.713 109.488L108.006 110.301V112.162H107.103ZM113.273 112.162V106.177H115.407C115.87 106.177 116.255 106.257 116.561 106.417C116.869 106.576 117.099 106.798 117.251 107.08C117.403 107.361 117.479 107.685 117.479 108.053C117.479 108.42 117.402 108.742 117.248 109.021C117.096 109.297 116.866 109.512 116.558 109.666C116.252 109.82 115.868 109.897 115.404 109.897H113.788V109.12H115.322C115.614 109.12 115.852 109.078 116.035 108.994C116.22 108.91 116.356 108.789 116.441 108.629C116.527 108.469 116.57 108.277 116.57 108.053C116.57 107.827 116.526 107.631 116.438 107.466C116.353 107.3 116.217 107.174 116.032 107.086C115.849 106.996 115.608 106.952 115.31 106.952H114.176V112.162H113.273ZM116.228 109.462L117.707 112.162H116.678L115.229 109.462H116.228ZM120.187 106.177V112.162H119.284V106.177H120.187Z" fill="black"/>
<path d="M311.187 112.162V106.177H312.09V109.035H312.163L314.674 106.177H315.81L313.397 108.872L315.819 112.162H314.732L312.798 109.488L312.09 110.301V112.162H311.187ZM317.358 112.162V106.177H319.491C319.955 106.177 320.34 106.257 320.646 106.417C320.954 106.576 321.183 106.798 321.335 107.08C321.487 107.361 321.563 107.685 321.563 108.053C321.563 108.42 321.486 108.742 321.333 109.021C321.181 109.297 320.951 109.512 320.643 109.666C320.337 109.82 319.952 109.897 319.488 109.897H317.872V109.12H319.407C319.699 109.12 319.937 109.078 320.12 108.994C320.305 108.91 320.44 108.789 320.526 108.629C320.612 108.469 320.655 108.277 320.655 108.053C320.655 107.827 320.611 107.631 320.523 107.466C320.437 107.3 320.302 107.174 320.117 107.086C319.934 106.996 319.693 106.952 319.395 106.952H318.261V112.162H317.358ZM320.313 109.462L321.791 112.162H320.763L319.313 109.462H320.313ZM324.271 106.177V112.162H323.368V106.177H324.271Z" fill="black"/>
<path d="M103.516 155.734H101.578V149.749H103.577C104.164 149.749 104.667 149.869 105.088 150.109C105.509 150.346 105.831 150.688 106.055 151.135C106.281 151.579 106.394 152.112 106.394 152.733C106.394 153.357 106.28 153.892 106.052 154.34C105.826 154.788 105.499 155.133 105.07 155.375C104.642 155.615 104.124 155.734 103.516 155.734ZM102.481 154.945H103.466C103.922 154.945 104.301 154.86 104.603 154.688C104.905 154.515 105.131 154.264 105.281 153.937C105.431 153.608 105.506 153.207 105.506 152.733C105.506 152.264 105.431 151.865 105.281 151.538C105.133 151.211 104.912 150.962 104.618 150.793C104.323 150.623 103.958 150.538 103.522 150.538H102.481V154.945ZM108.223 149.749H109.319L111.224 154.402H111.295L113.2 149.749H114.296V155.734H113.437V151.403H113.381L111.616 155.726H110.903L109.138 151.4H109.082V155.734H108.223V149.749ZM116.02 150.527V149.749H120.652V150.527H118.784V155.734H117.884V150.527H116.02ZM122.381 155.734V149.749H123.284V154.957H125.996V155.734H122.381Z" fill="black"/>
<path d="M307.6 155.734H305.663V149.749H307.662C308.248 149.749 308.752 149.869 309.173 150.109C309.594 150.346 309.916 150.688 310.14 151.135C310.366 151.579 310.479 152.112 310.479 152.733C310.479 153.357 310.365 153.892 310.137 154.34C309.911 154.788 309.584 155.133 309.155 155.375C308.727 155.615 308.208 155.734 307.6 155.734ZM306.566 154.945H307.551C308.007 154.945 308.386 154.86 308.688 154.688C308.99 154.515 309.216 154.264 309.366 153.937C309.516 153.608 309.591 153.207 309.591 152.733C309.591 152.264 309.516 151.865 309.366 151.538C309.218 151.211 308.996 150.962 308.702 150.793C308.408 150.623 308.043 150.538 307.606 150.538H306.566V154.945ZM312.308 149.749H313.404L315.309 154.402H315.379L317.285 149.749H318.381V155.734H317.521V151.403H317.466L315.701 155.726H314.988L313.223 151.4H313.167V155.734H312.308V149.749ZM320.104 150.527V149.749H324.736V150.527H322.869V155.734H321.969V150.527H320.104ZM326.466 155.734V149.749H327.369V154.957H330.081V155.734H326.466Z" fill="black"/>
<path d="M113.214 195.268H112.303C112.267 195.074 112.202 194.902 112.107 194.754C112.011 194.606 111.894 194.48 111.756 194.377C111.618 194.274 111.463 194.196 111.291 194.143C111.122 194.091 110.942 194.064 110.751 194.064C110.406 194.064 110.097 194.151 109.824 194.324C109.554 194.498 109.339 194.752 109.181 195.087C109.026 195.422 108.948 195.831 108.948 196.315C108.948 196.802 109.026 197.213 109.181 197.548C109.339 197.883 109.554 198.136 109.827 198.308C110.1 198.479 110.407 198.565 110.748 198.565C110.937 198.565 111.116 198.54 111.286 198.489C111.457 198.436 111.612 198.359 111.75 198.258C111.888 198.157 112.005 198.033 112.101 197.887C112.198 197.739 112.265 197.569 112.303 197.378L113.214 197.381C113.166 197.675 113.071 197.946 112.931 198.194C112.792 198.439 112.614 198.652 112.396 198.831C112.18 199.008 111.932 199.145 111.654 199.243C111.375 199.34 111.071 199.389 110.742 199.389C110.224 199.389 109.762 199.266 109.357 199.021C108.952 198.773 108.632 198.42 108.398 197.96C108.166 197.5 108.05 196.952 108.05 196.315C108.05 195.676 108.167 195.127 108.401 194.669C108.635 194.21 108.954 193.857 109.36 193.611C109.765 193.364 110.226 193.24 110.742 193.24C111.06 193.24 111.356 193.286 111.63 193.378C111.907 193.467 112.155 193.6 112.376 193.775C112.596 193.948 112.778 194.161 112.922 194.412C113.066 194.662 113.164 194.947 113.214 195.268ZM114.706 194.099V193.322H119.338V194.099H117.47V199.307H116.57V194.099H114.706Z" fill="black"/>
<path d="M317.299 195.268H316.387C316.352 195.074 316.287 194.902 316.191 194.754C316.096 194.606 315.979 194.48 315.841 194.377C315.702 194.274 315.547 194.196 315.376 194.143C315.206 194.091 315.026 194.064 314.835 194.064C314.49 194.064 314.182 194.151 313.909 194.324C313.638 194.498 313.424 194.752 313.266 195.087C313.11 195.422 313.032 195.831 313.032 196.315C313.032 196.802 313.11 197.213 313.266 197.548C313.424 197.883 313.639 198.136 313.912 198.308C314.185 198.479 314.491 198.565 314.832 198.565C315.021 198.565 315.201 198.54 315.37 198.489C315.542 198.436 315.696 198.359 315.835 198.258C315.973 198.157 316.09 198.033 316.185 197.887C316.283 197.739 316.35 197.569 316.387 197.378L317.299 197.381C317.25 197.675 317.156 197.946 317.015 198.194C316.877 198.439 316.699 198.652 316.481 198.831C316.264 199.008 316.017 199.145 315.738 199.243C315.46 199.34 315.156 199.389 314.827 199.389C314.308 199.389 313.847 199.266 313.441 199.021C313.036 198.773 312.717 198.42 312.483 197.96C312.251 197.5 312.135 196.952 312.135 196.315C312.135 195.676 312.252 195.127 312.486 194.669C312.72 194.21 313.039 193.857 313.444 193.611C313.849 193.364 314.31 193.24 314.827 193.24C315.144 193.24 315.44 193.286 315.715 193.378C315.992 193.467 316.24 193.6 316.46 193.775C316.68 193.948 316.862 194.161 317.007 194.412C317.151 194.662 317.248 194.947 317.299 195.268ZM318.79 194.099V193.322H323.422V194.099H321.555V199.307H320.655V194.099H318.79Z" fill="black"/>
<path d="M54.9256 14.5357V27.6323H52.1566V17.1639H52.0799L49.0807 19.044V16.5884L52.3229 14.5357H54.9256ZM63.1734 27.9201C62.0735 27.9158 61.127 27.6451 60.3341 27.1079C59.5454 26.5708 58.9378 25.7927 58.5115 24.7738C58.0895 23.7549 57.8806 22.5292 57.8848 21.0968C57.8848 19.6686 58.0959 18.4514 58.5179 17.4453C58.9442 16.4392 59.5517 15.6739 60.3404 15.1496C61.1334 14.6209 62.0777 14.3566 63.1734 14.3566C64.269 14.3566 65.2112 14.6209 65.9999 15.1496C66.7929 15.6782 67.4025 16.4456 67.8288 17.4517C68.2551 18.4536 68.4662 19.6686 68.4619 21.0968C68.4619 22.5335 68.2487 23.7613 67.8224 24.7802C67.4004 25.7991 66.795 26.5772 66.0063 27.1143C65.2176 27.6515 64.2733 27.9201 63.1734 27.9201ZM63.1734 25.6243C63.9237 25.6243 64.5227 25.247 64.9703 24.4925C65.418 23.7379 65.6396 22.606 65.6354 21.0968C65.6354 20.1034 65.5331 19.2764 65.3284 18.6156C65.1281 17.9548 64.8424 17.4581 64.4715 17.1256C64.1049 16.793 63.6722 16.6268 63.1734 16.6268C62.4273 16.6268 61.8304 16.9998 61.3828 17.7459C60.9352 18.4919 60.7092 19.6089 60.705 21.0968C60.705 22.1029 60.8051 22.9428 61.0055 23.6164C61.2101 24.2857 61.4979 24.7887 61.8688 25.1255C62.2397 25.4581 62.6746 25.6243 63.1734 25.6243Z" fill="black"/>
<path d="M259.01 14.5357V27.6323H256.241V17.1639H256.165L253.165 19.044V16.5884L256.408 14.5357H259.01ZM267.258 27.9201C266.158 27.9158 265.212 27.6451 264.419 27.1079C263.63 26.5708 263.023 25.7927 262.596 24.7738C262.174 23.7549 261.965 22.5292 261.97 21.0968C261.97 19.6686 262.181 18.4514 262.603 17.4453C263.029 16.4392 263.636 15.6739 264.425 15.1496C265.218 14.6209 266.162 14.3566 267.258 14.3566C268.354 14.3566 269.296 14.6209 270.085 15.1496C270.878 15.6782 271.487 16.4456 271.914 17.4517C272.34 18.4536 272.551 19.6686 272.547 21.0968C272.547 22.5335 272.333 23.7613 271.907 24.7802C271.485 25.7991 270.88 26.5772 270.091 27.1143C269.302 27.6515 268.358 27.9201 267.258 27.9201ZM267.258 25.6243C268.008 25.6243 268.607 25.247 269.055 24.4925C269.503 23.7379 269.724 22.606 269.72 21.0968C269.72 20.1034 269.618 19.2764 269.413 18.6156C269.213 17.9548 268.927 17.4581 268.556 17.1256C268.19 16.793 267.757 16.6268 267.258 16.6268C266.512 16.6268 265.915 16.9998 265.468 17.7459C265.02 18.4919 264.794 19.6089 264.79 21.0968C264.79 22.1029 264.89 22.9428 265.09 23.6164C265.295 24.2857 265.583 24.7887 265.954 25.1255C266.324 25.4581 266.759 25.6243 267.258 25.6243Z" fill="black"/>
<path d="M58.7377 72.2396C57.7828 72.2396 56.9323 72.0755 56.1862 71.7472C55.4444 71.4147 54.8582 70.9585 54.4276 70.3787C54.0013 69.7946 53.7817 69.121 53.7689 68.3579H56.5571C56.5741 68.6777 56.6786 68.959 56.8704 69.202C57.0665 69.4408 57.3266 69.6262 57.6506 69.7584C57.9746 69.8906 58.3391 69.9566 58.7441 69.9566C59.1662 69.9566 59.5392 69.882 59.8632 69.7328C60.1872 69.5836 60.4409 69.3768 60.6242 69.1125C60.8075 68.8482 60.8992 68.5434 60.8992 68.1981C60.8992 67.8485 60.8011 67.5394 60.605 67.2708C60.4132 66.998 60.1361 66.7848 59.7737 66.6313C59.4156 66.4778 58.9893 66.4011 58.4947 66.4011H57.2733V64.3675H58.4947C58.9125 64.3675 59.2813 64.2951 59.601 64.1501C59.925 64.0052 60.1766 63.8048 60.3556 63.549C60.5347 63.2889 60.6242 62.9862 60.6242 62.6409C60.6242 62.3127 60.5453 62.0249 60.3876 61.7776C60.2341 61.5261 60.0167 61.33 59.7353 61.1893C59.4582 61.0486 59.1342 60.9783 58.7633 60.9783C58.3881 60.9783 58.045 61.0465 57.7337 61.1829C57.4225 61.3151 57.1731 61.5048 56.9855 61.752C56.798 61.9993 56.6978 62.2892 56.685 62.6217H54.0311C54.0439 61.8671 54.2592 61.2021 54.677 60.6265C55.0948 60.051 55.6575 59.6012 56.3652 59.2772C57.0772 58.949 57.8808 58.7848 58.7761 58.7848C59.6799 58.7848 60.4707 58.949 61.1486 59.2772C61.8264 59.6055 62.353 60.0489 62.7281 60.6074C63.1076 61.1616 63.2951 61.784 63.2909 62.4747C63.2951 63.2079 63.0671 63.8197 62.6066 64.31C62.1505 64.8003 61.5557 65.1115 60.8225 65.2436V65.3459C61.7859 65.4696 62.5192 65.8042 63.0223 66.3499C63.5296 66.8914 63.7811 67.5692 63.7769 68.3835C63.7811 69.1296 63.5658 69.7925 63.131 70.3723C62.7004 70.9521 62.1057 71.4083 61.3468 71.7408C60.588 72.0733 59.7183 72.2396 58.7377 72.2396Z" fill="black"/>
<path d="M262.822 72.2396C261.867 72.2396 261.017 72.0755 260.271 71.7472C259.529 71.4147 258.943 70.9585 258.512 70.3787C258.086 69.7946 257.866 69.121 257.854 68.3579H260.642C260.659 68.6777 260.763 68.959 260.955 69.202C261.151 69.4408 261.411 69.6262 261.735 69.7584C262.059 69.8906 262.424 69.9566 262.829 69.9566C263.251 69.9566 263.624 69.882 263.948 69.7328C264.272 69.5836 264.526 69.3768 264.709 69.1125C264.892 68.8482 264.984 68.5434 264.984 68.1981C264.984 67.8485 264.886 67.5394 264.69 67.2708C264.498 66.998 264.221 66.7848 263.858 66.6313C263.5 66.4778 263.074 66.4011 262.579 66.4011H261.358V64.3675H262.579C262.997 64.3675 263.366 64.2951 263.686 64.1501C264.01 64.0052 264.261 63.8048 264.44 63.549C264.619 63.2889 264.709 62.9862 264.709 62.6409C264.709 62.3127 264.63 62.0249 264.472 61.7776C264.319 61.5261 264.101 61.33 263.82 61.1893C263.543 61.0486 263.219 60.9783 262.848 60.9783C262.473 60.9783 262.13 61.0465 261.818 61.1829C261.507 61.3151 261.258 61.5048 261.07 61.752C260.883 61.9993 260.782 62.2892 260.77 62.6217H258.116C258.129 61.8671 258.344 61.2021 258.762 60.6265C259.18 60.051 259.742 59.6012 260.45 59.2772C261.162 58.949 261.966 58.7848 262.861 58.7848C263.765 58.7848 264.555 58.949 265.233 59.2772C265.911 59.6055 266.438 60.0489 266.813 60.6074C267.192 61.1616 267.38 61.784 267.376 62.4747C267.38 63.2079 267.152 63.8197 266.691 64.31C266.235 64.8003 265.64 65.1115 264.907 65.2436V65.3459C265.871 65.4696 266.604 65.8042 267.107 66.3499C267.614 66.8914 267.866 67.5692 267.862 68.3835C267.866 69.1296 267.651 69.7925 267.216 70.3723C266.785 70.9521 266.19 71.4083 265.432 71.7408C264.673 72.0733 263.803 72.2396 262.822 72.2396Z" fill="black"/>
<path d="M58.8121 116.323C57.9083 116.323 57.1025 116.156 56.3948 115.824C55.6914 115.491 55.1329 115.033 54.7194 114.449C54.3058 113.865 54.0905 113.196 54.0735 112.441H56.7593C56.7892 112.948 57.0023 113.36 57.3988 113.675C57.7953 113.991 58.2664 114.148 58.8121 114.148C59.2469 114.148 59.6306 114.052 59.9631 113.861C60.2999 113.664 60.5621 113.394 60.7497 113.048C60.9416 112.699 61.0375 112.298 61.0375 111.846C61.0375 111.386 60.9394 110.981 60.7433 110.631C60.5515 110.282 60.285 110.009 59.944 109.813C59.6029 109.617 59.2128 109.516 58.7737 109.512C58.39 109.512 58.017 109.591 57.6546 109.749C57.2965 109.906 57.0173 110.122 56.8169 110.395L54.3549 109.953L54.9752 103.047H62.9815V105.311H57.2581L56.9192 108.591H56.9959C57.2262 108.267 57.5736 107.999 58.0383 107.785C58.503 107.572 59.0231 107.466 59.5986 107.466C60.3873 107.466 61.0908 107.651 61.7089 108.022C62.3271 108.393 62.8153 108.902 63.1734 109.55C63.5315 110.194 63.7084 110.936 63.7041 111.776C63.7084 112.658 63.5038 113.443 63.0902 114.129C62.681 114.811 62.1076 115.348 61.37 115.741C60.6367 116.129 59.7841 116.323 58.8121 116.323Z" fill="black"/>
<path d="M262.897 116.323C261.993 116.323 261.187 116.156 260.48 115.824C259.776 115.491 259.218 115.033 258.804 114.449C258.391 113.865 258.175 113.196 258.158 112.441H260.844C260.874 112.948 261.087 113.36 261.484 113.675C261.88 113.991 262.351 114.148 262.897 114.148C263.332 114.148 263.715 114.052 264.048 113.861C264.385 113.664 264.647 113.394 264.834 113.048C265.026 112.699 265.122 112.298 265.122 111.846C265.122 111.386 265.024 110.981 264.828 110.631C264.636 110.282 264.37 110.009 264.029 109.813C263.688 109.617 263.298 109.516 262.858 109.512C262.475 109.512 262.102 109.591 261.739 109.749C261.381 109.906 261.102 110.122 260.902 110.395L258.44 109.953L259.06 103.047H267.066V105.311H261.343L261.004 108.591H261.081C261.311 108.267 261.658 107.999 262.123 107.785C262.588 107.572 263.108 107.466 263.683 107.466C264.472 107.466 265.175 107.651 265.794 108.022C266.412 108.393 266.9 108.902 267.258 109.55C267.616 110.194 267.793 110.936 267.789 111.776C267.793 112.658 267.588 113.443 267.175 114.129C266.766 114.811 266.192 115.348 265.455 115.741C264.721 116.129 263.869 116.323 262.897 116.323Z" fill="black"/>
<path d="M54.9951 159.716L60.4244 148.972V148.883H54.0999V146.619H63.2893V148.915L57.8536 159.716H54.9951Z" fill="black"/>
<path d="M259.08 159.716L264.509 148.972V148.883H258.185V146.619H267.374V148.915L261.938 159.716H259.08Z" fill="black"/>
<path d="M61.1246 190.192V203.289H58.3556V192.82H58.2789L55.2797 194.7V192.245L58.5219 190.192H61.1246Z" fill="black"/>
<path d="M265.209 190.192V203.289H262.44V192.82H262.364L259.364 194.7V192.245L262.607 190.192H265.209Z" fill="black"/>
</svg>
