<svg width="448" height="449" viewBox="0 0 448 449" fill="none" xmlns="http://www.w3.org/2000/svg">
<mask id="mask0_1865_29948" style="mask-type:alpha" maskUnits="userSpaceOnUse" x="70" y="70" width="308" height="156">
<path d="M70.2671 225.431C70.1157 205.122 73.9869 184.985 81.6575 166.18C89.328 147.376 100.646 130.276 114.959 115.868C129.271 101.459 146.295 90.0274 165.048 82.2316C183.801 74.4358 203.912 70.4304 224.221 70.4463C244.53 70.4623 264.635 74.4994 283.376 82.3246C302.117 90.1499 319.123 101.608 333.413 116.039C347.703 130.47 358.994 147.588 366.635 166.404C374.276 185.221 378.115 205.365 377.932 225.673L347.166 225.395C347.312 209.148 344.241 193.034 338.128 177.98C332.015 162.927 322.982 149.233 311.55 137.688C300.118 126.144 286.513 116.977 271.521 110.716C256.528 104.456 240.444 101.227 224.197 101.214C207.95 101.201 191.861 104.405 176.859 110.642C161.856 116.879 148.237 126.024 136.787 137.551C125.337 149.078 116.283 162.757 110.146 177.801C104.01 192.845 100.913 208.955 101.034 225.201L70.2671 225.431Z" fill="white"/>
</mask>
<g mask="url(#mask0_1865_29948)">
<circle opacity="0.6" cx="224.1" cy="224.284" r="144.474" stroke="black" stroke-opacity="0.6" stroke-width="5.35087" stroke-dasharray="1.34 13.38"/>
<circle cx="224.1" cy="224.284" r="141.798" stroke="black" stroke-opacity="0.6" stroke-width="10.7017" stroke-dasharray="2.68 53.51"/>
</g>
<mask id="path-4-outside-1_1865_29948" maskUnits="userSpaceOnUse" x="55.5736" y="55.7566" width="338" height="179" fill="black">
<rect fill="white" x="55.5736" y="55.7566" width="338" height="179"/>
<path d="M63.58 225.714C63.391 204.516 67.4027 183.49 75.3834 163.85C83.3641 144.211 95.1559 126.346 110.078 111.289C125 96.2309 142.757 84.2779 162.323 76.1197C181.89 67.9614 202.878 63.7595 224.078 63.7566C245.277 63.7536 266.266 67.9497 285.835 76.1025C305.404 84.2553 323.164 96.2033 338.09 111.257C353.017 126.311 364.813 144.172 372.8 163.809C380.786 183.446 384.803 204.471 384.62 225.669L378.199 225.614C378.375 205.263 374.518 185.08 366.852 166.228C359.185 147.376 347.86 130.229 333.531 115.778C319.202 101.327 302.152 89.8564 283.366 82.0297C264.58 74.203 244.43 70.1748 224.078 70.1776C203.727 70.1805 183.578 74.2143 164.794 82.0462C146.011 89.8781 128.964 101.353 114.639 115.808C100.314 130.264 88.9936 147.414 81.3321 166.268C73.6705 185.122 69.8193 205.306 70.0008 225.657L63.58 225.714Z"/>
</mask>
<path d="M63.58 225.714C63.391 204.516 67.4027 183.49 75.3834 163.85C83.3641 144.211 95.1559 126.346 110.078 111.289C125 96.2309 142.757 84.2779 162.323 76.1197C181.89 67.9614 202.878 63.7595 224.078 63.7566C245.277 63.7536 266.266 67.9497 285.835 76.1025C305.404 84.2553 323.164 96.2033 338.09 111.257C353.017 126.311 364.813 144.172 372.8 163.809C380.786 183.446 384.803 204.471 384.62 225.669L378.199 225.614C378.375 205.263 374.518 185.08 366.852 166.228C359.185 147.376 347.86 130.229 333.531 115.778C319.202 101.327 302.152 89.8564 283.366 82.0297C264.58 74.203 244.43 70.1748 224.078 70.1776C203.727 70.1805 183.578 74.2143 164.794 82.0462C146.011 89.8781 128.964 101.353 114.639 115.808C100.314 130.264 88.9936 147.414 81.3321 166.268C73.6705 185.122 69.8193 205.306 70.0008 225.657L63.58 225.714Z" fill="url(#paint0_linear_1865_29948)"/>
<path d="M63.58 225.714C63.391 204.516 67.4027 183.49 75.3834 163.85C83.3641 144.211 95.1559 126.346 110.078 111.289C125 96.2309 142.757 84.2779 162.323 76.1197C181.89 67.9614 202.878 63.7595 224.078 63.7566C245.277 63.7536 266.266 67.9497 285.835 76.1025C305.404 84.2553 323.164 96.2033 338.09 111.257C353.017 126.311 364.813 144.172 372.8 163.809C380.786 183.446 384.803 204.471 384.62 225.669L378.199 225.614C378.375 205.263 374.518 185.08 366.852 166.228C359.185 147.376 347.86 130.229 333.531 115.778C319.202 101.327 302.152 89.8564 283.366 82.0297C264.58 74.203 244.43 70.1748 224.078 70.1776C203.727 70.1805 183.578 74.2143 164.794 82.0462C146.011 89.8781 128.964 101.353 114.639 115.808C100.314 130.264 88.9936 147.414 81.3321 166.268C73.6705 185.122 69.8193 205.306 70.0008 225.657L63.58 225.714Z" stroke="white" stroke-width="16" mask="url(#path-4-outside-1_1865_29948)"/>
<path d="M298.613 130.429L312.722 125.464L308.228 139.73L298.613 130.429Z" fill="#36F097"/>
<circle cx="336.476" cy="111.677" r="9.73163" fill="#F76431"/>
<circle cx="336.476" cy="111.677" r="5.03072" fill="white"/>
<path d="M223.817 51.2154C222.543 51.2154 221.408 50.9968 220.411 50.5594C219.421 50.1221 218.633 49.5143 218.048 48.7361C217.469 47.9515 217.154 47.0415 217.103 46.006H219.534C219.585 46.6427 219.804 47.1926 220.19 47.6557C220.575 48.1123 221.08 48.466 221.704 48.7169C222.328 48.9677 223.019 49.0931 223.778 49.0931C224.627 49.0931 225.38 48.9452 226.036 48.6493C226.692 48.3535 227.206 47.9419 227.579 47.4145C227.952 46.8871 228.139 46.2762 228.139 45.5816C228.139 44.8548 227.959 44.2149 227.598 43.6618C227.238 43.1023 226.711 42.665 226.016 42.3498C225.322 42.0347 224.473 41.8771 223.47 41.8771H221.887V39.7548H223.47C224.254 39.7548 224.942 39.6133 225.534 39.3303C226.132 39.0473 226.598 38.6486 226.933 38.1341C227.274 37.6196 227.444 37.015 227.444 36.3204C227.444 35.6516 227.296 35.0695 227 34.5743C226.705 34.0791 226.286 33.6932 225.746 33.4167C225.212 33.1401 224.582 33.0019 223.855 33.0019C223.174 33.0019 222.531 33.1273 221.926 33.3781C221.328 33.6225 220.839 33.9794 220.46 34.4489C220.08 34.912 219.874 35.4715 219.842 36.1275H217.527C217.566 35.0921 217.878 34.1852 218.463 33.407C219.048 32.6224 219.813 32.0114 220.759 31.5741C221.711 31.1368 222.756 30.9181 223.894 30.9181C225.116 30.9181 226.164 31.1657 227.039 31.6609C227.914 32.1497 228.586 32.7961 229.055 33.6C229.525 34.4039 229.759 35.2721 229.759 36.2047C229.759 37.3173 229.467 38.2659 228.882 39.0505C228.303 39.8352 227.515 40.3786 226.518 40.6809V40.8352C227.766 41.041 228.74 41.5716 229.441 42.427C230.142 43.2759 230.493 44.3275 230.493 45.5816C230.493 46.6556 230.2 47.6203 229.615 48.4757C229.036 49.3246 228.245 49.9935 227.242 50.4823C226.238 50.971 225.097 51.2154 223.817 51.2154Z" fill="#005155"/>
<path d="M408.2 228.215C407.068 228.215 406.049 227.99 405.142 227.54C404.235 227.09 403.508 226.473 402.962 225.688C402.415 224.903 402.116 224.009 402.064 223.006H404.38C404.47 223.9 404.875 224.64 405.595 225.225C406.322 225.804 407.19 226.093 408.2 226.093C409.01 226.093 409.731 225.903 410.361 225.524C410.998 225.144 411.496 224.624 411.856 223.961C412.223 223.292 412.406 222.537 412.406 221.694C412.406 220.832 412.216 220.064 411.837 219.388C411.464 218.707 410.949 218.17 410.293 217.777C409.637 217.385 408.888 217.186 408.046 217.179C407.441 217.173 406.82 217.266 406.184 217.459C405.547 217.646 405.023 217.887 404.611 218.183L402.373 217.912L403.569 208.188H413.834V210.311H405.576L404.881 216.137H404.997C405.402 215.816 405.91 215.549 406.521 215.337C407.132 215.124 407.769 215.018 408.431 215.018C409.641 215.018 410.718 215.308 411.663 215.887C412.615 216.459 413.361 217.244 413.901 218.24C414.448 219.237 414.721 220.376 414.721 221.655C414.721 222.916 414.438 224.041 413.872 225.032C413.313 226.016 412.541 226.794 411.557 227.366C410.573 227.932 409.454 228.215 408.2 228.215Z" fill="#005155"/>
<path d="M41.1737 208.188V227.945H38.7813V210.696H38.6655L33.842 213.899V211.468L38.7813 208.188H41.1737Z" fill="#005155"/>
<path d="M352.612 98.8936V96.9256L361.294 83.1882H362.722V86.2367H361.757L355.197 96.6169V96.7712H366.889V98.8936H352.612ZM361.912 102.945V98.2955V97.379V83.1882H364.188V102.945H361.912Z" fill="#005155"/>
<path d="M206.109 171.028V166.376L226.631 133.906H230.006V141.111H227.725L212.22 165.646V166.011H239.856V171.028H206.109ZM228.09 180.604V169.614V167.448V133.906H233.471V180.604H228.09Z" fill="#005155"/>
<path d="M145.058 208.598H147.026L151.655 219.904H151.815L156.443 208.598H158.412V222.219H156.869V211.87H156.736L152.48 222.219H150.99L146.733 211.87H146.6V222.219H145.058V208.598ZM161.719 222.219V208.598H169.939V210.061H163.368V214.663H169.513V216.127H163.368V220.755H170.045V222.219H161.719ZM177.115 222.219H172.912V208.598H177.301C178.623 208.598 179.753 208.871 180.693 209.416C181.633 209.957 182.354 210.735 182.855 211.75C183.356 212.761 183.606 213.972 183.606 215.382C183.606 216.8 183.353 218.022 182.848 219.046C182.342 220.066 181.606 220.851 180.64 221.4C179.673 221.946 178.498 222.219 177.115 222.219ZM174.561 220.755H177.009C178.135 220.755 179.068 220.538 179.809 220.104C180.549 219.669 181.101 219.051 181.465 218.248C181.828 217.446 182.01 216.49 182.01 215.382C182.01 214.282 181.83 213.336 181.471 212.542C181.112 211.744 180.576 211.132 179.862 210.706C179.148 210.276 178.259 210.061 177.195 210.061H174.561V220.755ZM188.022 208.598V222.219H186.373V208.598H188.022ZM200.267 208.598H201.917V217.616C201.917 218.547 201.697 219.379 201.258 220.11C200.824 220.837 200.21 221.412 199.416 221.833C198.623 222.25 197.691 222.458 196.623 222.458C195.554 222.458 194.623 222.25 193.83 221.833C193.036 221.412 192.42 220.837 191.981 220.11C191.546 219.379 191.329 218.547 191.329 217.616V208.598H192.978V217.483C192.978 218.148 193.125 218.74 193.417 219.259C193.71 219.773 194.127 220.179 194.668 220.476C195.213 220.769 195.865 220.915 196.623 220.915C197.381 220.915 198.033 220.769 198.578 220.476C199.124 220.179 199.54 219.773 199.828 219.259C200.121 218.74 200.267 218.148 200.267 217.483V208.598ZM205.21 208.598H207.179L211.808 219.904H211.967L216.596 208.598H218.565V222.219H217.022V211.87H216.889L212.633 222.219H211.143L206.886 211.87H206.753V222.219H205.21V208.598ZM226.394 210.061V208.598H236.61V210.061H232.327V222.219H230.677V210.061H226.394ZM250.08 215.408C250.08 216.845 249.821 218.086 249.302 219.133C248.783 220.179 248.072 220.986 247.167 221.553C246.263 222.121 245.23 222.405 244.068 222.405C242.907 222.405 241.874 222.121 240.969 221.553C240.065 220.986 239.353 220.179 238.834 219.133C238.315 218.086 238.056 216.845 238.056 215.408C238.056 213.972 238.315 212.73 238.834 211.684C239.353 210.638 240.065 209.831 240.969 209.263C241.874 208.696 242.907 208.412 244.068 208.412C245.23 208.412 246.263 208.696 247.167 209.263C248.072 209.831 248.783 210.638 249.302 211.684C249.821 212.73 250.08 213.972 250.08 215.408ZM248.484 215.408C248.484 214.229 248.287 213.234 247.892 212.422C247.502 211.611 246.972 210.997 246.303 210.58C245.638 210.163 244.893 209.955 244.068 209.955C243.244 209.955 242.496 210.163 241.827 210.58C241.162 210.997 240.632 211.611 240.237 212.422C239.847 213.234 239.652 214.229 239.652 215.408C239.652 216.588 239.847 217.583 240.237 218.394C240.632 219.206 241.162 219.82 241.827 220.237C242.496 220.653 243.244 220.862 244.068 220.862C244.893 220.862 245.638 220.653 246.303 220.237C246.972 219.82 247.502 219.206 247.892 218.394C248.287 217.583 248.484 216.588 248.484 215.408ZM258.121 222.219V208.598H259.77V214.663H267.033V208.598H268.682V222.219H267.033V216.127H259.77V222.219H258.121ZM273.633 208.598V222.219H271.984V208.598H273.633ZM286.251 212.854C286.105 212.407 285.912 212.005 285.673 211.651C285.438 211.292 285.156 210.986 284.828 210.733C284.504 210.48 284.136 210.287 283.724 210.154C283.312 210.021 282.859 209.955 282.367 209.955C281.56 209.955 280.827 210.163 280.166 210.58C279.505 210.997 278.98 211.611 278.59 212.422C278.2 213.234 278.005 214.229 278.005 215.408C278.005 216.588 278.202 217.583 278.596 218.394C278.991 219.206 279.525 219.82 280.199 220.237C280.873 220.653 281.631 220.862 282.474 220.862C283.254 220.862 283.941 220.696 284.535 220.363C285.134 220.026 285.599 219.552 285.932 218.94C286.269 218.323 286.437 217.599 286.437 216.765L286.943 216.871H282.846V215.408H288.034V216.871C288.034 217.993 287.794 218.969 287.315 219.798C286.841 220.627 286.185 221.27 285.347 221.726C284.513 222.179 283.556 222.405 282.474 222.405C281.268 222.405 280.208 222.121 279.295 221.553C278.386 220.986 277.676 220.179 277.167 219.133C276.661 218.086 276.408 216.845 276.408 215.408C276.408 214.331 276.552 213.362 276.841 212.502C277.133 211.637 277.546 210.901 278.078 210.294C278.61 209.687 279.239 209.221 279.966 208.897C280.694 208.574 281.494 208.412 282.367 208.412C283.086 208.412 283.755 208.521 284.376 208.738C285.001 208.951 285.557 209.254 286.045 209.649C286.537 210.039 286.947 210.507 287.275 211.052C287.604 211.593 287.83 212.194 287.954 212.854H286.251ZM290.858 222.219V208.598H292.508V214.663H299.77V208.598H301.42V222.219H299.77V216.127H292.508V222.219H290.858Z" fill="black" fill-opacity="0.6"/>
<path d="M94.0657 99.9453V98.2089L100.587 91.0701C101.352 90.234 101.983 89.5072 102.478 88.8898C102.973 88.266 103.34 87.6807 103.578 87.1341C103.822 86.581 103.944 86.0022 103.944 85.3976C103.944 84.703 103.777 84.1017 103.443 83.5936C103.115 83.0856 102.664 82.6932 102.092 82.4167C101.52 82.1401 100.877 82.0019 100.163 82.0019C99.4037 82.0019 98.7413 82.1594 98.1753 82.4746C97.6158 82.7833 97.1817 83.2174 96.873 83.7769C96.5707 84.3364 96.4196 84.9924 96.4196 85.7449H94.1429C94.1429 84.5873 94.4098 83.5711 94.9436 82.6965C95.4774 81.8218 96.2041 81.1401 97.1238 80.6513C98.0499 80.1625 99.0886 79.9181 100.24 79.9181C101.397 79.9181 102.423 80.1625 103.317 80.6513C104.211 81.1401 104.912 81.7993 105.42 82.6289C105.928 83.4586 106.182 84.3815 106.182 85.3976C106.182 86.1244 106.051 86.835 105.787 87.5296C105.53 88.2178 105.079 88.9863 104.436 89.8352C103.8 90.6778 102.915 91.7068 101.783 92.9223L97.3457 97.6686V97.823H106.53V99.9453H94.0657Z" fill="#005155"/>
<defs>
<linearGradient id="paint0_linear_1865_29948" x1="63.5736" y1="224.283" x2="384.626" y2="224.283" gradientUnits="userSpaceOnUse">
<stop stop-color="#0DA136"/>
<stop offset="0.203125" stop-color="#74D99C"/>
<stop offset="0.453125" stop-color="#FEDB21"/>
<stop offset="0.723958" stop-color="#FF842C"/>
<stop offset="1" stop-color="#EB3636"/>
</linearGradient>
</defs>
</svg>
