<svg width="184" height="129" viewBox="0 0 184 129" fill="none" xmlns="http://www.w3.org/2000/svg">
<rect y="0.171875" width="182.909" height="40.5555" fill="#E9EAEE"/>
<rect x="0.374268" y="44.1836" width="182.909" height="40.5555" fill="#E9EAEE"/>
<rect x="0.374268" y="88.1943" width="182.909" height="40.5555" fill="#E9EAEE"/>
<rect x="0.374268" y="37.6855" width="182.909" height="3.04123" fill="#725CFA"/>
<rect x="0.374268" y="81.6973" width="182.909" height="3.04123" fill="#E86D46"/>
<rect x="0.374268" y="125.709" width="182.909" height="3.04123" fill="#1AB5B5"/>
<path d="M97.9158 23.0791V17.0941H100.049C100.513 17.0941 100.898 17.1739 101.203 17.3337C101.511 17.4935 101.741 17.7146 101.893 17.9971C102.045 18.2776 102.121 18.602 102.121 18.9702C102.121 19.3365 102.044 19.6589 101.89 19.9375C101.738 20.2142 101.508 20.4295 101.201 20.5834C100.895 20.7373 100.51 20.8143 100.046 20.8143H98.4301V20.0369H99.9644C100.257 20.0369 100.494 19.995 100.677 19.9112C100.863 19.8275 100.998 19.7057 101.084 19.5459C101.169 19.3862 101.212 19.1943 101.212 18.9702C101.212 18.7442 101.168 18.5484 101.081 18.3828C100.995 18.2172 100.86 18.0906 100.674 18.0029C100.491 17.9133 100.251 17.8685 99.9527 17.8685H98.8188V23.0791H97.9158ZM100.87 20.3788L102.349 23.0791H101.32L99.8708 20.3788H100.87ZM108.897 19.0404H107.985C107.95 18.8455 107.885 18.6741 107.789 18.526C107.694 18.378 107.577 18.2523 107.439 18.149C107.3 18.0458 107.145 17.9679 106.974 17.9153C106.804 17.8627 106.624 17.8364 106.433 17.8364C106.088 17.8364 105.78 17.9231 105.507 18.0964C105.236 18.2698 105.022 18.5241 104.864 18.8592C104.708 19.1943 104.63 19.6034 104.63 20.0866C104.63 20.5736 104.708 20.9847 104.864 21.3198C105.022 21.6549 105.237 21.9082 105.51 22.0796C105.783 22.2511 106.089 22.3368 106.43 22.3368C106.619 22.3368 106.799 22.3115 106.968 22.2608C107.139 22.2082 107.294 22.1313 107.433 22.03C107.571 21.9287 107.688 21.8049 107.783 21.6588C107.881 21.5108 107.948 21.3413 107.985 21.1503L108.897 21.1533C108.848 21.4474 108.754 21.7182 108.613 21.9657C108.475 22.2112 108.297 22.4235 108.079 22.6028C107.862 22.78 107.615 22.9174 107.336 23.0148C107.058 23.1122 106.754 23.1609 106.424 23.1609C105.906 23.1609 105.444 23.0382 105.039 22.7927C104.634 22.5453 104.315 22.1917 104.081 21.7319C103.849 21.2721 103.733 20.7237 103.733 20.0866C103.733 19.4476 103.85 18.8991 104.084 18.4413C104.317 17.9815 104.637 17.6289 105.042 17.3834C105.447 17.136 105.908 17.0122 106.424 17.0122C106.742 17.0122 107.038 17.058 107.313 17.1496C107.59 17.2392 107.838 17.3717 108.058 17.547C108.278 17.7204 108.46 17.9328 108.605 18.1841C108.749 18.4335 108.846 18.7189 108.897 19.0404ZM113.948 18.6663C113.916 18.3897 113.788 18.1754 113.562 18.0234C113.336 17.8695 113.051 17.7925 112.709 17.7925C112.463 17.7925 112.251 17.8315 112.071 17.9094C111.892 17.9854 111.753 18.0906 111.654 18.225C111.556 18.3575 111.507 18.5085 111.507 18.678C111.507 18.8202 111.541 18.943 111.607 19.0462C111.675 19.1495 111.764 19.2362 111.873 19.3063C111.984 19.3745 112.103 19.432 112.229 19.4787C112.356 19.5235 112.478 19.5606 112.595 19.5898L113.179 19.7417C113.37 19.7885 113.566 19.8518 113.766 19.9317C113.967 20.0116 114.153 20.1168 114.325 20.2473C114.496 20.3778 114.634 20.5396 114.74 20.7324C114.847 20.9253 114.9 21.1562 114.9 21.425C114.9 21.764 114.813 22.065 114.637 22.3281C114.464 22.5911 114.212 22.7986 113.88 22.9505C113.551 23.1025 113.153 23.1785 112.685 23.1785C112.237 23.1785 111.849 23.1074 111.522 22.9651C111.195 22.8229 110.939 22.6213 110.753 22.3602C110.568 22.0972 110.466 21.7855 110.447 21.425H111.353C111.37 21.6413 111.44 21.8215 111.563 21.9657C111.688 22.1079 111.846 22.2141 112.039 22.2842C112.234 22.3524 112.447 22.3865 112.679 22.3865C112.934 22.3865 113.161 22.3466 113.36 22.2667C113.561 22.1849 113.719 22.0719 113.834 21.9277C113.949 21.7816 114.006 21.6111 114.006 21.4163C114.006 21.239 113.955 21.0938 113.854 20.9808C113.755 20.8678 113.619 20.7743 113.448 20.7003C113.278 20.6263 113.086 20.561 112.872 20.5045L112.165 20.3116C111.686 20.1811 111.306 19.9892 111.025 19.7359C110.747 19.4826 110.607 19.1475 110.607 18.7306C110.607 18.3858 110.701 18.0848 110.888 17.8276C111.075 17.5704 111.328 17.3707 111.648 17.2285C111.967 17.0843 112.328 17.0122 112.729 17.0122C113.134 17.0122 113.492 17.0834 113.801 17.2256C114.113 17.3678 114.359 17.5636 114.538 17.813C114.717 18.0604 114.811 18.3448 114.818 18.6663H113.948ZM117.143 23.0791H116.184L118.338 17.0941H119.381L121.535 23.0791H120.576L118.884 18.1812H118.838L117.143 23.0791ZM117.303 20.7354H120.413V21.4952H117.303V20.7354Z" fill="black"/>
<path d="M102.958 68.0791V62.0941H103.861V64.9522H103.934L106.444 62.0941H107.581L105.167 64.7885L107.59 68.0791H106.503L104.568 65.4051L103.861 66.2175V68.0791H102.958ZM109.129 68.0791V62.0941H111.262C111.726 62.0941 112.111 62.1739 112.417 62.3337C112.724 62.4935 112.954 62.7146 113.106 62.9971C113.258 63.2776 113.334 63.602 113.334 63.9702C113.334 64.3365 113.257 64.6589 113.103 64.9375C112.951 65.2142 112.721 65.4295 112.414 65.5834C112.108 65.7373 111.723 65.8143 111.259 65.8143H109.643V65.0369H111.177C111.47 65.0369 111.707 64.995 111.891 64.9112C112.076 64.8275 112.211 64.7057 112.297 64.5459C112.382 64.3862 112.425 64.1943 112.425 63.9702C112.425 63.7442 112.381 63.5484 112.294 63.3828C112.208 63.2172 112.073 63.0906 111.888 63.0029C111.704 62.9133 111.464 62.8685 111.166 62.8685H110.032V68.0791H109.129ZM112.083 65.3788L113.562 68.0791H112.533L111.084 65.3788H112.083ZM116.042 62.0941V68.0791H115.139V62.0941H116.042Z" fill="black"/>
<path d="M101.68 112.162V106.177H102.583V111.385H105.295V112.162H101.68ZM107.031 112.162V106.177H110.784V106.954H107.934V108.778H110.588V109.552H107.934V111.385H110.819V112.162H107.031ZM114.633 112.162H112.696V106.177H114.695C115.281 106.177 115.785 106.297 116.206 106.537C116.626 106.774 116.949 107.116 117.173 107.562C117.399 108.006 117.512 108.539 117.512 109.161C117.512 109.784 117.398 110.32 117.17 110.768C116.944 111.216 116.617 111.561 116.188 111.803C115.759 112.042 115.241 112.162 114.633 112.162ZM113.599 111.373H114.584C115.04 111.373 115.418 111.287 115.72 111.116C116.022 110.943 116.248 110.692 116.398 110.365C116.548 110.036 116.623 109.634 116.623 109.161C116.623 108.691 116.548 108.293 116.398 107.966C116.25 107.638 116.029 107.39 115.735 107.22C115.441 107.051 115.076 106.966 114.639 106.966H113.599V111.373Z" fill="black"/>
<path d="M54.1606 27.6328V25.6376L58.8225 21.3211C59.2189 20.9374 59.5515 20.5921 59.8201 20.2851C60.0929 19.9782 60.2997 19.6776 60.4404 19.3835C60.5811 19.085 60.6514 18.7631 60.6514 18.4178C60.6514 18.0341 60.564 17.7037 60.3892 17.4266C60.2144 17.1453 59.9757 16.93 59.673 16.7807C59.3703 16.6273 59.0271 16.5505 58.6434 16.5505C58.2427 16.5505 57.8931 16.6315 57.5947 16.7935C57.2962 16.9555 57.066 17.1879 56.904 17.4906C56.742 17.7933 56.661 18.1535 56.661 18.5713H54.0327C54.0327 17.7144 54.2267 16.9705 54.6147 16.3395C55.0026 15.7085 55.5462 15.2204 56.2453 14.8751C56.9445 14.5298 57.7503 14.3571 58.6626 14.3571C59.6005 14.3571 60.4169 14.5234 61.1118 14.8559C61.811 15.1842 62.3546 15.6403 62.7425 16.2244C63.1305 16.8085 63.3244 17.4778 63.3244 18.2324C63.3244 18.7269 63.2264 19.2151 63.0303 19.6968C62.8384 20.1785 62.4952 20.7136 62.0007 21.3019C61.5062 21.886 60.8091 22.5873 59.9096 23.4058L57.9975 25.2795V25.369H63.4971V27.6328H54.1606Z" fill="black"/>
<path d="M61.1246 58.9639V72.0605H58.3556V61.5922H58.2789L55.2797 63.4723V61.0166L58.5219 58.9639H61.1246Z" fill="black"/>
<path d="M61.1246 103.047V116.144H58.3556V105.675H58.2789L55.2797 107.555V105.1L58.5219 103.047H61.1246Z" fill="black"/>
</svg>
