<svg width="486" height="212" viewBox="0 0 486 212" fill="none" xmlns="http://www.w3.org/2000/svg">
<path d="M4.08739 12.4741V4.00757H7.10525C7.76119 4.00757 8.30551 4.12057 8.7382 4.34657C9.17366 4.57256 9.49887 4.88537 9.71384 5.285C9.92881 5.68187 10.0363 6.14075 10.0363 6.66164C10.0363 7.17977 9.92743 7.6359 9.70971 8.03001C9.49474 8.42137 9.16952 8.72591 8.73407 8.94364C8.30137 9.16136 7.75705 9.27023 7.10112 9.27023H4.81498V8.17057H6.98536C7.39877 8.17057 7.73501 8.11131 7.99407 7.9928C8.2559 7.87429 8.44744 7.70204 8.56871 7.47605C8.68997 7.25005 8.75061 6.97858 8.75061 6.66164C8.75061 6.34194 8.68859 6.06495 8.56457 5.83069C8.44331 5.59643 8.25176 5.41729 7.98994 5.29326C7.73087 5.16649 7.3905 5.1031 6.96883 5.1031H5.36481V12.4741H4.08739ZM8.26692 8.65425L10.3588 12.4741H8.90357L6.85307 8.65425H8.26692ZM19.6214 6.76085H18.3316C18.2819 6.48525 18.1896 6.24272 18.0546 6.03326C17.9195 5.8238 17.7542 5.64604 17.5585 5.49997C17.3628 5.3539 17.1437 5.24366 16.9012 5.16924C16.6614 5.09483 16.4065 5.05762 16.1364 5.05762C15.6485 5.05762 15.2117 5.18027 14.8259 5.42555C14.4428 5.67084 14.1396 6.0305 13.9164 6.50454C13.6959 6.97858 13.5857 7.55735 13.5857 8.24085C13.5857 8.92986 13.6959 9.51138 13.9164 9.98542C14.1396 10.4595 14.4442 10.8177 14.83 11.0603C15.2159 11.3028 15.6499 11.4241 16.1322 11.4241C16.3996 11.4241 16.6531 11.3882 16.8929 11.3166C17.1354 11.2422 17.3545 11.1333 17.5502 10.99C17.7459 10.8467 17.9113 10.6717 18.0463 10.465C18.1841 10.2555 18.2792 10.0157 18.3316 9.74564L19.6214 9.74978C19.5525 10.1659 19.4188 10.549 19.2204 10.899C19.0247 11.2463 18.7725 11.5467 18.4638 11.8003C18.1579 12.0511 17.8079 12.2454 17.4138 12.3832C17.0197 12.521 16.5897 12.5899 16.124 12.5899C15.3909 12.5899 14.7377 12.4162 14.1644 12.069C13.5912 11.719 13.1392 11.2187 12.8085 10.5683C12.4805 9.9179 12.3165 9.14207 12.3165 8.24085C12.3165 7.33687 12.4819 6.56104 12.8126 5.91337C13.1433 5.26295 13.5953 4.76411 14.1686 4.41684C14.7418 4.06683 15.3936 3.89182 16.124 3.89182C16.5732 3.89182 16.9921 3.95659 17.3807 4.08612C17.7721 4.2129 18.1235 4.40031 18.4349 4.64835C18.7463 4.89364 19.004 5.19405 19.208 5.54958C19.4119 5.90235 19.5497 6.30611 19.6214 6.76085ZM26.7663 6.2317C26.7222 5.84034 26.5403 5.53717 26.2206 5.3222C25.9009 5.10448 25.4986 4.99561 25.0135 4.99561C24.6662 4.99561 24.3658 5.05073 24.1123 5.16097C23.8587 5.26846 23.6617 5.41729 23.5211 5.60745C23.3833 5.79486 23.3144 6.00846 23.3144 6.24823C23.3144 6.44942 23.3612 6.62305 23.455 6.76912C23.5514 6.91519 23.6768 7.03784 23.8312 7.13705C23.9882 7.23352 24.1564 7.31482 24.3355 7.38096C24.5146 7.44435 24.6869 7.49672 24.8523 7.53806L25.6791 7.75303C25.9492 7.81917 26.2261 7.90874 26.51 8.02174C26.7939 8.13474 27.0571 8.28357 27.2996 8.46822C27.5422 8.65287 27.7378 8.88163 27.8867 9.15447C28.0382 9.42732 28.114 9.75391 28.114 10.1342C28.114 10.6138 27.99 11.0396 27.742 11.4117C27.4967 11.7837 27.1398 12.0773 26.6712 12.2922C26.2055 12.5072 25.6419 12.6147 24.9804 12.6147C24.3465 12.6147 23.7981 12.5141 23.3351 12.3129C22.8721 12.1117 22.5096 11.8265 22.2478 11.4571C21.986 11.0851 21.8413 10.6441 21.8137 10.1342H23.0953C23.1201 10.4402 23.2193 10.6951 23.3929 10.899C23.5693 11.1002 23.7939 11.2504 24.0668 11.3497C24.3424 11.4461 24.6442 11.4943 24.9722 11.4943C25.3332 11.4943 25.6543 11.4379 25.9354 11.3249C26.2193 11.2091 26.4425 11.0492 26.6051 10.8453C26.7677 10.6386 26.849 10.3974 26.849 10.1218C26.849 9.87104 26.7774 9.66572 26.634 9.50587C26.4935 9.34602 26.3019 9.21373 26.0594 9.109C25.8196 9.00427 25.5482 8.91194 25.245 8.83202L24.2446 8.55917C23.5666 8.37451 23.0291 8.10305 22.6323 7.74476C22.2382 7.38648 22.0411 6.91244 22.0411 6.32264C22.0411 5.83483 22.1734 5.40902 22.438 5.04522C22.7026 4.68142 23.0608 4.39893 23.5128 4.19774C23.9648 3.99379 24.4747 3.89182 25.0424 3.89182C25.6157 3.89182 26.1214 3.99241 26.5596 4.19361C27.0006 4.3948 27.3479 4.67178 27.6014 5.02455C27.855 5.37457 27.9873 5.77695 27.9983 6.2317H26.7663ZM31.2862 12.4741H29.9302L32.977 4.00757H34.4528L37.4996 12.4741H36.1437L33.7501 5.54544H33.6839L31.2862 12.4741ZM31.5135 9.15861H35.9122V10.2335H31.5135V9.15861Z" fill="black"/>
<path d="M4.08739 60.9331V52.4666H5.36481V56.5097H5.46816L9.01932 52.4666H10.6275L7.21274 56.2782L10.6399 60.9331H9.102L6.36525 57.1504L5.36481 58.2997V60.9331H4.08739ZM12.8167 60.9331V52.4666H15.8346C16.4905 52.4666 17.0348 52.5796 17.4675 52.8055C17.903 53.0315 18.2282 53.3444 18.4432 53.744C18.6581 54.1409 18.7656 54.5997 18.7656 55.1206C18.7656 55.6388 18.6568 56.0949 18.439 56.489C18.2241 56.8804 17.8989 57.1849 17.4634 57.4026C17.0307 57.6203 16.4864 57.7292 15.8304 57.7292H13.5443V56.6296H15.7147C16.1281 56.6296 16.4643 56.5703 16.7234 56.4518C16.9852 56.3333 17.1768 56.161 17.298 55.935C17.4193 55.709 17.4799 55.4376 17.4799 55.1206C17.4799 54.8009 17.4179 54.5239 17.2939 54.2897C17.1726 54.0554 16.9811 53.8763 16.7193 53.7522C16.4602 53.6255 16.1198 53.5621 15.6982 53.5621H14.0941V60.9331H12.8167ZM16.9963 57.1132L19.0881 60.9331H17.6329L15.5824 57.1132H16.9963ZM22.5961 52.4666V60.9331H21.3187V52.4666H22.5961Z" fill="black"/>
<path d="M4.08739 105.167V96.7004H5.36481V104.067H9.20122V105.167H4.08739ZM11.6571 105.167V96.7004H16.9652V97.8001H12.9345V100.38H16.6883V101.475H12.9345V104.067H17.0149V105.167H11.6571ZM22.4111 105.167H19.6702V96.7004H22.4979C23.3275 96.7004 24.0399 96.8699 24.6352 97.2089C25.2305 97.5452 25.6867 98.0289 26.0036 98.66C26.3233 99.2884 26.4831 100.042 26.4831 100.921C26.4831 101.803 26.3219 102.561 25.9995 103.195C25.6798 103.829 25.2167 104.317 24.6104 104.659C24.0041 104.997 23.271 105.167 22.4111 105.167ZM20.9476 104.051H22.3408C22.9857 104.051 23.5218 103.93 23.949 103.687C24.3762 103.442 24.6959 103.088 24.9081 102.625C25.1203 102.159 25.2264 101.591 25.2264 100.921C25.2264 100.257 25.1203 99.6935 24.9081 99.2305C24.6986 98.7675 24.3858 98.4161 23.9696 98.1763C23.5535 97.9365 23.0367 97.8166 22.4194 97.8166H20.9476V104.051Z" fill="black"/>
<path d="M6.82827 149.4H4.08739V140.934H6.91508C7.74465 140.934 8.45709 141.103 9.05239 141.442C9.6477 141.779 10.1038 142.262 10.4208 142.893C10.7405 143.522 10.9003 144.276 10.9003 145.155C10.9003 146.037 10.7391 146.795 10.4166 147.428C10.0969 148.062 9.63392 148.55 9.02759 148.892C8.42126 149.231 7.68815 149.4 6.82827 149.4ZM5.36481 148.284H6.75799C7.4029 148.284 7.93895 148.163 8.36614 147.92C8.79332 147.675 9.11302 147.321 9.32524 146.858C9.53745 146.392 9.64356 145.824 9.64356 145.155C9.64356 144.491 9.53745 143.927 9.32524 143.464C9.11578 143.001 8.80297 142.649 8.38681 142.41C7.97065 142.17 7.45389 142.05 6.83654 142.05H5.36481V148.284ZM13.4875 140.934H15.0377L17.7331 147.515H17.8324L20.5278 140.934H22.078V149.4H20.8626V143.274H20.7841L18.2871 149.388H17.2784L14.7814 143.27H14.7029V149.4H13.4875V140.934ZM24.5164 142.034V140.934H31.0689V142.034H28.4272V149.4H27.1539V142.034H24.5164ZM33.5154 149.4V140.934H34.7929V148.301H38.6293V149.4H33.5154Z" fill="black"/>
<path d="M11.1194 187.921H9.82959C9.77999 187.645 9.68766 187.403 9.55261 187.193C9.41757 186.984 9.2522 186.806 9.05653 186.66C8.86085 186.514 8.64174 186.404 8.39921 186.329C8.15944 186.255 7.9045 186.218 7.63441 186.218C7.14659 186.218 6.70976 186.34 6.32391 186.586C5.94082 186.831 5.63766 187.191 5.41442 187.665C5.19394 188.139 5.0837 188.718 5.0837 189.401C5.0837 190.09 5.19394 190.672 5.41442 191.146C5.63766 191.62 5.9422 191.978 6.32805 192.22C6.71389 192.463 7.14797 192.584 7.63028 192.584C7.89761 192.584 8.15117 192.548 8.39094 192.477C8.63347 192.402 8.85258 192.293 9.04826 192.15C9.24394 192.007 9.4093 191.832 9.54434 191.625C9.68215 191.416 9.77723 191.176 9.82959 190.906L11.1194 190.91C11.0505 191.326 10.9169 191.709 10.7184 192.059C10.5227 192.406 10.2706 192.707 9.96188 192.96C9.65596 193.211 9.30595 193.406 8.91183 193.543C8.51772 193.681 8.08778 193.75 7.62201 193.75C6.8889 193.75 6.23572 193.576 5.66246 193.229C5.08921 192.879 4.63722 192.379 4.30649 191.728C3.97853 191.078 3.81454 190.302 3.81454 189.401C3.81454 188.497 3.9799 187.721 4.31063 187.074C4.64135 186.423 5.09334 185.924 5.6666 185.577C6.23985 185.227 6.89166 185.052 7.62201 185.052C8.07124 185.052 8.49016 185.117 8.87876 185.246C9.27012 185.373 9.62151 185.56 9.93295 185.809C10.2444 186.054 10.5021 186.354 10.706 186.71C10.91 187.063 11.0478 187.466 11.1194 187.921ZM13.2291 186.267V185.168H19.7816V186.267H17.1399V193.634H15.8666V186.267H13.2291Z" fill="black"/>
<rect x="485.2" y="16.3931" width="14.8959" height="305.985" rx="7.44795" transform="rotate(90 485.2 16.3931)" fill="#D9D9D9"/>
<rect x="369.395" y="16.3931" width="14.8959" height="368.565" rx="7.44795" transform="rotate(90 369.395 16.3931)" fill="#725CFA"/>
<rect x="485.201" y="64.4839" width="14.8959" height="476.414" rx="7.44795" transform="rotate(90 485.201 64.4839)" fill="#D9D9D9"/>
<rect x="179.215" y="64.4839" width="14.8959" height="178.386" rx="7.44795" transform="rotate(90 179.215 64.4839)" fill="#E86D46"/>
<rect x="485.2" y="109.069" width="14.8959" height="305.985" rx="7.44795" transform="rotate(90 485.2 109.069)" fill="#D9D9D9"/>
<rect x="245.942" y="109.069" width="14.8959" height="245.112" rx="7.44795" transform="rotate(90 245.942 109.069)" fill="#1AB5B5"/>
<rect x="485.2" y="153.654" width="14.8959" height="305.985" rx="7.44795" transform="rotate(90 485.2 153.654)" fill="#D9D9D9"/>
<rect x="245.942" y="153.654" width="14.8959" height="245.112" rx="7.44795" transform="rotate(90 245.942 153.654)" fill="#FFDB59"/>
<rect x="485.2" y="196.814" width="14.8959" height="305.985" rx="7.44795" transform="rotate(90 485.2 196.814)" fill="#D9D9D9"/>
<rect x="293.237" y="196.814" width="14.8959" height="292.407" rx="7.44795" transform="rotate(90 293.237 196.814)" fill="#F9AD3D"/>
<path d="M386.865 13.0846C386.259 13.0846 385.723 12.9771 385.257 12.7622C384.795 12.5443 384.434 12.2454 384.175 11.8655C383.916 11.4827 383.788 11.0469 383.791 10.5581C383.788 10.1753 383.863 9.8219 384.016 9.49799C384.169 9.17113 384.378 8.89874 384.644 8.68084C384.911 8.45999 385.21 8.32011 385.54 8.26122V8.20822C385.107 8.09632 384.763 7.85338 384.507 7.47941C384.25 7.10249 384.124 6.67403 384.127 6.19405C384.124 5.73468 384.24 5.3239 384.476 4.9617C384.711 4.5995 385.035 4.31387 385.447 4.1048C385.863 3.89572 386.335 3.79119 386.865 3.79119C387.389 3.79119 387.858 3.89572 388.27 4.1048C388.682 4.31387 389.006 4.5995 389.242 4.9617C389.48 5.3239 389.601 5.73468 389.604 6.19405C389.601 6.67403 389.47 7.10249 389.211 7.47941C388.955 7.85338 388.614 8.09632 388.19 8.20822V8.26122C388.517 8.32011 388.812 8.45999 389.074 8.68084C389.336 8.89874 389.545 9.17113 389.701 9.49799C389.857 9.8219 389.937 10.1753 389.94 10.5581C389.937 11.0469 389.804 11.4827 389.542 11.8655C389.283 12.2454 388.922 12.5443 388.46 12.7622C388 12.9771 387.469 13.0846 386.865 13.0846ZM386.865 12.1129C387.275 12.1129 387.628 12.0466 387.925 11.9141C388.223 11.7816 388.452 11.5946 388.614 11.3531C388.776 11.1117 388.859 10.829 388.862 10.5051C388.859 10.1635 388.77 9.86166 388.597 9.59958C388.423 9.3375 388.186 9.13137 387.886 8.9812C387.588 8.83102 387.248 8.75593 386.865 8.75593C386.48 8.75593 386.135 8.83102 385.832 8.9812C385.531 9.13137 385.294 9.3375 385.121 9.59958C384.95 9.86166 384.866 10.1635 384.869 10.5051C384.866 10.829 384.944 11.1117 385.103 11.3531C385.265 11.5946 385.496 11.7816 385.796 11.9141C386.097 12.0466 386.453 12.1129 386.865 12.1129ZM386.865 7.81952C387.189 7.81952 387.476 7.75473 387.727 7.62517C387.98 7.4956 388.179 7.3145 388.323 7.08187C388.467 6.84924 388.541 6.57686 388.544 6.26472C388.541 5.95848 388.469 5.69198 388.327 5.46524C388.186 5.23556 387.99 5.05887 387.74 4.9352C387.49 4.80858 387.198 4.74527 386.865 4.74527C386.527 4.74527 386.231 4.80858 385.977 4.9352C385.724 5.05887 385.528 5.23556 385.39 5.46524C385.252 5.69198 385.184 5.95848 385.187 6.26472C385.184 6.57686 385.253 6.84924 385.394 7.08187C385.539 7.3145 385.737 7.4956 385.991 7.62517C386.244 7.75473 386.535 7.81952 386.865 7.81952ZM400.237 6.17638C400.184 5.72879 399.969 5.38132 399.592 5.13396C399.215 4.88661 398.753 4.76293 398.205 4.76293C397.804 4.76293 397.454 4.82772 397.154 4.95728C396.856 5.08685 396.624 5.265 396.456 5.49174C396.291 5.71848 396.208 5.97614 396.208 6.26472C396.208 6.50619 396.266 6.71379 396.381 6.88752C396.498 7.05832 396.649 7.20113 396.831 7.31598C397.014 7.42787 397.205 7.52063 397.405 7.59425C397.606 7.66492 397.79 7.72234 397.958 7.76651L398.876 8.01387C399.112 8.0757 399.374 8.1611 399.663 8.27005C399.954 8.37901 400.232 8.52771 400.497 8.71617C400.765 8.90169 400.986 9.14021 401.16 9.43173C401.334 9.72326 401.42 10.081 401.42 10.5051C401.42 10.9939 401.292 11.4356 401.036 11.8302C400.783 12.2248 400.412 12.5384 399.923 12.771C399.437 13.0036 398.847 13.12 398.152 13.12C397.504 13.12 396.943 13.0154 396.469 12.8063C395.998 12.5973 395.627 12.3057 395.356 11.9318C395.088 11.5578 394.936 11.1235 394.901 10.6287H396.032C396.061 10.9703 396.176 11.253 396.376 11.4768C396.579 11.6977 396.836 11.8626 397.145 11.9715C397.457 12.0775 397.793 12.1305 398.152 12.1305C398.57 12.1305 398.945 12.0628 399.278 11.9274C399.611 11.789 399.875 11.5975 400.069 11.3531C400.263 11.1058 400.36 10.8172 400.36 10.4874C400.36 10.187 400.276 9.94264 400.109 9.75418C399.941 9.56572 399.72 9.41259 399.446 9.2948C399.172 9.17702 398.876 9.07395 398.558 8.98561L397.445 8.66759C396.738 8.4644 396.179 8.17435 395.767 7.79743C395.354 7.42051 395.148 6.92728 395.148 6.31773C395.148 5.81124 395.285 5.36954 395.559 4.99262C395.836 4.61275 396.207 4.31829 396.672 4.10921C397.14 3.8972 397.663 3.79119 398.24 3.79119C398.823 3.79119 399.342 3.89572 399.795 4.1048C400.249 4.31092 400.608 4.59361 400.873 4.95287C401.141 5.31212 401.282 5.71996 401.297 6.17638H400.237ZM405.925 13.1023C405.271 13.1023 404.707 12.958 404.233 12.6694C403.762 12.3779 403.398 11.9715 403.142 11.4503C402.889 10.9262 402.762 10.3166 402.762 9.62166C402.762 8.92672 402.889 8.31422 403.142 7.78418C403.398 7.25119 403.755 6.83599 404.211 6.53858C404.67 6.23822 405.206 6.08804 405.819 6.08804C406.172 6.08804 406.521 6.14694 406.866 6.26472C407.21 6.38251 407.524 6.57391 407.806 6.83894C408.089 7.10101 408.314 7.44849 408.482 7.88136C408.65 8.31422 408.734 8.84721 408.734 9.48032V9.92202H403.504V9.02095H407.674C407.674 8.63814 407.597 8.29656 407.444 7.9962C407.294 7.69584 407.079 7.45879 406.799 7.28506C406.523 7.11132 406.196 7.02445 405.819 7.02445C405.404 7.02445 405.044 7.12752 404.741 7.33364C404.441 7.53683 404.209 7.80185 404.048 8.12871C403.886 8.45557 403.805 8.80599 403.805 9.17996V9.78068C403.805 10.2931 403.893 10.7274 404.07 11.0837C404.249 11.4371 404.498 11.7065 404.816 11.892C405.134 12.0746 405.504 12.1659 405.925 12.1659C406.199 12.1659 406.446 12.1276 406.667 12.051C406.891 11.9715 407.083 11.8537 407.245 11.6977C407.407 11.5387 407.533 11.3414 407.621 11.1058L408.628 11.3885C408.522 11.7301 408.344 12.0304 408.094 12.2895C407.843 12.5457 407.534 12.746 407.166 12.8903C406.798 13.0316 406.384 13.1023 405.925 13.1023ZM411.362 3.91486V12.9609H410.32V3.91486H411.362ZM416.116 13.1023C415.462 13.1023 414.898 12.958 414.424 12.6694C413.953 12.3779 413.589 11.9715 413.333 11.4503C413.08 10.9262 412.953 10.3166 412.953 9.62166C412.953 8.92672 413.08 8.31422 413.333 7.78418C413.589 7.25119 413.946 6.83599 414.402 6.53858C414.862 6.23822 415.397 6.08804 416.01 6.08804C416.363 6.08804 416.712 6.14694 417.057 6.26472C417.401 6.38251 417.715 6.57391 417.998 6.83894C418.28 7.10101 418.506 7.44849 418.673 7.88136C418.841 8.31422 418.925 8.84721 418.925 9.48032V9.92202H413.695V9.02095H417.865C417.865 8.63814 417.789 8.29656 417.635 7.9962C417.485 7.69584 417.27 7.45879 416.991 7.28506C416.714 7.11132 416.387 7.02445 416.01 7.02445C415.595 7.02445 415.235 7.12752 414.932 7.33364C414.632 7.53683 414.401 7.80185 414.239 8.12871C414.077 8.45557 413.996 8.80599 413.996 9.17996V9.78068C413.996 10.2931 414.084 10.7274 414.261 11.0837C414.44 11.4371 414.689 11.7065 415.007 11.892C415.325 12.0746 415.695 12.1659 416.116 12.1659C416.39 12.1659 416.637 12.1276 416.858 12.051C417.082 11.9715 417.275 11.8537 417.437 11.6977C417.599 11.5387 417.724 11.3414 417.812 11.1058L418.819 11.3885C418.713 11.7301 418.535 12.0304 418.285 12.2895C418.034 12.5457 417.725 12.746 417.357 12.8903C416.989 13.0316 416.575 13.1023 416.116 13.1023ZM425.317 7.69584L424.38 7.96086C424.321 7.80479 424.234 7.65314 424.12 7.50591C424.008 7.35573 423.855 7.23205 423.66 7.13488C423.466 7.0377 423.217 6.98912 422.914 6.98912C422.499 6.98912 422.153 7.08482 421.876 7.27622C421.602 7.46468 421.465 7.70467 421.465 7.9962C421.465 8.25533 421.559 8.45999 421.748 8.61016C421.936 8.76034 422.231 8.88549 422.631 8.98561L423.638 9.23297C424.245 9.3802 424.697 9.60547 424.994 9.90877C425.292 10.2091 425.44 10.5964 425.44 11.0704C425.44 11.4591 425.328 11.8066 425.105 12.1129C424.884 12.4191 424.575 12.6606 424.177 12.8373C423.779 13.0139 423.317 13.1023 422.79 13.1023C422.098 13.1023 421.525 12.9521 421.072 12.6517C420.618 12.3514 420.331 11.9126 420.211 11.3355L421.2 11.0881C421.294 11.4533 421.472 11.7271 421.734 11.9097C421.999 12.0923 422.345 12.1835 422.772 12.1835C423.258 12.1835 423.644 12.0805 423.93 11.8743C424.218 11.6653 424.363 11.415 424.363 11.1235C424.363 10.8879 424.28 10.6906 424.115 10.5316C423.95 10.3696 423.697 10.2489 423.355 10.1694L422.225 9.90435C421.603 9.75712 421.147 9.52891 420.855 9.21971C420.567 8.90758 420.423 8.51741 420.423 8.0492C420.423 7.66639 420.53 7.32775 420.745 7.03329C420.963 6.73882 421.259 6.50766 421.633 6.33981C422.01 6.17197 422.437 6.08804 422.914 6.08804C423.585 6.08804 424.112 6.23528 424.495 6.52974C424.881 6.82421 425.155 7.21291 425.317 7.69584ZM429.006 13.12C428.576 13.12 428.186 13.039 427.835 12.877C427.485 12.7121 427.207 12.4751 427.001 12.1659C426.794 11.8537 426.691 11.4768 426.691 11.0351C426.691 10.6464 426.768 10.3313 426.921 10.0899C427.074 9.84546 427.279 9.65406 427.535 9.51566C427.791 9.37726 428.074 9.27419 428.383 9.20646C428.695 9.13579 429.009 9.07984 429.324 9.03862C429.736 8.98561 430.07 8.94586 430.327 8.91936C430.586 8.88991 430.774 8.84132 430.892 8.77359C431.013 8.70587 431.073 8.58808 431.073 8.42023V8.3849C431.073 7.94908 430.954 7.61044 430.715 7.36898C430.48 7.12752 430.122 7.00678 429.642 7.00678C429.144 7.00678 428.754 7.11574 428.471 7.33364C428.189 7.55155 427.99 7.78418 427.875 8.03153L426.886 7.67817C427.062 7.26592 427.298 6.94495 427.592 6.71526C427.89 6.48263 428.214 6.32067 428.564 6.22939C428.918 6.13516 429.265 6.08804 429.607 6.08804C429.825 6.08804 430.075 6.11454 430.358 6.16755C430.643 6.21761 430.919 6.32214 431.184 6.48116C431.451 6.64017 431.674 6.88016 431.85 7.20113C432.027 7.5221 432.116 7.95203 432.116 8.49091V12.9609H431.073V12.0422H431.02C430.949 12.1894 430.832 12.347 430.667 12.5148C430.502 12.6827 430.282 12.8255 430.009 12.9433C429.735 13.0611 429.401 13.12 429.006 13.12ZM429.165 12.1835C429.577 12.1835 429.925 12.1026 430.207 11.9406C430.493 11.7786 430.708 11.5696 430.852 11.3134C430.999 11.0572 431.073 10.7878 431.073 10.5051V9.55099C431.029 9.604 430.932 9.65258 430.782 9.69675C430.634 9.73798 430.464 9.77479 430.269 9.80718C430.078 9.83663 429.891 9.86313 429.708 9.88669C429.529 9.9073 429.383 9.92497 429.271 9.93969C429 9.97503 428.747 10.0324 428.511 10.112C428.279 10.1885 428.09 10.3048 427.946 10.4609C427.805 10.614 427.734 10.8231 427.734 11.0881C427.734 11.4503 427.868 11.7242 428.136 11.9097C428.407 12.0923 428.75 12.1835 429.165 12.1835ZM434.018 12.9609V6.17638H435.061V12.9609H434.018ZM434.548 5.04562C434.345 5.04562 434.17 4.97642 434.023 4.83802C433.878 4.69962 433.806 4.53325 433.806 4.3389C433.806 4.14455 433.878 3.97817 434.023 3.83977C434.17 3.70137 434.345 3.63217 434.548 3.63217C434.751 3.63217 434.925 3.70137 435.069 3.83977C435.217 3.97817 435.29 4.14455 435.29 4.3389C435.29 4.53325 435.217 4.69962 435.069 4.83802C434.925 4.97642 434.751 5.04562 434.548 5.04562ZM443.03 13.1023C442.465 13.1023 441.965 12.9595 441.533 12.6738C441.1 12.3853 440.761 11.9789 440.517 11.4547C440.272 10.9276 440.15 10.3048 440.15 9.58633C440.15 8.87371 440.272 8.25533 440.517 7.73118C440.761 7.20702 441.101 6.80213 441.537 6.51649C441.973 6.23086 442.476 6.08804 443.048 6.08804C443.489 6.08804 443.838 6.16166 444.095 6.30889C444.354 6.45318 444.551 6.61809 444.686 6.8036C444.825 6.98617 444.932 7.13635 445.009 7.25414H445.097V3.91486H446.14V12.9609H445.133V11.9185H445.009C444.932 12.0422 444.823 12.1983 444.682 12.3867C444.541 12.5722 444.339 12.7386 444.077 12.8858C443.815 13.0301 443.466 13.1023 443.03 13.1023ZM443.171 12.1659C443.589 12.1659 443.943 12.0569 444.231 11.839C444.52 11.6182 444.739 11.3134 444.89 10.9247C445.04 10.533 445.115 10.081 445.115 9.56866C445.115 9.06217 445.041 8.619 444.894 8.23913C444.747 7.85633 444.529 7.55891 444.24 7.34689C443.952 7.13193 443.595 7.02445 443.171 7.02445C442.73 7.02445 442.362 7.13782 442.067 7.36456C441.776 7.58836 441.556 7.89313 441.409 8.27889C441.265 8.6617 441.193 9.09162 441.193 9.56866C441.193 10.0516 441.266 10.4903 441.413 10.8849C441.564 11.2766 441.784 11.5887 442.076 11.8213C442.37 12.051 442.736 12.1659 443.171 12.1659ZM450.19 13.12C449.76 13.12 449.37 13.039 449.019 12.877C448.669 12.7121 448.391 12.4751 448.185 12.1659C447.979 11.8537 447.875 11.4768 447.875 11.0351C447.875 10.6464 447.952 10.3313 448.105 10.0899C448.258 9.84546 448.463 9.65406 448.719 9.51566C448.975 9.37726 449.258 9.27419 449.567 9.20646C449.879 9.13579 450.193 9.07984 450.508 9.03862C450.92 8.98561 451.255 8.94586 451.511 8.91936C451.77 8.88991 451.958 8.84132 452.076 8.77359C452.197 8.70587 452.257 8.58808 452.257 8.42023V8.3849C452.257 7.94908 452.138 7.61044 451.899 7.36898C451.664 7.12752 451.306 7.00678 450.826 7.00678C450.328 7.00678 449.938 7.11574 449.656 7.33364C449.373 7.55155 449.174 7.78418 449.059 8.03153L448.07 7.67817C448.247 7.26592 448.482 6.94495 448.777 6.71526C449.074 6.48263 449.398 6.32067 449.748 6.22939C450.102 6.13516 450.449 6.08804 450.791 6.08804C451.009 6.08804 451.259 6.11454 451.542 6.16755C451.827 6.21761 452.103 6.32214 452.368 6.48116C452.636 6.64017 452.858 6.88016 453.035 7.20113C453.211 7.5221 453.3 7.95203 453.3 8.49091V12.9609H452.257V12.0422H452.204C452.133 12.1894 452.016 12.347 451.851 12.5148C451.686 12.6827 451.467 12.8255 451.193 12.9433C450.919 13.0611 450.585 13.12 450.19 13.12ZM450.349 12.1835C450.761 12.1835 451.109 12.1026 451.391 11.9406C451.677 11.7786 451.892 11.5696 452.036 11.3134C452.184 11.0572 452.257 10.7878 452.257 10.5051V9.55099C452.213 9.604 452.116 9.65258 451.966 9.69675C451.818 9.73798 451.648 9.77479 451.453 9.80718C451.262 9.83663 451.075 9.86313 450.892 9.88669C450.713 9.9073 450.567 9.92497 450.455 9.93969C450.184 9.97503 449.931 10.0324 449.695 10.112C449.463 10.1885 449.274 10.3048 449.13 10.4609C448.989 10.614 448.918 10.8231 448.918 11.0881C448.918 11.4503 449.052 11.7242 449.32 11.9097C449.591 12.0923 449.934 12.1835 450.349 12.1835ZM455.202 12.9609V6.17638H456.209V7.20113H456.28C456.404 6.86544 456.627 6.59306 456.951 6.38398C457.275 6.17491 457.64 6.07037 458.047 6.07037C458.123 6.07037 458.219 6.07185 458.334 6.07479C458.449 6.07774 458.536 6.08215 458.594 6.08804V7.14813C458.559 7.13929 458.478 7.12604 458.352 7.10838C458.228 7.08776 458.097 7.07746 457.958 7.07746C457.629 7.07746 457.334 7.14666 457.075 7.28506C456.819 7.42051 456.616 7.60897 456.465 7.85044C456.318 8.08896 456.245 8.36134 456.245 8.66759V12.9609H455.202ZM459.83 12.9609V6.17638H460.873V12.9609H459.83ZM460.36 5.04562C460.157 5.04562 459.982 4.97642 459.835 4.83802C459.69 4.69962 459.618 4.53325 459.618 4.3389C459.618 4.14455 459.69 3.97817 459.835 3.83977C459.982 3.70137 460.157 3.63217 460.36 3.63217C460.563 3.63217 460.737 3.70137 460.881 3.83977C461.029 3.97817 461.102 4.14455 461.102 4.3389C461.102 4.53325 461.029 4.69962 460.881 4.83802C460.737 4.97642 460.563 5.04562 460.36 5.04562ZM469.443 3.91486V12.9609H468.347V5.06329H468.294L466.086 6.52974V5.41665L468.347 3.91486H469.443ZM474.995 13.0846C474.329 13.0846 473.763 12.9035 473.294 12.5413C472.826 12.1762 472.468 11.6476 472.221 10.9556C471.974 10.2607 471.85 9.42143 471.85 8.4379C471.85 7.46027 471.974 6.62545 472.221 5.93345C472.471 5.2385 472.831 4.70846 473.299 4.34332C473.77 3.97523 474.335 3.79119 474.995 3.79119C475.655 3.79119 476.218 3.97523 476.687 4.34332C477.158 4.70846 477.517 5.2385 477.764 5.93345C478.015 6.62545 478.14 7.46027 478.14 8.4379C478.14 9.42143 478.016 10.2607 477.769 10.9556C477.521 11.6476 477.164 12.1762 476.695 12.5413C476.227 12.9035 475.66 13.0846 474.995 13.0846ZM474.995 12.1129C475.655 12.1129 476.167 11.7948 476.532 11.1588C476.897 10.5227 477.08 9.61577 477.08 8.4379C477.08 7.65461 476.996 6.98764 476.828 6.43699C476.663 5.88633 476.425 5.46671 476.112 5.17813C475.803 4.88955 475.431 4.74527 474.995 4.74527C474.341 4.74527 473.83 5.06771 473.462 5.71259C473.094 6.35454 472.91 7.26297 472.91 8.4379C472.91 9.22119 472.993 9.88669 473.157 10.4344C473.322 10.9821 473.559 11.3988 473.869 11.6844C474.181 11.9701 474.556 12.1129 474.995 12.1129Z" fill="black"/>
<path d="M384.277 61.4199L388.323 53.4163V53.3456H383.658V52.3738H389.453V53.3986L385.425 61.4199H384.277ZM399.704 54.6354C399.651 54.1878 399.436 53.8403 399.059 53.5929C398.682 53.3456 398.22 53.2219 397.672 53.2219C397.272 53.2219 396.922 53.2867 396.621 53.4163C396.324 53.5458 396.091 53.724 395.923 53.9507C395.758 54.1775 395.676 54.4351 395.676 54.7237C395.676 54.9652 395.733 55.1728 395.848 55.3465C395.966 55.5173 396.116 55.6601 396.299 55.775C396.481 55.8869 396.673 55.9796 396.873 56.0532C397.073 56.1239 397.257 56.1813 397.425 56.2255L398.344 56.4729C398.579 56.5347 398.841 56.6201 399.13 56.729C399.422 56.838 399.7 56.9867 399.965 57.1752C400.233 57.3607 400.454 57.5992 400.627 57.8907C400.801 58.1822 400.888 58.54 400.888 58.9641C400.888 59.4529 400.76 59.8946 400.504 60.2892C400.25 60.6838 399.879 60.9974 399.391 61.23C398.905 61.4626 398.314 61.5789 397.619 61.5789C396.972 61.5789 396.411 61.4744 395.937 61.2653C395.465 61.0563 395.094 60.7647 394.823 60.3908C394.555 60.0168 394.404 59.5824 394.368 59.0877H395.499C395.529 59.4293 395.644 59.712 395.844 59.9358C396.047 60.1567 396.303 60.3216 396.612 60.4305C396.924 60.5365 397.26 60.5895 397.619 60.5895C398.038 60.5895 398.413 60.5218 398.746 60.3863C399.078 60.2479 399.342 60.0565 399.536 59.8121C399.731 59.5648 399.828 59.2762 399.828 58.9464C399.828 58.646 399.744 58.4016 399.576 58.2132C399.408 58.0247 399.187 57.8716 398.914 57.7538C398.64 57.636 398.344 57.5329 398.026 57.4446L396.913 57.1266C396.206 56.9234 395.646 56.6333 395.234 56.2564C394.822 55.8795 394.616 55.3863 394.616 54.7767C394.616 54.2702 394.753 53.8285 395.027 53.4516C395.303 53.0717 395.674 52.7773 396.14 52.5682C396.608 52.3562 397.131 52.2502 397.708 52.2502C398.291 52.2502 398.809 52.3547 399.263 52.5638C399.716 52.7699 400.075 53.0526 400.34 53.4118C400.608 53.7711 400.75 54.1789 400.764 54.6354H399.704ZM405.392 61.5613C404.739 61.5613 404.175 61.417 403.701 61.1284C403.229 60.8369 402.866 60.4305 402.61 59.9093C402.356 59.3851 402.23 58.7756 402.23 58.0806C402.23 57.3857 402.356 56.7732 402.61 56.2432C402.866 55.7102 403.222 55.295 403.678 54.9976C404.138 54.6972 404.674 54.547 405.286 54.547C405.64 54.547 405.989 54.6059 406.333 54.7237C406.678 54.8415 406.991 55.0329 407.274 55.2979C407.557 55.56 407.782 55.9075 407.95 56.3403C408.118 56.7732 408.202 57.3062 408.202 57.9393V58.381H402.972V57.4799H407.141C407.141 57.0971 407.065 56.7555 406.912 56.4552C406.762 56.1548 406.547 55.9178 406.267 55.744C405.99 55.5703 405.663 55.4834 405.286 55.4834C404.871 55.4834 404.512 55.5865 404.209 55.7926C403.908 55.9958 403.677 56.2608 403.515 56.5877C403.353 56.9146 403.272 57.265 403.272 57.6389V58.2397C403.272 58.752 403.36 59.1864 403.537 59.5427C403.717 59.896 403.966 60.1655 404.284 60.351C404.602 60.5336 404.971 60.6249 405.392 60.6249C405.666 60.6249 405.913 60.5866 406.134 60.51C406.358 60.4305 406.551 60.3127 406.713 60.1567C406.875 59.9976 407 59.8003 407.088 59.5648L408.095 59.8475C407.989 60.189 407.811 60.4894 407.561 60.7485C407.311 61.0047 407.002 61.205 406.633 61.3492C406.265 61.4906 405.852 61.5613 405.392 61.5613ZM410.83 52.3738V61.4199H409.787V52.3738H410.83ZM415.583 61.5613C414.93 61.5613 414.366 61.417 413.892 61.1284C413.421 60.8369 413.057 60.4305 412.801 59.9093C412.547 59.3851 412.421 58.7756 412.421 58.0806C412.421 57.3857 412.547 56.7732 412.801 56.2432C413.057 55.7102 413.413 55.295 413.87 54.9976C414.329 54.6972 414.865 54.547 415.477 54.547C415.831 54.547 416.18 54.6059 416.524 54.7237C416.869 54.8415 417.182 55.0329 417.465 55.2979C417.748 55.56 417.973 55.9075 418.141 56.3403C418.309 56.7732 418.393 57.3062 418.393 57.9393V58.381H413.163V57.4799H417.333C417.333 57.0971 417.256 56.7555 417.103 56.4552C416.953 56.1548 416.738 55.9178 416.458 55.744C416.181 55.5703 415.854 55.4834 415.477 55.4834C415.062 55.4834 414.703 55.5865 414.4 55.7926C414.099 55.9958 413.868 56.2608 413.706 56.5877C413.544 56.9146 413.463 57.265 413.463 57.6389V58.2397C413.463 58.752 413.552 59.1864 413.728 59.5427C413.908 59.896 414.157 60.1655 414.475 60.351C414.793 60.5336 415.162 60.6249 415.583 60.6249C415.857 60.6249 416.105 60.5866 416.326 60.51C416.549 60.4305 416.742 60.3127 416.904 60.1567C417.066 59.9976 417.191 59.8003 417.28 59.5648L418.287 59.8475C418.181 60.189 418.003 60.4894 417.752 60.7485C417.502 61.0047 417.193 61.205 416.825 61.3492C416.457 61.4906 416.043 61.5613 415.583 61.5613ZM424.784 56.1548L423.848 56.4198C423.789 56.2638 423.702 56.1121 423.587 55.9649C423.475 55.8147 423.322 55.691 423.128 55.5939C422.933 55.4967 422.685 55.4481 422.381 55.4481C421.966 55.4481 421.62 55.5438 421.343 55.7352C421.069 55.9237 420.932 56.1637 420.932 56.4552C420.932 56.7143 421.027 56.919 421.215 57.0691C421.404 57.2193 421.698 57.3445 422.099 57.4446L423.106 57.692C423.712 57.8392 424.164 58.0645 424.462 58.3678C424.759 58.6681 424.908 59.0553 424.908 59.5294C424.908 59.9181 424.796 60.2656 424.572 60.5719C424.351 60.8781 424.042 61.1196 423.645 61.2962C423.247 61.4729 422.785 61.5613 422.258 61.5613C421.566 61.5613 420.993 61.4111 420.539 61.1107C420.086 60.8104 419.799 60.3716 419.678 59.7945L420.667 59.5471C420.762 59.9122 420.94 60.1861 421.202 60.3687C421.467 60.5512 421.813 60.6425 422.24 60.6425C422.726 60.6425 423.112 60.5395 423.397 60.3333C423.686 60.1243 423.83 59.874 423.83 59.5824C423.83 59.3469 423.748 59.1496 423.583 58.9906C423.418 58.8286 423.165 58.7079 422.823 58.6284L421.692 58.3633C421.071 58.2161 420.614 57.9879 420.323 57.6787C420.034 57.3666 419.89 56.9764 419.89 56.5082C419.89 56.1254 419.998 55.7867 420.213 55.4923C420.43 55.1978 420.726 54.9666 421.1 54.7988C421.477 54.6309 421.904 54.547 422.381 54.547C423.053 54.547 423.58 54.6943 423.963 54.9887C424.348 55.2832 424.622 55.6719 424.784 56.1548ZM428.473 61.5789C428.044 61.5789 427.653 61.498 427.303 61.336C426.953 61.1711 426.674 60.934 426.468 60.6249C426.262 60.3127 426.159 59.9358 426.159 59.4941C426.159 59.1054 426.235 58.7903 426.389 58.5489C426.542 58.3044 426.746 58.113 427.003 57.9746C427.259 57.8362 427.541 57.7332 427.851 57.6654C428.163 57.5948 428.476 57.5388 428.791 57.4976C429.204 57.4446 429.538 57.4048 429.794 57.3783C430.053 57.3489 430.242 57.3003 430.36 57.2326C430.48 57.1649 430.541 57.0471 430.541 56.8792V56.8439C430.541 56.4081 430.421 56.0694 430.183 55.828C429.947 55.5865 429.589 55.4658 429.11 55.4658C428.612 55.4658 428.222 55.5747 427.939 55.7926C427.656 56.0105 427.458 56.2432 427.343 56.4905L426.353 56.1372C426.53 55.7249 426.766 55.4039 427.06 55.1742C427.357 54.9416 427.681 54.7797 428.032 54.6884C428.385 54.5941 428.733 54.547 429.074 54.547C429.292 54.547 429.542 54.5735 429.825 54.6265C430.111 54.6766 430.386 54.7811 430.651 54.9401C430.919 55.0992 431.141 55.3391 431.318 55.6601C431.495 55.9811 431.583 56.411 431.583 56.9499V61.4199H430.541V60.5012H430.488C430.417 60.6484 430.299 60.806 430.134 60.9738C429.969 61.1416 429.75 61.2845 429.476 61.4023C429.202 61.52 428.868 61.5789 428.473 61.5789ZM428.632 60.6425C429.045 60.6425 429.392 60.5615 429.675 60.3996C429.961 60.2376 430.175 60.0286 430.32 59.7724C430.467 59.5162 430.541 59.2467 430.541 58.9641V58.01C430.496 58.063 430.399 58.1116 430.249 58.1557C430.102 58.197 429.931 58.2338 429.737 58.2662C429.545 58.2956 429.358 58.3221 429.176 58.3457C428.996 58.3663 428.85 58.384 428.738 58.3987C428.468 58.434 428.214 58.4914 427.979 58.5709C427.746 58.6475 427.558 58.7638 427.413 58.9199C427.272 59.073 427.201 59.2821 427.201 59.5471C427.201 59.9093 427.335 60.1832 427.603 60.3687C427.874 60.5512 428.217 60.6425 428.632 60.6425ZM433.486 61.4199V54.6354H434.528V61.4199H433.486ZM434.016 53.5046C433.813 53.5046 433.637 53.4354 433.49 53.297C433.346 53.1586 433.274 52.9922 433.274 52.7979C433.274 52.6035 433.346 52.4372 433.49 52.2988C433.637 52.1604 433.813 52.0912 434.016 52.0912C434.219 52.0912 434.393 52.1604 434.537 52.2988C434.684 52.4372 434.758 52.6035 434.758 52.7979C434.758 52.9922 434.684 53.1586 434.537 53.297C434.393 53.4354 434.219 53.5046 434.016 53.5046ZM442.498 61.5613C441.932 61.5613 441.433 61.4184 441 61.1328C440.567 60.8442 440.229 60.4379 439.984 59.9137C439.74 59.3866 439.618 58.7638 439.618 58.0453C439.618 57.3327 439.74 56.7143 439.984 56.1902C440.229 55.666 440.569 55.2611 441.005 54.9755C441.44 54.6898 441.944 54.547 442.515 54.547C442.957 54.547 443.306 54.6206 443.562 54.7679C443.821 54.9122 444.018 55.0771 444.154 55.2626C444.292 55.4452 444.4 55.5953 444.476 55.7131H444.565V52.3738H445.607V61.4199H444.6V60.3775H444.476C444.4 60.5012 444.291 60.6572 444.149 60.8457C444.008 61.0312 443.806 61.1976 443.544 61.3448C443.282 61.4891 442.933 61.5613 442.498 61.5613ZM442.639 60.6249C443.057 60.6249 443.41 60.5159 443.699 60.298C443.988 60.0771 444.207 59.7724 444.357 59.3837C444.507 58.992 444.582 58.54 444.582 58.0276C444.582 57.5212 444.509 57.078 444.362 56.6981C444.214 56.3153 443.996 56.0179 443.708 55.8059C443.419 55.5909 443.063 55.4834 442.639 55.4834C442.197 55.4834 441.829 55.5968 441.535 55.8235C441.243 56.0473 441.024 56.3521 440.876 56.7379C440.732 57.1207 440.66 57.5506 440.66 58.0276C440.66 58.5106 440.734 58.9493 440.881 59.3439C441.031 59.7356 441.252 60.0477 441.543 60.2803C441.838 60.51 442.203 60.6249 442.639 60.6249ZM449.658 61.5789C449.228 61.5789 448.837 61.498 448.487 61.336C448.137 61.1711 447.858 60.934 447.652 60.6249C447.446 60.3127 447.343 59.9358 447.343 59.4941C447.343 59.1054 447.42 58.7903 447.573 58.5489C447.726 58.3044 447.93 58.113 448.187 57.9746C448.443 57.8362 448.726 57.7332 449.035 57.6654C449.347 57.5948 449.66 57.5388 449.976 57.4976C450.388 57.4446 450.722 57.4048 450.978 57.3783C451.237 57.3489 451.426 57.3003 451.544 57.2326C451.664 57.1649 451.725 57.0471 451.725 56.8792V56.8439C451.725 56.4081 451.605 56.0694 451.367 55.828C451.131 55.5865 450.774 55.4658 450.294 55.4658C449.796 55.4658 449.406 55.5747 449.123 55.7926C448.84 56.0105 448.642 56.2432 448.527 56.4905L447.537 56.1372C447.714 55.7249 447.95 55.4039 448.244 55.1742C448.541 54.9416 448.865 54.7797 449.216 54.6884C449.569 54.5941 449.917 54.547 450.258 54.547C450.476 54.547 450.726 54.5735 451.009 54.6265C451.295 54.6766 451.57 54.7811 451.835 54.9401C452.103 55.0992 452.325 55.3391 452.502 55.6601C452.679 55.9811 452.767 56.411 452.767 56.9499V61.4199H451.725V60.5012H451.672C451.601 60.6484 451.483 60.806 451.318 60.9738C451.153 61.1416 450.934 61.2845 450.66 61.4023C450.386 61.52 450.052 61.5789 449.658 61.5789ZM449.817 60.6425C450.229 60.6425 450.576 60.5615 450.859 60.3996C451.145 60.2376 451.36 60.0286 451.504 59.7724C451.651 59.5162 451.725 59.2467 451.725 58.9641V58.01C451.681 58.063 451.583 58.1116 451.433 58.1557C451.286 58.197 451.115 58.2338 450.921 58.2662C450.729 58.2956 450.542 58.3221 450.36 58.3457C450.18 58.3663 450.034 58.384 449.923 58.3987C449.652 58.434 449.398 58.4914 449.163 58.5709C448.93 58.6475 448.742 58.7638 448.597 58.9199C448.456 59.073 448.385 59.2821 448.385 59.5471C448.385 59.9093 448.519 60.1832 448.787 60.3687C449.058 60.5512 449.401 60.6425 449.817 60.6425ZM454.67 61.4199V54.6354H455.677V55.6601H455.747C455.871 55.3244 456.095 55.052 456.419 54.843C456.743 54.6339 457.108 54.5294 457.514 54.5294C457.591 54.5294 457.687 54.5308 457.801 54.5338C457.916 54.5367 458.003 54.5411 458.062 54.547V55.6071C458.027 55.5983 457.946 55.585 457.819 55.5674C457.695 55.5467 457.564 55.5364 457.426 55.5364C457.096 55.5364 456.802 55.6056 456.543 55.744C456.286 55.8795 456.083 56.068 455.933 56.3094C455.786 56.5479 455.712 56.8203 455.712 57.1266V61.4199H454.67ZM459.298 61.4199V54.6354H460.34V61.4199H459.298ZM459.828 53.5046C459.625 53.5046 459.449 53.4354 459.302 53.297C459.158 53.1586 459.086 52.9922 459.086 52.7979C459.086 52.6035 459.158 52.4372 459.302 52.2988C459.449 52.1604 459.625 52.0912 459.828 52.0912C460.031 52.0912 460.205 52.1604 460.349 52.2988C460.496 52.4372 460.57 52.6035 460.57 52.7979C460.57 52.9922 460.496 53.1586 460.349 53.297C460.205 53.4354 460.031 53.5046 459.828 53.5046ZM465.73 61.4199V60.6249L468.716 57.3563C469.066 56.9734 469.355 56.6407 469.582 56.358C469.808 56.0724 469.976 55.8044 470.085 55.5541C470.197 55.3009 470.253 55.0358 470.253 54.759C470.253 54.441 470.176 54.1657 470.023 53.9331C469.873 53.7004 469.667 53.5208 469.405 53.3942C469.143 53.2676 468.848 53.2042 468.522 53.2042C468.174 53.2042 467.871 53.2764 467.612 53.4207C467.355 53.562 467.157 53.7608 467.015 54.017C466.877 54.2732 466.808 54.5735 466.808 54.9181H465.765C465.765 54.388 465.888 53.9228 466.132 53.5223C466.376 53.1218 466.709 52.8097 467.13 52.5859C467.554 52.3621 468.03 52.2502 468.557 52.2502C469.087 52.2502 469.557 52.3621 469.966 52.5859C470.375 52.8097 470.696 53.1115 470.929 53.4914C471.161 53.8712 471.278 54.2938 471.278 54.759C471.278 55.0918 471.217 55.4172 471.097 55.7352C470.979 56.0503 470.773 56.4022 470.478 56.7909C470.187 57.1766 469.782 57.6478 469.264 58.2043L467.232 60.3775V60.4482H471.437V61.4199H465.73ZM473.261 61.4199V60.6249L476.247 57.3563C476.597 56.9734 476.886 56.6407 477.113 56.358C477.339 56.0724 477.507 55.8044 477.616 55.5541C477.728 55.3009 477.784 55.0358 477.784 54.759C477.784 54.441 477.707 54.1657 477.554 53.9331C477.404 53.7004 477.198 53.5208 476.936 53.3942C476.674 53.2676 476.379 53.2042 476.053 53.2042C475.705 53.2042 475.402 53.2764 475.143 53.4207C474.886 53.562 474.688 53.7608 474.546 54.017C474.408 54.2732 474.339 54.5735 474.339 54.9181H473.296C473.296 54.388 473.419 53.9228 473.663 53.5223C473.907 53.1218 474.24 52.8097 474.661 52.5859C475.085 52.3621 475.561 52.2502 476.088 52.2502C476.618 52.2502 477.088 52.3621 477.497 52.5859C477.906 52.8097 478.227 53.1115 478.46 53.4914C478.692 53.8712 478.809 54.2938 478.809 54.759C478.809 55.0918 478.748 55.4172 478.628 55.7352C478.51 56.0503 478.304 56.4022 478.009 56.7909C477.718 57.1766 477.313 57.6478 476.795 58.2043L474.763 60.3775V60.4482H478.968V61.4199H473.261Z" fill="black"/>
<path d="M384.277 105.653L388.323 97.6497V97.579H383.658V96.6072H389.453V97.632L385.425 105.653H384.277ZM399.704 98.8688C399.651 98.4212 399.436 98.0737 399.059 97.8263C398.682 97.579 398.22 97.4553 397.672 97.4553C397.272 97.4553 396.922 97.5201 396.621 97.6497C396.324 97.7792 396.091 97.9574 395.923 98.1841C395.758 98.4109 395.676 98.6685 395.676 98.9571C395.676 99.1986 395.733 99.4062 395.848 99.5799C395.966 99.7507 396.116 99.8935 396.299 100.008C396.481 100.12 396.673 100.213 396.873 100.287C397.073 100.357 397.257 100.415 397.425 100.459L398.344 100.706C398.579 100.768 398.841 100.853 399.13 100.962C399.422 101.071 399.7 101.22 399.965 101.409C400.233 101.594 400.454 101.833 400.627 102.124C400.801 102.416 400.888 102.773 400.888 103.197C400.888 103.686 400.76 104.128 400.504 104.523C400.25 104.917 399.879 105.231 399.391 105.463C398.905 105.696 398.314 105.812 397.619 105.812C396.972 105.812 396.411 105.708 395.937 105.499C395.465 105.29 395.094 104.998 394.823 104.624C394.555 104.25 394.404 103.816 394.368 103.321H395.499C395.529 103.663 395.644 103.945 395.844 104.169C396.047 104.39 396.303 104.555 396.612 104.664C396.924 104.77 397.26 104.823 397.619 104.823C398.038 104.823 398.413 104.755 398.746 104.62C399.078 104.481 399.342 104.29 399.536 104.046C399.731 103.798 399.828 103.51 399.828 103.18C399.828 102.879 399.744 102.635 399.576 102.447C399.408 102.258 399.187 102.105 398.914 101.987C398.64 101.869 398.344 101.766 398.026 101.678L396.913 101.36C396.206 101.157 395.646 100.867 395.234 100.49C394.822 100.113 394.616 99.6197 394.616 99.0101C394.616 98.5036 394.753 98.0619 395.027 97.685C395.303 97.3051 395.674 97.0107 396.14 96.8016C396.608 96.5896 397.131 96.4836 397.708 96.4836C398.291 96.4836 398.809 96.5881 399.263 96.7972C399.716 97.0033 400.075 97.286 400.34 97.6452C400.608 98.0045 400.75 98.4123 400.764 98.8688H399.704ZM405.392 105.795C404.739 105.795 404.175 105.65 403.701 105.362C403.229 105.07 402.866 104.664 402.61 104.143C402.356 103.619 402.23 103.009 402.23 102.314C402.23 101.619 402.356 101.007 402.61 100.477C402.866 99.9436 403.222 99.5284 403.678 99.231C404.138 98.9306 404.674 98.7804 405.286 98.7804C405.64 98.7804 405.989 98.8393 406.333 98.9571C406.678 99.0749 406.991 99.2663 407.274 99.5313C407.557 99.7934 407.782 100.141 407.95 100.574C408.118 101.007 408.202 101.54 408.202 102.173V102.614H402.972V101.713H407.141C407.141 101.331 407.065 100.989 406.912 100.689C406.762 100.388 406.547 100.151 406.267 99.9774C405.99 99.8037 405.663 99.7168 405.286 99.7168C404.871 99.7168 404.512 99.8199 404.209 100.026C403.908 100.229 403.677 100.494 403.515 100.821C403.353 101.148 403.272 101.498 403.272 101.872V102.473C403.272 102.985 403.36 103.42 403.537 103.776C403.717 104.129 403.966 104.399 404.284 104.584C404.602 104.767 404.971 104.858 405.392 104.858C405.666 104.858 405.913 104.82 406.134 104.743C406.358 104.664 406.551 104.546 406.713 104.39C406.875 104.231 407 104.034 407.088 103.798L408.095 104.081C407.989 104.422 407.811 104.723 407.561 104.982C407.311 105.238 407.002 105.438 406.633 105.583C406.265 105.724 405.852 105.795 405.392 105.795ZM410.83 96.6072V105.653H409.787V96.6072H410.83ZM415.583 105.795C414.93 105.795 414.366 105.65 413.892 105.362C413.421 105.07 413.057 104.664 412.801 104.143C412.547 103.619 412.421 103.009 412.421 102.314C412.421 101.619 412.547 101.007 412.801 100.477C413.057 99.9436 413.413 99.5284 413.87 99.231C414.329 98.9306 414.865 98.7804 415.477 98.7804C415.831 98.7804 416.18 98.8393 416.524 98.9571C416.869 99.0749 417.182 99.2663 417.465 99.5313C417.748 99.7934 417.973 100.141 418.141 100.574C418.309 101.007 418.393 101.54 418.393 102.173V102.614H413.163V101.713H417.333C417.333 101.331 417.256 100.989 417.103 100.689C416.953 100.388 416.738 100.151 416.458 99.9774C416.181 99.8037 415.854 99.7168 415.477 99.7168C415.062 99.7168 414.703 99.8199 414.4 100.026C414.099 100.229 413.868 100.494 413.706 100.821C413.544 101.148 413.463 101.498 413.463 101.872V102.473C413.463 102.985 413.552 103.42 413.728 103.776C413.908 104.129 414.157 104.399 414.475 104.584C414.793 104.767 415.162 104.858 415.583 104.858C415.857 104.858 416.105 104.82 416.326 104.743C416.549 104.664 416.742 104.546 416.904 104.39C417.066 104.231 417.191 104.034 417.28 103.798L418.287 104.081C418.181 104.422 418.003 104.723 417.752 104.982C417.502 105.238 417.193 105.438 416.825 105.583C416.457 105.724 416.043 105.795 415.583 105.795ZM424.784 100.388L423.848 100.653C423.789 100.497 423.702 100.346 423.587 100.198C423.475 100.048 423.322 99.9244 423.128 99.8273C422.933 99.7301 422.685 99.6815 422.381 99.6815C421.966 99.6815 421.62 99.7772 421.343 99.9686C421.069 100.157 420.932 100.397 420.932 100.689C420.932 100.948 421.027 101.152 421.215 101.303C421.404 101.453 421.698 101.578 422.099 101.678L423.106 101.925C423.712 102.073 424.164 102.298 424.462 102.601C424.759 102.902 424.908 103.289 424.908 103.763C424.908 104.152 424.796 104.499 424.572 104.805C424.351 105.111 424.042 105.353 423.645 105.53C423.247 105.706 422.785 105.795 422.258 105.795C421.566 105.795 420.993 105.644 420.539 105.344C420.086 105.044 419.799 104.605 419.678 104.028L420.667 103.781C420.762 104.146 420.94 104.419 421.202 104.602C421.467 104.785 421.813 104.876 422.24 104.876C422.726 104.876 423.112 104.773 423.397 104.567C423.686 104.358 423.83 104.107 423.83 103.816C423.83 103.58 423.748 103.383 423.583 103.224C423.418 103.062 423.165 102.941 422.823 102.862L421.692 102.597C421.071 102.45 420.614 102.221 420.323 101.912C420.034 101.6 419.89 101.21 419.89 100.742C419.89 100.359 419.998 100.02 420.213 99.7257C420.43 99.4312 420.726 99.2 421.1 99.0322C421.477 98.8643 421.904 98.7804 422.381 98.7804C423.053 98.7804 423.58 98.9277 423.963 99.2221C424.348 99.5166 424.622 99.9053 424.784 100.388ZM428.473 105.812C428.044 105.812 427.653 105.731 427.303 105.569C426.953 105.404 426.674 105.167 426.468 104.858C426.262 104.546 426.159 104.169 426.159 103.727C426.159 103.339 426.235 103.024 426.389 102.782C426.542 102.538 426.746 102.346 427.003 102.208C427.259 102.07 427.541 101.967 427.851 101.899C428.163 101.828 428.476 101.772 428.791 101.731C429.204 101.678 429.538 101.638 429.794 101.612C430.053 101.582 430.242 101.534 430.36 101.466C430.48 101.398 430.541 101.28 430.541 101.113V101.077C430.541 100.641 430.421 100.303 430.183 100.061C429.947 99.8199 429.589 99.6992 429.11 99.6992C428.612 99.6992 428.222 99.8081 427.939 100.026C427.656 100.244 427.458 100.477 427.343 100.724L426.353 100.371C426.53 99.9583 426.766 99.6373 427.06 99.4076C427.357 99.175 427.681 99.0131 428.032 98.9218C428.385 98.8275 428.733 98.7804 429.074 98.7804C429.292 98.7804 429.542 98.8069 429.825 98.8599C430.111 98.91 430.386 99.0145 430.651 99.1735C430.919 99.3326 431.141 99.5725 431.318 99.8935C431.495 100.214 431.583 100.644 431.583 101.183V105.653H430.541V104.735H430.488C430.417 104.882 430.299 105.039 430.134 105.207C429.969 105.375 429.75 105.518 429.476 105.636C429.202 105.753 428.868 105.812 428.473 105.812ZM428.632 104.876C429.045 104.876 429.392 104.795 429.675 104.633C429.961 104.471 430.175 104.262 430.32 104.006C430.467 103.75 430.541 103.48 430.541 103.197V102.243C430.496 102.296 430.399 102.345 430.249 102.389C430.102 102.43 429.931 102.467 429.737 102.5C429.545 102.529 429.358 102.556 429.176 102.579C428.996 102.6 428.85 102.617 428.738 102.632C428.468 102.667 428.214 102.725 427.979 102.804C427.746 102.881 427.558 102.997 427.413 103.153C427.272 103.306 427.201 103.515 427.201 103.781C427.201 104.143 427.335 104.417 427.603 104.602C427.874 104.785 428.217 104.876 428.632 104.876ZM433.486 105.653V98.8688H434.528V105.653H433.486ZM434.016 97.738C433.813 97.738 433.637 97.6688 433.49 97.5304C433.346 97.392 433.274 97.2256 433.274 97.0313C433.274 96.8369 433.346 96.6706 433.49 96.5322C433.637 96.3938 433.813 96.3246 434.016 96.3246C434.219 96.3246 434.393 96.3938 434.537 96.5322C434.684 96.6706 434.758 96.8369 434.758 97.0313C434.758 97.2256 434.684 97.392 434.537 97.5304C434.393 97.6688 434.219 97.738 434.016 97.738ZM442.498 105.795C441.932 105.795 441.433 105.652 441 105.366C440.567 105.078 440.229 104.671 439.984 104.147C439.74 103.62 439.618 102.997 439.618 102.279C439.618 101.566 439.74 100.948 439.984 100.424C440.229 99.8994 440.569 99.4945 441.005 99.2089C441.44 98.9232 441.944 98.7804 442.515 98.7804C442.957 98.7804 443.306 98.854 443.562 99.0013C443.821 99.1456 444.018 99.3105 444.154 99.496C444.292 99.6786 444.4 99.8287 444.476 99.9465H444.565V96.6072H445.607V105.653H444.6V104.611H444.476C444.4 104.735 444.291 104.891 444.149 105.079C444.008 105.265 443.806 105.431 443.544 105.578C443.282 105.723 442.933 105.795 442.498 105.795ZM442.639 104.858C443.057 104.858 443.41 104.749 443.699 104.531C443.988 104.311 444.207 104.006 444.357 103.617C444.507 103.225 444.582 102.773 444.582 102.261C444.582 101.755 444.509 101.311 444.362 100.932C444.214 100.549 443.996 100.251 443.708 100.039C443.419 99.8243 443.063 99.7168 442.639 99.7168C442.197 99.7168 441.829 99.8302 441.535 100.057C441.243 100.281 441.024 100.586 440.876 100.971C440.732 101.354 440.66 101.784 440.66 102.261C440.66 102.744 440.734 103.183 440.881 103.577C441.031 103.969 441.252 104.281 441.543 104.514C441.838 104.743 442.203 104.858 442.639 104.858ZM449.658 105.812C449.228 105.812 448.837 105.731 448.487 105.569C448.137 105.404 447.858 105.167 447.652 104.858C447.446 104.546 447.343 104.169 447.343 103.727C447.343 103.339 447.42 103.024 447.573 102.782C447.726 102.538 447.93 102.346 448.187 102.208C448.443 102.07 448.726 101.967 449.035 101.899C449.347 101.828 449.66 101.772 449.976 101.731C450.388 101.678 450.722 101.638 450.978 101.612C451.237 101.582 451.426 101.534 451.544 101.466C451.664 101.398 451.725 101.28 451.725 101.113V101.077C451.725 100.641 451.605 100.303 451.367 100.061C451.131 99.8199 450.774 99.6992 450.294 99.6992C449.796 99.6992 449.406 99.8081 449.123 100.026C448.84 100.244 448.642 100.477 448.527 100.724L447.537 100.371C447.714 99.9583 447.95 99.6373 448.244 99.4076C448.541 99.175 448.865 99.0131 449.216 98.9218C449.569 98.8275 449.917 98.7804 450.258 98.7804C450.476 98.7804 450.726 98.8069 451.009 98.8599C451.295 98.91 451.57 99.0145 451.835 99.1735C452.103 99.3326 452.325 99.5725 452.502 99.8935C452.679 100.214 452.767 100.644 452.767 101.183V105.653H451.725V104.735H451.672C451.601 104.882 451.483 105.039 451.318 105.207C451.153 105.375 450.934 105.518 450.66 105.636C450.386 105.753 450.052 105.812 449.658 105.812ZM449.817 104.876C450.229 104.876 450.576 104.795 450.859 104.633C451.145 104.471 451.36 104.262 451.504 104.006C451.651 103.75 451.725 103.48 451.725 103.197V102.243C451.681 102.296 451.583 102.345 451.433 102.389C451.286 102.43 451.115 102.467 450.921 102.5C450.729 102.529 450.542 102.556 450.36 102.579C450.18 102.6 450.034 102.617 449.923 102.632C449.652 102.667 449.398 102.725 449.163 102.804C448.93 102.881 448.742 102.997 448.597 103.153C448.456 103.306 448.385 103.515 448.385 103.781C448.385 104.143 448.519 104.417 448.787 104.602C449.058 104.785 449.401 104.876 449.817 104.876ZM454.67 105.653V98.8688H455.677V99.8935H455.747C455.871 99.5578 456.095 99.2854 456.419 99.0764C456.743 98.8673 457.108 98.7628 457.514 98.7628C457.591 98.7628 457.687 98.7642 457.801 98.7672C457.916 98.7701 458.003 98.7745 458.062 98.7804V99.8405C458.027 99.8317 457.946 99.8184 457.819 99.8008C457.695 99.7801 457.564 99.7698 457.426 99.7698C457.096 99.7698 456.802 99.839 456.543 99.9774C456.286 100.113 456.083 100.301 455.933 100.543C455.786 100.781 455.712 101.054 455.712 101.36V105.653H454.67ZM459.298 105.653V98.8688H460.34V105.653H459.298ZM459.828 97.738C459.625 97.738 459.449 97.6688 459.302 97.5304C459.158 97.392 459.086 97.2256 459.086 97.0313C459.086 96.8369 459.158 96.6706 459.302 96.5322C459.449 96.3938 459.625 96.3246 459.828 96.3246C460.031 96.3246 460.205 96.3938 460.349 96.5322C460.496 96.6706 460.57 96.8369 460.57 97.0313C460.57 97.2256 460.496 97.392 460.349 97.5304C460.205 97.6688 460.031 97.738 459.828 97.738ZM465.73 105.653V104.858L468.716 101.59C469.066 101.207 469.355 100.874 469.582 100.591C469.808 100.306 469.976 100.038 470.085 99.7875C470.197 99.5343 470.253 99.2692 470.253 98.9924C470.253 98.6744 470.176 98.3991 470.023 98.1665C469.873 97.9338 469.667 97.7542 469.405 97.6276C469.143 97.501 468.848 97.4376 468.522 97.4376C468.174 97.4376 467.871 97.5098 467.612 97.6541C467.355 97.7954 467.157 97.9942 467.015 98.2504C466.877 98.5066 466.808 98.8069 466.808 99.1515H465.765C465.765 98.6214 465.888 98.1562 466.132 97.7557C466.376 97.3552 466.709 97.0431 467.13 96.8193C467.554 96.5955 468.03 96.4836 468.557 96.4836C469.087 96.4836 469.557 96.5955 469.966 96.8193C470.375 97.0431 470.696 97.3449 470.929 97.7248C471.161 98.1046 471.278 98.5272 471.278 98.9924C471.278 99.3252 471.217 99.6506 471.097 99.9686C470.979 100.284 470.773 100.636 470.478 101.024C470.187 101.41 469.782 101.881 469.264 102.438L467.232 104.611V104.682H471.437V105.653H465.73ZM473.261 105.653V104.858L476.247 101.59C476.597 101.207 476.886 100.874 477.113 100.591C477.339 100.306 477.507 100.038 477.616 99.7875C477.728 99.5343 477.784 99.2692 477.784 98.9924C477.784 98.6744 477.707 98.3991 477.554 98.1665C477.404 97.9338 477.198 97.7542 476.936 97.6276C476.674 97.501 476.379 97.4376 476.053 97.4376C475.705 97.4376 475.402 97.5098 475.143 97.6541C474.886 97.7954 474.688 97.9942 474.546 98.2504C474.408 98.5066 474.339 98.8069 474.339 99.1515H473.296C473.296 98.6214 473.419 98.1562 473.663 97.7557C473.907 97.3552 474.24 97.0431 474.661 96.8193C475.085 96.5955 475.561 96.4836 476.088 96.4836C476.618 96.4836 477.088 96.5955 477.497 96.8193C477.906 97.0431 478.227 97.3449 478.46 97.7248C478.692 98.1046 478.809 98.5272 478.809 98.9924C478.809 99.3252 478.748 99.6506 478.628 99.9686C478.51 100.284 478.304 100.636 478.009 101.024C477.718 101.41 477.313 101.881 476.795 102.438L474.763 104.611V104.682H478.968V105.653H473.261Z" fill="black"/>
<path d="M384.277 149.887L388.323 141.884V141.813H383.658V140.841H389.453V141.866L385.425 149.887H384.277ZM399.704 143.103C399.651 142.655 399.436 142.308 399.059 142.06C398.682 141.813 398.22 141.689 397.672 141.689C397.272 141.689 396.922 141.754 396.621 141.884C396.324 142.013 396.091 142.191 395.923 142.418C395.758 142.645 395.676 142.902 395.676 143.191C395.676 143.432 395.733 143.64 395.848 143.814C395.966 143.985 396.116 144.127 396.299 144.242C396.481 144.354 396.673 144.447 396.873 144.521C397.073 144.591 397.257 144.649 397.425 144.693L398.344 144.94C398.579 145.002 398.841 145.087 399.13 145.196C399.422 145.305 399.7 145.454 399.965 145.642C400.233 145.828 400.454 146.066 400.627 146.358C400.801 146.65 400.888 147.007 400.888 147.431C400.888 147.92 400.76 148.362 400.504 148.756C400.25 149.151 399.879 149.465 399.391 149.697C398.905 149.93 398.314 150.046 397.619 150.046C396.972 150.046 396.411 149.942 395.937 149.733C395.465 149.524 395.094 149.232 394.823 148.858C394.555 148.484 394.404 148.05 394.368 147.555H395.499C395.529 147.897 395.644 148.179 395.844 148.403C396.047 148.624 396.303 148.789 396.612 148.898C396.924 149.004 397.26 149.057 397.619 149.057C398.038 149.057 398.413 148.989 398.746 148.854C399.078 148.715 399.342 148.524 399.536 148.279C399.731 148.032 399.828 147.743 399.828 147.414C399.828 147.113 399.744 146.869 399.576 146.68C399.408 146.492 399.187 146.339 398.914 146.221C398.64 146.103 398.344 146 398.026 145.912L396.913 145.594C396.206 145.391 395.646 145.101 395.234 144.724C394.822 144.347 394.616 143.854 394.616 143.244C394.616 142.738 394.753 142.296 395.027 141.919C395.303 141.539 395.674 141.245 396.14 141.035C396.608 140.823 397.131 140.717 397.708 140.717C398.291 140.717 398.809 140.822 399.263 141.031C399.716 141.237 400.075 141.52 400.34 141.879C400.608 142.238 400.75 142.646 400.764 143.103H399.704ZM405.392 150.029C404.739 150.029 404.175 149.884 403.701 149.596C403.229 149.304 402.866 148.898 402.61 148.377C402.356 147.852 402.23 147.243 402.23 146.548C402.23 145.853 402.356 145.24 402.61 144.71C402.866 144.177 403.222 143.762 403.678 143.465C404.138 143.164 404.674 143.014 405.286 143.014C405.64 143.014 405.989 143.073 406.333 143.191C406.678 143.309 406.991 143.5 407.274 143.765C407.557 144.027 407.782 144.375 407.95 144.808C408.118 145.24 408.202 145.773 408.202 146.407V146.848H402.972V145.947H407.141C407.141 145.564 407.065 145.223 406.912 144.922C406.762 144.622 406.547 144.385 406.267 144.211C405.99 144.038 405.663 143.951 405.286 143.951C404.871 143.951 404.512 144.054 404.209 144.26C403.908 144.463 403.677 144.728 403.515 145.055C403.353 145.382 403.272 145.732 403.272 146.106V146.707C403.272 147.219 403.36 147.654 403.537 148.01C403.717 148.363 403.966 148.633 404.284 148.818C404.602 149.001 404.971 149.092 405.392 149.092C405.666 149.092 405.913 149.054 406.134 148.977C406.358 148.898 406.551 148.78 406.713 148.624C406.875 148.465 407 148.268 407.088 148.032L408.095 148.315C407.989 148.656 407.811 148.957 407.561 149.216C407.311 149.472 407.002 149.672 406.633 149.817C406.265 149.958 405.852 150.029 405.392 150.029ZM410.83 140.841V149.887H409.787V140.841H410.83ZM415.583 150.029C414.93 150.029 414.366 149.884 413.892 149.596C413.421 149.304 413.057 148.898 412.801 148.377C412.547 147.852 412.421 147.243 412.421 146.548C412.421 145.853 412.547 145.24 412.801 144.71C413.057 144.177 413.413 143.762 413.87 143.465C414.329 143.164 414.865 143.014 415.477 143.014C415.831 143.014 416.18 143.073 416.524 143.191C416.869 143.309 417.182 143.5 417.465 143.765C417.748 144.027 417.973 144.375 418.141 144.808C418.309 145.24 418.393 145.773 418.393 146.407V146.848H413.163V145.947H417.333C417.333 145.564 417.256 145.223 417.103 144.922C416.953 144.622 416.738 144.385 416.458 144.211C416.181 144.038 415.854 143.951 415.477 143.951C415.062 143.951 414.703 144.054 414.4 144.26C414.099 144.463 413.868 144.728 413.706 145.055C413.544 145.382 413.463 145.732 413.463 146.106V146.707C413.463 147.219 413.552 147.654 413.728 148.01C413.908 148.363 414.157 148.633 414.475 148.818C414.793 149.001 415.162 149.092 415.583 149.092C415.857 149.092 416.105 149.054 416.326 148.977C416.549 148.898 416.742 148.78 416.904 148.624C417.066 148.465 417.191 148.268 417.28 148.032L418.287 148.315C418.181 148.656 418.003 148.957 417.752 149.216C417.502 149.472 417.193 149.672 416.825 149.817C416.457 149.958 416.043 150.029 415.583 150.029ZM424.784 144.622L423.848 144.887C423.789 144.731 423.702 144.579 423.587 144.432C423.475 144.282 423.322 144.158 423.128 144.061C422.933 143.964 422.685 143.915 422.381 143.915C421.966 143.915 421.62 144.011 421.343 144.202C421.069 144.391 420.932 144.631 420.932 144.922C420.932 145.182 421.027 145.386 421.215 145.536C421.404 145.687 421.698 145.812 422.099 145.912L423.106 146.159C423.712 146.306 424.164 146.532 424.462 146.835C424.759 147.135 424.908 147.523 424.908 147.997C424.908 148.385 424.796 148.733 424.572 149.039C424.351 149.345 424.042 149.587 423.645 149.764C423.247 149.94 422.785 150.029 422.258 150.029C421.566 150.029 420.993 149.878 420.539 149.578C420.086 149.278 419.799 148.839 419.678 148.262L420.667 148.014C420.762 148.38 420.94 148.653 421.202 148.836C421.467 149.019 421.813 149.11 422.24 149.11C422.726 149.11 423.112 149.007 423.397 148.801C423.686 148.592 423.83 148.341 423.83 148.05C423.83 147.814 423.748 147.617 423.583 147.458C423.418 147.296 423.165 147.175 422.823 147.096L421.692 146.831C421.071 146.683 420.614 146.455 420.323 146.146C420.034 145.834 419.89 145.444 419.89 144.975C419.89 144.593 419.998 144.254 420.213 143.96C420.43 143.665 420.726 143.434 421.1 143.266C421.477 143.098 421.904 143.014 422.381 143.014C423.053 143.014 423.58 143.162 423.963 143.456C424.348 143.75 424.622 144.139 424.784 144.622ZM428.473 150.046C428.044 150.046 427.653 149.965 427.303 149.803C426.953 149.638 426.674 149.401 426.468 149.092C426.262 148.78 426.159 148.403 426.159 147.961C426.159 147.573 426.235 147.258 426.389 147.016C426.542 146.772 426.746 146.58 427.003 146.442C427.259 146.304 427.541 146.2 427.851 146.133C428.163 146.062 428.476 146.006 428.791 145.965C429.204 145.912 429.538 145.872 429.794 145.846C430.053 145.816 430.242 145.768 430.36 145.7C430.48 145.632 430.541 145.514 430.541 145.347V145.311C430.541 144.875 430.421 144.537 430.183 144.295C429.947 144.054 429.589 143.933 429.11 143.933C428.612 143.933 428.222 144.042 427.939 144.26C427.656 144.478 427.458 144.71 427.343 144.958L426.353 144.604C426.53 144.192 426.766 143.871 427.06 143.642C427.357 143.409 427.681 143.247 428.032 143.156C428.385 143.061 428.733 143.014 429.074 143.014C429.292 143.014 429.542 143.041 429.825 143.094C430.111 143.144 430.386 143.248 430.651 143.407C430.919 143.566 431.141 143.806 431.318 144.127C431.495 144.448 431.583 144.878 431.583 145.417V149.887H430.541V148.968H430.488C430.417 149.116 430.299 149.273 430.134 149.441C429.969 149.609 429.75 149.752 429.476 149.87C429.202 149.987 428.868 150.046 428.473 150.046ZM428.632 149.11C429.045 149.11 429.392 149.029 429.675 148.867C429.961 148.705 430.175 148.496 430.32 148.24C430.467 147.983 430.541 147.714 430.541 147.431V146.477C430.496 146.53 430.399 146.579 430.249 146.623C430.102 146.664 429.931 146.701 429.737 146.733C429.545 146.763 429.358 146.789 429.176 146.813C428.996 146.834 428.85 146.851 428.738 146.866C428.468 146.901 428.214 146.959 427.979 147.038C427.746 147.115 427.558 147.231 427.413 147.387C427.272 147.54 427.201 147.749 427.201 148.014C427.201 148.377 427.335 148.65 427.603 148.836C427.874 149.019 428.217 149.11 428.632 149.11ZM433.486 149.887V143.103H434.528V149.887H433.486ZM434.016 141.972C433.813 141.972 433.637 141.903 433.49 141.764C433.346 141.626 433.274 141.46 433.274 141.265C433.274 141.071 433.346 140.904 433.49 140.766C433.637 140.628 433.813 140.558 434.016 140.558C434.219 140.558 434.393 140.628 434.537 140.766C434.684 140.904 434.758 141.071 434.758 141.265C434.758 141.46 434.684 141.626 434.537 141.764C434.393 141.903 434.219 141.972 434.016 141.972ZM442.498 150.029C441.932 150.029 441.433 149.886 441 149.6C440.567 149.312 440.229 148.905 439.984 148.381C439.74 147.854 439.618 147.231 439.618 146.513C439.618 145.8 439.74 145.182 439.984 144.657C440.229 144.133 440.569 143.728 441.005 143.443C441.44 143.157 441.944 143.014 442.515 143.014C442.957 143.014 443.306 143.088 443.562 143.235C443.821 143.379 444.018 143.544 444.154 143.73C444.292 143.912 444.4 144.063 444.476 144.18H444.565V140.841H445.607V149.887H444.6V148.845H444.476C444.4 148.968 444.291 149.125 444.149 149.313C444.008 149.499 443.806 149.665 443.544 149.812C443.282 149.956 442.933 150.029 442.498 150.029ZM442.639 149.092C443.057 149.092 443.41 148.983 443.699 148.765C443.988 148.544 444.207 148.24 444.357 147.851C444.507 147.459 444.582 147.007 444.582 146.495C444.582 145.988 444.509 145.545 444.362 145.165C444.214 144.783 443.996 144.485 443.708 144.273C443.419 144.058 443.063 143.951 442.639 143.951C442.197 143.951 441.829 144.064 441.535 144.291C441.243 144.515 441.024 144.819 440.876 145.205C440.732 145.588 440.66 146.018 440.66 146.495C440.66 146.978 440.734 147.417 440.881 147.811C441.031 148.203 441.252 148.515 441.543 148.748C441.838 148.977 442.203 149.092 442.639 149.092ZM449.658 150.046C449.228 150.046 448.837 149.965 448.487 149.803C448.137 149.638 447.858 149.401 447.652 149.092C447.446 148.78 447.343 148.403 447.343 147.961C447.343 147.573 447.42 147.258 447.573 147.016C447.726 146.772 447.93 146.58 448.187 146.442C448.443 146.304 448.726 146.2 449.035 146.133C449.347 146.062 449.66 146.006 449.976 145.965C450.388 145.912 450.722 145.872 450.978 145.846C451.237 145.816 451.426 145.768 451.544 145.7C451.664 145.632 451.725 145.514 451.725 145.347V145.311C451.725 144.875 451.605 144.537 451.367 144.295C451.131 144.054 450.774 143.933 450.294 143.933C449.796 143.933 449.406 144.042 449.123 144.26C448.84 144.478 448.642 144.71 448.527 144.958L447.537 144.604C447.714 144.192 447.95 143.871 448.244 143.642C448.541 143.409 448.865 143.247 449.216 143.156C449.569 143.061 449.917 143.014 450.258 143.014C450.476 143.014 450.726 143.041 451.009 143.094C451.295 143.144 451.57 143.248 451.835 143.407C452.103 143.566 452.325 143.806 452.502 144.127C452.679 144.448 452.767 144.878 452.767 145.417V149.887H451.725V148.968H451.672C451.601 149.116 451.483 149.273 451.318 149.441C451.153 149.609 450.934 149.752 450.66 149.87C450.386 149.987 450.052 150.046 449.658 150.046ZM449.817 149.11C450.229 149.11 450.576 149.029 450.859 148.867C451.145 148.705 451.36 148.496 451.504 148.24C451.651 147.983 451.725 147.714 451.725 147.431V146.477C451.681 146.53 451.583 146.579 451.433 146.623C451.286 146.664 451.115 146.701 450.921 146.733C450.729 146.763 450.542 146.789 450.36 146.813C450.18 146.834 450.034 146.851 449.923 146.866C449.652 146.901 449.398 146.959 449.163 147.038C448.93 147.115 448.742 147.231 448.597 147.387C448.456 147.54 448.385 147.749 448.385 148.014C448.385 148.377 448.519 148.65 448.787 148.836C449.058 149.019 449.401 149.11 449.817 149.11ZM454.67 149.887V143.103H455.677V144.127H455.747C455.871 143.792 456.095 143.519 456.419 143.31C456.743 143.101 457.108 142.997 457.514 142.997C457.591 142.997 457.687 142.998 457.801 143.001C457.916 143.004 458.003 143.008 458.062 143.014V144.074C458.027 144.066 457.946 144.052 457.819 144.035C457.695 144.014 457.564 144.004 457.426 144.004C457.096 144.004 456.802 144.073 456.543 144.211C456.286 144.347 456.083 144.535 455.933 144.777C455.786 145.015 455.712 145.288 455.712 145.594V149.887H454.67ZM459.298 149.887V143.103H460.34V149.887H459.298ZM459.828 141.972C459.625 141.972 459.449 141.903 459.302 141.764C459.158 141.626 459.086 141.46 459.086 141.265C459.086 141.071 459.158 140.904 459.302 140.766C459.449 140.628 459.625 140.558 459.828 140.558C460.031 140.558 460.205 140.628 460.349 140.766C460.496 140.904 460.57 141.071 460.57 141.265C460.57 141.46 460.496 141.626 460.349 141.764C460.205 141.903 460.031 141.972 459.828 141.972ZM465.73 149.887V149.092L468.716 145.824C469.066 145.441 469.355 145.108 469.582 144.825C469.808 144.54 469.976 144.272 470.085 144.021C470.197 143.768 470.253 143.503 470.253 143.226C470.253 142.908 470.176 142.633 470.023 142.4C469.873 142.168 469.667 141.988 469.405 141.861C469.143 141.735 468.848 141.672 468.522 141.672C468.174 141.672 467.871 141.744 467.612 141.888C467.355 142.029 467.157 142.228 467.015 142.484C466.877 142.74 466.808 143.041 466.808 143.385H465.765C465.765 142.855 465.888 142.39 466.132 141.99C466.376 141.589 466.709 141.277 467.13 141.053C467.554 140.829 468.03 140.717 468.557 140.717C469.087 140.717 469.557 140.829 469.966 141.053C470.375 141.277 470.696 141.579 470.929 141.959C471.161 142.339 471.278 142.761 471.278 143.226C471.278 143.559 471.217 143.884 471.097 144.202C470.979 144.518 470.773 144.869 470.478 145.258C470.187 145.644 469.782 146.115 469.264 146.672L467.232 148.845V148.915H471.437V149.887H465.73ZM473.261 149.887V149.092L476.247 145.824C476.597 145.441 476.886 145.108 477.113 144.825C477.339 144.54 477.507 144.272 477.616 144.021C477.728 143.768 477.784 143.503 477.784 143.226C477.784 142.908 477.707 142.633 477.554 142.4C477.404 142.168 477.198 141.988 476.936 141.861C476.674 141.735 476.379 141.672 476.053 141.672C475.705 141.672 475.402 141.744 475.143 141.888C474.886 142.029 474.688 142.228 474.546 142.484C474.408 142.74 474.339 143.041 474.339 143.385H473.296C473.296 142.855 473.419 142.39 473.663 141.99C473.907 141.589 474.24 141.277 474.661 141.053C475.085 140.829 475.561 140.717 476.088 140.717C476.618 140.717 477.088 140.829 477.497 141.053C477.906 141.277 478.227 141.579 478.46 141.959C478.692 142.339 478.809 142.761 478.809 143.226C478.809 143.559 478.748 143.884 478.628 144.202C478.51 144.518 478.304 144.869 478.009 145.258C477.718 145.644 477.313 146.115 476.795 146.672L474.763 148.845V148.915H478.968V149.887H473.261Z" fill="black"/>
<path d="M384.277 194.121L388.323 186.117V186.047H383.658V185.075H389.453V186.1L385.425 194.121H384.277ZM399.704 187.337C399.651 186.889 399.436 186.541 399.059 186.294C398.682 186.047 398.22 185.923 397.672 185.923C397.272 185.923 396.922 185.988 396.621 186.117C396.324 186.247 396.091 186.425 395.923 186.652C395.758 186.879 395.676 187.136 395.676 187.425C395.676 187.666 395.733 187.874 395.848 188.048C395.966 188.218 396.116 188.361 396.299 188.476C396.481 188.588 396.673 188.681 396.873 188.754C397.073 188.825 397.257 188.882 397.425 188.927L398.344 189.174C398.579 189.236 398.841 189.321 399.13 189.43C399.422 189.539 399.7 189.688 399.965 189.876C400.233 190.062 400.454 190.3 400.627 190.592C400.801 190.883 400.888 191.241 400.888 191.665C400.888 192.154 400.76 192.596 400.504 192.99C400.25 193.385 399.879 193.699 399.391 193.931C398.905 194.164 398.314 194.28 397.619 194.28C396.972 194.28 396.411 194.176 395.937 193.966C395.465 193.757 395.094 193.466 394.823 193.092C394.555 192.718 394.404 192.284 394.368 191.789H395.499C395.529 192.13 395.644 192.413 395.844 192.637C396.047 192.858 396.303 193.023 396.612 193.132C396.924 193.238 397.26 193.291 397.619 193.291C398.038 193.291 398.413 193.223 398.746 193.088C399.078 192.949 399.342 192.758 399.536 192.513C399.731 192.266 399.828 191.977 399.828 191.648C399.828 191.347 399.744 191.103 399.576 190.914C399.408 190.726 399.187 190.573 398.914 190.455C398.64 190.337 398.344 190.234 398.026 190.146L396.913 189.828C396.206 189.625 395.646 189.335 395.234 188.958C394.822 188.581 394.616 188.087 394.616 187.478C394.616 186.971 394.753 186.53 395.027 186.153C395.303 185.773 395.674 185.478 396.14 185.269C396.608 185.057 397.131 184.951 397.708 184.951C398.291 184.951 398.809 185.056 399.263 185.265C399.716 185.471 400.075 185.754 400.34 186.113C400.608 186.472 400.75 186.88 400.764 187.337H399.704ZM405.392 194.262C404.739 194.262 404.175 194.118 403.701 193.83C403.229 193.538 402.866 193.132 402.61 192.61C402.356 192.086 402.23 191.477 402.23 190.782C402.23 190.087 402.356 189.474 402.61 188.944C402.866 188.411 403.222 187.996 403.678 187.699C404.138 187.398 404.674 187.248 405.286 187.248C405.64 187.248 405.989 187.307 406.333 187.425C406.678 187.543 406.991 187.734 407.274 187.999C407.557 188.261 407.782 188.609 407.95 189.042C408.118 189.474 408.202 190.007 408.202 190.64V191.082H402.972V190.181H407.141C407.141 189.798 407.065 189.457 406.912 189.156C406.762 188.856 406.547 188.619 406.267 188.445C405.99 188.271 405.663 188.185 405.286 188.185C404.871 188.185 404.512 188.288 404.209 188.494C403.908 188.697 403.677 188.962 403.515 189.289C403.353 189.616 403.272 189.966 403.272 190.34V190.941C403.272 191.453 403.36 191.888 403.537 192.244C403.717 192.597 403.966 192.867 404.284 193.052C404.602 193.235 404.971 193.326 405.392 193.326C405.666 193.326 405.913 193.288 406.134 193.211C406.358 193.132 406.551 193.014 406.713 192.858C406.875 192.699 407 192.502 407.088 192.266L408.095 192.549C407.989 192.89 407.811 193.191 407.561 193.45C407.311 193.706 407.002 193.906 406.633 194.05C406.265 194.192 405.852 194.262 405.392 194.262ZM410.83 185.075V194.121H409.787V185.075H410.83ZM415.583 194.262C414.93 194.262 414.366 194.118 413.892 193.83C413.421 193.538 413.057 193.132 412.801 192.61C412.547 192.086 412.421 191.477 412.421 190.782C412.421 190.087 412.547 189.474 412.801 188.944C413.057 188.411 413.413 187.996 413.87 187.699C414.329 187.398 414.865 187.248 415.477 187.248C415.831 187.248 416.18 187.307 416.524 187.425C416.869 187.543 417.182 187.734 417.465 187.999C417.748 188.261 417.973 188.609 418.141 189.042C418.309 189.474 418.393 190.007 418.393 190.64V191.082H413.163V190.181H417.333C417.333 189.798 417.256 189.457 417.103 189.156C416.953 188.856 416.738 188.619 416.458 188.445C416.181 188.271 415.854 188.185 415.477 188.185C415.062 188.185 414.703 188.288 414.4 188.494C414.099 188.697 413.868 188.962 413.706 189.289C413.544 189.616 413.463 189.966 413.463 190.34V190.941C413.463 191.453 413.552 191.888 413.728 192.244C413.908 192.597 414.157 192.867 414.475 193.052C414.793 193.235 415.162 193.326 415.583 193.326C415.857 193.326 416.105 193.288 416.326 193.211C416.549 193.132 416.742 193.014 416.904 192.858C417.066 192.699 417.191 192.502 417.28 192.266L418.287 192.549C418.181 192.89 418.003 193.191 417.752 193.45C417.502 193.706 417.193 193.906 416.825 194.05C416.457 194.192 416.043 194.262 415.583 194.262ZM424.784 188.856L423.848 189.121C423.789 188.965 423.702 188.813 423.587 188.666C423.475 188.516 423.322 188.392 423.128 188.295C422.933 188.198 422.685 188.149 422.381 188.149C421.966 188.149 421.62 188.245 421.343 188.436C421.069 188.625 420.932 188.865 420.932 189.156C420.932 189.415 421.027 189.62 421.215 189.77C421.404 189.92 421.698 190.046 422.099 190.146L423.106 190.393C423.712 190.54 424.164 190.766 424.462 191.069C424.759 191.369 424.908 191.757 424.908 192.231C424.908 192.619 424.796 192.967 424.572 193.273C424.351 193.579 424.042 193.821 423.645 193.997C423.247 194.174 422.785 194.262 422.258 194.262C421.566 194.262 420.993 194.112 420.539 193.812C420.086 193.512 419.799 193.073 419.678 192.496L420.667 192.248C420.762 192.613 420.94 192.887 421.202 193.07C421.467 193.252 421.813 193.344 422.24 193.344C422.726 193.344 423.112 193.241 423.397 193.035C423.686 192.825 423.83 192.575 423.83 192.284C423.83 192.048 423.748 191.851 423.583 191.692C423.418 191.53 423.165 191.409 422.823 191.33L421.692 191.065C421.071 190.917 420.614 190.689 420.323 190.38C420.034 190.068 419.89 189.678 419.89 189.209C419.89 188.827 419.998 188.488 420.213 188.193C420.43 187.899 420.726 187.668 421.1 187.5C421.477 187.332 421.904 187.248 422.381 187.248C423.053 187.248 423.58 187.395 423.963 187.69C424.348 187.984 424.622 188.373 424.784 188.856ZM428.473 194.28C428.044 194.28 427.653 194.199 427.303 194.037C426.953 193.872 426.674 193.635 426.468 193.326C426.262 193.014 426.159 192.637 426.159 192.195C426.159 191.807 426.235 191.491 426.389 191.25C426.542 191.006 426.746 190.814 427.003 190.676C427.259 190.537 427.541 190.434 427.851 190.367C428.163 190.296 428.476 190.24 428.791 190.199C429.204 190.146 429.538 190.106 429.794 190.08C430.053 190.05 430.242 190.001 430.36 189.934C430.48 189.866 430.541 189.748 430.541 189.58V189.545C430.541 189.109 430.421 188.771 430.183 188.529C429.947 188.288 429.589 188.167 429.11 188.167C428.612 188.167 428.222 188.276 427.939 188.494C427.656 188.712 427.458 188.944 427.343 189.192L426.353 188.838C426.53 188.426 426.766 188.105 427.06 187.875C427.357 187.643 427.681 187.481 428.032 187.39C428.385 187.295 428.733 187.248 429.074 187.248C429.292 187.248 429.542 187.275 429.825 187.328C430.111 187.378 430.386 187.482 430.651 187.641C430.919 187.8 431.141 188.04 431.318 188.361C431.495 188.682 431.583 189.112 431.583 189.651V194.121H430.541V193.202H430.488C430.417 193.35 430.299 193.507 430.134 193.675C429.969 193.843 429.75 193.986 429.476 194.103C429.202 194.221 428.868 194.28 428.473 194.28ZM428.632 193.344C429.045 193.344 429.392 193.263 429.675 193.101C429.961 192.939 430.175 192.73 430.32 192.474C430.467 192.217 430.541 191.948 430.541 191.665V190.711C430.496 190.764 430.399 190.813 430.249 190.857C430.102 190.898 429.931 190.935 429.737 190.967C429.545 190.997 429.358 191.023 429.176 191.047C428.996 191.067 428.85 191.085 428.738 191.1C428.468 191.135 428.214 191.193 427.979 191.272C427.746 191.349 427.558 191.465 427.413 191.621C427.272 191.774 427.201 191.983 427.201 192.248C427.201 192.61 427.335 192.884 427.603 193.07C427.874 193.252 428.217 193.344 428.632 193.344ZM433.486 194.121V187.337H434.528V194.121H433.486ZM434.016 186.206C433.813 186.206 433.637 186.137 433.49 185.998C433.346 185.86 433.274 185.693 433.274 185.499C433.274 185.305 433.346 185.138 433.49 185C433.637 184.862 433.813 184.792 434.016 184.792C434.219 184.792 434.393 184.862 434.537 185C434.684 185.138 434.758 185.305 434.758 185.499C434.758 185.693 434.684 185.86 434.537 185.998C434.393 186.137 434.219 186.206 434.016 186.206ZM442.498 194.262C441.932 194.262 441.433 194.12 441 193.834C440.567 193.545 440.229 193.139 439.984 192.615C439.74 192.088 439.618 191.465 439.618 190.746C439.618 190.034 439.74 189.415 439.984 188.891C440.229 188.367 440.569 187.962 441.005 187.677C441.44 187.391 441.944 187.248 442.515 187.248C442.957 187.248 443.306 187.322 443.562 187.469C443.821 187.613 444.018 187.778 444.154 187.964C444.292 188.146 444.4 188.297 444.476 188.414H444.565V185.075H445.607V194.121H444.6V193.079H444.476C444.4 193.202 444.291 193.358 444.149 193.547C444.008 193.732 443.806 193.899 443.544 194.046C443.282 194.19 442.933 194.262 442.498 194.262ZM442.639 193.326C443.057 193.326 443.41 193.217 443.699 192.999C443.988 192.778 444.207 192.474 444.357 192.085C444.507 191.693 444.582 191.241 444.582 190.729C444.582 190.222 444.509 189.779 444.362 189.399C444.214 189.016 443.996 188.719 443.708 188.507C443.419 188.292 443.063 188.185 442.639 188.185C442.197 188.185 441.829 188.298 441.535 188.525C441.243 188.749 441.024 189.053 440.876 189.439C440.732 189.822 440.66 190.252 440.66 190.729C440.66 191.212 440.734 191.651 440.881 192.045C441.031 192.437 441.252 192.749 441.543 192.982C441.838 193.211 442.203 193.326 442.639 193.326ZM449.658 194.28C449.228 194.28 448.837 194.199 448.487 194.037C448.137 193.872 447.858 193.635 447.652 193.326C447.446 193.014 447.343 192.637 447.343 192.195C447.343 191.807 447.42 191.491 447.573 191.25C447.726 191.006 447.93 190.814 448.187 190.676C448.443 190.537 448.726 190.434 449.035 190.367C449.347 190.296 449.66 190.24 449.976 190.199C450.388 190.146 450.722 190.106 450.978 190.08C451.237 190.05 451.426 190.001 451.544 189.934C451.664 189.866 451.725 189.748 451.725 189.58V189.545C451.725 189.109 451.605 188.771 451.367 188.529C451.131 188.288 450.774 188.167 450.294 188.167C449.796 188.167 449.406 188.276 449.123 188.494C448.84 188.712 448.642 188.944 448.527 189.192L447.537 188.838C447.714 188.426 447.95 188.105 448.244 187.875C448.541 187.643 448.865 187.481 449.216 187.39C449.569 187.295 449.917 187.248 450.258 187.248C450.476 187.248 450.726 187.275 451.009 187.328C451.295 187.378 451.57 187.482 451.835 187.641C452.103 187.8 452.325 188.04 452.502 188.361C452.679 188.682 452.767 189.112 452.767 189.651V194.121H451.725V193.202H451.672C451.601 193.35 451.483 193.507 451.318 193.675C451.153 193.843 450.934 193.986 450.66 194.103C450.386 194.221 450.052 194.28 449.658 194.28ZM449.817 193.344C450.229 193.344 450.576 193.263 450.859 193.101C451.145 192.939 451.36 192.73 451.504 192.474C451.651 192.217 451.725 191.948 451.725 191.665V190.711C451.681 190.764 451.583 190.813 451.433 190.857C451.286 190.898 451.115 190.935 450.921 190.967C450.729 190.997 450.542 191.023 450.36 191.047C450.18 191.067 450.034 191.085 449.923 191.1C449.652 191.135 449.398 191.193 449.163 191.272C448.93 191.349 448.742 191.465 448.597 191.621C448.456 191.774 448.385 191.983 448.385 192.248C448.385 192.61 448.519 192.884 448.787 193.07C449.058 193.252 449.401 193.344 449.817 193.344ZM454.67 194.121V187.337H455.677V188.361H455.747C455.871 188.026 456.095 187.753 456.419 187.544C456.743 187.335 457.108 187.231 457.514 187.231C457.591 187.231 457.687 187.232 457.801 187.235C457.916 187.238 458.003 187.242 458.062 187.248V188.308C458.027 188.299 457.946 188.286 457.819 188.269C457.695 188.248 457.564 188.238 457.426 188.238C457.096 188.238 456.802 188.307 456.543 188.445C456.286 188.581 456.083 188.769 455.933 189.011C455.786 189.249 455.712 189.521 455.712 189.828V194.121H454.67ZM459.298 194.121V187.337H460.34V194.121H459.298ZM459.828 186.206C459.625 186.206 459.449 186.137 459.302 185.998C459.158 185.86 459.086 185.693 459.086 185.499C459.086 185.305 459.158 185.138 459.302 185C459.449 184.862 459.625 184.792 459.828 184.792C460.031 184.792 460.205 184.862 460.349 185C460.496 185.138 460.57 185.305 460.57 185.499C460.57 185.693 460.496 185.86 460.349 185.998C460.205 186.137 460.031 186.206 459.828 186.206ZM465.73 194.121V193.326L468.716 190.057C469.066 189.675 469.355 189.342 469.582 189.059C469.808 188.774 469.976 188.506 470.085 188.255C470.197 188.002 470.253 187.737 470.253 187.46C470.253 187.142 470.176 186.867 470.023 186.634C469.873 186.402 469.667 186.222 469.405 186.095C469.143 185.969 468.848 185.905 468.522 185.905C468.174 185.905 467.871 185.978 467.612 186.122C467.355 186.263 467.157 186.462 467.015 186.718C466.877 186.974 466.808 187.275 466.808 187.619H465.765C465.765 187.089 465.888 186.624 466.132 186.223C466.376 185.823 466.709 185.511 467.13 185.287C467.554 185.063 468.03 184.951 468.557 184.951C469.087 184.951 469.557 185.063 469.966 185.287C470.375 185.511 470.696 185.813 470.929 186.193C471.161 186.572 471.278 186.995 471.278 187.46C471.278 187.793 471.217 188.118 471.097 188.436C470.979 188.751 470.773 189.103 470.478 189.492C470.187 189.878 469.782 190.349 469.264 190.905L467.232 193.079V193.149H471.437V194.121H465.73ZM473.261 194.121V193.326L476.247 190.057C476.597 189.675 476.886 189.342 477.113 189.059C477.339 188.774 477.507 188.506 477.616 188.255C477.728 188.002 477.784 187.737 477.784 187.46C477.784 187.142 477.707 186.867 477.554 186.634C477.404 186.402 477.198 186.222 476.936 186.095C476.674 185.969 476.379 185.905 476.053 185.905C475.705 185.905 475.402 185.978 475.143 186.122C474.886 186.263 474.688 186.462 474.546 186.718C474.408 186.974 474.339 187.275 474.339 187.619H473.296C473.296 187.089 473.419 186.624 473.663 186.223C473.907 185.823 474.24 185.511 474.661 185.287C475.085 185.063 475.561 184.951 476.088 184.951C476.618 184.951 477.088 185.063 477.497 185.287C477.906 185.511 478.227 185.813 478.46 186.193C478.692 186.572 478.809 186.995 478.809 187.46C478.809 187.793 478.748 188.118 478.628 188.436C478.51 188.751 478.304 189.103 478.009 189.492C477.718 189.878 477.313 190.349 476.795 190.905L474.763 193.079V193.149H478.968V194.121H473.261Z" fill="black"/>
</svg>
