<svg width="485" height="124" viewBox="0 0 485 124" fill="none" xmlns="http://www.w3.org/2000/svg">
<path d="M3.08739 12.3066V3.84009H6.10525C6.76119 3.84009 7.30551 3.95309 7.7382 4.17909C8.17366 4.40508 8.49887 4.71789 8.71384 5.11752C8.92881 5.51439 9.0363 5.97327 9.0363 6.49416C9.0363 7.01229 8.92743 7.46842 8.70971 7.86253C8.49474 8.25389 8.16952 8.55843 7.73407 8.77616C7.30137 8.99388 6.75705 9.10275 6.10112 9.10275H3.81498V8.00309H5.98536C6.39877 8.00309 6.73501 7.94383 6.99407 7.82532C7.2559 7.70681 7.44744 7.53456 7.56871 7.30857C7.68997 7.08257 7.75061 6.8111 7.75061 6.49416C7.75061 6.17446 7.68859 5.89747 7.56457 5.66321C7.44331 5.42895 7.25176 5.24981 6.98994 5.12578C6.73087 4.99901 6.3905 4.93562 5.96883 4.93562H4.36481V12.3066H3.08739ZM7.26692 8.48677L9.35875 12.3066H7.90357L5.85307 8.48677H7.26692ZM18.6214 6.59337H17.3316C17.2819 6.31777 17.1896 6.07524 17.0546 5.86578C16.9195 5.65632 16.7542 5.47856 16.5585 5.33249C16.3628 5.18642 16.1437 5.07618 15.9012 5.00176C15.6614 4.92735 15.4065 4.89014 15.1364 4.89014C14.6485 4.89014 14.2117 5.01279 13.8259 5.25807C13.4428 5.50336 13.1396 5.86302 12.9164 6.33706C12.6959 6.8111 12.5857 7.38987 12.5857 8.07337C12.5857 8.76238 12.6959 9.3439 12.9164 9.81794C13.1396 10.292 13.4442 10.6503 13.83 10.8928C14.2159 11.1353 14.6499 11.2566 15.1322 11.2566C15.3996 11.2566 15.6531 11.2208 15.8929 11.1491C16.1354 11.0747 16.3545 10.9658 16.5502 10.8225C16.7459 10.6792 16.9113 10.5042 17.0463 10.2975C17.1841 10.088 17.2792 9.84825 17.3316 9.57816L18.6214 9.5823C18.5525 9.99846 18.4188 10.3815 18.2204 10.7316C18.0247 11.0788 17.7725 11.3792 17.4638 11.6328C17.1579 11.8836 16.8079 12.0779 16.4138 12.2157C16.0197 12.3535 15.5897 12.4224 15.124 12.4224C14.3909 12.4224 13.7377 12.2488 13.1644 11.9015C12.5912 11.5515 12.1392 11.0513 11.8085 10.4008C11.4805 9.75042 11.3165 8.97459 11.3165 8.07337C11.3165 7.16939 11.4819 6.39356 11.8126 5.74589C12.1433 5.09547 12.5953 4.59662 13.1686 4.24936C13.7418 3.89935 14.3936 3.72434 15.124 3.72434C15.5732 3.72434 15.9921 3.78911 16.3807 3.91864C16.7721 4.04542 17.1235 4.23283 17.4349 4.48087C17.7463 4.72616 18.004 5.02657 18.208 5.3821C18.4119 5.73487 18.5497 6.13863 18.6214 6.59337ZM25.7663 6.06421C25.7222 5.67286 25.5403 5.36969 25.2206 5.15472C24.9009 4.937 24.4986 4.82813 24.0135 4.82813C23.6662 4.82813 23.3658 4.88325 23.1123 4.99349C22.8587 5.10098 22.6617 5.24981 22.5211 5.43997C22.3833 5.62738 22.3144 5.84098 22.3144 6.08075C22.3144 6.28194 22.3612 6.45557 22.455 6.60164C22.5514 6.74771 22.6768 6.87036 22.8312 6.96957C22.9882 7.06603 23.1564 7.14734 23.3355 7.21348C23.5146 7.27687 23.6869 7.32924 23.8523 7.37058L24.6791 7.58555C24.9492 7.65169 25.2261 7.74126 25.51 7.85426C25.7939 7.96726 26.0571 8.11609 26.2996 8.30074C26.5422 8.48539 26.7378 8.71415 26.8867 8.98699C27.0382 9.25984 27.114 9.58643 27.114 9.96676C27.114 10.4463 26.99 10.8721 26.742 11.2442C26.4967 11.6163 26.1398 11.9098 25.6712 12.1247C25.2055 12.3397 24.6419 12.4472 23.9804 12.4472C23.3465 12.4472 22.7981 12.3466 22.3351 12.1454C21.8721 11.9442 21.5096 11.659 21.2478 11.2897C20.986 10.9176 20.8413 10.4766 20.8137 9.96676H22.0953C22.1201 10.2727 22.2193 10.5276 22.3929 10.7316C22.5693 10.9328 22.7939 11.083 23.0668 11.1822C23.3424 11.2786 23.6442 11.3269 23.9722 11.3269C24.3332 11.3269 24.6543 11.2704 24.9354 11.1574C25.2193 11.0416 25.4425 10.8818 25.6051 10.6778C25.7677 10.4711 25.849 10.23 25.849 9.95436C25.849 9.70356 25.7774 9.49824 25.634 9.33839C25.4935 9.17854 25.3019 9.04625 25.0594 8.94152C24.8196 8.83679 24.5482 8.74446 24.245 8.66454L23.2446 8.39169C22.5666 8.20703 22.0291 7.93556 21.6323 7.57728C21.2382 7.21899 21.0411 6.74496 21.0411 6.15516C21.0411 5.66735 21.1734 5.24154 21.438 4.87774C21.7026 4.51394 22.0608 4.23145 22.5128 4.03026C22.9648 3.82631 23.4747 3.72434 24.0424 3.72434C24.6157 3.72434 25.1214 3.82493 25.5596 4.02613C26.0006 4.22732 26.3479 4.5043 26.6014 4.85707C26.855 5.20709 26.9873 5.60947 26.9983 6.06421H25.7663ZM30.2862 12.3066H28.9302L31.977 3.84009H33.4528L36.4996 12.3066H35.1437L32.7501 5.37796H32.6839L30.2862 12.3066ZM30.5135 8.99113H34.9122V10.066H30.5135V8.99113Z" fill="black"/>
<path d="M3.08739 60.7656V52.2991H4.36481V56.3422H4.46816L8.01932 52.2991H9.62747L6.21274 56.1107L9.63987 60.7656H8.102L5.36525 56.983L4.36481 58.1322V60.7656H3.08739ZM11.8167 60.7656V52.2991H14.8346C15.4905 52.2991 16.0348 52.4121 16.4675 52.6381C16.903 52.8641 17.2282 53.1769 17.4432 53.5765C17.6581 53.9734 17.7656 54.4323 17.7656 54.9531C17.7656 55.4713 17.6568 55.9274 17.439 56.3215C17.2241 56.7129 16.8989 57.0174 16.4634 57.2351C16.0307 57.4529 15.4864 57.5617 14.8304 57.5617H12.5443V56.4621H14.7147C15.1281 56.4621 15.4643 56.4028 15.7234 56.2843C15.9852 56.1658 16.1768 55.9935 16.298 55.7676C16.4193 55.5416 16.4799 55.2701 16.4799 54.9531C16.4799 54.6334 16.4179 54.3565 16.2939 54.1222C16.1726 53.8879 15.9811 53.7088 15.7193 53.5848C15.4602 53.458 15.1198 53.3946 14.6982 53.3946H13.0941V60.7656H11.8167ZM15.9963 56.9458L18.0881 60.7656H16.6329L14.5824 56.9458H15.9963ZM21.5961 52.2991V60.7656H20.3187V52.2991H21.5961Z" fill="black"/>
<path d="M3.08739 104.999V96.5325H4.36481V103.899H8.20122V104.999H3.08739ZM10.6571 104.999V96.5325H15.9652V97.6321H11.9345V100.212H15.6883V101.307H11.9345V103.899H16.0149V104.999H10.6571ZM21.4111 104.999H18.6702V96.5325H21.4979C22.3275 96.5325 23.0399 96.702 23.6352 97.041C24.2305 97.3772 24.6867 97.8609 25.0036 98.492C25.3233 99.1204 25.4831 99.8742 25.4831 100.753C25.4831 101.635 25.3219 102.393 24.9995 103.027C24.6798 103.661 24.2167 104.149 23.6104 104.491C23.0041 104.83 22.271 104.999 21.4111 104.999ZM19.9476 103.883H21.3408C21.9857 103.883 22.5218 103.762 22.949 103.519C23.3762 103.274 23.6959 102.92 23.9081 102.457C24.1203 101.991 24.2264 101.423 24.2264 100.753C24.2264 100.089 24.1203 99.5255 23.9081 99.0625C23.6986 98.5995 23.3858 98.2481 22.9696 98.0083C22.5535 97.7686 22.0367 97.6487 21.4194 97.6487H19.9476V103.883Z" fill="black"/>
<rect x="484" y="16" width="15" height="482" rx="7.50001" transform="rotate(90 484 16)" fill="#D9D9D9"/>
<rect x="243" y="16" width="15" height="241" rx="7.50001" transform="rotate(90 243 16)" fill="#725CFA"/>
<rect x="484.201" y="63.832" width="14.8959" height="476.414" rx="7.44795" transform="rotate(90 484.201 63.832)" fill="#D9D9D9"/>
<rect x="484" y="64" width="15" height="484" rx="7.50001" transform="rotate(90 484 64)" fill="#E86D46"/>
<rect x="484.2" y="108.9" width="14.8959" height="305.985" rx="7.44795" transform="rotate(90 484.2 108.9)" fill="#D9D9D9"/>
<rect x="484" y="109" width="15" height="484" rx="7.50001" transform="rotate(90 484 109)" fill="#1AB5B5"/>
<path d="M390.102 3.7469V12.793H389.006V4.89532H388.953L386.745 6.36178V5.24868L389.006 3.7469H390.102ZM401.308 6.00841C401.255 5.56082 401.04 5.21335 400.663 4.966C400.286 4.71864 399.824 4.59496 399.276 4.59496C398.875 4.59496 398.525 4.65975 398.225 4.78931C397.927 4.91888 397.695 5.09703 397.527 5.32377C397.362 5.55051 397.279 5.80817 397.279 6.09675C397.279 6.33822 397.337 6.54582 397.452 6.71956C397.569 6.89035 397.72 7.03316 397.902 7.14801C398.085 7.2599 398.276 7.35266 398.476 7.42628C398.677 7.49695 398.861 7.55437 399.029 7.59854L399.947 7.8459C400.183 7.90774 400.445 7.99313 400.734 8.10209C401.025 8.21104 401.303 8.35974 401.568 8.5482C401.836 8.73372 402.057 8.97224 402.231 9.26376C402.405 9.55529 402.492 9.91307 402.492 10.3371C402.492 10.8259 402.363 11.2676 402.107 11.6622C401.854 12.0568 401.483 12.3704 400.994 12.603C400.508 12.8357 399.918 12.952 399.223 12.952C398.575 12.952 398.014 12.8474 397.54 12.6384C397.069 12.4293 396.698 12.1378 396.427 11.7638C396.159 11.3898 396.007 10.9555 395.972 10.4608H397.103C397.132 10.8024 397.247 11.0851 397.447 11.3088C397.65 11.5297 397.907 11.6946 398.216 11.8036C398.528 11.9096 398.864 11.9626 399.223 11.9626C399.641 11.9626 400.017 11.8948 400.349 11.7594C400.682 11.621 400.946 11.4296 401.14 11.1852C401.334 10.9378 401.431 10.6492 401.431 10.3194C401.431 10.0191 401.348 9.77467 401.18 9.58621C401.012 9.39775 400.791 9.24462 400.517 9.12684C400.243 9.00905 399.947 8.90598 399.629 8.81764L398.516 8.49962C397.809 8.29643 397.25 8.00638 396.838 7.62946C396.425 7.25254 396.219 6.75931 396.219 6.14976C396.219 5.64327 396.356 5.20157 396.63 4.82465C396.907 4.44479 397.278 4.15032 397.743 3.94124C398.211 3.72923 398.734 3.62322 399.311 3.62322C399.894 3.62322 400.413 3.72775 400.866 3.93683C401.32 4.14296 401.679 4.42564 401.944 4.7849C402.212 5.14415 402.353 5.55199 402.368 6.00841H401.308ZM406.996 12.9343C406.342 12.9343 405.778 12.79 405.304 12.5014C404.833 12.2099 404.469 11.8036 404.213 11.2823C403.96 10.7582 403.833 10.1486 403.833 9.4537C403.833 8.75875 403.96 8.14626 404.213 7.61621C404.469 7.08322 404.826 6.66802 405.282 6.37061C405.741 6.07025 406.277 5.92007 406.89 5.92007C407.243 5.92007 407.592 5.97897 407.937 6.09675C408.281 6.21454 408.595 6.40595 408.877 6.67097C409.16 6.93304 409.385 7.28052 409.553 7.71339C409.721 8.14626 409.805 8.67924 409.805 9.31235V9.75405H404.575V8.85298H408.745C408.745 8.47017 408.668 8.12859 408.515 7.82823C408.365 7.52787 408.15 7.29082 407.87 7.11709C407.594 6.94335 407.267 6.85648 406.89 6.85648C406.475 6.85648 406.115 6.95955 405.812 7.16568C405.512 7.36886 405.281 7.63388 405.119 7.96074C404.957 8.2876 404.876 8.63802 404.876 9.01199V9.61271C404.876 10.1251 404.964 10.5594 405.141 10.9157C405.32 11.2691 405.569 11.5385 405.887 11.724C406.205 11.9066 406.575 11.9979 406.996 11.9979C407.27 11.9979 407.517 11.9596 407.738 11.8831C407.962 11.8036 408.155 11.6858 408.316 11.5297C408.478 11.3707 408.604 11.1734 408.692 10.9378L409.699 11.2205C409.593 11.5621 409.415 11.8624 409.165 12.1216C408.914 12.3778 408.605 12.578 408.237 12.7223C407.869 12.8636 407.455 12.9343 406.996 12.9343ZM412.433 3.7469V12.793H411.391V3.7469H412.433ZM417.187 12.9343C416.533 12.9343 415.969 12.79 415.495 12.5014C415.024 12.2099 414.66 11.8036 414.404 11.2823C414.151 10.7582 414.024 10.1486 414.024 9.4537C414.024 8.75875 414.151 8.14626 414.404 7.61621C414.66 7.08322 415.017 6.66802 415.473 6.37061C415.933 6.07025 416.468 5.92007 417.081 5.92007C417.434 5.92007 417.783 5.97897 418.128 6.09675C418.472 6.21454 418.786 6.40595 419.069 6.67097C419.351 6.93304 419.577 7.28052 419.744 7.71339C419.912 8.14626 419.996 8.67924 419.996 9.31235V9.75405H414.766V8.85298H418.936C418.936 8.47017 418.86 8.12859 418.706 7.82823C418.556 7.52787 418.341 7.29082 418.062 7.11709C417.785 6.94335 417.458 6.85648 417.081 6.85648C416.666 6.85648 416.307 6.95955 416.003 7.16568C415.703 7.36886 415.472 7.63388 415.31 7.96074C415.148 8.2876 415.067 8.63802 415.067 9.01199V9.61271C415.067 10.1251 415.155 10.5594 415.332 10.9157C415.511 11.2691 415.76 11.5385 416.078 11.724C416.396 11.9066 416.766 11.9979 417.187 11.9979C417.461 11.9979 417.708 11.9596 417.929 11.8831C418.153 11.8036 418.346 11.6858 418.508 11.5297C418.67 11.3707 418.795 11.1734 418.883 10.9378L419.89 11.2205C419.784 11.5621 419.606 11.8624 419.356 12.1216C419.105 12.3778 418.796 12.578 418.428 12.7223C418.06 12.8636 417.646 12.9343 417.187 12.9343ZM426.388 7.52787L425.451 7.79289C425.392 7.63682 425.305 7.48517 425.191 7.33794C425.079 7.18776 424.926 7.06408 424.731 6.96691C424.537 6.86973 424.288 6.82115 423.985 6.82115C423.57 6.82115 423.224 6.91685 422.947 7.10825C422.673 7.29671 422.536 7.53671 422.536 7.82823C422.536 8.08736 422.63 8.29202 422.819 8.4422C423.007 8.59237 423.302 8.71752 423.702 8.81764L424.709 9.065C425.316 9.21223 425.768 9.4375 426.065 9.7408C426.363 10.0412 426.511 10.4284 426.511 10.9025C426.511 11.2912 426.399 11.6387 426.176 11.9449C425.955 12.2511 425.646 12.4926 425.248 12.6693C424.851 12.846 424.388 12.9343 423.861 12.9343C423.169 12.9343 422.596 12.7841 422.143 12.4838C421.689 12.1834 421.402 11.7447 421.282 11.1675L422.271 10.9201C422.365 11.2853 422.543 11.5591 422.805 11.7417C423.07 11.9243 423.416 12.0156 423.843 12.0156C424.329 12.0156 424.715 11.9125 425.001 11.7064C425.289 11.4973 425.434 11.247 425.434 10.9555C425.434 10.7199 425.351 10.5226 425.186 10.3636C425.021 10.2016 424.768 10.0809 424.426 10.0014L423.296 9.73639C422.674 9.58915 422.218 9.36094 421.926 9.05175C421.638 8.73961 421.494 8.34944 421.494 7.88123C421.494 7.49842 421.601 7.15979 421.816 6.86532C422.034 6.57085 422.33 6.33969 422.704 6.17184C423.081 6.004 423.508 5.92007 423.985 5.92007C424.656 5.92007 425.183 6.06731 425.566 6.36178C425.952 6.65624 426.226 7.04494 426.388 7.52787ZM430.077 12.952C429.647 12.952 429.257 12.871 428.906 12.709C428.556 12.5441 428.278 12.3071 428.072 11.9979C427.866 11.6858 427.762 11.3088 427.762 10.8671C427.762 10.4784 427.839 10.1634 427.992 9.9219C428.145 9.67749 428.35 9.48609 428.606 9.34769C428.862 9.20929 429.145 9.10622 429.454 9.03849C429.766 8.96782 430.08 8.91187 430.395 8.87065C430.807 8.81764 431.141 8.77789 431.398 8.75139C431.657 8.72194 431.845 8.67335 431.963 8.60563C432.084 8.5379 432.144 8.42011 432.144 8.25226V8.21693C432.144 7.78111 432.025 7.44248 431.786 7.20101C431.551 6.95955 431.193 6.83882 430.713 6.83882C430.215 6.83882 429.825 6.94777 429.543 7.16568C429.26 7.38358 429.061 7.61621 428.946 7.86357L427.957 7.5102C428.133 7.09795 428.369 6.77698 428.664 6.54729C428.961 6.31466 429.285 6.1527 429.635 6.06142C429.989 5.96719 430.336 5.92007 430.678 5.92007C430.896 5.92007 431.146 5.94658 431.429 5.99958C431.714 6.04964 431.99 6.15418 432.255 6.31319C432.523 6.4722 432.745 6.71219 432.922 7.03316C433.098 7.35413 433.187 7.78406 433.187 8.32294V12.793H432.144V11.8742H432.091C432.02 12.0215 431.903 12.179 431.738 12.3468C431.573 12.5147 431.353 12.6575 431.08 12.7753C430.806 12.8931 430.472 12.952 430.077 12.952ZM430.236 12.0156C430.648 12.0156 430.996 11.9346 431.278 11.7726C431.564 11.6107 431.779 11.4016 431.923 11.1454C432.071 10.8892 432.144 10.6198 432.144 10.3371V9.38302C432.1 9.43603 432.003 9.48461 431.853 9.52878C431.705 9.57001 431.535 9.60682 431.34 9.63921C431.149 9.66866 430.962 9.69516 430.779 9.71872C430.6 9.73933 430.454 9.757 430.342 9.77172C430.071 9.80706 429.818 9.86448 429.582 9.94399C429.35 10.0205 429.161 10.1369 429.017 10.2929C428.876 10.4461 428.805 10.6551 428.805 10.9201C428.805 11.2823 428.939 11.5562 429.207 11.7417C429.478 11.9243 429.821 12.0156 430.236 12.0156ZM435.089 12.793V6.00841H436.132V12.793H435.089ZM435.619 4.87765C435.416 4.87765 435.241 4.80845 435.094 4.67005C434.949 4.53165 434.877 4.36528 434.877 4.17093C434.877 3.97658 434.949 3.81021 435.094 3.67181C435.241 3.53341 435.416 3.46421 435.619 3.46421C435.822 3.46421 435.996 3.53341 436.14 3.67181C436.288 3.81021 436.361 3.97658 436.361 4.17093C436.361 4.36528 436.288 4.53165 436.14 4.67005C435.996 4.80845 435.822 4.87765 435.619 4.87765ZM444.101 12.9343C443.536 12.9343 443.037 12.7915 442.604 12.5059C442.171 12.2173 441.832 11.8109 441.588 11.2868C441.343 10.7597 441.221 10.1369 441.221 9.41836C441.221 8.70575 441.343 8.08736 441.588 7.56321C441.832 7.03905 442.172 6.63416 442.608 6.34852C443.044 6.06289 443.547 5.92007 444.119 5.92007C444.56 5.92007 444.909 5.99369 445.166 6.14092C445.425 6.28521 445.622 6.45012 445.757 6.63563C445.896 6.8182 446.003 6.96838 446.08 7.08617H446.168V3.7469H447.211V12.793H446.204V11.7506H446.08C446.003 11.8742 445.894 12.0303 445.753 12.2188C445.612 12.4043 445.41 12.5706 445.148 12.7179C444.886 12.8622 444.537 12.9343 444.101 12.9343ZM444.242 11.9979C444.661 11.9979 445.014 11.889 445.302 11.671C445.591 11.4502 445.81 11.1454 445.961 10.7567C446.111 10.3651 446.186 9.91307 446.186 9.40069C446.186 8.89421 446.112 8.45103 445.965 8.07117C445.818 7.68836 445.6 7.39094 445.311 7.17893C445.023 6.96396 444.666 6.85648 444.242 6.85648C443.801 6.85648 443.433 6.96985 443.138 7.19659C442.847 7.42039 442.627 7.72517 442.48 8.11092C442.336 8.49373 442.264 8.92365 442.264 9.40069C442.264 9.88362 442.337 10.3224 442.484 10.717C442.635 11.1086 442.855 11.4207 443.147 11.6534C443.441 11.8831 443.807 11.9979 444.242 11.9979ZM451.261 12.952C450.831 12.952 450.441 12.871 450.091 12.709C449.74 12.5441 449.462 12.3071 449.256 11.9979C449.05 11.6858 448.947 11.3088 448.947 10.8671C448.947 10.4784 449.023 10.1634 449.176 9.9219C449.329 9.67749 449.534 9.48609 449.79 9.34769C450.046 9.20929 450.329 9.10622 450.638 9.03849C450.95 8.96782 451.264 8.91187 451.579 8.87065C451.991 8.81764 452.326 8.77789 452.582 8.75139C452.841 8.72194 453.029 8.67335 453.147 8.60563C453.268 8.5379 453.328 8.42011 453.328 8.25226V8.21693C453.328 7.78111 453.209 7.44248 452.97 7.20101C452.735 6.95955 452.377 6.83882 451.897 6.83882C451.399 6.83882 451.009 6.94777 450.727 7.16568C450.444 7.38358 450.245 7.61621 450.13 7.86357L449.141 7.5102C449.318 7.09795 449.553 6.77698 449.848 6.54729C450.145 6.31466 450.469 6.1527 450.819 6.06142C451.173 5.96719 451.52 5.92007 451.862 5.92007C452.08 5.92007 452.33 5.94658 452.613 5.99958C452.898 6.04964 453.174 6.15418 453.439 6.31319C453.707 6.4722 453.929 6.71219 454.106 7.03316C454.282 7.35413 454.371 7.78406 454.371 8.32294V12.793H453.328V11.8742H453.275C453.205 12.0215 453.087 12.179 452.922 12.3468C452.757 12.5147 452.538 12.6575 452.264 12.7753C451.99 12.8931 451.656 12.952 451.261 12.952ZM451.42 12.0156C451.832 12.0156 452.18 11.9346 452.462 11.7726C452.748 11.6107 452.963 11.4016 453.107 11.1454C453.255 10.8892 453.328 10.6198 453.328 10.3371V9.38302C453.284 9.43603 453.187 9.48461 453.037 9.52878C452.889 9.57001 452.719 9.60682 452.524 9.63921C452.333 9.66866 452.146 9.69516 451.963 9.71872C451.784 9.73933 451.638 9.757 451.526 9.77172C451.255 9.80706 451.002 9.86448 450.766 9.94399C450.534 10.0205 450.345 10.1369 450.201 10.2929C450.06 10.4461 449.989 10.6551 449.989 10.9201C449.989 11.2823 450.123 11.5562 450.391 11.7417C450.662 11.9243 451.005 12.0156 451.42 12.0156ZM456.273 12.793V6.00841H457.28V7.03316H457.351C457.475 6.69747 457.698 6.42509 458.022 6.21601C458.346 6.00694 458.711 5.9024 459.118 5.9024C459.194 5.9024 459.29 5.90388 459.405 5.90682C459.52 5.90977 459.607 5.91418 459.666 5.92007V6.98016C459.63 6.97133 459.549 6.95807 459.423 6.94041C459.299 6.91979 459.168 6.90949 459.029 6.90949C458.7 6.90949 458.405 6.97869 458.146 7.11709C457.89 7.25254 457.687 7.441 457.537 7.68247C457.389 7.92099 457.316 8.19337 457.316 8.49962V12.793H456.273ZM460.901 12.793V6.00841H461.944V12.793H460.901ZM461.431 4.87765C461.228 4.87765 461.053 4.80845 460.906 4.67005C460.761 4.53165 460.689 4.36528 460.689 4.17093C460.689 3.97658 460.761 3.81021 460.906 3.67181C461.053 3.53341 461.228 3.46421 461.431 3.46421C461.634 3.46421 461.808 3.53341 461.952 3.67181C462.1 3.81021 462.173 3.97658 462.173 4.17093C462.173 4.36528 462.1 4.53165 461.952 4.67005C461.808 4.80845 461.634 4.87765 461.431 4.87765ZM467.333 12.793V11.9979L470.319 8.7293C470.67 8.34649 470.958 8.01374 471.185 7.73105C471.412 7.44542 471.58 7.17745 471.689 6.92716C471.801 6.67391 471.857 6.40889 471.857 6.13209C471.857 5.81406 471.78 5.53874 471.627 5.30611C471.477 5.07348 471.271 4.89385 471.008 4.76723C470.746 4.64061 470.452 4.5773 470.125 4.5773C469.778 4.5773 469.474 4.64944 469.215 4.79373C468.959 4.93508 468.76 5.13384 468.619 5.39003C468.48 5.64622 468.411 5.94658 468.411 6.2911H467.369C467.369 5.76106 467.491 5.2958 467.735 4.89532C467.98 4.49485 468.313 4.18271 468.734 3.95891C469.158 3.73512 469.633 3.62322 470.16 3.62322C470.69 3.62322 471.16 3.73512 471.569 3.95891C471.979 4.18271 472.3 4.48454 472.532 4.8644C472.765 5.24427 472.881 5.66683 472.881 6.13209C472.881 6.46484 472.821 6.79023 472.7 7.10825C472.582 7.42334 472.376 7.77522 472.082 8.16392C471.79 8.54968 471.385 9.02083 470.867 9.57737L468.835 11.7506V11.8212H473.04V12.793H467.333Z" fill="black"/>
<path d="M391.476 52.2059V61.252H390.381V53.3543H390.328L388.119 54.8208V53.7077L390.381 52.2059H391.476ZM402.682 54.4674C402.629 54.0198 402.414 53.6723 402.037 53.425C401.661 53.1776 401.198 53.0539 400.65 53.0539C400.25 53.0539 399.9 53.1187 399.599 53.2483C399.302 53.3779 399.069 53.556 398.901 53.7828C398.736 54.0095 398.654 54.2672 398.654 54.5557C398.654 54.7972 398.711 55.0048 398.826 55.1785C398.944 55.3493 399.094 55.4921 399.277 55.607C399.459 55.7189 399.651 55.8116 399.851 55.8853C400.051 55.9559 400.235 56.0134 400.403 56.0575L401.322 56.3049C401.557 56.3667 401.82 56.4521 402.108 56.5611C402.4 56.67 402.678 56.8187 402.943 57.0072C403.211 57.1927 403.432 57.4312 403.605 57.7227C403.779 58.0143 403.866 58.3721 403.866 58.7961C403.866 59.2849 403.738 59.7266 403.482 60.1212C403.229 60.5158 402.858 60.8294 402.369 61.062C401.883 61.2947 401.292 61.411 400.597 61.411C399.95 61.411 399.389 61.3064 398.915 61.0974C398.443 60.8883 398.072 60.5968 397.802 60.2228C397.534 59.8488 397.382 59.4145 397.347 58.9198H398.477C398.507 59.2613 398.622 59.544 398.822 59.7678C399.025 59.9887 399.281 60.1536 399.59 60.2625C399.903 60.3685 400.238 60.4216 400.597 60.4216C401.016 60.4216 401.391 60.3538 401.724 60.2184C402.057 60.08 402.32 59.8886 402.514 59.6442C402.709 59.3968 402.806 59.1082 402.806 58.7784C402.806 58.4781 402.722 58.2337 402.554 58.0452C402.386 57.8567 402.166 57.7036 401.892 57.5858C401.618 57.468 401.322 57.365 401.004 57.2766L399.891 56.9586C399.184 56.7554 398.625 56.4654 398.212 56.0884C397.8 55.7115 397.594 55.2183 397.594 54.6087C397.594 54.1023 397.731 53.6606 398.005 53.2836C398.281 52.9038 398.653 52.6093 399.118 52.4002C399.586 52.1882 400.109 52.0822 400.686 52.0822C401.269 52.0822 401.787 52.1867 402.241 52.3958C402.694 52.6019 403.053 52.8846 403.318 53.2439C403.586 53.6031 403.728 54.011 403.742 54.4674H402.682ZM408.37 61.3933C407.717 61.3933 407.153 61.249 406.679 60.9604C406.207 60.6689 405.844 60.2625 405.588 59.7413C405.334 59.2172 405.208 58.6076 405.208 57.9127C405.208 57.2177 405.334 56.6052 405.588 56.0752C405.844 55.5422 406.2 55.127 406.657 54.8296C407.116 54.5292 407.652 54.3791 408.264 54.3791C408.618 54.3791 408.967 54.438 409.311 54.5557C409.656 54.6735 409.969 54.8649 410.252 55.13C410.535 55.392 410.76 55.7395 410.928 56.1724C411.096 56.6052 411.18 57.1382 411.18 57.7713V58.213H405.95V57.312H410.12C410.12 56.9292 410.043 56.5876 409.89 56.2872C409.74 55.9869 409.525 55.7498 409.245 55.5761C408.968 55.4023 408.641 55.3155 408.264 55.3155C407.849 55.3155 407.49 55.4185 407.187 55.6247C406.886 55.8278 406.655 56.0929 406.493 56.4197C406.331 56.7466 406.25 57.097 406.25 57.471V58.0717C406.25 58.5841 406.339 59.0184 406.515 59.3747C406.695 59.7281 406.944 59.9975 407.262 60.183C407.58 60.3656 407.949 60.4569 408.37 60.4569C408.644 60.4569 408.892 60.4186 409.112 60.342C409.336 60.2625 409.529 60.1448 409.691 59.9887C409.853 59.8297 409.978 59.6324 410.066 59.3968L411.074 59.6795C410.968 60.0211 410.789 60.3214 410.539 60.5806C410.289 60.8368 409.98 61.037 409.612 61.1813C409.243 61.3226 408.83 61.3933 408.37 61.3933ZM413.808 52.2059V61.252H412.765V52.2059H413.808ZM418.562 61.3933C417.908 61.3933 417.344 61.249 416.87 60.9604C416.399 60.6689 416.035 60.2625 415.779 59.7413C415.526 59.2172 415.399 58.6076 415.399 57.9127C415.399 57.2177 415.526 56.6052 415.779 56.0752C416.035 55.5422 416.391 55.127 416.848 54.8296C417.307 54.5292 417.843 54.3791 418.456 54.3791C418.809 54.3791 419.158 54.438 419.502 54.5557C419.847 54.6735 420.161 54.8649 420.443 55.13C420.726 55.392 420.951 55.7395 421.119 56.1724C421.287 56.6052 421.371 57.1382 421.371 57.7713V58.213H416.141V57.312H420.311C420.311 56.9292 420.234 56.5876 420.081 56.2872C419.931 55.9869 419.716 55.7498 419.436 55.5761C419.159 55.4023 418.832 55.3155 418.456 55.3155C418.04 55.3155 417.681 55.4185 417.378 55.6247C417.077 55.8278 416.846 56.0929 416.684 56.4197C416.522 56.7466 416.441 57.097 416.441 57.471V58.0717C416.441 58.5841 416.53 59.0184 416.706 59.3747C416.886 59.7281 417.135 59.9975 417.453 60.183C417.771 60.3656 418.14 60.4569 418.562 60.4569C418.835 60.4569 419.083 60.4186 419.304 60.342C419.527 60.2625 419.72 60.1448 419.882 59.9887C420.044 59.8297 420.169 59.6324 420.258 59.3968L421.265 59.6795C421.159 60.0211 420.981 60.3214 420.73 60.5806C420.48 60.8368 420.171 61.037 419.803 61.1813C419.435 61.3226 419.021 61.3933 418.562 61.3933ZM427.762 55.9869L426.826 56.2519C426.767 56.0958 426.68 55.9442 426.565 55.7969C426.453 55.6467 426.3 55.5231 426.106 55.4259C425.911 55.3287 425.663 55.2801 425.359 55.2801C424.944 55.2801 424.598 55.3758 424.321 55.5672C424.047 55.7557 423.911 55.9957 423.911 56.2872C423.911 56.5463 424.005 56.751 424.193 56.9012C424.382 57.0514 424.676 57.1765 425.077 57.2766L426.084 57.524C426.69 57.6712 427.142 57.8965 427.44 58.1998C427.737 58.5001 427.886 58.8874 427.886 59.3615C427.886 59.7502 427.774 60.0976 427.55 60.4039C427.329 60.7101 427.02 60.9516 426.623 61.1283C426.225 61.305 425.763 61.3933 425.236 61.3933C424.544 61.3933 423.971 61.2431 423.517 60.9428C423.064 60.6424 422.777 60.2036 422.656 59.6265L423.646 59.3791C423.74 59.7443 423.918 60.0181 424.18 60.2007C424.445 60.3833 424.791 60.4746 425.218 60.4746C425.704 60.4746 426.09 60.3715 426.375 60.1654C426.664 59.9563 426.808 59.706 426.808 59.4145C426.808 59.1789 426.726 58.9816 426.561 58.8226C426.396 58.6606 426.143 58.5399 425.801 58.4604L424.67 58.1954C424.049 58.0481 423.593 57.8199 423.301 57.5107C423.012 57.1986 422.868 56.8084 422.868 56.3402C422.868 55.9574 422.976 55.6188 423.191 55.3243C423.408 55.0298 423.704 54.7987 424.078 54.6308C424.455 54.463 424.882 54.3791 425.359 54.3791C426.031 54.3791 426.558 54.5263 426.941 54.8208C427.326 55.1152 427.6 55.5039 427.762 55.9869ZM431.452 61.411C431.022 61.411 430.631 61.33 430.281 61.168C429.931 61.0031 429.652 60.7661 429.446 60.4569C429.24 60.1448 429.137 59.7678 429.137 59.3261C429.137 58.9374 429.214 58.6223 429.367 58.3809C429.52 58.1365 429.724 57.9451 429.981 57.8067C430.237 57.6683 430.52 57.5652 430.829 57.4975C431.141 57.4268 431.454 57.3709 431.77 57.3296C432.182 57.2766 432.516 57.2369 432.772 57.2104C433.031 57.1809 433.22 57.1323 433.338 57.0646C433.458 56.9969 433.519 56.8791 433.519 56.7112V56.6759C433.519 56.2401 433.399 55.9015 433.161 55.66C432.925 55.4185 432.568 55.2978 432.088 55.2978C431.59 55.2978 431.2 55.4068 430.917 55.6247C430.634 55.8426 430.436 56.0752 430.321 56.3225L429.331 55.9692C429.508 55.5569 429.744 55.236 430.038 55.0063C430.336 54.7736 430.659 54.6117 431.01 54.5204C431.363 54.4262 431.711 54.3791 432.052 54.3791C432.27 54.3791 432.52 54.4056 432.803 54.4586C433.089 54.5086 433.364 54.6132 433.629 54.7722C433.897 54.9312 434.119 55.1712 434.296 55.4921C434.473 55.8131 434.561 56.243 434.561 56.7819V61.252H433.519V60.3332H433.466C433.395 60.4804 433.277 60.638 433.112 60.8058C432.947 60.9737 432.728 61.1165 432.454 61.2343C432.18 61.3521 431.846 61.411 431.452 61.411ZM431.611 60.4746C432.023 60.4746 432.37 60.3936 432.653 60.2316C432.939 60.0697 433.154 59.8606 433.298 59.6044C433.445 59.3482 433.519 59.0788 433.519 58.7961V57.842C433.475 57.895 433.377 57.9436 433.227 57.9878C433.08 58.029 432.909 58.0658 432.715 58.0982C432.523 58.1276 432.336 58.1541 432.154 58.1777C431.974 58.1983 431.828 58.216 431.717 58.2307C431.446 58.266 431.192 58.3235 430.957 58.403C430.724 58.4795 430.536 58.5958 430.391 58.7519C430.25 58.905 430.179 59.1141 430.179 59.3791C430.179 59.7413 430.313 60.0152 430.581 60.2007C430.852 60.3833 431.195 60.4746 431.611 60.4746ZM436.464 61.252V54.4674H437.506V61.252H436.464ZM436.994 53.3366C436.791 53.3366 436.615 53.2674 436.468 53.129C436.324 52.9906 436.252 52.8243 436.252 52.6299C436.252 52.4356 436.324 52.2692 436.468 52.1308C436.615 51.9924 436.791 51.9232 436.994 51.9232C437.197 51.9232 437.371 51.9924 437.515 52.1308C437.662 52.2692 437.736 52.4356 437.736 52.6299C437.736 52.8243 437.662 52.9906 437.515 53.129C437.371 53.2674 437.197 53.3366 436.994 53.3366ZM445.476 61.3933C444.91 61.3933 444.411 61.2505 443.978 60.9648C443.545 60.6763 443.207 60.2699 442.962 59.7457C442.718 59.2186 442.596 58.5958 442.596 57.8773C442.596 57.1647 442.718 56.5463 442.962 56.0222C443.207 55.498 443.547 55.0931 443.983 54.8075C444.418 54.5219 444.922 54.3791 445.493 54.3791C445.935 54.3791 446.284 54.4527 446.54 54.5999C446.799 54.7442 446.997 54.9091 447.132 55.0946C447.27 55.2772 447.378 55.4274 447.454 55.5452H447.543V52.2059H448.585V61.252H447.578V60.2095H447.454C447.378 60.3332 447.269 60.4893 447.128 60.6777C446.986 60.8633 446.785 61.0296 446.522 61.1769C446.26 61.3212 445.911 61.3933 445.476 61.3933ZM445.617 60.4569C446.035 60.4569 446.388 60.3479 446.677 60.13C446.966 59.9092 447.185 59.6044 447.335 59.2157C447.485 58.8241 447.56 58.3721 447.56 57.8597C447.56 57.3532 447.487 56.91 447.34 56.5301C447.192 56.1473 446.974 55.8499 446.686 55.6379C446.397 55.4229 446.041 55.3155 445.617 55.3155C445.175 55.3155 444.807 55.4288 444.513 55.6556C444.221 55.8794 444.002 56.1841 443.855 56.5699C443.71 56.9527 443.638 57.3826 443.638 57.8597C443.638 58.3426 443.712 58.7814 443.859 59.1759C444.009 59.5676 444.23 59.8797 444.522 60.1124C444.816 60.342 445.181 60.4569 445.617 60.4569ZM452.636 61.411C452.206 61.411 451.816 61.33 451.465 61.168C451.115 61.0031 450.836 60.7661 450.63 60.4569C450.424 60.1448 450.321 59.7678 450.321 59.3261C450.321 58.9374 450.398 58.6223 450.551 58.3809C450.704 58.1365 450.909 57.9451 451.165 57.8067C451.421 57.6683 451.704 57.5652 452.013 57.4975C452.325 57.4268 452.639 57.3709 452.954 57.3296C453.366 57.2766 453.7 57.2369 453.956 57.2104C454.215 57.1809 454.404 57.1323 454.522 57.0646C454.642 56.9969 454.703 56.8791 454.703 56.7112V56.6759C454.703 56.2401 454.584 55.9015 454.345 55.66C454.109 55.4185 453.752 55.2978 453.272 55.2978C452.774 55.2978 452.384 55.4068 452.101 55.6247C451.818 55.8426 451.62 56.0752 451.505 56.3225L450.515 55.9692C450.692 55.5569 450.928 55.236 451.222 55.0063C451.52 54.7736 451.843 54.6117 452.194 54.5204C452.547 54.4262 452.895 54.3791 453.236 54.3791C453.454 54.3791 453.705 54.4056 453.987 54.4586C454.273 54.5086 454.548 54.6132 454.813 54.7722C455.081 54.9312 455.303 55.1712 455.48 55.4921C455.657 55.8131 455.745 56.243 455.745 56.7819V61.252H454.703V60.3332H454.65C454.579 60.4804 454.461 60.638 454.296 60.8058C454.132 60.9737 453.912 61.1165 453.638 61.2343C453.364 61.3521 453.03 61.411 452.636 61.411ZM452.795 60.4746C453.207 60.4746 453.554 60.3936 453.837 60.2316C454.123 60.0697 454.338 59.8606 454.482 59.6044C454.629 59.3482 454.703 59.0788 454.703 58.7961V57.842C454.659 57.895 454.561 57.9436 454.411 57.9878C454.264 58.029 454.093 58.0658 453.899 58.0982C453.707 58.1276 453.52 58.1541 453.338 58.1777C453.158 58.1983 453.013 58.216 452.901 58.2307C452.63 58.266 452.376 58.3235 452.141 58.403C451.908 58.4795 451.72 58.5958 451.576 58.7519C451.434 58.905 451.363 59.1141 451.363 59.3791C451.363 59.7413 451.497 60.0152 451.765 60.2007C452.036 60.3833 452.379 60.4746 452.795 60.4746ZM457.648 61.252V54.4674H458.655V55.4921H458.726C458.849 55.1565 459.073 54.8841 459.397 54.675C459.721 54.4659 460.086 54.3614 460.492 54.3614C460.569 54.3614 460.665 54.3629 460.78 54.3658C460.894 54.3688 460.981 54.3732 461.04 54.3791V55.4391C461.005 55.4303 460.924 55.4171 460.797 55.3994C460.673 55.3788 460.542 55.3685 460.404 55.3685C460.074 55.3685 459.78 55.4377 459.521 55.5761C459.264 55.7115 459.061 55.9 458.911 56.1415C458.764 56.38 458.69 56.6524 458.69 56.9586V61.252H457.648ZM462.276 61.252V54.4674H463.318V61.252H462.276ZM462.806 53.3366C462.603 53.3366 462.427 53.2674 462.28 53.129C462.136 52.9906 462.064 52.8243 462.064 52.6299C462.064 52.4356 462.136 52.2692 462.28 52.1308C462.427 51.9924 462.603 51.9232 462.806 51.9232C463.009 51.9232 463.183 51.9924 463.327 52.1308C463.474 52.2692 463.548 52.4356 463.548 52.6299C463.548 52.8243 463.474 52.9906 463.327 53.129C463.183 53.2674 463.009 53.3366 462.806 53.3366ZM471.888 52.2059V61.252H470.793V53.3543H470.74L468.531 54.8208V53.7077L470.793 52.2059H471.888Z" fill="black"/>
<path d="M391.476 96.4393V105.485H390.381V97.5877H390.328L388.119 99.0542V97.9411L390.381 96.4393H391.476ZM402.682 98.7008C402.629 98.2532 402.414 97.9057 402.037 97.6584C401.661 97.411 401.198 97.2873 400.65 97.2873C400.25 97.2873 399.9 97.3521 399.599 97.4817C399.302 97.6113 399.069 97.7894 398.901 98.0162C398.736 98.2429 398.654 98.5006 398.654 98.7891C398.654 99.0306 398.711 99.2382 398.826 99.4119C398.944 99.5827 399.094 99.7255 399.277 99.8404C399.459 99.9523 399.651 100.045 399.851 100.119C400.051 100.189 400.235 100.247 400.403 100.291L401.322 100.538C401.557 100.6 401.82 100.686 402.108 100.794C402.4 100.903 402.678 101.052 402.943 101.241C403.211 101.426 403.432 101.665 403.605 101.956C403.779 102.248 403.866 102.605 403.866 103.029C403.866 103.518 403.738 103.96 403.482 104.355C403.229 104.749 402.858 105.063 402.369 105.295C401.883 105.528 401.292 105.644 400.597 105.644C399.95 105.644 399.389 105.54 398.915 105.331C398.443 105.122 398.072 104.83 397.802 104.456C397.534 104.082 397.382 103.648 397.347 103.153H398.477C398.507 103.495 398.622 103.777 398.822 104.001C399.025 104.222 399.281 104.387 399.59 104.496C399.903 104.602 400.238 104.655 400.597 104.655C401.016 104.655 401.391 104.587 401.724 104.452C402.057 104.313 402.32 104.122 402.514 103.878C402.709 103.63 402.806 103.342 402.806 103.012C402.806 102.711 402.722 102.467 402.554 102.279C402.386 102.09 402.166 101.937 401.892 101.819C401.618 101.701 401.322 101.598 401.004 101.51L399.891 101.192C399.184 100.989 398.625 100.699 398.212 100.322C397.8 99.9449 397.594 99.4517 397.594 98.8421C397.594 98.3357 397.731 97.894 398.005 97.517C398.281 97.1372 398.653 96.8427 399.118 96.6336C399.586 96.4216 400.109 96.3156 400.686 96.3156C401.269 96.3156 401.787 96.4201 402.241 96.6292C402.694 96.8353 403.053 97.118 403.318 97.4773C403.586 97.8365 403.728 98.2444 403.742 98.7008H402.682ZM408.37 105.627C407.717 105.627 407.153 105.482 406.679 105.194C406.207 104.902 405.844 104.496 405.588 103.975C405.334 103.451 405.208 102.841 405.208 102.146C405.208 101.451 405.334 100.839 405.588 100.309C405.844 99.7756 406.2 99.3604 406.657 99.063C407.116 98.7626 407.652 98.6125 408.264 98.6125C408.618 98.6125 408.967 98.6713 409.311 98.7891C409.656 98.9069 409.969 99.0983 410.252 99.3634C410.535 99.6254 410.76 99.9729 410.928 100.406C411.096 100.839 411.18 101.372 411.18 102.005V102.446H405.95V101.545H410.12C410.12 101.163 410.043 100.821 409.89 100.521C409.74 100.22 409.525 99.9832 409.245 99.8095C408.968 99.6357 408.641 99.5489 408.264 99.5489C407.849 99.5489 407.49 99.6519 407.187 99.8581C406.886 100.061 406.655 100.326 406.493 100.653C406.331 100.98 406.25 101.33 406.25 101.704V102.305C406.25 102.817 406.339 103.252 406.515 103.608C406.695 103.961 406.944 104.231 407.262 104.416C407.58 104.599 407.949 104.69 408.37 104.69C408.644 104.69 408.892 104.652 409.112 104.575C409.336 104.496 409.529 104.378 409.691 104.222C409.853 104.063 409.978 103.866 410.066 103.63L411.074 103.913C410.968 104.254 410.789 104.555 410.539 104.814C410.289 105.07 409.98 105.27 409.612 105.415C409.243 105.556 408.83 105.627 408.37 105.627ZM413.808 96.4393V105.485H412.765V96.4393H413.808ZM418.562 105.627C417.908 105.627 417.344 105.482 416.87 105.194C416.399 104.902 416.035 104.496 415.779 103.975C415.526 103.451 415.399 102.841 415.399 102.146C415.399 101.451 415.526 100.839 415.779 100.309C416.035 99.7756 416.391 99.3604 416.848 99.063C417.307 98.7626 417.843 98.6125 418.456 98.6125C418.809 98.6125 419.158 98.6713 419.502 98.7891C419.847 98.9069 420.161 99.0983 420.443 99.3634C420.726 99.6254 420.951 99.9729 421.119 100.406C421.287 100.839 421.371 101.372 421.371 102.005V102.446H416.141V101.545H420.311C420.311 101.163 420.234 100.821 420.081 100.521C419.931 100.22 419.716 99.9832 419.436 99.8095C419.159 99.6357 418.832 99.5489 418.456 99.5489C418.04 99.5489 417.681 99.6519 417.378 99.8581C417.077 100.061 416.846 100.326 416.684 100.653C416.522 100.98 416.441 101.33 416.441 101.704V102.305C416.441 102.817 416.53 103.252 416.706 103.608C416.886 103.961 417.135 104.231 417.453 104.416C417.771 104.599 418.14 104.69 418.562 104.69C418.835 104.69 419.083 104.652 419.304 104.575C419.527 104.496 419.72 104.378 419.882 104.222C420.044 104.063 420.169 103.866 420.258 103.63L421.265 103.913C421.159 104.254 420.981 104.555 420.73 104.814C420.48 105.07 420.171 105.27 419.803 105.415C419.435 105.556 419.021 105.627 418.562 105.627ZM427.762 100.22L426.826 100.485C426.767 100.329 426.68 100.178 426.565 100.03C426.453 99.8801 426.3 99.7565 426.106 99.6593C425.911 99.5621 425.663 99.5135 425.359 99.5135C424.944 99.5135 424.598 99.6092 424.321 99.8006C424.047 99.9891 423.911 100.229 423.911 100.521C423.911 100.78 424.005 100.984 424.193 101.135C424.382 101.285 424.676 101.41 425.077 101.51L426.084 101.757C426.69 101.905 427.142 102.13 427.44 102.433C427.737 102.734 427.886 103.121 427.886 103.595C427.886 103.984 427.774 104.331 427.55 104.637C427.329 104.944 427.02 105.185 426.623 105.362C426.225 105.538 425.763 105.627 425.236 105.627C424.544 105.627 423.971 105.477 423.517 105.176C423.064 104.876 422.777 104.437 422.656 103.86L423.646 103.613C423.74 103.978 423.918 104.252 424.18 104.434C424.445 104.617 424.791 104.708 425.218 104.708C425.704 104.708 426.09 104.605 426.375 104.399C426.664 104.19 426.808 103.939 426.808 103.648C426.808 103.412 426.726 103.215 426.561 103.056C426.396 102.894 426.143 102.773 425.801 102.694L424.67 102.429C424.049 102.282 423.593 102.053 423.301 101.744C423.012 101.432 422.868 101.042 422.868 100.574C422.868 100.191 422.976 99.8522 423.191 99.5577C423.408 99.2632 423.704 99.0321 424.078 98.8642C424.455 98.6964 424.882 98.6125 425.359 98.6125C426.031 98.6125 426.558 98.7597 426.941 99.0542C427.326 99.3486 427.6 99.7373 427.762 100.22ZM431.452 105.644C431.022 105.644 430.631 105.563 430.281 105.401C429.931 105.237 429.652 104.999 429.446 104.69C429.24 104.378 429.137 104.001 429.137 103.56C429.137 103.171 429.214 102.856 429.367 102.614C429.52 102.37 429.724 102.178 429.981 102.04C430.237 101.902 430.52 101.799 430.829 101.731C431.141 101.66 431.454 101.604 431.77 101.563C432.182 101.51 432.516 101.47 432.772 101.444C433.031 101.414 433.22 101.366 433.338 101.298C433.458 101.23 433.519 101.112 433.519 100.945V100.909C433.519 100.473 433.399 100.135 433.161 99.8934C432.925 99.6519 432.568 99.5312 432.088 99.5312C431.59 99.5312 431.2 99.6402 430.917 99.8581C430.634 100.076 430.436 100.309 430.321 100.556L429.331 100.203C429.508 99.7903 429.744 99.4694 430.038 99.2397C430.336 99.007 430.659 98.8451 431.01 98.7538C431.363 98.6596 431.711 98.6125 432.052 98.6125C432.27 98.6125 432.52 98.639 432.803 98.692C433.089 98.742 433.364 98.8466 433.629 99.0056C433.897 99.1646 434.119 99.4046 434.296 99.7255C434.473 100.047 434.561 100.476 434.561 101.015V105.485H433.519V104.567H433.466C433.395 104.714 433.277 104.871 433.112 105.039C432.947 105.207 432.728 105.35 432.454 105.468C432.18 105.585 431.846 105.644 431.452 105.644ZM431.611 104.708C432.023 104.708 432.37 104.627 432.653 104.465C432.939 104.303 433.154 104.094 433.298 103.838C433.445 103.582 433.519 103.312 433.519 103.029V102.075C433.475 102.128 433.377 102.177 433.227 102.221C433.08 102.262 432.909 102.299 432.715 102.332C432.523 102.361 432.336 102.388 432.154 102.411C431.974 102.432 431.828 102.449 431.717 102.464C431.446 102.499 431.192 102.557 430.957 102.636C430.724 102.713 430.536 102.829 430.391 102.985C430.25 103.138 430.179 103.348 430.179 103.613C430.179 103.975 430.313 104.249 430.581 104.434C430.852 104.617 431.195 104.708 431.611 104.708ZM436.464 105.485V98.7008H437.506V105.485H436.464ZM436.994 97.57C436.791 97.57 436.615 97.5008 436.468 97.3624C436.324 97.224 436.252 97.0577 436.252 96.8633C436.252 96.669 436.324 96.5026 436.468 96.3642C436.615 96.2258 436.791 96.1566 436.994 96.1566C437.197 96.1566 437.371 96.2258 437.515 96.3642C437.662 96.5026 437.736 96.669 437.736 96.8633C437.736 97.0577 437.662 97.224 437.515 97.3624C437.371 97.5008 437.197 97.57 436.994 97.57ZM445.476 105.627C444.91 105.627 444.411 105.484 443.978 105.198C443.545 104.91 443.207 104.503 442.962 103.979C442.718 103.452 442.596 102.829 442.596 102.111C442.596 101.398 442.718 100.78 442.962 100.256C443.207 99.7314 443.547 99.3265 443.983 99.0409C444.418 98.7553 444.922 98.6125 445.493 98.6125C445.935 98.6125 446.284 98.6861 446.54 98.8333C446.799 98.9776 446.997 99.1425 447.132 99.328C447.27 99.5106 447.378 99.6608 447.454 99.7786H447.543V96.4393H448.585V105.485H447.578V104.443H447.454C447.378 104.567 447.269 104.723 447.128 104.911C446.986 105.097 446.785 105.263 446.522 105.41C446.26 105.555 445.911 105.627 445.476 105.627ZM445.617 104.69C446.035 104.69 446.388 104.581 446.677 104.363C446.966 104.143 447.185 103.838 447.335 103.449C447.485 103.057 447.56 102.605 447.56 102.093C447.56 101.587 447.487 101.143 447.34 100.764C447.192 100.381 446.974 100.083 446.686 99.8713C446.397 99.6563 446.041 99.5489 445.617 99.5489C445.175 99.5489 444.807 99.6622 444.513 99.889C444.221 100.113 444.002 100.418 443.855 100.803C443.71 101.186 443.638 101.616 443.638 102.093C443.638 102.576 443.712 103.015 443.859 103.409C444.009 103.801 444.23 104.113 444.522 104.346C444.816 104.575 445.181 104.69 445.617 104.69ZM452.636 105.644C452.206 105.644 451.816 105.563 451.465 105.401C451.115 105.237 450.836 104.999 450.63 104.69C450.424 104.378 450.321 104.001 450.321 103.56C450.321 103.171 450.398 102.856 450.551 102.614C450.704 102.37 450.909 102.178 451.165 102.04C451.421 101.902 451.704 101.799 452.013 101.731C452.325 101.66 452.639 101.604 452.954 101.563C453.366 101.51 453.7 101.47 453.956 101.444C454.215 101.414 454.404 101.366 454.522 101.298C454.642 101.23 454.703 101.112 454.703 100.945V100.909C454.703 100.473 454.584 100.135 454.345 99.8934C454.109 99.6519 453.752 99.5312 453.272 99.5312C452.774 99.5312 452.384 99.6402 452.101 99.8581C451.818 100.076 451.62 100.309 451.505 100.556L450.515 100.203C450.692 99.7903 450.928 99.4694 451.222 99.2397C451.52 99.007 451.843 98.8451 452.194 98.7538C452.547 98.6596 452.895 98.6125 453.236 98.6125C453.454 98.6125 453.705 98.639 453.987 98.692C454.273 98.742 454.548 98.8466 454.813 99.0056C455.081 99.1646 455.303 99.4046 455.48 99.7255C455.657 100.047 455.745 100.476 455.745 101.015V105.485H454.703V104.567H454.65C454.579 104.714 454.461 104.871 454.296 105.039C454.132 105.207 453.912 105.35 453.638 105.468C453.364 105.585 453.03 105.644 452.636 105.644ZM452.795 104.708C453.207 104.708 453.554 104.627 453.837 104.465C454.123 104.303 454.338 104.094 454.482 103.838C454.629 103.582 454.703 103.312 454.703 103.029V102.075C454.659 102.128 454.561 102.177 454.411 102.221C454.264 102.262 454.093 102.299 453.899 102.332C453.707 102.361 453.52 102.388 453.338 102.411C453.158 102.432 453.013 102.449 452.901 102.464C452.63 102.499 452.376 102.557 452.141 102.636C451.908 102.713 451.72 102.829 451.576 102.985C451.434 103.138 451.363 103.348 451.363 103.613C451.363 103.975 451.497 104.249 451.765 104.434C452.036 104.617 452.379 104.708 452.795 104.708ZM457.648 105.485V98.7008H458.655V99.7255H458.726C458.849 99.3899 459.073 99.1175 459.397 98.9084C459.721 98.6993 460.086 98.5948 460.492 98.5948C460.569 98.5948 460.665 98.5963 460.78 98.5992C460.894 98.6021 460.981 98.6066 461.04 98.6125V99.6725C461.005 99.6637 460.924 99.6505 460.797 99.6328C460.673 99.6122 460.542 99.6019 460.404 99.6019C460.074 99.6019 459.78 99.6711 459.521 99.8095C459.264 99.9449 459.061 100.133 458.911 100.375C458.764 100.613 458.69 100.886 458.69 101.192V105.485H457.648ZM462.276 105.485V98.7008H463.318V105.485H462.276ZM462.806 97.57C462.603 97.57 462.427 97.5008 462.28 97.3624C462.136 97.224 462.064 97.0577 462.064 96.8633C462.064 96.669 462.136 96.5026 462.28 96.3642C462.427 96.2258 462.603 96.1566 462.806 96.1566C463.009 96.1566 463.183 96.2258 463.327 96.3642C463.474 96.5026 463.548 96.669 463.548 96.8633C463.548 97.0577 463.474 97.224 463.327 97.3624C463.183 97.5008 463.009 97.57 462.806 97.57ZM471.888 96.4393V105.485H470.793V97.5877H470.74L468.531 99.0542V97.9411L470.793 96.4393H471.888Z" fill="black"/>
<path d="M210.1 27.9315C209.655 27.9315 209.255 27.8462 208.9 27.6758C208.547 27.503 208.265 27.2662 208.055 26.9656C207.844 26.6649 207.732 26.3216 207.717 25.9357H208.783C208.809 26.2482 208.947 26.5051 209.198 26.7063C209.449 26.9076 209.75 27.0082 210.1 27.0082C210.379 27.0082 210.627 26.9442 210.842 26.8164C211.06 26.6862 211.231 26.5075 211.354 26.2802C211.479 26.0529 211.542 25.7937 211.542 25.5025C211.542 25.2066 211.478 24.9426 211.35 24.7106C211.222 24.4786 211.046 24.2963 210.821 24.1637C210.598 24.0311 210.343 23.9637 210.054 23.9613C209.834 23.9613 209.612 23.9992 209.39 24.0749C209.167 24.1507 208.987 24.2501 208.85 24.3732L207.845 24.2241L208.254 20.5593H212.252V21.5004H209.166L208.935 23.5352H208.978C209.12 23.3978 209.308 23.283 209.543 23.1907C209.779 23.0984 210.033 23.0522 210.303 23.0522C210.745 23.0522 211.139 23.1576 211.485 23.3683C211.833 23.579 212.107 23.8666 212.305 24.2312C212.507 24.5934 212.606 25.0101 212.604 25.4812C212.606 25.9523 212.5 26.3725 212.284 26.7418C212.071 27.1112 211.775 27.4023 211.396 27.6154C211.02 27.8261 210.588 27.9315 210.1 27.9315ZM217.431 27.9528C216.87 27.9504 216.391 27.8024 215.993 27.5089C215.595 27.2153 215.291 26.788 215.08 26.2269C214.87 25.6658 214.764 24.9899 214.764 24.1992C214.764 23.4109 214.87 22.7373 215.08 22.1786C215.294 21.6199 215.599 21.1938 215.997 20.9002C216.397 20.6067 216.875 20.4599 217.431 20.4599C217.988 20.4599 218.465 20.6078 218.862 20.9038C219.26 21.1973 219.564 21.6235 219.775 22.1822C219.988 22.7385 220.095 23.4109 220.095 24.1992C220.095 24.9923 219.989 25.6694 219.779 26.2305C219.568 26.7892 219.264 27.2165 218.866 27.5124C218.468 27.806 217.99 27.9528 217.431 27.9528ZM217.431 27.0046C217.924 27.0046 218.308 26.7643 218.585 26.2837C218.865 25.8031 219.005 25.1083 219.005 24.1992C219.005 23.5955 218.941 23.0853 218.813 22.6687C218.687 22.2496 218.506 21.9324 218.269 21.717C218.035 21.4992 217.756 21.3903 217.431 21.3903C216.941 21.3903 216.557 21.6317 216.277 22.1147C215.998 22.5977 215.857 23.2925 215.855 24.1992C215.855 24.8053 215.917 25.3178 216.043 25.7369C216.171 26.1535 216.352 26.4696 216.586 26.685C216.821 26.8981 217.102 27.0046 217.431 27.0046ZM226.149 26.4684V26.0849C226.149 25.8103 226.206 25.5593 226.32 25.332C226.436 25.1024 226.604 24.9189 226.824 24.7816C227.047 24.6419 227.315 24.5721 227.63 24.5721C227.952 24.5721 228.222 24.6407 228.44 24.7781C228.658 24.9154 228.822 25.0988 228.933 25.3285C229.047 25.5581 229.104 25.8103 229.104 26.0849V26.4684C229.104 26.743 229.047 26.9951 228.933 27.2248C228.82 27.4521 228.653 27.6355 228.433 27.7752C228.215 27.9125 227.947 27.9812 227.63 27.9812C227.311 27.9812 227.041 27.9125 226.82 27.7752C226.6 27.6355 226.433 27.4521 226.32 27.2248C226.206 26.9951 226.149 26.743 226.149 26.4684ZM226.977 26.0849V26.4684C226.977 26.672 227.025 26.8567 227.122 27.0224C227.219 27.1881 227.389 27.271 227.63 27.271C227.869 27.271 228.036 27.1881 228.131 27.0224C228.226 26.8567 228.273 26.672 228.273 26.4684V26.0849C228.273 25.8813 228.227 25.6966 228.134 25.5309C228.044 25.3652 227.876 25.2823 227.63 25.2823C227.393 25.2823 227.225 25.3652 227.126 25.5309C227.026 25.6966 226.977 25.8813 226.977 26.0849ZM222.492 22.3065V21.9229C222.492 21.6483 222.548 21.3962 222.662 21.1665C222.778 20.9369 222.946 20.7534 223.166 20.6161C223.389 20.4788 223.658 20.4102 223.972 20.4102C224.294 20.4102 224.564 20.4788 224.782 20.6161C225 20.7534 225.164 20.9369 225.276 21.1665C225.387 21.3962 225.443 21.6483 225.443 21.9229V22.3065C225.443 22.5811 225.386 22.8332 225.272 23.0629C225.161 23.2901 224.995 23.4736 224.775 23.6133C224.557 23.7506 224.29 23.8192 223.972 23.8192C223.65 23.8192 223.379 23.7506 223.159 23.6133C222.941 23.4736 222.776 23.2901 222.662 23.0629C222.548 22.8332 222.492 22.5811 222.492 22.3065ZM223.323 21.9229V22.3065C223.323 22.5101 223.37 22.6947 223.465 22.8604C223.562 23.0262 223.731 23.109 223.972 23.109C224.209 23.109 224.375 23.0262 224.47 22.8604C224.567 22.6947 224.615 22.5101 224.615 22.3065V21.9229C224.615 21.7193 224.569 21.5347 224.477 21.369C224.384 21.2032 224.216 21.1204 223.972 21.1204C223.736 21.1204 223.568 21.2032 223.468 21.369C223.371 21.5347 223.323 21.7193 223.323 21.9229ZM222.829 27.832L227.829 20.5593H228.678L223.678 27.832H222.829Z" fill="white"/>
<path d="M231.459 68.5593V75.832H230.358V69.6602H230.315L228.575 70.7965V69.7454L230.39 68.5593H231.459ZM236.957 75.9528C236.396 75.9504 235.916 75.8024 235.519 75.5089C235.121 75.2153 234.817 74.788 234.606 74.2269C234.395 73.6658 234.29 72.9899 234.29 72.1992C234.29 71.4109 234.395 70.7373 234.606 70.1786C234.819 69.6199 235.124 69.1938 235.522 68.9002C235.922 68.6067 236.4 68.4599 236.957 68.4599C237.513 68.4599 237.99 68.6078 238.388 68.9038C238.786 69.1973 239.09 69.6235 239.3 70.1822C239.514 70.7385 239.62 71.4109 239.62 72.1992C239.62 72.9923 239.515 73.6694 239.304 74.2305C239.093 74.7892 238.789 75.2165 238.391 75.5124C237.994 75.806 237.515 75.9528 236.957 75.9528ZM236.957 75.0046C237.449 75.0046 237.834 74.7643 238.111 74.2837C238.39 73.8031 238.53 73.1083 238.53 72.1992C238.53 71.5955 238.466 71.0853 238.338 70.6687C238.213 70.2496 238.032 69.9324 237.795 69.717C237.56 69.4992 237.281 69.3903 236.957 69.3903C236.467 69.3903 236.082 69.6317 235.803 70.1147C235.523 70.5977 235.382 71.2925 235.38 72.1992C235.38 72.8053 235.443 73.3178 235.568 73.7369C235.696 74.1535 235.877 74.4696 236.112 74.685C236.346 74.8981 236.628 75.0046 236.957 75.0046ZM244.41 75.9528C243.849 75.9504 243.37 75.8024 242.972 75.5089C242.575 75.2153 242.27 74.788 242.06 74.2269C241.849 73.6658 241.744 72.9899 241.744 72.1992C241.744 71.4109 241.849 70.7373 242.06 70.1786C242.273 69.6199 242.578 69.1938 242.976 68.9002C243.376 68.6067 243.854 68.4599 244.41 68.4599C244.967 68.4599 245.444 68.6078 245.842 68.9038C246.239 69.1973 246.544 69.6235 246.754 70.1822C246.967 70.7385 247.074 71.4109 247.074 72.1992C247.074 72.9923 246.968 73.6694 246.758 74.2305C246.547 74.7892 246.243 75.2165 245.845 75.5124C245.447 75.806 244.969 75.9528 244.41 75.9528ZM244.41 75.0046C244.903 75.0046 245.288 74.7643 245.565 74.2837C245.844 73.8031 245.984 73.1083 245.984 72.1992C245.984 71.5955 245.92 71.0853 245.792 70.6687C245.666 70.2496 245.485 69.9324 245.249 69.717C245.014 69.4992 244.735 69.3903 244.41 69.3903C243.92 69.3903 243.536 69.6317 243.256 70.1147C242.977 70.5977 242.836 71.2925 242.834 72.1992C242.834 72.8053 242.896 73.3178 243.022 73.7369C243.15 74.1535 243.331 74.4696 243.565 74.685C243.8 74.8981 244.081 75.0046 244.41 75.0046ZM253.128 74.4684V74.0849C253.128 73.8103 253.185 73.5593 253.299 73.332C253.415 73.1024 253.583 72.9189 253.803 72.7816C254.026 72.6419 254.294 72.5721 254.609 72.5721C254.931 72.5721 255.201 72.6407 255.419 72.7781C255.637 72.9154 255.801 73.0988 255.912 73.3285C256.026 73.5581 256.083 73.8103 256.083 74.0849V74.4684C256.083 74.743 256.026 74.9951 255.912 75.2248C255.799 75.4521 255.632 75.6355 255.412 75.7752C255.194 75.9125 254.926 75.9812 254.609 75.9812C254.29 75.9812 254.02 75.9125 253.8 75.7752C253.579 75.6355 253.412 75.4521 253.299 75.2248C253.185 74.9951 253.128 74.743 253.128 74.4684ZM253.956 74.0849V74.4684C253.956 74.672 254.004 74.8567 254.101 75.0224C254.198 75.1881 254.368 75.271 254.609 75.271C254.848 75.271 255.015 75.1881 255.11 75.0224C255.205 74.8567 255.252 74.672 255.252 74.4684V74.0849C255.252 73.8813 255.206 73.6966 255.113 73.5309C255.024 73.3652 254.855 73.2823 254.609 73.2823C254.372 73.2823 254.204 73.3652 254.105 73.5309C254.006 73.6966 253.956 73.8813 253.956 74.0849ZM249.471 70.3065V69.9229C249.471 69.6483 249.528 69.3962 249.641 69.1665C249.757 68.9369 249.925 68.7534 250.145 68.6161C250.368 68.4788 250.637 68.4102 250.952 68.4102C251.274 68.4102 251.543 68.4788 251.761 68.6161C251.979 68.7534 252.144 68.9369 252.255 69.1665C252.366 69.3962 252.422 69.6483 252.422 69.9229V70.3065C252.422 70.5811 252.365 70.8332 252.251 71.0629C252.14 71.2901 251.974 71.4736 251.754 71.6133C251.536 71.7506 251.269 71.8192 250.952 71.8192C250.63 71.8192 250.359 71.7506 250.138 71.6133C249.921 71.4736 249.755 71.2901 249.641 71.0629C249.528 70.8332 249.471 70.5811 249.471 70.3065ZM250.302 69.9229V70.3065C250.302 70.5101 250.349 70.6947 250.444 70.8604C250.541 71.0262 250.71 71.109 250.952 71.109C251.188 71.109 251.354 71.0262 251.449 70.8604C251.546 70.6947 251.594 70.5101 251.594 70.3065V69.9229C251.594 69.7193 251.548 69.5347 251.456 69.369C251.363 69.2032 251.195 69.1204 250.952 69.1204C250.715 69.1204 250.547 69.2032 250.447 69.369C250.35 69.5347 250.302 69.7193 250.302 69.9229ZM249.808 75.832L254.808 68.5593H255.657L250.657 75.832H249.808Z" fill="white"/>
<path d="M231.459 113.559V120.832H230.358V114.66H230.315L228.575 115.797V114.745L230.39 113.559H231.459ZM236.957 120.953C236.396 120.95 235.916 120.802 235.519 120.509C235.121 120.215 234.817 119.788 234.606 119.227C234.395 118.666 234.29 117.99 234.29 117.199C234.29 116.411 234.395 115.737 234.606 115.179C234.819 114.62 235.124 114.194 235.522 113.9C235.922 113.607 236.4 113.46 236.957 113.46C237.513 113.46 237.99 113.608 238.388 113.904C238.786 114.197 239.09 114.623 239.3 115.182C239.514 115.739 239.62 116.411 239.62 117.199C239.62 117.992 239.515 118.669 239.304 119.23C239.093 119.789 238.789 120.217 238.391 120.512C237.994 120.806 237.515 120.953 236.957 120.953ZM236.957 120.005C237.449 120.005 237.834 119.764 238.111 119.284C238.39 118.803 238.53 118.108 238.53 117.199C238.53 116.596 238.466 116.085 238.338 115.669C238.213 115.25 238.032 114.932 237.795 114.717C237.56 114.499 237.281 114.39 236.957 114.39C236.467 114.39 236.082 114.632 235.803 115.115C235.523 115.598 235.382 116.292 235.38 117.199C235.38 117.805 235.443 118.318 235.568 118.737C235.696 119.154 235.877 119.47 236.112 119.685C236.346 119.898 236.628 120.005 236.957 120.005ZM244.41 120.953C243.849 120.95 243.37 120.802 242.972 120.509C242.575 120.215 242.27 119.788 242.06 119.227C241.849 118.666 241.744 117.99 241.744 117.199C241.744 116.411 241.849 115.737 242.06 115.179C242.273 114.62 242.578 114.194 242.976 113.9C243.376 113.607 243.854 113.46 244.41 113.46C244.967 113.46 245.444 113.608 245.842 113.904C246.239 114.197 246.544 114.623 246.754 115.182C246.967 115.739 247.074 116.411 247.074 117.199C247.074 117.992 246.968 118.669 246.758 119.23C246.547 119.789 246.243 120.217 245.845 120.512C245.447 120.806 244.969 120.953 244.41 120.953ZM244.41 120.005C244.903 120.005 245.288 119.764 245.565 119.284C245.844 118.803 245.984 118.108 245.984 117.199C245.984 116.596 245.92 116.085 245.792 115.669C245.666 115.25 245.485 114.932 245.249 114.717C245.014 114.499 244.735 114.39 244.41 114.39C243.92 114.39 243.536 114.632 243.256 115.115C242.977 115.598 242.836 116.292 242.834 117.199C242.834 117.805 242.896 118.318 243.022 118.737C243.15 119.154 243.331 119.47 243.565 119.685C243.8 119.898 244.081 120.005 244.41 120.005ZM253.128 119.468V119.085C253.128 118.81 253.185 118.559 253.299 118.332C253.415 118.102 253.583 117.919 253.803 117.782C254.026 117.642 254.294 117.572 254.609 117.572C254.931 117.572 255.201 117.641 255.419 117.778C255.637 117.915 255.801 118.099 255.912 118.328C256.026 118.558 256.083 118.81 256.083 119.085V119.468C256.083 119.743 256.026 119.995 255.912 120.225C255.799 120.452 255.632 120.636 255.412 120.775C255.194 120.913 254.926 120.981 254.609 120.981C254.29 120.981 254.02 120.913 253.8 120.775C253.579 120.636 253.412 120.452 253.299 120.225C253.185 119.995 253.128 119.743 253.128 119.468ZM253.956 119.085V119.468C253.956 119.672 254.004 119.857 254.101 120.022C254.198 120.188 254.368 120.271 254.609 120.271C254.848 120.271 255.015 120.188 255.11 120.022C255.205 119.857 255.252 119.672 255.252 119.468V119.085C255.252 118.881 255.206 118.697 255.113 118.531C255.024 118.365 254.855 118.282 254.609 118.282C254.372 118.282 254.204 118.365 254.105 118.531C254.006 118.697 253.956 118.881 253.956 119.085ZM249.471 115.306V114.923C249.471 114.648 249.528 114.396 249.641 114.167C249.757 113.937 249.925 113.753 250.145 113.616C250.368 113.479 250.637 113.41 250.952 113.41C251.274 113.41 251.543 113.479 251.761 113.616C251.979 113.753 252.144 113.937 252.255 114.167C252.366 114.396 252.422 114.648 252.422 114.923V115.306C252.422 115.581 252.365 115.833 252.251 116.063C252.14 116.29 251.974 116.474 251.754 116.613C251.536 116.751 251.269 116.819 250.952 116.819C250.63 116.819 250.359 116.751 250.138 116.613C249.921 116.474 249.755 116.29 249.641 116.063C249.528 115.833 249.471 115.581 249.471 115.306ZM250.302 114.923V115.306C250.302 115.51 250.349 115.695 250.444 115.86C250.541 116.026 250.71 116.109 250.952 116.109C251.188 116.109 251.354 116.026 251.449 115.86C251.546 115.695 251.594 115.51 251.594 115.306V114.923C251.594 114.719 251.548 114.535 251.456 114.369C251.363 114.203 251.195 114.12 250.952 114.12C250.715 114.12 250.547 114.203 250.447 114.369C250.35 114.535 250.302 114.719 250.302 114.923ZM249.808 120.832L254.808 113.559H255.657L250.657 120.832H249.808Z" fill="white"/>
</svg>
