<svg width="1000" height="309" viewBox="0 0 1000 309" fill="none" xmlns="http://www.w3.org/2000/svg">
<path d="M4.22931 8.32841C3.12531 8.32841 2.46531 7.33241 2.33331 5.50841C2.90931 4.69241 3.58131 4.38041 4.13331 4.38041C5.20131 4.38041 5.71731 5.13641 5.71731 6.32441C5.71731 7.52441 5.06931 8.32841 4.22931 8.32841ZM6.59331 0.960413C6.11331 0.444414 5.45331 0.0604136 4.54131 0.0604136C2.83731 0.0604136 1.28931 1.38041 1.28931 4.82441C1.28931 7.72841 2.53731 9.18041 4.22931 9.18041C5.59731 9.18041 6.74931 8.02841 6.74931 6.32441C6.74931 4.48841 5.80131 3.56441 4.31331 3.56441C3.61731 3.56441 2.84931 3.97241 2.30931 4.63241C2.35731 1.89641 3.37731 0.972414 4.57731 0.972414C5.11731 0.972414 5.64531 1.22441 5.99331 1.64441L6.59331 0.960413ZM10.6096 9.18041C12.2776 9.18041 13.3456 7.65641 13.3456 4.59641C13.3456 1.54841 12.2776 0.0604136 10.6096 0.0604136C8.92956 0.0604136 7.86156 1.53641 7.86156 4.59641C7.86156 7.65641 8.92956 9.18041 10.6096 9.18041ZM10.6096 8.30441C9.60156 8.30441 8.92956 7.18841 8.92956 4.59641C8.92956 2.02841 9.60156 0.948414 10.6096 0.948414C11.6056 0.948414 12.2776 2.02841 12.2776 4.59641C12.2776 7.18841 11.6056 8.30441 10.6096 8.30441Z" fill="black" fill-opacity="0.6"/>
<path d="M21.6927 3.39648H916.708" stroke="black" stroke-opacity="0.2" stroke-width="0.901287" stroke-dasharray="1.8 1.8"/>
<path d="M3.74928 56.6018C5.23728 56.6018 6.62928 55.5098 6.62928 53.5778C6.62928 51.6458 5.44128 50.7818 3.97728 50.7818C3.44928 50.7818 3.05328 50.9138 2.66928 51.1298L2.88528 48.5858H6.20928V47.6498H1.92528L1.64928 51.7658L2.23728 52.1258C2.74128 51.7898 3.11328 51.6098 3.70128 51.6098C4.80528 51.6098 5.52528 52.3538 5.52528 53.6138C5.52528 54.8978 4.68528 55.6898 3.65328 55.6898C2.63328 55.6898 1.99728 55.2218 1.49328 54.7178L0.953283 55.4378C1.54128 56.0258 2.38128 56.6018 3.74928 56.6018ZM10.6095 56.6018C12.2775 56.6018 13.3455 55.0778 13.3455 52.0178C13.3455 48.9698 12.2775 47.4818 10.6095 47.4818C8.92953 47.4818 7.86153 48.9578 7.86153 52.0178C7.86153 55.0778 8.92953 56.6018 10.6095 56.6018ZM10.6095 55.7258C9.60153 55.7258 8.92953 54.6098 8.92953 52.0178C8.92953 49.4498 9.60153 48.3698 10.6095 48.3698C11.6055 48.3698 12.2775 49.4498 12.2775 52.0178C12.2775 54.6098 11.6055 55.7258 10.6095 55.7258Z" fill="black" fill-opacity="0.6"/>
<path d="M21.6927 50.5229H916.708" stroke="black" stroke-opacity="0.2" stroke-width="0.901287" stroke-dasharray="1.8 1.8"/>
<path d="M1.99728 101.719L4.00128 98.7186C4.25328 98.2866 4.49328 97.8546 4.70928 97.4226H4.75728C4.73328 97.8786 4.68528 98.5866 4.68528 99.0186V101.719H1.99728ZM6.89328 101.719H5.72928V96.2226H4.51728L0.857283 101.875V102.595H4.68528V105.019H5.72928V102.595H6.89328V101.719ZM10.6095 105.175C12.2775 105.175 13.3455 103.651 13.3455 100.591C13.3455 97.5426 12.2775 96.0546 10.6095 96.0546C8.92953 96.0546 7.86153 97.5306 7.86153 100.591C7.86153 103.651 8.92953 105.175 10.6095 105.175ZM10.6095 104.299C9.60153 104.299 8.92953 103.183 8.92953 100.591C8.92953 98.0226 9.60153 96.9426 10.6095 96.9426C11.6055 96.9426 12.2775 98.0226 12.2775 100.591C12.2775 103.183 11.6055 104.299 10.6095 104.299Z" fill="black" fill-opacity="0.6"/>
<path d="M21.6927 99.9526H916.708" stroke="black" stroke-opacity="0.2" stroke-width="0.901287" stroke-dasharray="1.8 1.8"/>
<path d="M3.78522 152.595C5.34522 152.595 6.60522 151.659 6.60522 150.087C6.60522 148.887 5.77722 148.095 4.73322 147.855V147.807C5.66922 147.459 6.30522 146.751 6.30522 145.683C6.30522 144.267 5.22522 143.475 3.74922 143.475C2.72922 143.475 1.94922 143.919 1.28922 144.531L1.87722 145.227C2.36922 144.735 2.99322 144.375 3.70122 144.351C4.61322 144.375 5.18922 144.915 5.18922 145.767C5.18922 146.715 4.56522 147.447 2.75322 147.447V148.287C4.78122 148.287 5.48922 148.995 5.48922 150.051C5.48922 151.059 4.74522 151.683 3.70122 151.683C2.70522 151.683 2.03322 151.215 1.51722 150.675L0.965222 151.395C1.54122 152.019 2.40522 152.595 3.78522 152.595ZM10.6095 152.595C12.2775 152.595 13.3455 151.071 13.3455 148.011C13.3455 144.963 12.2775 143.475 10.6095 143.475C8.92947 143.475 7.86147 144.951 7.86147 148.011C7.86147 151.071 8.92947 152.595 10.6095 152.595ZM10.6095 151.719C9.60147 151.719 8.92947 150.603 8.92947 148.011C8.92947 145.443 9.60147 144.363 10.6095 144.363C11.6055 144.363 12.2775 145.443 12.2775 148.011C12.2775 150.603 11.6055 151.719 10.6095 151.719Z" fill="black" fill-opacity="0.6"/>
<path d="M21.6927 147.08H916.708" stroke="black" stroke-opacity="0.2" stroke-width="0.901287" stroke-dasharray="1.8 1.8"/>
<path d="M1.14528 199.861H6.67728V198.913H4.24128C3.79728 198.913 3.25728 198.961 2.80128 198.997C4.86528 197.041 6.24528 195.253 6.24528 193.501C6.24528 191.929 5.26128 190.897 3.68928 190.897C2.57328 190.897 1.81728 191.413 1.09728 192.193L1.73328 192.817C2.21328 192.241 2.83728 191.797 3.55728 191.797C4.64928 191.797 5.17728 192.529 5.17728 193.537C5.17728 195.049 3.90528 196.801 1.14528 199.213V199.861ZM10.6095 200.017C12.2775 200.017 13.3455 198.493 13.3455 195.433C13.3455 192.385 12.2775 190.897 10.6095 190.897C8.92953 190.897 7.86153 192.373 7.86153 195.433C7.86153 198.493 8.92953 200.017 10.6095 200.017ZM10.6095 199.141C9.60153 199.141 8.92953 198.025 8.92953 195.433C8.92953 192.865 9.60153 191.785 10.6095 191.785C11.6055 191.785 12.2775 192.865 12.2775 195.433C12.2775 198.025 11.6055 199.141 10.6095 199.141Z" fill="black" fill-opacity="0.6"/>
<path d="M21.6927 194.207H916.708" stroke="black" stroke-opacity="0.2" stroke-width="0.901287" stroke-dasharray="1.8 1.8"/>
<path d="M1.67328 248.434H6.49728V247.522H4.73328V239.638H3.89328C3.41328 239.914 2.84928 240.118 2.06928 240.262V240.958H3.62928V247.522H1.67328V248.434ZM10.6095 248.59C12.2775 248.59 13.3455 247.066 13.3455 244.006C13.3455 240.958 12.2775 239.47 10.6095 239.47C8.92953 239.47 7.86153 240.946 7.86153 244.006C7.86153 247.066 8.92953 248.59 10.6095 248.59ZM10.6095 247.714C9.60153 247.714 8.92953 246.598 8.92953 244.006C8.92953 241.438 9.60153 240.358 10.6095 240.358C11.6055 240.358 12.2775 241.438 12.2775 244.006C12.2775 246.598 11.6055 247.714 10.6095 247.714Z" fill="black" fill-opacity="0.6"/>
<path d="M21.6927 242.485H916.708" stroke="black" stroke-opacity="0.2" stroke-width="0.901287" stroke-dasharray="1.8 1.8"/>
<path d="M10.8858 284.996C12.5538 284.996 13.6218 286.52 13.6218 289.58C13.6218 292.628 12.5538 294.116 10.8858 294.116C9.20582 294.116 8.13782 292.64 8.13782 289.58C8.13782 286.52 9.20582 284.996 10.8858 284.996ZM10.8858 285.872C9.87782 285.872 9.20582 286.988 9.20582 289.58C9.20582 292.148 9.87782 293.228 10.8858 293.228C11.8818 293.228 12.5538 292.148 12.5538 289.58C12.5538 286.988 11.8818 285.872 10.8858 285.872Z" fill="black" fill-opacity="0.6"/>
<rect width="895.568" height="1.15112" transform="matrix(1 0 0 -1 21.4164 291.041)" fill="black" fill-opacity="0.4"/>
<rect x="21.4164" y="290.502" width="0.901287" height="0.901287" fill="black" fill-opacity="0.4"/>
<rect x="21.4164" y="291.404" width="0.901287" height="2.70386" fill="black" fill-opacity="0.4"/>
<path d="M111.191 305.195H112.303L113.235 306.422L113.48 306.749L114.87 308.596H113.758L112.843 307.37L112.614 307.059L111.191 305.195ZM115.214 303.626C115.214 304.509 115.054 305.272 114.735 305.915C114.417 306.558 113.979 307.054 113.423 307.403C112.867 307.752 112.232 307.926 111.518 307.926C110.804 307.926 110.169 307.752 109.613 307.403C109.057 307.054 108.62 306.558 108.301 305.915C107.982 305.272 107.823 304.509 107.823 303.626C107.823 302.743 107.982 301.98 108.301 301.336C108.62 300.693 109.057 300.197 109.613 299.849C110.169 299.5 110.804 299.325 111.518 299.325C112.232 299.325 112.867 299.5 113.423 299.849C113.979 300.197 114.417 300.693 114.735 301.336C115.054 301.98 115.214 302.743 115.214 303.626ZM114.233 303.626C114.233 302.901 114.111 302.289 113.869 301.79C113.629 301.292 113.303 300.914 112.892 300.658C112.483 300.402 112.025 300.274 111.518 300.274C111.011 300.274 110.552 300.402 110.141 300.658C109.732 300.914 109.406 301.292 109.164 301.79C108.924 302.289 108.804 302.901 108.804 303.626C108.804 304.351 108.924 304.962 109.164 305.461C109.406 305.96 109.732 306.337 110.141 306.593C110.552 306.85 111.011 306.978 111.518 306.978C112.025 306.978 112.483 306.85 112.892 306.593C113.303 306.337 113.629 305.96 113.869 305.461C114.111 304.962 114.233 304.351 114.233 303.626ZM119.714 299.44V307.812H118.701V300.503H118.651L116.608 301.86V300.83L118.701 299.44H119.714ZM125.359 307.812V307.076L128.123 304.051C128.447 303.697 128.714 303.389 128.924 303.127C129.134 302.863 129.289 302.615 129.39 302.383C129.494 302.149 129.545 301.903 129.545 301.647C129.545 301.353 129.475 301.098 129.333 300.883C129.194 300.667 129.003 300.501 128.761 300.384C128.518 300.267 128.245 300.208 127.943 300.208C127.621 300.208 127.341 300.275 127.101 300.409C126.864 300.539 126.68 300.723 126.549 300.96C126.421 301.198 126.357 301.475 126.357 301.794H125.392C125.392 301.304 125.505 300.873 125.731 300.503C125.958 300.132 126.266 299.843 126.655 299.636C127.048 299.429 127.488 299.325 127.976 299.325C128.466 299.325 128.901 299.429 129.28 299.636C129.658 299.843 129.955 300.122 130.171 300.474C130.386 300.826 130.494 301.217 130.494 301.647C130.494 301.955 130.438 302.256 130.326 302.551C130.217 302.842 130.026 303.168 129.754 303.528C129.484 303.885 129.109 304.321 128.63 304.836L126.749 306.847V306.912H130.641V307.812H125.359ZM135.06 307.926C134.444 307.926 133.919 307.758 133.486 307.423C133.053 307.085 132.722 306.596 132.493 305.956C132.264 305.313 132.149 304.536 132.149 303.626C132.149 302.721 132.264 301.948 132.493 301.308C132.724 300.665 133.057 300.174 133.49 299.836C133.926 299.496 134.449 299.325 135.06 299.325C135.67 299.325 136.192 299.496 136.625 299.836C137.061 300.174 137.394 300.665 137.623 301.308C137.854 301.948 137.97 302.721 137.97 303.626C137.97 304.536 137.856 305.313 137.627 305.956C137.398 306.596 137.067 307.085 136.634 307.423C136.2 307.758 135.676 307.926 135.06 307.926ZM135.06 307.027C135.67 307.027 136.144 306.732 136.482 306.144C136.82 305.555 136.989 304.716 136.989 303.626C136.989 302.901 136.912 302.283 136.756 301.774C136.604 301.264 136.383 300.876 136.094 300.609C135.808 300.342 135.463 300.208 135.06 300.208C134.455 300.208 133.982 300.507 133.641 301.103C133.301 301.698 133.13 302.538 133.13 303.626C133.13 304.351 133.207 304.966 133.359 305.473C133.512 305.98 133.731 306.366 134.017 306.63C134.306 306.895 134.654 307.027 135.06 307.027ZM139.524 307.812V307.076L142.287 304.051C142.611 303.697 142.878 303.389 143.088 303.127C143.298 302.863 143.453 302.615 143.554 302.383C143.658 302.149 143.709 301.903 143.709 301.647C143.709 301.353 143.639 301.098 143.497 300.883C143.358 300.667 143.167 300.501 142.925 300.384C142.682 300.267 142.41 300.208 142.107 300.208C141.785 300.208 141.505 300.275 141.265 300.409C141.028 300.539 140.844 300.723 140.713 300.96C140.585 301.198 140.521 301.475 140.521 301.794H139.556C139.556 301.304 139.669 300.873 139.896 300.503C140.122 300.132 140.43 299.843 140.819 299.636C141.212 299.429 141.652 299.325 142.14 299.325C142.63 299.325 143.065 299.429 143.444 299.636C143.823 299.843 144.12 300.122 144.335 300.474C144.55 300.826 144.658 301.217 144.658 301.647C144.658 301.955 144.602 302.256 144.49 302.551C144.381 302.842 144.19 303.168 143.918 303.528C143.648 303.885 143.273 304.321 142.794 304.836L140.913 306.847V306.912H144.805V307.812H139.524ZM149.436 299.44V307.812H148.423V300.503H148.374L146.33 301.86V300.83L148.423 299.44H149.436Z" fill="black" fill-opacity="0.6"/>
<rect x="129.571" y="290.502" width="0.901287" height="0.901287" fill="black" fill-opacity="0.2"/>
<rect x="129.571" y="291.404" width="0.901287" height="2.70386" fill="black" fill-opacity="0.2"/>
<path d="M218.786 305.195H219.898L220.83 306.422L221.075 306.749L222.465 308.596H221.353L220.437 307.37L220.208 307.059L218.786 305.195ZM222.808 303.626C222.808 304.509 222.649 305.272 222.33 305.915C222.011 306.558 221.574 307.054 221.018 307.403C220.462 307.752 219.827 307.926 219.113 307.926C218.399 307.926 217.764 307.752 217.208 307.403C216.652 307.054 216.215 306.558 215.896 305.915C215.577 305.272 215.417 304.509 215.417 303.626C215.417 302.743 215.577 301.98 215.896 301.336C216.215 300.693 216.652 300.197 217.208 299.849C217.764 299.5 218.399 299.325 219.113 299.325C219.827 299.325 220.462 299.5 221.018 299.849C221.574 300.197 222.011 300.693 222.33 301.336C222.649 301.98 222.808 302.743 222.808 303.626ZM221.827 303.626C221.827 302.901 221.706 302.289 221.463 301.79C221.223 301.292 220.898 300.914 220.486 300.658C220.078 300.402 219.62 300.274 219.113 300.274C218.606 300.274 218.147 300.402 217.735 300.658C217.326 300.914 217.001 301.292 216.758 301.79C216.518 302.289 216.399 302.901 216.399 303.626C216.399 304.351 216.518 304.962 216.758 305.461C217.001 305.96 217.326 306.337 217.735 306.593C218.147 306.85 218.606 306.978 219.113 306.978C219.62 306.978 220.078 306.85 220.486 306.593C220.898 306.337 221.223 305.96 221.463 305.461C221.706 304.962 221.827 304.351 221.827 303.626ZM224.366 307.812V307.076L227.129 304.051C227.453 303.697 227.72 303.389 227.93 303.127C228.14 302.863 228.295 302.615 228.396 302.383C228.5 302.149 228.551 301.903 228.551 301.647C228.551 301.353 228.481 301.098 228.339 300.883C228.2 300.667 228.009 300.501 227.767 300.384C227.524 300.267 227.252 300.208 226.949 300.208C226.627 300.208 226.347 300.275 226.107 300.409C225.87 300.539 225.686 300.723 225.555 300.96C225.427 301.198 225.363 301.475 225.363 301.794H224.398C224.398 301.304 224.511 300.873 224.738 300.503C224.964 300.132 225.272 299.843 225.661 299.636C226.054 299.429 226.494 299.325 226.982 299.325C227.472 299.325 227.907 299.429 228.286 299.636C228.665 299.843 228.962 300.122 229.177 300.474C229.392 300.826 229.5 301.217 229.5 301.647C229.5 301.955 229.444 302.256 229.332 302.551C229.223 302.842 229.032 303.168 228.76 303.528C228.49 303.885 228.115 304.321 227.636 304.836L225.755 306.847V306.912H229.647V307.812H224.366ZM234.573 307.812V307.076L237.336 304.051C237.66 303.697 237.927 303.389 238.137 303.127C238.347 302.863 238.502 302.615 238.603 302.383C238.707 302.149 238.759 301.903 238.759 301.647C238.759 301.353 238.688 301.098 238.546 300.883C238.407 300.667 238.216 300.501 237.974 300.384C237.731 300.267 237.459 300.208 237.156 300.208C236.835 300.208 236.554 300.275 236.314 300.409C236.077 300.539 235.893 300.723 235.762 300.96C235.634 301.198 235.57 301.475 235.57 301.794H234.605C234.605 301.304 234.719 300.873 234.945 300.503C235.171 300.132 235.479 299.843 235.869 299.636C236.261 299.429 236.701 299.325 237.189 299.325C237.679 299.325 238.114 299.429 238.493 299.636C238.872 299.843 239.169 300.122 239.384 300.474C239.599 300.826 239.707 301.217 239.707 301.647C239.707 301.955 239.651 302.256 239.539 302.551C239.43 302.842 239.24 303.168 238.967 303.528C238.697 303.885 238.323 304.321 237.843 304.836L235.963 306.847V306.912H239.854V307.812H234.573ZM244.273 307.926C243.657 307.926 243.133 307.758 242.699 307.423C242.266 307.085 241.935 306.596 241.706 305.956C241.477 305.313 241.363 304.536 241.363 303.626C241.363 302.721 241.477 301.948 241.706 301.308C241.938 300.665 242.27 300.174 242.703 299.836C243.139 299.496 243.663 299.325 244.273 299.325C244.883 299.325 245.405 299.496 245.839 299.836C246.275 300.174 246.607 300.665 246.836 301.308C247.068 301.948 247.184 302.721 247.184 303.626C247.184 304.536 247.069 305.313 246.84 305.956C246.611 306.596 246.28 307.085 245.847 307.423C245.414 307.758 244.889 307.926 244.273 307.926ZM244.273 307.027C244.883 307.027 245.358 306.732 245.696 306.144C246.033 305.555 246.202 304.716 246.202 303.626C246.202 302.901 246.125 302.283 245.969 301.774C245.817 301.264 245.596 300.876 245.307 300.609C245.021 300.342 244.676 300.208 244.273 300.208C243.668 300.208 243.195 300.507 242.855 301.103C242.514 301.698 242.344 302.538 242.344 303.626C242.344 304.351 242.42 304.966 242.573 305.473C242.725 305.98 242.944 306.366 243.231 306.63C243.52 306.895 243.867 307.027 244.273 307.027ZM248.737 307.812V307.076L251.5 304.051C251.824 303.697 252.092 303.389 252.301 303.127C252.511 302.863 252.667 302.615 252.767 302.383C252.871 302.149 252.923 301.903 252.923 301.647C252.923 301.353 252.852 301.098 252.71 300.883C252.571 300.667 252.38 300.501 252.138 300.384C251.895 300.267 251.623 300.208 251.32 300.208C250.999 300.208 250.718 300.275 250.478 300.409C250.241 300.539 250.057 300.723 249.926 300.96C249.798 301.198 249.734 301.475 249.734 301.794H248.77C248.77 301.304 248.883 300.873 249.109 300.503C249.335 300.132 249.643 299.843 250.033 299.636C250.425 299.429 250.865 299.325 251.353 299.325C251.844 299.325 252.278 299.429 252.657 299.636C253.036 299.843 253.333 300.122 253.548 300.474C253.763 300.826 253.871 301.217 253.871 301.647C253.871 301.955 253.815 302.256 253.703 302.551C253.594 302.842 253.404 303.168 253.131 303.528C252.861 303.885 252.487 304.321 252.007 304.836L250.127 306.847V306.912H254.018V307.812H248.737ZM258.65 299.44V307.812H257.636V300.503H257.587L255.543 301.86V300.83L257.636 299.44H258.65Z" fill="black" fill-opacity="0.6"/>
<rect x="238.126" y="290.502" width="0.901287" height="0.901287" fill="black" fill-opacity="0.2"/>
<rect x="238.126" y="291.404" width="0.901287" height="2.70386" fill="black" fill-opacity="0.2"/>
<path d="M327.161 305.195H328.273L329.205 306.422L329.45 306.749L330.84 308.596H329.728L328.812 307.37L328.583 307.059L327.161 305.195ZM331.183 303.626C331.183 304.509 331.024 305.272 330.705 305.915C330.386 306.558 329.949 307.054 329.393 307.403C328.837 307.752 328.202 307.926 327.488 307.926C326.774 307.926 326.139 307.752 325.583 307.403C325.027 307.054 324.59 306.558 324.271 305.915C323.952 305.272 323.793 304.509 323.793 303.626C323.793 302.743 323.952 301.98 324.271 301.336C324.59 300.693 325.027 300.197 325.583 299.849C326.139 299.5 326.774 299.325 327.488 299.325C328.202 299.325 328.837 299.5 329.393 299.849C329.949 300.197 330.386 300.693 330.705 301.336C331.024 301.98 331.183 302.743 331.183 303.626ZM330.202 303.626C330.202 302.901 330.081 302.289 329.838 301.79C329.599 301.292 329.273 300.914 328.861 300.658C328.453 300.402 327.995 300.274 327.488 300.274C326.981 300.274 326.522 300.402 326.11 300.658C325.702 300.914 325.376 301.292 325.133 301.79C324.894 302.289 324.774 302.901 324.774 303.626C324.774 304.351 324.894 304.962 325.133 305.461C325.376 305.96 325.702 306.337 326.11 306.593C326.522 306.85 326.981 306.978 327.488 306.978C327.995 306.978 328.453 306.85 328.861 306.593C329.273 306.337 329.599 305.96 329.838 305.461C330.081 304.962 330.202 304.351 330.202 303.626ZM335.569 307.926C335.03 307.926 334.549 307.833 334.126 307.648C333.707 307.463 333.373 307.205 333.125 306.875C332.88 306.543 332.746 306.157 332.724 305.719H333.754C333.776 305.988 333.869 306.221 334.032 306.418C334.196 306.611 334.41 306.761 334.674 306.867C334.939 306.974 335.231 307.027 335.553 307.027C335.913 307.027 336.232 306.964 336.51 306.839C336.788 306.713 337.006 306.539 337.164 306.315C337.322 306.092 337.401 305.833 337.401 305.539C337.401 305.231 337.324 304.96 337.172 304.725C337.019 304.488 336.796 304.303 336.501 304.169C336.207 304.036 335.847 303.969 335.422 303.969H334.752V303.07H335.422C335.755 303.07 336.046 303.01 336.297 302.89C336.55 302.77 336.748 302.601 336.89 302.383C337.034 302.165 337.106 301.909 337.106 301.614C337.106 301.331 337.044 301.084 336.918 300.875C336.793 300.665 336.616 300.501 336.387 300.384C336.161 300.267 335.894 300.208 335.586 300.208C335.297 300.208 335.024 300.261 334.768 300.368C334.515 300.471 334.308 300.623 334.147 300.821C333.986 301.018 333.899 301.255 333.885 301.533H332.904C332.921 301.094 333.053 300.71 333.301 300.38C333.549 300.047 333.873 299.789 334.274 299.603C334.677 299.418 335.12 299.325 335.602 299.325C336.12 299.325 336.564 299.43 336.935 299.64C337.305 299.847 337.59 300.121 337.789 300.462C337.988 300.802 338.087 301.17 338.087 301.565C338.087 302.037 337.963 302.439 337.715 302.771C337.47 303.104 337.136 303.334 336.714 303.462V303.528C337.243 303.615 337.656 303.84 337.953 304.202C338.25 304.562 338.398 305.007 338.398 305.539C338.398 305.994 338.274 306.403 338.026 306.765C337.781 307.125 337.446 307.408 337.021 307.615C336.595 307.822 336.112 307.926 335.569 307.926ZM343.308 307.812V307.076L346.071 304.051C346.395 303.697 346.662 303.389 346.872 303.127C347.082 302.863 347.237 302.615 347.338 302.383C347.442 302.149 347.493 301.903 347.493 301.647C347.493 301.353 347.423 301.098 347.281 300.883C347.142 300.667 346.951 300.501 346.709 300.384C346.466 300.267 346.194 300.208 345.891 300.208C345.569 300.208 345.289 300.275 345.049 300.409C344.812 300.539 344.628 300.723 344.497 300.96C344.369 301.198 344.305 301.475 344.305 301.794H343.34C343.34 301.304 343.453 300.873 343.68 300.503C343.906 300.132 344.214 299.843 344.603 299.636C344.996 299.429 345.436 299.325 345.924 299.325C346.414 299.325 346.849 299.429 347.228 299.636C347.607 299.843 347.904 300.122 348.119 300.474C348.334 300.826 348.442 301.217 348.442 301.647C348.442 301.955 348.386 302.256 348.274 302.551C348.165 302.842 347.974 303.168 347.702 303.528C347.432 303.885 347.057 304.321 346.578 304.836L344.697 306.847V306.912H348.589V307.812H343.308ZM353.008 307.926C352.392 307.926 351.867 307.758 351.434 307.423C351.001 307.085 350.67 306.596 350.441 305.956C350.212 305.313 350.097 304.536 350.097 303.626C350.097 302.721 350.212 301.948 350.441 301.308C350.672 300.665 351.005 300.174 351.438 299.836C351.874 299.496 352.397 299.325 353.008 299.325C353.618 299.325 354.14 299.496 354.573 299.836C355.009 300.174 355.342 300.665 355.571 301.308C355.802 301.948 355.918 302.721 355.918 303.626C355.918 304.536 355.804 305.313 355.575 305.956C355.346 306.596 355.015 307.085 354.582 307.423C354.148 307.758 353.624 307.926 353.008 307.926ZM353.008 307.027C353.618 307.027 354.092 306.732 354.43 306.144C354.768 305.555 354.937 304.716 354.937 303.626C354.937 302.901 354.86 302.283 354.704 301.774C354.552 301.264 354.331 300.876 354.042 300.609C353.756 300.342 353.411 300.208 353.008 300.208C352.403 300.208 351.93 300.507 351.589 301.103C351.249 301.698 351.078 302.538 351.078 303.626C351.078 304.351 351.155 304.966 351.307 305.473C351.46 305.98 351.679 306.366 351.965 306.63C352.254 306.895 352.602 307.027 353.008 307.027ZM357.472 307.812V307.076L360.235 304.051C360.559 303.697 360.826 303.389 361.036 303.127C361.246 302.863 361.401 302.615 361.502 302.383C361.606 302.149 361.658 301.903 361.658 301.647C361.658 301.353 361.587 301.098 361.445 300.883C361.306 300.667 361.115 300.501 360.873 300.384C360.63 300.267 360.358 300.208 360.055 300.208C359.734 300.208 359.453 300.275 359.213 300.409C358.976 300.539 358.792 300.723 358.661 300.96C358.533 301.198 358.469 301.475 358.469 301.794H357.504C357.504 301.304 357.617 300.873 357.844 300.503C358.07 300.132 358.378 299.843 358.767 299.636C359.16 299.429 359.6 299.325 360.088 299.325C360.578 299.325 361.013 299.429 361.392 299.636C361.771 299.843 362.068 300.122 362.283 300.474C362.498 300.826 362.606 301.217 362.606 301.647C362.606 301.955 362.55 302.256 362.438 302.551C362.329 302.842 362.139 303.168 361.866 303.528C361.596 303.885 361.222 304.321 360.742 304.836L358.862 306.847V306.912H362.753V307.812H357.472ZM367.385 299.44V307.812H366.371V300.503H366.322L364.278 301.86V300.83L366.371 299.44H367.385Z" fill="black" fill-opacity="0.6"/>
<rect x="346.681" y="290.502" width="0.901287" height="0.901287" fill="black" fill-opacity="0.2"/>
<rect x="346.681" y="291.404" width="0.901287" height="2.70386" fill="black" fill-opacity="0.2"/>
<path d="M435.688 305.195H436.8L437.732 306.422L437.977 306.749L439.367 308.596H438.255L437.339 307.37L437.11 307.059L435.688 305.195ZM439.71 303.626C439.71 304.509 439.551 305.272 439.232 305.915C438.913 306.558 438.476 307.054 437.92 307.403C437.364 307.752 436.729 307.926 436.015 307.926C435.301 307.926 434.666 307.752 434.11 307.403C433.554 307.054 433.117 306.558 432.798 305.915C432.479 305.272 432.319 304.509 432.319 303.626C432.319 302.743 432.479 301.98 432.798 301.336C433.117 300.693 433.554 300.197 434.11 299.849C434.666 299.5 435.301 299.325 436.015 299.325C436.729 299.325 437.364 299.5 437.92 299.849C438.476 300.197 438.913 300.693 439.232 301.336C439.551 301.98 439.71 302.743 439.71 303.626ZM438.729 303.626C438.729 302.901 438.608 302.289 438.365 301.79C438.125 301.292 437.8 300.914 437.388 300.658C436.98 300.402 436.522 300.274 436.015 300.274C435.508 300.274 435.049 300.402 434.637 300.658C434.228 300.914 433.903 301.292 433.66 301.79C433.42 302.289 433.301 302.901 433.301 303.626C433.301 304.351 433.42 304.962 433.66 305.461C433.903 305.96 434.228 306.337 434.637 306.593C435.049 306.85 435.508 306.978 436.015 306.978C436.522 306.978 436.98 306.85 437.388 306.593C437.8 306.337 438.125 305.96 438.365 305.461C438.608 304.962 438.729 304.351 438.729 303.626ZM441.071 306.095V305.261L444.75 299.44H445.355V300.732H444.947L442.167 305.13V305.195H447.121V306.095H441.071ZM445.012 307.812V305.841V305.453V299.44H445.977V307.812H445.012ZM451.891 307.812V307.076L454.654 304.051C454.978 303.697 455.245 303.389 455.455 303.127C455.665 302.863 455.82 302.615 455.921 302.383C456.025 302.149 456.077 301.903 456.077 301.647C456.077 301.353 456.006 301.098 455.864 300.883C455.725 300.667 455.534 300.501 455.292 300.384C455.049 300.267 454.777 300.208 454.474 300.208C454.153 300.208 453.872 300.275 453.632 300.409C453.395 300.539 453.211 300.723 453.08 300.96C452.952 301.198 452.888 301.475 452.888 301.794H451.923C451.923 301.304 452.036 300.873 452.263 300.503C452.489 300.132 452.797 299.843 453.186 299.636C453.579 299.429 454.019 299.325 454.507 299.325C454.997 299.325 455.432 299.429 455.811 299.636C456.19 299.843 456.487 300.122 456.702 300.474C456.917 300.826 457.025 301.217 457.025 301.647C457.025 301.955 456.969 302.256 456.857 302.551C456.748 302.842 456.558 303.168 456.285 303.528C456.015 303.885 455.641 304.321 455.161 304.836L453.28 306.847V306.912H457.172V307.812H451.891ZM461.591 307.926C460.975 307.926 460.45 307.758 460.017 307.423C459.584 307.085 459.253 306.596 459.024 305.956C458.795 305.313 458.68 304.536 458.68 303.626C458.68 302.721 458.795 301.948 459.024 301.308C459.255 300.665 459.588 300.174 460.021 299.836C460.457 299.496 460.98 299.325 461.591 299.325C462.201 299.325 462.723 299.496 463.157 299.836C463.593 300.174 463.925 300.665 464.154 301.308C464.386 301.948 464.501 302.721 464.501 303.626C464.501 304.536 464.387 305.313 464.158 305.956C463.929 306.596 463.598 307.085 463.165 307.423C462.731 307.758 462.207 307.926 461.591 307.926ZM461.591 307.027C462.201 307.027 462.676 306.732 463.013 306.144C463.351 305.555 463.52 304.716 463.52 303.626C463.52 302.901 463.443 302.283 463.287 301.774C463.135 301.264 462.914 300.876 462.625 300.609C462.339 300.342 461.994 300.208 461.591 300.208C460.986 300.208 460.513 300.507 460.172 301.103C459.832 301.698 459.662 302.538 459.662 303.626C459.662 304.351 459.738 304.966 459.89 305.473C460.043 305.98 460.262 306.366 460.549 306.63C460.837 306.895 461.185 307.027 461.591 307.027ZM466.055 307.812V307.076L468.818 304.051C469.142 303.697 469.409 303.389 469.619 303.127C469.829 302.863 469.984 302.615 470.085 302.383C470.189 302.149 470.241 301.903 470.241 301.647C470.241 301.353 470.17 301.098 470.028 300.883C469.889 300.667 469.698 300.501 469.456 300.384C469.213 300.267 468.941 300.208 468.638 300.208C468.317 300.208 468.036 300.275 467.796 300.409C467.559 300.539 467.375 300.723 467.244 300.96C467.116 301.198 467.052 301.475 467.052 301.794H466.087C466.087 301.304 466.201 300.873 466.427 300.503C466.653 300.132 466.961 299.843 467.351 299.636C467.743 299.429 468.183 299.325 468.671 299.325C469.161 299.325 469.596 299.429 469.975 299.636C470.354 299.843 470.651 300.122 470.866 300.474C471.081 300.826 471.189 301.217 471.189 301.647C471.189 301.955 471.133 302.256 471.021 302.551C470.912 302.842 470.722 303.168 470.449 303.528C470.179 303.885 469.805 304.321 469.325 304.836L467.445 306.847V306.912H471.336V307.812H466.055ZM475.968 299.44V307.812H474.954V300.503H474.905L472.861 301.86V300.83L474.954 299.44H475.968Z" fill="black" fill-opacity="0.6"/>
<rect x="455.236" y="290.502" width="0.901287" height="0.901287" fill="black" fill-opacity="0.2"/>
<rect x="455.236" y="291.404" width="0.901287" height="2.70386" fill="black" fill-opacity="0.2"/>
<path d="M544.602 305.195H545.714L546.646 306.422L546.891 306.749L548.281 308.596H547.169L546.253 307.37L546.024 307.059L544.602 305.195ZM548.624 303.626C548.624 304.509 548.465 305.272 548.146 305.915C547.827 306.558 547.39 307.054 546.834 307.403C546.278 307.752 545.643 307.926 544.929 307.926C544.215 307.926 543.58 307.752 543.024 307.403C542.468 307.054 542.031 306.558 541.712 305.915C541.393 305.272 541.233 304.509 541.233 303.626C541.233 302.743 541.393 301.98 541.712 301.336C542.031 300.693 542.468 300.197 543.024 299.849C543.58 299.5 544.215 299.325 544.929 299.325C545.643 299.325 546.278 299.5 546.834 299.849C547.39 300.197 547.827 300.693 548.146 301.336C548.465 301.98 548.624 302.743 548.624 303.626ZM547.643 303.626C547.643 302.901 547.522 302.289 547.279 301.79C547.039 301.292 546.714 300.914 546.302 300.658C545.894 300.402 545.436 300.274 544.929 300.274C544.422 300.274 543.963 300.402 543.551 300.658C543.142 300.914 542.817 301.292 542.574 301.79C542.334 302.289 542.215 302.901 542.215 303.626C542.215 304.351 542.334 304.962 542.574 305.461C542.817 305.96 543.142 306.337 543.551 306.593C543.963 306.85 544.422 306.978 544.929 306.978C545.436 306.978 545.894 306.85 546.302 306.593C546.714 306.337 547.039 305.96 547.279 305.461C547.522 304.962 547.643 304.351 547.643 303.626ZM553.125 299.44V307.812H552.111V300.503H552.062L550.018 301.86V300.83L552.111 299.44H553.125ZM558.77 307.812V307.076L561.533 304.051C561.858 303.697 562.125 303.389 562.335 303.127C562.544 302.863 562.7 302.615 562.801 302.383C562.904 302.149 562.956 301.903 562.956 301.647C562.956 301.353 562.885 301.098 562.743 300.883C562.604 300.667 562.414 300.501 562.171 300.384C561.928 300.267 561.656 300.208 561.353 300.208C561.032 300.208 560.751 300.275 560.511 300.409C560.274 300.539 560.09 300.723 559.96 300.96C559.831 301.198 559.767 301.475 559.767 301.794H558.803C558.803 301.304 558.916 300.873 559.142 300.503C559.368 300.132 559.676 299.843 560.066 299.636C560.458 299.429 560.898 299.325 561.386 299.325C561.877 299.325 562.311 299.429 562.69 299.636C563.069 299.843 563.366 300.122 563.581 300.474C563.797 300.826 563.904 301.217 563.904 301.647C563.904 301.955 563.848 302.256 563.737 302.551C563.628 302.842 563.437 303.168 563.164 303.528C562.895 303.885 562.52 304.321 562.04 304.836L560.16 306.847V306.912H564.051V307.812H558.77ZM568.47 307.926C567.854 307.926 567.33 307.758 566.896 307.423C566.463 307.085 566.132 306.596 565.903 305.956C565.674 305.313 565.56 304.536 565.56 303.626C565.56 302.721 565.674 301.948 565.903 301.308C566.135 300.665 566.467 300.174 566.901 299.836C567.337 299.496 567.86 299.325 568.47 299.325C569.081 299.325 569.603 299.496 570.036 299.836C570.472 300.174 570.804 300.665 571.033 301.308C571.265 301.948 571.381 302.721 571.381 303.626C571.381 304.536 571.266 305.313 571.037 305.956C570.808 306.596 570.477 307.085 570.044 307.423C569.611 307.758 569.086 307.926 568.47 307.926ZM568.47 307.027C569.081 307.027 569.555 306.732 569.893 306.144C570.231 305.555 570.4 304.716 570.4 303.626C570.4 302.901 570.322 302.283 570.167 301.774C570.014 301.264 569.793 300.876 569.504 300.609C569.218 300.342 568.874 300.208 568.47 300.208C567.865 300.208 567.392 300.507 567.052 301.103C566.711 301.698 566.541 302.538 566.541 303.626C566.541 304.351 566.617 304.966 566.77 305.473C566.922 305.98 567.142 306.366 567.428 306.63C567.717 306.895 568.064 307.027 568.47 307.027ZM572.934 307.812V307.076L575.697 304.051C576.022 303.697 576.289 303.389 576.499 303.127C576.708 302.863 576.864 302.615 576.965 302.383C577.068 302.149 577.12 301.903 577.12 301.647C577.12 301.353 577.049 301.098 576.907 300.883C576.768 300.667 576.578 300.501 576.335 300.384C576.093 300.267 575.82 300.208 575.518 300.208C575.196 300.208 574.915 300.275 574.676 300.409C574.438 300.539 574.254 300.723 574.124 300.96C573.996 301.198 573.932 301.475 573.932 301.794H572.967C572.967 301.304 573.08 300.873 573.306 300.503C573.532 300.132 573.84 299.843 574.23 299.636C574.622 299.429 575.062 299.325 575.55 299.325C576.041 299.325 576.475 299.429 576.854 299.636C577.233 299.843 577.53 300.122 577.745 300.474C577.961 300.826 578.068 301.217 578.068 301.647C578.068 301.955 578.012 302.256 577.901 302.551C577.792 302.842 577.601 303.168 577.328 303.528C577.059 303.885 576.684 304.321 576.204 304.836L574.324 306.847V306.912H578.216V307.812H572.934ZM579.904 307.812V307.076L582.667 304.051C582.991 303.697 583.258 303.389 583.468 303.127C583.678 302.863 583.833 302.615 583.934 302.383C584.038 302.149 584.09 301.903 584.09 301.647C584.09 301.353 584.019 301.098 583.877 300.883C583.738 300.667 583.547 300.501 583.305 300.384C583.062 300.267 582.79 300.208 582.487 300.208C582.166 300.208 581.885 300.275 581.645 300.409C581.408 300.539 581.224 300.723 581.093 300.96C580.965 301.198 580.901 301.475 580.901 301.794H579.936C579.936 301.304 580.05 300.873 580.276 300.503C580.502 300.132 580.81 299.843 581.2 299.636C581.592 299.429 582.032 299.325 582.52 299.325C583.01 299.325 583.445 299.429 583.824 299.636C584.203 299.843 584.5 300.122 584.715 300.474C584.93 300.826 585.038 301.217 585.038 301.647C585.038 301.955 584.982 302.256 584.87 302.551C584.761 302.842 584.571 303.168 584.298 303.528C584.028 303.885 583.654 304.321 583.174 304.836L581.294 306.847V306.912H585.185V307.812H579.904Z" fill="black" fill-opacity="0.6"/>
<rect x="563.791" y="290.502" width="0.901287" height="0.901287" fill="black" fill-opacity="0.2"/>
<rect x="563.791" y="291.404" width="0.901287" height="2.70386" fill="black" fill-opacity="0.2"/>
<path d="M652.196 305.195H653.308L654.24 306.422L654.485 306.749L655.875 308.596H654.763L653.848 307.37L653.619 307.059L652.196 305.195ZM656.219 303.626C656.219 304.509 656.059 305.272 655.74 305.915C655.422 306.558 654.984 307.054 654.428 307.403C653.872 307.752 653.237 307.926 652.523 307.926C651.809 307.926 651.174 307.752 650.618 307.403C650.062 307.054 649.625 306.558 649.306 305.915C648.987 305.272 648.828 304.509 648.828 303.626C648.828 302.743 648.987 301.98 649.306 301.336C649.625 300.693 650.062 300.197 650.618 299.849C651.174 299.5 651.809 299.325 652.523 299.325C653.237 299.325 653.872 299.5 654.428 299.849C654.984 300.197 655.422 300.693 655.74 301.336C656.059 301.98 656.219 302.743 656.219 303.626ZM655.238 303.626C655.238 302.901 655.116 302.289 654.874 301.79C654.634 301.292 654.308 300.914 653.897 300.658C653.488 300.402 653.03 300.274 652.523 300.274C652.016 300.274 651.557 300.402 651.146 300.658C650.737 300.914 650.411 301.292 650.169 301.79C649.929 302.289 649.809 302.901 649.809 303.626C649.809 304.351 649.929 304.962 650.169 305.461C650.411 305.96 650.737 306.337 651.146 306.593C651.557 306.85 652.016 306.978 652.523 306.978C653.03 306.978 653.488 306.85 653.897 306.593C654.308 306.337 654.634 305.96 654.874 305.461C655.116 304.962 655.238 304.351 655.238 303.626ZM657.776 307.812V307.076L660.539 304.051C660.864 303.697 661.131 303.389 661.341 303.127C661.55 302.863 661.706 302.615 661.807 302.383C661.91 302.149 661.962 301.903 661.962 301.647C661.962 301.353 661.891 301.098 661.749 300.883C661.61 300.667 661.42 300.501 661.177 300.384C660.935 300.267 660.662 300.208 660.36 300.208C660.038 300.208 659.757 300.275 659.517 300.409C659.28 300.539 659.096 300.723 658.966 300.96C658.838 301.198 658.774 301.475 658.774 301.794H657.809C657.809 301.304 657.922 300.873 658.148 300.503C658.374 300.132 658.682 299.843 659.072 299.636C659.464 299.429 659.904 299.325 660.392 299.325C660.883 299.325 661.317 299.429 661.696 299.636C662.075 299.843 662.372 300.122 662.587 300.474C662.803 300.826 662.91 301.217 662.91 301.647C662.91 301.955 662.854 302.256 662.743 302.551C662.634 302.842 662.443 303.168 662.17 303.528C661.901 303.885 661.526 304.321 661.046 304.836L659.166 306.847V306.912H663.057V307.812H657.776ZM667.983 307.812V307.076L670.747 304.051C671.071 303.697 671.338 303.389 671.548 303.127C671.758 302.863 671.913 302.615 672.014 302.383C672.117 302.149 672.169 301.903 672.169 301.647C672.169 301.353 672.098 301.098 671.957 300.883C671.818 300.667 671.627 300.501 671.384 300.384C671.142 300.267 670.869 300.208 670.567 300.208C670.245 300.208 669.964 300.275 669.725 300.409C669.488 300.539 669.304 300.723 669.173 300.96C669.045 301.198 668.981 301.475 668.981 301.794H668.016C668.016 301.304 668.129 300.873 668.355 300.503C668.581 300.132 668.889 299.843 669.279 299.636C669.671 299.429 670.112 299.325 670.599 299.325C671.09 299.325 671.525 299.429 671.903 299.636C672.282 299.843 672.579 300.122 672.795 300.474C673.01 300.826 673.117 301.217 673.117 301.647C673.117 301.955 673.062 302.256 672.95 302.551C672.841 302.842 672.65 303.168 672.378 303.528C672.108 303.885 671.733 304.321 671.253 304.836L669.373 306.847V306.912H673.265V307.812H667.983ZM677.684 307.926C677.068 307.926 676.543 307.758 676.11 307.423C675.676 307.085 675.345 306.596 675.116 305.956C674.887 305.313 674.773 304.536 674.773 303.626C674.773 302.721 674.887 301.948 675.116 301.308C675.348 300.665 675.681 300.174 676.114 299.836C676.55 299.496 677.073 299.325 677.684 299.325C678.294 299.325 678.816 299.496 679.249 299.836C679.685 300.174 680.018 300.665 680.247 301.308C680.478 301.948 680.594 302.721 680.594 303.626C680.594 304.536 680.48 305.313 680.251 305.956C680.022 306.596 679.691 307.085 679.257 307.423C678.824 307.758 678.299 307.926 677.684 307.926ZM677.684 307.027C678.294 307.027 678.768 306.732 679.106 306.144C679.444 305.555 679.613 304.716 679.613 303.626C679.613 302.901 679.535 302.283 679.38 301.774C679.227 301.264 679.007 300.876 678.718 300.609C678.432 300.342 678.087 300.208 677.684 300.208C677.079 300.208 676.606 300.507 676.265 301.103C675.924 301.698 675.754 302.538 675.754 303.626C675.754 304.351 675.83 304.966 675.983 305.473C676.136 305.98 676.355 306.366 676.641 306.63C676.93 306.895 677.277 307.027 677.684 307.027ZM682.147 307.812V307.076L684.911 304.051C685.235 303.697 685.502 303.389 685.712 303.127C685.922 302.863 686.077 302.615 686.178 302.383C686.281 302.149 686.333 301.903 686.333 301.647C686.333 301.353 686.262 301.098 686.121 300.883C685.982 300.667 685.791 300.501 685.548 300.384C685.306 300.267 685.033 300.208 684.731 300.208C684.409 300.208 684.129 300.275 683.889 300.409C683.652 300.539 683.468 300.723 683.337 300.96C683.209 301.198 683.145 301.475 683.145 301.794H682.18C682.18 301.304 682.293 300.873 682.519 300.503C682.746 300.132 683.053 299.843 683.443 299.636C683.836 299.429 684.276 299.325 684.764 299.325C685.254 299.325 685.689 299.429 686.068 299.636C686.446 299.843 686.743 300.122 686.959 300.474C687.174 300.826 687.282 301.217 687.282 301.647C687.282 301.955 687.226 302.256 687.114 302.551C687.005 302.842 686.814 303.168 686.542 303.528C686.272 303.885 685.897 304.321 685.418 304.836L683.537 306.847V306.912H687.429V307.812H682.147ZM689.117 307.812V307.076L691.88 304.051C692.205 303.697 692.472 303.389 692.682 303.127C692.891 302.863 693.047 302.615 693.148 302.383C693.251 302.149 693.303 301.903 693.303 301.647C693.303 301.353 693.232 301.098 693.09 300.883C692.951 300.667 692.761 300.501 692.518 300.384C692.275 300.267 692.003 300.208 691.7 300.208C691.379 300.208 691.098 300.275 690.858 300.409C690.621 300.539 690.437 300.723 690.307 300.96C690.178 301.198 690.114 301.475 690.114 301.794H689.15C689.15 301.304 689.263 300.873 689.489 300.503C689.715 300.132 690.023 299.843 690.413 299.636C690.805 299.429 691.245 299.325 691.733 299.325C692.224 299.325 692.658 299.429 693.037 299.636C693.416 299.843 693.713 300.122 693.928 300.474C694.144 300.826 694.251 301.217 694.251 301.647C694.251 301.955 694.195 302.256 694.084 302.551C693.975 302.842 693.784 303.168 693.511 303.528C693.242 303.885 692.867 304.321 692.387 304.836L690.507 306.847V306.912H694.398V307.812H689.117Z" fill="black" fill-opacity="0.6"/>
<rect x="672.346" y="290.502" width="0.901287" height="0.901287" fill="black" fill-opacity="0.2"/>
<rect x="672.346" y="291.404" width="0.901287" height="2.70386" fill="black" fill-opacity="0.2"/>
<path d="M760.571 305.195H761.683L762.615 306.422L762.861 306.749L764.25 308.596H763.139L762.223 307.37L761.994 307.059L760.571 305.195ZM764.594 303.626C764.594 304.509 764.434 305.272 764.115 305.915C763.797 306.558 763.359 307.054 762.803 307.403C762.247 307.752 761.612 307.926 760.898 307.926C760.184 307.926 759.549 307.752 758.994 307.403C758.438 307.054 758 306.558 757.681 305.915C757.362 305.272 757.203 304.509 757.203 303.626C757.203 302.743 757.362 301.98 757.681 301.336C758 300.693 758.438 300.197 758.994 299.849C759.549 299.5 760.184 299.325 760.898 299.325C761.612 299.325 762.247 299.5 762.803 299.849C763.359 300.197 763.797 300.693 764.115 301.336C764.434 301.98 764.594 302.743 764.594 303.626ZM763.613 303.626C763.613 302.901 763.491 302.289 763.249 301.79C763.009 301.292 762.683 300.914 762.272 300.658C761.863 300.402 761.405 300.274 760.898 300.274C760.392 300.274 759.932 300.402 759.521 300.658C759.112 300.914 758.786 301.292 758.544 301.79C758.304 302.289 758.184 302.901 758.184 303.626C758.184 304.351 758.304 304.962 758.544 305.461C758.786 305.96 759.112 306.337 759.521 306.593C759.932 306.85 760.392 306.978 760.898 306.978C761.405 306.978 761.863 306.85 762.272 306.593C762.683 306.337 763.009 305.96 763.249 305.461C763.491 304.962 763.613 304.351 763.613 303.626ZM768.98 307.926C768.44 307.926 767.959 307.833 767.537 307.648C767.117 307.463 766.783 307.205 766.535 306.875C766.29 306.543 766.157 306.157 766.135 305.719H767.165C767.187 305.988 767.279 306.221 767.443 306.418C767.606 306.611 767.82 306.761 768.085 306.867C768.349 306.974 768.642 307.027 768.964 307.027C769.323 307.027 769.642 306.964 769.92 306.839C770.198 306.713 770.416 306.539 770.574 306.315C770.732 306.092 770.811 305.833 770.811 305.539C770.811 305.231 770.735 304.96 770.582 304.725C770.43 304.488 770.206 304.303 769.912 304.169C769.618 304.036 769.258 303.969 768.833 303.969H768.162V303.07H768.833C769.165 303.07 769.457 303.01 769.708 302.89C769.961 302.77 770.159 302.601 770.3 302.383C770.445 302.165 770.517 301.909 770.517 301.614C770.517 301.331 770.454 301.084 770.329 300.875C770.204 300.665 770.026 300.501 769.797 300.384C769.571 300.267 769.304 300.208 768.996 300.208C768.707 300.208 768.435 300.261 768.179 300.368C767.925 300.471 767.718 300.623 767.557 300.821C767.397 301.018 767.309 301.255 767.296 301.533H766.315C766.331 301.094 766.463 300.71 766.711 300.38C766.959 300.047 767.284 299.789 767.684 299.603C768.087 299.418 768.53 299.325 769.013 299.325C769.53 299.325 769.975 299.43 770.345 299.64C770.716 299.847 771.001 300.121 771.2 300.462C771.399 300.802 771.498 301.17 771.498 301.565C771.498 302.037 771.374 302.439 771.126 302.771C770.881 303.104 770.547 303.334 770.125 303.462V303.528C770.653 303.615 771.066 303.84 771.363 304.202C771.66 304.562 771.809 305.007 771.809 305.539C771.809 305.994 771.685 306.403 771.437 306.765C771.191 307.125 770.856 307.408 770.431 307.615C770.006 307.822 769.522 307.926 768.98 307.926ZM776.718 307.812V307.076L779.481 304.051C779.806 303.697 780.073 303.389 780.283 303.127C780.492 302.863 780.648 302.615 780.749 302.383C780.852 302.149 780.904 301.903 780.904 301.647C780.904 301.353 780.833 301.098 780.691 300.883C780.552 300.667 780.362 300.501 780.119 300.384C779.877 300.267 779.604 300.208 779.302 300.208C778.98 300.208 778.699 300.275 778.459 300.409C778.222 300.539 778.038 300.723 777.908 300.96C777.78 301.198 777.715 301.475 777.715 301.794H776.751C776.751 301.304 776.864 300.873 777.09 300.503C777.316 300.132 777.624 299.843 778.014 299.636C778.406 299.429 778.846 299.325 779.334 299.325C779.825 299.325 780.259 299.429 780.638 299.636C781.017 299.843 781.314 300.122 781.529 300.474C781.745 300.826 781.852 301.217 781.852 301.647C781.852 301.955 781.796 302.256 781.685 302.551C781.576 302.842 781.385 303.168 781.112 303.528C780.843 303.885 780.468 304.321 779.988 304.836L778.108 306.847V306.912H781.999V307.812H776.718ZM786.418 307.926C785.802 307.926 785.278 307.758 784.845 307.423C784.411 307.085 784.08 306.596 783.851 305.956C783.622 305.313 783.508 304.536 783.508 303.626C783.508 302.721 783.622 301.948 783.851 301.308C784.083 300.665 784.415 300.174 784.849 299.836C785.285 299.496 785.808 299.325 786.418 299.325C787.029 299.325 787.551 299.496 787.984 299.836C788.42 300.174 788.752 300.665 788.981 301.308C789.213 301.948 789.329 302.721 789.329 303.626C789.329 304.536 789.214 305.313 788.985 305.956C788.757 306.596 788.425 307.085 787.992 307.423C787.559 307.758 787.034 307.926 786.418 307.926ZM786.418 307.027C787.029 307.027 787.503 306.732 787.841 306.144C788.179 305.555 788.348 304.716 788.348 303.626C788.348 302.901 788.27 302.283 788.115 301.774C787.962 301.264 787.741 300.876 787.453 300.609C787.166 300.342 786.822 300.208 786.418 300.208C785.813 300.208 785.341 300.507 785 301.103C784.659 301.698 784.489 302.538 784.489 303.626C784.489 304.351 784.565 304.966 784.718 305.473C784.87 305.98 785.09 306.366 785.376 306.63C785.665 306.895 786.012 307.027 786.418 307.027ZM790.882 307.812V307.076L793.646 304.051C793.97 303.697 794.237 303.389 794.447 303.127C794.657 302.863 794.812 302.615 794.913 302.383C795.016 302.149 795.068 301.903 795.068 301.647C795.068 301.353 794.997 301.098 794.856 300.883C794.717 300.667 794.526 300.501 794.283 300.384C794.041 300.267 793.768 300.208 793.466 300.208C793.144 300.208 792.863 300.275 792.624 300.409C792.386 300.539 792.203 300.723 792.072 300.96C791.944 301.198 791.88 301.475 791.88 301.794H790.915C790.915 301.304 791.028 300.873 791.254 300.503C791.48 300.132 791.788 299.843 792.178 299.636C792.57 299.429 793.011 299.325 793.498 299.325C793.989 299.325 794.424 299.429 794.802 299.636C795.181 299.843 795.478 300.122 795.693 300.474C795.909 300.826 796.016 301.217 796.016 301.647C796.016 301.955 795.961 302.256 795.849 302.551C795.74 302.842 795.549 303.168 795.277 303.528C795.007 303.885 794.632 304.321 794.152 304.836L792.272 306.847V306.912H796.164V307.812H790.882ZM797.852 307.812V307.076L800.615 304.051C800.939 303.697 801.207 303.389 801.416 303.127C801.626 302.863 801.782 302.615 801.882 302.383C801.986 302.149 802.038 301.903 802.038 301.647C802.038 301.353 801.967 301.098 801.825 300.883C801.686 300.667 801.495 300.501 801.253 300.384C801.01 300.267 800.738 300.208 800.435 300.208C800.114 300.208 799.833 300.275 799.593 300.409C799.356 300.539 799.172 300.723 799.041 300.96C798.913 301.198 798.849 301.475 798.849 301.794H797.885C797.885 301.304 797.998 300.873 798.224 300.503C798.45 300.132 798.758 299.843 799.148 299.636C799.54 299.429 799.98 299.325 800.468 299.325C800.959 299.325 801.393 299.429 801.772 299.636C802.151 299.843 802.448 300.122 802.663 300.474C802.878 300.826 802.986 301.217 802.986 301.647C802.986 301.955 802.93 302.256 802.818 302.551C802.709 302.842 802.519 303.168 802.246 303.528C801.976 303.885 801.602 304.321 801.122 304.836L799.242 306.847V306.912H803.133V307.812H797.852Z" fill="black" fill-opacity="0.6"/>
<rect x="780.901" y="290.502" width="0.901287" height="0.901287" fill="black" fill-opacity="0.2"/>
<rect x="780.901" y="291.404" width="0.901287" height="2.70386" fill="black" fill-opacity="0.2"/>
<path d="M869.098 305.195H870.21L871.142 306.422L871.387 306.749L872.777 308.596H871.665L870.75 307.37L870.521 307.059L869.098 305.195ZM873.121 303.626C873.121 304.509 872.961 305.272 872.642 305.915C872.324 306.558 871.886 307.054 871.33 307.403C870.774 307.752 870.139 307.926 869.425 307.926C868.711 307.926 868.076 307.752 867.52 307.403C866.965 307.054 866.527 306.558 866.208 305.915C865.889 305.272 865.73 304.509 865.73 303.626C865.73 302.743 865.889 301.98 866.208 301.336C866.527 300.693 866.965 300.197 867.52 299.849C868.076 299.5 868.711 299.325 869.425 299.325C870.139 299.325 870.774 299.5 871.33 299.849C871.886 300.197 872.324 300.693 872.642 301.336C872.961 301.98 873.121 302.743 873.121 303.626ZM872.14 303.626C872.14 302.901 872.018 302.289 871.776 301.79C871.536 301.292 871.21 300.914 870.799 300.658C870.39 300.402 869.932 300.274 869.425 300.274C868.918 300.274 868.459 300.402 868.048 300.658C867.639 300.914 867.313 301.292 867.071 301.79C866.831 302.289 866.711 302.901 866.711 303.626C866.711 304.351 866.831 304.962 867.071 305.461C867.313 305.96 867.639 306.337 868.048 306.593C868.459 306.85 868.918 306.978 869.425 306.978C869.932 306.978 870.39 306.85 870.799 306.593C871.21 306.337 871.536 305.96 871.776 305.461C872.018 304.962 872.14 304.351 872.14 303.626ZM874.482 306.095V305.261L878.161 299.44H878.766V300.732H878.357L875.577 305.13V305.195H880.532V306.095H874.482ZM878.423 307.812V305.841V305.453V299.44H879.387V307.812H878.423ZM885.301 307.812V307.076L888.065 304.051C888.389 303.697 888.656 303.389 888.866 303.127C889.076 302.863 889.231 302.615 889.332 302.383C889.435 302.149 889.487 301.903 889.487 301.647C889.487 301.353 889.416 301.098 889.275 300.883C889.136 300.667 888.945 300.501 888.702 300.384C888.46 300.267 888.187 300.208 887.885 300.208C887.563 300.208 887.282 300.275 887.043 300.409C886.806 300.539 886.622 300.723 886.491 300.96C886.363 301.198 886.299 301.475 886.299 301.794H885.334C885.334 301.304 885.447 300.873 885.673 300.503C885.899 300.132 886.207 299.843 886.597 299.636C886.989 299.429 887.43 299.325 887.917 299.325C888.408 299.325 888.843 299.429 889.221 299.636C889.6 299.843 889.897 300.122 890.113 300.474C890.328 300.826 890.435 301.217 890.435 301.647C890.435 301.955 890.38 302.256 890.268 302.551C890.159 302.842 889.968 303.168 889.696 303.528C889.426 303.885 889.051 304.321 888.571 304.836L886.691 306.847V306.912H890.583V307.812H885.301ZM895.002 307.926C894.386 307.926 893.861 307.758 893.428 307.423C892.994 307.085 892.663 306.596 892.434 305.956C892.205 305.313 892.091 304.536 892.091 303.626C892.091 302.721 892.205 301.948 892.434 301.308C892.666 300.665 892.998 300.174 893.432 299.836C893.868 299.496 894.391 299.325 895.002 299.325C895.612 299.325 896.134 299.496 896.567 299.836C897.003 300.174 897.336 300.665 897.565 301.308C897.796 301.948 897.912 302.721 897.912 303.626C897.912 304.536 897.798 305.313 897.569 305.956C897.34 306.596 897.009 307.085 896.575 307.423C896.142 307.758 895.617 307.926 895.002 307.926ZM895.002 307.027C895.612 307.027 896.086 306.732 896.424 306.144C896.762 305.555 896.931 304.716 896.931 303.626C896.931 302.901 896.853 302.283 896.698 301.774C896.545 301.264 896.325 300.876 896.036 300.609C895.75 300.342 895.405 300.208 895.002 300.208C894.397 300.208 893.924 300.507 893.583 301.103C893.242 301.698 893.072 302.538 893.072 303.626C893.072 304.351 893.148 304.966 893.301 305.473C893.454 305.98 893.673 306.366 893.959 306.63C894.248 306.895 894.595 307.027 895.002 307.027ZM899.465 307.812V307.076L902.229 304.051C902.553 303.697 902.82 303.389 903.03 303.127C903.24 302.863 903.395 302.615 903.496 302.383C903.599 302.149 903.651 301.903 903.651 301.647C903.651 301.353 903.58 301.098 903.439 300.883C903.3 300.667 903.109 300.501 902.866 300.384C902.624 300.267 902.351 300.208 902.049 300.208C901.727 300.208 901.447 300.275 901.207 300.409C900.97 300.539 900.786 300.723 900.655 300.96C900.527 301.198 900.463 301.475 900.463 301.794H899.498C899.498 301.304 899.611 300.873 899.837 300.503C900.064 300.132 900.371 299.843 900.761 299.636C901.154 299.429 901.594 299.325 902.082 299.325C902.572 299.325 903.007 299.429 903.386 299.636C903.764 299.843 904.061 300.122 904.277 300.474C904.492 300.826 904.6 301.217 904.6 301.647C904.6 301.955 904.544 302.256 904.432 302.551C904.323 302.842 904.132 303.168 903.86 303.528C903.59 303.885 903.215 304.321 902.736 304.836L900.855 306.847V306.912H904.747V307.812H899.465ZM906.435 307.812V307.076L909.198 304.051C909.523 303.697 909.79 303.389 910 303.127C910.209 302.863 910.365 302.615 910.466 302.383C910.569 302.149 910.621 301.903 910.621 301.647C910.621 301.353 910.55 301.098 910.408 300.883C910.269 300.667 910.079 300.501 909.836 300.384C909.593 300.267 909.321 300.208 909.018 300.208C908.697 300.208 908.416 300.275 908.176 300.409C907.939 300.539 907.755 300.723 907.625 300.96C907.496 301.198 907.432 301.475 907.432 301.794H906.468C906.468 301.304 906.581 300.873 906.807 300.503C907.033 300.132 907.341 299.843 907.731 299.636C908.123 299.429 908.563 299.325 909.051 299.325C909.542 299.325 909.976 299.429 910.355 299.636C910.734 299.843 911.031 300.122 911.246 300.474C911.462 300.826 911.569 301.217 911.569 301.647C911.569 301.955 911.513 302.256 911.402 302.551C911.293 302.842 911.102 303.168 910.829 303.528C910.56 303.885 910.185 304.321 909.705 304.836L907.825 306.847V306.912H911.716V307.812H906.435Z" fill="black" fill-opacity="0.6"/>
<rect x="889.456" y="290.502" width="0.901287" height="0.901287" fill="black" fill-opacity="0.2"/>
<rect x="889.456" y="291.404" width="0.901287" height="2.70386" fill="black" fill-opacity="0.2"/>
<rect x="998.011" y="290.502" width="0.901287" height="0.901287" fill="black" fill-opacity="0.2"/>
<rect x="998.011" y="291.404" width="0.901287" height="2.70386" fill="black" fill-opacity="0.2"/>
<path d="M21.0235 212.139L129.013 251.796L237.002 222.955L344.991 158.062L455.018 168.878L563.007 201.324L670.996 143.191L778.985 150.852L886.975 66.5815" stroke="#00A39D" stroke-width="0.901287"/>
<circle opacity="0.2" cx="20.7983" cy="211.732" r="5.40772" fill="#00A39D"/>
<circle cx="20.7983" cy="211.732" r="2.70386" fill="#00A39D"/>
<circle opacity="0.2" cx="128.788" cy="251.388" r="5.40772" fill="#00A39D"/>
<circle cx="128.788" cy="251.388" r="2.70386" fill="#00A39D"/>
<circle opacity="0.2" cx="236.777" cy="222.547" r="5.40772" fill="#00A39D"/>
<circle cx="236.777" cy="222.547" r="2.70386" fill="#00A39D"/>
<circle opacity="0.2" cx="344.766" cy="157.654" r="5.40772" fill="#00A39D"/>
<circle cx="344.766" cy="157.655" r="2.70386" fill="#00A39D"/>
<circle opacity="0.2" cx="454.793" cy="168.47" r="5.40772" fill="#00A39D"/>
<circle cx="454.793" cy="168.47" r="2.70386" fill="#00A39D"/>
<circle opacity="0.2" cx="562.782" cy="200.916" r="5.40772" fill="#00A39D"/>
<circle cx="562.782" cy="200.916" r="2.70386" fill="#00A39D"/>
<circle opacity="0.2" cx="670.771" cy="143.234" r="5.40772" fill="#00A39D"/>
<circle cx="670.771" cy="143.234" r="2.70386" fill="#00A39D"/>
<circle opacity="0.2" cx="780.798" cy="150.444" r="5.40772" fill="#00A39D"/>
<circle cx="780.798" cy="150.445" r="2.70386" fill="#00A39D"/>
<circle opacity="0.2" cx="886.75" cy="66.6245" r="5.40772" fill="#00A39D"/>
<circle cx="886.75" cy="66.6248" r="2.70386" fill="#00A39D"/>
</svg>
