<svg width="967" height="335" viewBox="0 0 967 335" fill="none" xmlns="http://www.w3.org/2000/svg">
<path d="M8.1042 22.9907V30.8564H7.1517V23.9893H7.10562L5.18526 25.2644V24.2965L7.1517 22.9907H8.1042ZM12.932 30.964C12.3533 30.964 11.8604 30.8065 11.4533 30.4916C11.0462 30.1741 10.7351 29.7145 10.52 29.1128C10.3049 28.5085 10.1974 27.7788 10.1974 26.9236C10.1974 26.0735 10.3049 25.3476 10.52 24.7459C10.7376 24.1416 11.05 23.6807 11.4571 23.3632C11.8668 23.0432 12.3584 22.8831 12.932 22.8831C13.5055 22.8831 13.9958 23.0432 14.403 23.3632C14.8126 23.6807 15.125 24.1416 15.3401 24.7459C15.5577 25.3476 15.6666 26.0735 15.6666 26.9236C15.6666 27.7788 15.559 28.5085 15.3439 29.1128C15.1289 29.7145 14.8178 30.1741 14.4106 30.4916C14.0035 30.8065 13.5106 30.964 12.932 30.964ZM12.932 30.119C13.5055 30.119 13.951 29.8425 14.2685 29.2894C14.586 28.7364 14.7448 27.9477 14.7448 26.9236C14.7448 26.2425 14.6718 25.6625 14.5259 25.1837C14.3825 24.7049 14.1751 24.34 13.9037 24.0891C13.6348 23.8382 13.3109 23.7127 12.932 23.7127C12.3635 23.7127 11.9193 23.9931 11.5992 24.5538C11.2792 25.112 11.1192 25.9019 11.1192 26.9236C11.1192 27.6046 11.1909 28.1833 11.3342 28.6596C11.4776 29.1358 11.6837 29.4981 11.9526 29.7465C12.224 29.9948 12.5505 30.119 12.932 30.119Z" fill="black" fill-opacity="0.6"/>
<path d="M4.45943 0.134225H6.10325V5.61876C6.10325 6.12573 5.98931 6.56613 5.76143 6.93996C5.5361 7.31379 5.22245 7.60185 4.82045 7.80412C4.41846 8.0064 3.95117 8.10754 3.41859 8.10754C2.94491 8.10754 2.51475 8.02432 2.12811 7.85789C1.74404 7.6889 1.43935 7.43286 1.21402 7.08975C0.988703 6.74409 0.877323 6.31009 0.879883 5.78775H2.53523C2.54035 5.99515 2.5826 6.1731 2.66197 6.32161C2.74391 6.46756 2.85529 6.58022 2.99611 6.65959C3.1395 6.73641 3.30849 6.77481 3.50309 6.77481C3.70793 6.77481 3.88076 6.73129 4.02158 6.64423C4.16497 6.55461 4.27379 6.42403 4.34804 6.25248C4.4223 6.08093 4.45943 5.86969 4.45943 5.61876V0.134225ZM11.2306 5.48818V2.10067H12.8667V8H11.2959V6.92844H11.2344C11.1013 7.27411 10.8798 7.55192 10.57 7.76188C10.2627 7.97183 9.88763 8.07681 9.44467 8.07681C9.05035 8.07681 8.70341 7.9872 8.40383 7.80796C8.10426 7.62873 7.86998 7.37396 7.70098 7.04366C7.53455 6.71336 7.45006 6.31777 7.4475 5.85688V2.10067H9.08364V5.56499C9.0862 5.91321 9.17966 6.18846 9.36401 6.39074C9.54837 6.59302 9.79545 6.69416 10.1053 6.69416C10.3024 6.69416 10.4868 6.64935 10.6583 6.55973C10.8299 6.46756 10.9681 6.33185 11.0731 6.15262C11.1807 5.97339 11.2332 5.7519 11.2306 5.48818ZM17.3133 2.10067V3.3297H13.7607V2.10067H17.3133ZM14.5672 0.687287H16.2034V6.18718C16.2034 6.33825 16.2264 6.45603 16.2725 6.54053C16.3186 6.62247 16.3826 6.68008 16.4645 6.71336C16.549 6.74665 16.6463 6.76329 16.7564 6.76329C16.8332 6.76329 16.91 6.75689 16.9869 6.74409C17.0637 6.72872 17.1226 6.7172 17.1635 6.70952L17.4209 7.92703C17.3389 7.95263 17.2237 7.98208 17.0752 8.01536C16.9267 8.05121 16.7462 8.07297 16.5337 8.08065C16.1393 8.09602 15.7937 8.04353 15.4967 7.92319C15.2022 7.80284 14.973 7.61593 14.8092 7.36244C14.6453 7.10896 14.5647 6.7889 14.5672 6.40226V0.687287ZM20.0614 8.11138C19.685 8.11138 19.3495 8.04609 19.0551 7.9155C18.7606 7.78236 18.5276 7.58648 18.3561 7.32788C18.1871 7.06671 18.1026 6.74153 18.1026 6.35234C18.1026 6.02459 18.1628 5.74934 18.2831 5.52658C18.4034 5.30382 18.5673 5.12459 18.7747 4.98888C18.9821 4.85318 19.2177 4.75076 19.4814 4.68163C19.7477 4.61249 20.0268 4.56384 20.3187 4.53568C20.6618 4.49983 20.9383 4.46655 21.1483 4.43582C21.3582 4.40253 21.5106 4.35389 21.6053 4.28987C21.7001 4.22586 21.7474 4.13112 21.7474 4.00566V3.98262C21.7474 3.73937 21.6706 3.55118 21.517 3.41803C21.3659 3.28489 21.1508 3.21832 20.8717 3.21832C20.5773 3.21832 20.343 3.28361 20.1689 3.41419C19.9948 3.54222 19.8796 3.70353 19.8232 3.89812L18.31 3.77522C18.3868 3.41675 18.5379 3.10693 18.7632 2.84577C18.9885 2.58204 19.2791 2.37976 19.635 2.23893C19.9935 2.09555 20.4083 2.02385 20.8794 2.02385C21.2072 2.02385 21.5208 2.06226 21.8204 2.13908C22.1225 2.21589 22.3901 2.33495 22.6231 2.49626C22.8587 2.65757 23.0443 2.86497 23.18 3.11846C23.3157 3.36938 23.3836 3.67024 23.3836 4.02102V8H21.8319V7.18193H21.7858C21.6911 7.36628 21.5643 7.52887 21.4056 7.6697C21.2469 7.80796 21.0561 7.91678 20.8333 7.99616C20.6106 8.07297 20.3532 8.11138 20.0614 8.11138ZM20.5299 6.98221C20.7706 6.98221 20.9831 6.93484 21.1675 6.84011C21.3518 6.74281 21.4965 6.61222 21.6015 6.44835C21.7065 6.28448 21.7589 6.09885 21.7589 5.89145V5.26541C21.7077 5.2987 21.6373 5.32943 21.5477 5.35759C21.4607 5.3832 21.3621 5.40752 21.252 5.43056C21.1419 5.45105 21.0318 5.47025 20.9217 5.48818C20.8116 5.50354 20.7117 5.51762 20.6221 5.53042C20.4301 5.55859 20.2623 5.6034 20.119 5.66485C19.9756 5.7263 19.8642 5.80951 19.7848 5.91449C19.7054 6.01691 19.6658 6.14494 19.6658 6.29857C19.6658 6.52133 19.7464 6.6916 19.9077 6.80938C20.0716 6.9246 20.279 6.98221 20.5299 6.98221Z" fill="black" fill-opacity="0.6"/>
<path d="M24.6927 29.2275H919.708" stroke="black" stroke-opacity="0.2" stroke-width="0.901287" stroke-dasharray="1.8 1.8"/>
<circle opacity="0.2" cx="131.788" cy="55.0005" r="5.40772" fill="#00A39D"/>
<circle cx="131.788" cy="54.9998" r="2.70386" fill="#00A39D"/>
<path d="M132.5 56L242 173L348 200L458.5 219.5L566 267L674.5 315" stroke="#00A39D"/>
<path d="M12.9809 78.3849C12.4535 78.3849 11.9874 78.2914 11.5829 78.1045C11.1809 77.915 10.8672 77.6551 10.6419 77.3248C10.4166 76.992 10.3052 76.613 10.3078 76.188C10.3052 75.8551 10.3705 75.5479 10.5037 75.2662C10.6368 74.982 10.8186 74.7452 11.049 74.5557C11.282 74.3637 11.5419 74.242 11.8287 74.1908V74.1447C11.4523 74.0474 11.1527 73.8362 10.93 73.511C10.7072 73.1833 10.5971 72.8107 10.5997 72.3934C10.5971 71.9939 10.6982 71.6368 10.9031 71.3218C11.1079 71.0069 11.3896 70.7585 11.748 70.5767C12.1091 70.3949 12.52 70.304 12.9809 70.304C13.4367 70.304 13.8438 70.3949 14.2023 70.5767C14.5607 70.7585 14.8424 71.0069 15.0472 71.3218C15.2546 71.6368 15.3596 71.9939 15.3622 72.3934C15.3596 72.8107 15.2457 73.1833 15.0203 73.511C14.7976 73.8362 14.5018 74.0474 14.1331 74.1447V74.1908C14.4173 74.242 14.6734 74.3637 14.9013 74.5557C15.1291 74.7452 15.3109 74.982 15.4466 75.2662C15.5824 75.5479 15.6515 75.8551 15.654 76.188C15.6515 76.613 15.5363 76.992 15.3084 77.3248C15.0831 77.6551 14.7694 77.915 14.3674 78.1045C13.968 78.2914 13.5058 78.3849 12.9809 78.3849ZM12.9809 77.5399C13.3368 77.5399 13.6441 77.4823 13.9027 77.3671C14.1613 77.2519 14.361 77.0893 14.5018 76.8793C14.6427 76.6694 14.7144 76.4236 14.7169 76.1419C14.7144 75.8449 14.6375 75.5824 14.4865 75.3546C14.3354 75.1267 14.1293 74.9474 13.8681 74.8169C13.6095 74.6863 13.3138 74.621 12.9809 74.621C12.6455 74.621 12.3459 74.6863 12.0822 74.8169C11.821 74.9474 11.6149 75.1267 11.4638 75.3546C11.3153 75.5824 11.2423 75.8449 11.2449 76.1419C11.2423 76.4236 11.3102 76.6694 11.4485 76.8793C11.5893 77.0893 11.7903 77.2519 12.0515 77.3671C12.3126 77.4823 12.6224 77.5399 12.9809 77.5399ZM12.9809 73.8068C13.2626 73.8068 13.5122 73.7504 13.7299 73.6378C13.9501 73.5251 14.1229 73.3676 14.2483 73.1654C14.3738 72.9631 14.4378 72.7262 14.4404 72.4548C14.4378 72.1885 14.3751 71.9568 14.2522 71.7597C14.1293 71.5599 13.959 71.4063 13.7414 71.2988C13.5237 71.1887 13.2702 71.1336 12.9809 71.1336C12.6865 71.1336 12.4291 71.1887 12.2089 71.2988C11.9887 71.4063 11.8185 71.5599 11.6981 71.7597C11.5778 71.9568 11.5189 72.1885 11.5214 72.4548C11.5189 72.7262 11.5791 72.9631 11.702 73.1654C11.8274 73.3676 12.0003 73.5251 12.2205 73.6378C12.4407 73.7504 12.6941 73.8068 12.9809 73.8068Z" fill="black" fill-opacity="0.6"/>
<path d="M24.6927 76.3545H919.708" stroke="black" stroke-opacity="0.2" stroke-width="0.901287" stroke-dasharray="1.8 1.8"/>
<path d="M12.9886 126.957C12.666 126.952 12.3434 126.891 12.0207 126.773C11.6981 126.655 11.4037 126.457 11.1374 126.177C10.8711 125.896 10.6573 125.516 10.496 125.037C10.3347 124.555 10.254 123.951 10.254 123.224C10.254 122.528 10.3193 121.91 10.4499 121.373C10.5805 120.832 10.7699 120.378 11.0183 120.009C11.2667 119.638 11.5662 119.356 11.917 119.164C12.2704 118.972 12.6685 118.876 13.1115 118.876C13.5519 118.876 13.9436 118.965 14.2868 119.141C14.6324 119.315 14.9141 119.559 15.1317 119.871C15.3493 120.183 15.4902 120.543 15.5542 120.95H14.6171C14.53 120.597 14.361 120.304 14.1101 120.071C13.8592 119.838 13.5263 119.721 13.1115 119.721C12.5021 119.721 12.022 119.986 11.6712 120.516C11.323 121.046 11.1476 121.79 11.1451 122.748H11.2065C11.3499 122.53 11.5202 122.344 11.7173 122.191C11.917 122.035 12.1372 121.914 12.3779 121.83C12.6186 121.745 12.8734 121.703 13.1422 121.703C13.5929 121.703 14.0051 121.816 14.3789 122.041C14.7528 122.264 15.0523 122.572 15.2777 122.967C15.503 123.358 15.6156 123.808 15.6156 124.315C15.6156 124.801 15.5068 125.247 15.2892 125.651C15.0715 126.053 14.7656 126.373 14.3712 126.611C13.9795 126.847 13.5186 126.962 12.9886 126.957ZM12.9886 126.112C13.3112 126.112 13.6005 126.032 13.8566 125.87C14.1152 125.709 14.3188 125.493 14.4673 125.221C14.6183 124.95 14.6939 124.648 14.6939 124.315C14.6939 123.99 14.6209 123.694 14.4749 123.428C14.3316 123.159 14.1331 122.945 13.8796 122.786C13.6287 122.627 13.3419 122.548 13.0193 122.548C12.7761 122.548 12.5495 122.597 12.3395 122.694C12.1296 122.789 11.9452 122.919 11.7865 123.086C11.6303 123.252 11.5074 123.443 11.4177 123.658C11.3281 123.87 11.2833 124.095 11.2833 124.33C11.2833 124.642 11.3563 124.934 11.5022 125.206C11.6507 125.477 11.853 125.696 12.1091 125.863C12.3677 126.029 12.6609 126.112 12.9886 126.112Z" fill="black" fill-opacity="0.6"/>
<path d="M24.6927 125.785H919.708" stroke="black" stroke-opacity="0.2" stroke-width="0.901287" stroke-dasharray="1.8 1.8"/>
<circle opacity="0.2" cx="239.777" cy="172" r="5.40772" fill="#00A39D"/>
<circle cx="239.777" cy="172" r="2.70386" fill="#00A39D"/>
<path d="M10.0024 172.658V171.875L13.459 166.406H14.0274V167.619H13.6434L11.0317 171.752V171.813H15.6866V172.658H10.0024ZM13.7048 174.271V172.42V172.055V166.406H14.6112V174.271H13.7048Z" fill="black" fill-opacity="0.6"/>
<path d="M24.6927 172.911H919.708" stroke="black" stroke-opacity="0.2" stroke-width="0.901287" stroke-dasharray="1.8 1.8"/>
<path d="M10.5776 221.693V221.002L13.1739 218.16C13.4786 217.827 13.7295 217.538 13.9267 217.292C14.1238 217.044 14.2698 216.811 14.3645 216.593C14.4618 216.373 14.5105 216.142 14.5105 215.902C14.5105 215.625 14.4439 215.386 14.3108 215.183C14.1802 214.981 14.0009 214.825 13.7731 214.715C13.5452 214.605 13.2891 214.55 13.0049 214.55C12.7028 214.55 12.4391 214.612 12.2137 214.738C11.991 214.861 11.8181 215.034 11.6952 215.256C11.5749 215.479 11.5147 215.74 11.5147 216.04H10.6083C10.6083 215.579 10.7146 215.174 10.9271 214.826C11.1396 214.478 11.4289 214.207 11.7951 214.012C12.1638 213.817 12.5773 213.72 13.0356 213.72C13.4965 213.72 13.9049 213.817 14.2608 214.012C14.6167 214.207 14.8958 214.469 15.0981 214.799C15.3004 215.13 15.4015 215.497 15.4015 215.902C15.4015 216.191 15.349 216.474 15.2441 216.75C15.1416 217.024 14.9624 217.33 14.7064 217.668C14.4529 218.004 14.1008 218.413 13.6502 218.897L11.8834 220.787V220.848H15.5398V221.693H10.5776Z" fill="black" fill-opacity="0.6"/>
<path d="M24.6927 220.038H919.708" stroke="black" stroke-opacity="0.2" stroke-width="0.901287" stroke-dasharray="1.8 1.8"/>
<path d="M14.8638 262.4V270.266H13.9113V263.398H13.8652L11.9449 264.674V263.706L13.9113 262.4H14.8638Z" fill="black" fill-opacity="0.6"/>
<path d="M24.6927 268.318H919.708" stroke="black" stroke-opacity="0.2" stroke-width="0.901287" stroke-dasharray="1.8 1.8"/>
<circle opacity="0.2" cx="673.771" cy="313" r="5.40772" fill="#00A39D"/>
<circle cx="673.771" cy="313" r="2.70386" fill="#00A39D"/>
<path d="M13.8858 310.828C15.5538 310.828 16.6218 312.352 16.6218 315.412C16.6218 318.46 15.5538 319.948 13.8858 319.948C12.2058 319.948 11.1378 318.472 11.1378 315.412C11.1378 312.352 12.2058 310.828 13.8858 310.828ZM13.8858 311.704C12.8778 311.704 12.2058 312.82 12.2058 315.412C12.2058 317.98 12.8778 319.06 13.8858 319.06C14.8818 319.06 15.5538 317.98 15.5538 315.412C15.5538 312.82 14.8818 311.704 13.8858 311.704Z" fill="black" fill-opacity="0.6"/>
<rect width="895.568" height="1.15112" transform="matrix(1 0 0 -1 24.4164 316.873)" fill="black" fill-opacity="0.4"/>
<rect x="24" y="316" width="0.901287" height="0.901287" fill="black" fill-opacity="0.4"/>
<rect x="24" y="316.901" width="0.901287" height="2.70386" fill="black" fill-opacity="0.4"/>
<path d="M101.976 330.693H103.088L104.02 331.92L104.265 332.247L105.655 334.094H104.543L103.628 332.868L103.399 332.557L101.976 330.693ZM105.999 329.124C105.999 330.007 105.839 330.77 105.52 331.413C105.202 332.056 104.764 332.552 104.208 332.901C103.652 333.25 103.017 333.424 102.303 333.424C101.589 333.424 100.954 333.25 100.398 332.901C99.8425 332.552 99.4051 332.056 99.0862 331.413C98.7674 330.77 98.608 330.007 98.608 329.124C98.608 328.241 98.7674 327.478 99.0862 326.835C99.4051 326.191 99.8425 325.695 100.398 325.347C100.954 324.998 101.589 324.823 102.303 324.823C103.017 324.823 103.652 324.998 104.208 325.347C104.764 325.695 105.202 326.191 105.52 326.835C105.839 327.478 105.999 328.241 105.999 329.124ZM105.018 329.124C105.018 328.399 104.896 327.787 104.654 327.288C104.414 326.79 104.088 326.412 103.677 326.156C103.268 325.9 102.81 325.772 102.303 325.772C101.796 325.772 101.337 325.9 100.926 326.156C100.517 326.412 100.191 326.79 99.9487 327.288C99.7089 327.787 99.589 328.399 99.589 329.124C99.589 329.849 99.7089 330.46 99.9487 330.959C100.191 331.458 100.517 331.835 100.926 332.091C101.337 332.348 101.796 332.476 102.303 332.476C102.81 332.476 103.268 332.348 103.677 332.091C104.088 331.835 104.414 331.458 104.654 330.959C104.896 330.46 105.018 329.849 105.018 329.124ZM110.385 333.424C109.845 333.424 109.364 333.331 108.942 333.146C108.522 332.961 108.188 332.703 107.94 332.373C107.695 332.041 107.562 331.655 107.54 331.217H108.57C108.592 331.486 108.684 331.719 108.848 331.916C109.011 332.109 109.225 332.259 109.49 332.365C109.754 332.472 110.047 332.525 110.368 332.525C110.728 332.525 111.047 332.462 111.325 332.337C111.603 332.211 111.821 332.037 111.979 331.813C112.137 331.59 112.216 331.331 112.216 331.037C112.216 330.729 112.14 330.458 111.987 330.223C111.835 329.986 111.611 329.801 111.317 329.667C111.023 329.534 110.663 329.467 110.238 329.467H109.567V328.568H110.238C110.57 328.568 110.862 328.508 111.112 328.388C111.366 328.268 111.563 328.099 111.705 327.881C111.85 327.663 111.922 327.407 111.922 327.113C111.922 326.829 111.859 326.582 111.734 326.373C111.608 326.163 111.431 325.999 111.202 325.882C110.976 325.765 110.709 325.706 110.401 325.706C110.112 325.706 109.84 325.759 109.584 325.866C109.33 325.969 109.123 326.121 108.962 326.319C108.801 326.516 108.714 326.753 108.701 327.031H107.72C107.736 326.592 107.868 326.208 108.116 325.878C108.364 325.546 108.688 325.287 109.089 325.101C109.492 324.916 109.935 324.823 110.418 324.823C110.935 324.823 111.38 324.928 111.75 325.138C112.121 325.345 112.406 325.619 112.604 325.96C112.803 326.3 112.903 326.668 112.903 327.063C112.903 327.535 112.779 327.937 112.531 328.269C112.286 328.602 111.952 328.832 111.529 328.96V329.026C112.058 329.113 112.471 329.338 112.768 329.7C113.065 330.06 113.214 330.505 113.214 331.037C113.214 331.492 113.09 331.901 112.842 332.263C112.596 332.623 112.261 332.906 111.836 333.113C111.411 333.32 110.927 333.424 110.385 333.424ZM118.123 333.31V332.574L120.886 329.549C121.211 329.195 121.478 328.887 121.687 328.625C121.897 328.361 122.053 328.113 122.154 327.881C122.257 327.647 122.309 327.401 122.309 327.145C122.309 326.851 122.238 326.596 122.096 326.381C121.957 326.166 121.767 325.999 121.524 325.882C121.281 325.765 121.009 325.706 120.706 325.706C120.385 325.706 120.104 325.773 119.864 325.907C119.627 326.037 119.443 326.221 119.313 326.458C119.184 326.696 119.12 326.974 119.12 327.292H118.156C118.156 326.802 118.269 326.371 118.495 326.001C118.721 325.63 119.029 325.341 119.419 325.134C119.811 324.927 120.251 324.823 120.739 324.823C121.23 324.823 121.664 324.927 122.043 325.134C122.422 325.341 122.719 325.62 122.934 325.972C123.15 326.324 123.257 326.715 123.257 327.145C123.257 327.453 123.201 327.754 123.09 328.049C122.981 328.34 122.79 328.666 122.517 329.026C122.248 329.383 121.873 329.819 121.393 330.334L119.513 332.345V332.41H123.404V333.31H118.123ZM127.823 333.424C127.207 333.424 126.683 333.256 126.249 332.921C125.816 332.583 125.485 332.094 125.256 331.454C125.027 330.811 124.913 330.034 124.913 329.124C124.913 328.219 125.027 327.446 125.256 326.806C125.488 326.163 125.82 325.672 126.254 325.334C126.69 324.994 127.213 324.823 127.823 324.823C128.434 324.823 128.956 324.994 129.389 325.334C129.825 325.672 130.157 326.163 130.386 326.806C130.618 327.446 130.734 328.219 130.734 329.124C130.734 330.034 130.619 330.811 130.39 331.454C130.161 332.094 129.83 332.583 129.397 332.921C128.964 333.256 128.439 333.424 127.823 333.424ZM127.823 332.525C128.434 332.525 128.908 332.23 129.246 331.642C129.584 331.053 129.753 330.214 129.753 329.124C129.753 328.399 129.675 327.782 129.52 327.272C129.367 326.762 129.146 326.374 128.857 326.107C128.571 325.84 128.227 325.706 127.823 325.706C127.218 325.706 126.745 326.005 126.405 326.602C126.064 327.196 125.894 328.036 125.894 329.124C125.894 329.849 125.97 330.464 126.123 330.971C126.275 331.478 126.495 331.864 126.781 332.128C127.07 332.393 127.417 332.525 127.823 332.525ZM132.287 333.31V332.574L135.05 329.549C135.375 329.195 135.642 328.887 135.852 328.625C136.061 328.361 136.217 328.113 136.318 327.881C136.421 327.647 136.473 327.401 136.473 327.145C136.473 326.851 136.402 326.596 136.26 326.381C136.121 326.166 135.931 325.999 135.688 325.882C135.446 325.765 135.173 325.706 134.871 325.706C134.549 325.706 134.268 325.773 134.028 325.907C133.791 326.037 133.607 326.221 133.477 326.458C133.349 326.696 133.284 326.974 133.284 327.292H132.32C132.32 326.802 132.433 326.371 132.659 326.001C132.885 325.63 133.193 325.341 133.583 325.134C133.975 324.927 134.415 324.823 134.903 324.823C135.394 324.823 135.828 324.927 136.207 325.134C136.586 325.341 136.883 325.62 137.098 325.972C137.314 326.324 137.421 326.715 137.421 327.145C137.421 327.453 137.365 327.754 137.254 328.049C137.145 328.34 136.954 328.666 136.681 329.026C136.412 329.383 136.037 329.819 135.557 330.334L133.677 332.345V332.41H137.568V333.31H132.287ZM139.257 333.31V332.574L142.02 329.549C142.344 329.195 142.611 328.887 142.821 328.625C143.031 328.361 143.186 328.113 143.287 327.881C143.391 327.647 143.443 327.401 143.443 327.145C143.443 326.851 143.372 326.596 143.23 326.381C143.091 326.166 142.9 325.999 142.658 325.882C142.415 325.765 142.143 325.706 141.84 325.706C141.519 325.706 141.238 325.773 140.998 325.907C140.761 326.037 140.577 326.221 140.446 326.458C140.318 326.696 140.254 326.974 140.254 327.292H139.289C139.289 326.802 139.403 326.371 139.629 326.001C139.855 325.63 140.163 325.341 140.553 325.134C140.945 324.927 141.385 324.823 141.873 324.823C142.363 324.823 142.798 324.927 143.177 325.134C143.556 325.341 143.853 325.62 144.068 325.972C144.283 326.324 144.391 326.715 144.391 327.145C144.391 327.453 144.335 327.754 144.223 328.049C144.114 328.34 143.924 328.666 143.651 329.026C143.381 329.383 143.007 329.819 142.527 330.334L140.647 332.345V332.41H144.538V333.31H139.257Z" fill="black" fill-opacity="0.6"/>
<rect x="122.154" y="316" width="0.901287" height="0.901287" fill="black" fill-opacity="0.2"/>
<rect x="122.154" y="316.901" width="0.901287" height="2.70386" fill="black" fill-opacity="0.2"/>
<path d="M201.252 330.693H202.364L203.296 331.92L203.542 332.247L204.931 334.094H203.82L202.904 332.868L202.675 332.557L201.252 330.693ZM205.275 329.124C205.275 330.007 205.115 330.77 204.797 331.413C204.478 332.056 204.04 332.552 203.484 332.901C202.928 333.25 202.293 333.424 201.58 333.424C200.866 333.424 200.231 333.25 199.675 332.901C199.119 332.552 198.681 332.056 198.362 331.413C198.044 330.77 197.884 330.007 197.884 329.124C197.884 328.241 198.044 327.478 198.362 326.835C198.681 326.191 199.119 325.695 199.675 325.347C200.231 324.998 200.866 324.823 201.58 324.823C202.293 324.823 202.928 324.998 203.484 325.347C204.04 325.695 204.478 326.191 204.797 326.835C205.115 327.478 205.275 328.241 205.275 329.124ZM204.294 329.124C204.294 328.399 204.173 327.787 203.93 327.288C203.69 326.79 203.364 326.412 202.953 326.156C202.544 325.9 202.086 325.772 201.58 325.772C201.073 325.772 200.613 325.9 200.202 326.156C199.793 326.412 199.467 326.79 199.225 327.288C198.985 327.787 198.865 328.399 198.865 329.124C198.865 329.849 198.985 330.46 199.225 330.959C199.467 331.458 199.793 331.835 200.202 332.091C200.613 332.348 201.073 332.476 201.58 332.476C202.086 332.476 202.544 332.348 202.953 332.091C203.364 331.835 203.69 331.458 203.93 330.959C204.173 330.46 204.294 329.849 204.294 329.124ZM206.636 331.593V330.759L210.315 324.938H210.92V326.23H210.511L207.732 330.628V330.693H212.686V331.593H206.636ZM210.577 333.31V331.339V330.951V324.938H211.541V333.31H210.577ZM217.455 333.31V332.574L220.219 329.549C220.543 329.195 220.81 328.887 221.02 328.625C221.23 328.361 221.385 328.113 221.486 327.881C221.589 327.647 221.641 327.401 221.641 327.145C221.641 326.851 221.57 326.596 221.429 326.381C221.29 326.166 221.099 325.999 220.856 325.882C220.614 325.765 220.341 325.706 220.039 325.706C219.717 325.706 219.437 325.773 219.197 325.907C218.96 326.037 218.776 326.221 218.645 326.458C218.517 326.696 218.453 326.974 218.453 327.292H217.488C217.488 326.802 217.601 326.371 217.827 326.001C218.054 325.63 218.361 325.341 218.751 325.134C219.144 324.927 219.584 324.823 220.072 324.823C220.562 324.823 220.997 324.927 221.376 325.134C221.754 325.341 222.051 325.62 222.267 325.972C222.482 326.324 222.59 326.715 222.59 327.145C222.59 327.453 222.534 327.754 222.422 328.049C222.313 328.34 222.122 328.666 221.85 329.026C221.58 329.383 221.205 329.819 220.726 330.334L218.845 332.345V332.41H222.737V333.31H217.455ZM227.156 333.424C226.54 333.424 226.015 333.256 225.582 332.921C225.149 332.583 224.817 332.094 224.589 331.454C224.36 330.811 224.245 330.034 224.245 329.124C224.245 328.219 224.36 327.446 224.589 326.806C224.82 326.163 225.153 325.672 225.586 325.334C226.022 324.994 226.545 324.823 227.156 324.823C227.766 324.823 228.288 324.994 228.721 325.334C229.157 325.672 229.49 326.163 229.719 326.806C229.95 327.446 230.066 328.219 230.066 329.124C230.066 330.034 229.952 330.811 229.723 331.454C229.494 332.094 229.163 332.583 228.729 332.921C228.296 333.256 227.772 333.424 227.156 333.424ZM227.156 332.525C227.766 332.525 228.24 332.23 228.578 331.642C228.916 331.053 229.085 330.214 229.085 329.124C229.085 328.399 229.007 327.782 228.852 327.272C228.699 326.762 228.479 326.374 228.19 326.107C227.904 325.84 227.559 325.706 227.156 325.706C226.551 325.706 226.078 326.005 225.737 326.602C225.397 327.196 225.226 328.036 225.226 329.124C225.226 329.849 225.303 330.464 225.455 330.971C225.608 331.478 225.827 331.864 226.113 332.128C226.402 332.393 226.75 332.525 227.156 332.525ZM231.619 333.31V332.574L234.383 329.549C234.707 329.195 234.974 328.887 235.184 328.625C235.394 328.361 235.549 328.113 235.65 327.881C235.754 327.647 235.805 327.401 235.805 327.145C235.805 326.851 235.735 326.596 235.593 326.381C235.454 326.166 235.263 325.999 235.021 325.882C234.778 325.765 234.505 325.706 234.203 325.706C233.881 325.706 233.601 325.773 233.361 325.907C233.124 326.037 232.94 326.221 232.809 326.458C232.681 326.696 232.617 326.974 232.617 327.292H231.652C231.652 326.802 231.765 326.371 231.991 326.001C232.218 325.63 232.526 325.341 232.915 325.134C233.308 324.927 233.748 324.823 234.236 324.823C234.726 324.823 235.161 324.927 235.54 325.134C235.918 325.341 236.216 325.62 236.431 325.972C236.646 326.324 236.754 326.715 236.754 327.145C236.754 327.453 236.698 327.754 236.586 328.049C236.477 328.34 236.286 328.666 236.014 329.026C235.744 329.383 235.369 329.819 234.89 330.334L233.009 332.345V332.41H236.901V333.31H231.619ZM238.589 333.31V332.574L241.352 329.549C241.677 329.195 241.944 328.887 242.154 328.625C242.364 328.361 242.519 328.113 242.62 327.881C242.723 327.647 242.775 327.401 242.775 327.145C242.775 326.851 242.704 326.596 242.562 326.381C242.423 326.166 242.233 325.999 241.99 325.882C241.748 325.765 241.475 325.706 241.173 325.706C240.851 325.706 240.57 325.773 240.331 325.907C240.093 326.037 239.909 326.221 239.779 326.458C239.651 326.696 239.587 326.974 239.587 327.292H238.622C238.622 326.802 238.735 326.371 238.961 326.001C239.187 325.63 239.495 325.341 239.885 325.134C240.277 324.927 240.717 324.823 241.205 324.823C241.696 324.823 242.131 324.927 242.509 325.134C242.888 325.341 243.185 325.62 243.4 325.972C243.616 326.324 243.723 326.715 243.723 327.145C243.723 327.453 243.668 327.754 243.556 328.049C243.447 328.34 243.256 328.666 242.983 329.026C242.714 329.383 242.339 329.819 241.859 330.334L239.979 332.345V332.41H243.871V333.31H238.589Z" fill="black" fill-opacity="0.6"/>
<rect x="221.61" y="316" width="0.901287" height="0.901287" fill="black" fill-opacity="0.2"/>
<rect x="221.61" y="316.901" width="0.901287" height="2.70386" fill="black" fill-opacity="0.2"/>
<path d="M301.545 330.693H302.657L303.589 331.92L303.835 332.247L305.224 334.094H304.112L303.197 332.868L302.968 332.557L301.545 330.693ZM305.568 329.124C305.568 330.007 305.408 330.77 305.089 331.413C304.771 332.056 304.333 332.552 303.777 332.901C303.221 333.25 302.586 333.424 301.872 333.424C301.158 333.424 300.523 333.25 299.967 332.901C299.412 332.552 298.974 332.056 298.655 331.413C298.336 330.77 298.177 330.007 298.177 329.124C298.177 328.241 298.336 327.478 298.655 326.835C298.974 326.191 299.412 325.695 299.967 325.347C300.523 324.998 301.158 324.823 301.872 324.823C302.586 324.823 303.221 324.998 303.777 325.347C304.333 325.695 304.771 326.191 305.089 326.835C305.408 327.478 305.568 328.241 305.568 329.124ZM304.587 329.124C304.587 328.399 304.465 327.787 304.223 327.288C303.983 326.79 303.657 326.412 303.246 326.156C302.837 325.9 302.379 325.772 301.872 325.772C301.365 325.772 300.906 325.9 300.495 326.156C300.086 326.412 299.76 326.79 299.518 327.288C299.278 327.787 299.158 328.399 299.158 329.124C299.158 329.849 299.278 330.46 299.518 330.959C299.76 331.458 300.086 331.835 300.495 332.091C300.906 332.348 301.365 332.476 301.872 332.476C302.379 332.476 302.837 332.348 303.246 332.091C303.657 331.835 303.983 331.458 304.223 330.959C304.465 330.46 304.587 329.849 304.587 329.124ZM310.068 324.938V333.31H309.055V326.001H309.006L306.962 327.358V326.328L309.055 324.938H310.068ZM315.714 333.31V332.574L318.477 329.549C318.801 329.195 319.068 328.887 319.278 328.625C319.488 328.361 319.643 328.113 319.744 327.881C319.848 327.647 319.899 327.401 319.899 327.145C319.899 326.851 319.829 326.596 319.687 326.381C319.548 326.166 319.357 325.999 319.115 325.882C318.872 325.765 318.6 325.706 318.297 325.706C317.975 325.706 317.695 325.773 317.455 325.907C317.218 326.037 317.034 326.221 316.903 326.458C316.775 326.696 316.711 326.974 316.711 327.292H315.746C315.746 326.802 315.859 326.371 316.086 326.001C316.312 325.63 316.62 325.341 317.009 325.134C317.402 324.927 317.842 324.823 318.33 324.823C318.82 324.823 319.255 324.927 319.634 325.134C320.013 325.341 320.31 325.62 320.525 325.972C320.74 326.324 320.848 326.715 320.848 327.145C320.848 327.453 320.792 327.754 320.68 328.049C320.571 328.34 320.38 328.666 320.108 329.026C319.838 329.383 319.463 329.819 318.984 330.334L317.103 332.345V332.41H320.995V333.31H315.714ZM325.414 333.424C324.798 333.424 324.273 333.256 323.84 332.921C323.407 332.583 323.076 332.094 322.847 331.454C322.618 330.811 322.503 330.034 322.503 329.124C322.503 328.219 322.618 327.446 322.847 326.806C323.078 326.163 323.411 325.672 323.844 325.334C324.28 324.994 324.803 324.823 325.414 324.823C326.024 324.823 326.546 324.994 326.979 325.334C327.415 325.672 327.748 326.163 327.977 326.806C328.209 327.446 328.324 328.219 328.324 329.124C328.324 330.034 328.21 330.811 327.981 331.454C327.752 332.094 327.421 332.583 326.988 332.921C326.554 333.256 326.03 333.424 325.414 333.424ZM325.414 332.525C326.024 332.525 326.498 332.23 326.836 331.642C327.174 331.053 327.343 330.214 327.343 329.124C327.343 328.399 327.266 327.782 327.11 327.272C326.958 326.762 326.737 326.374 326.448 326.107C326.162 325.84 325.817 325.706 325.414 325.706C324.809 325.706 324.336 326.005 323.995 326.602C323.655 327.196 323.484 328.036 323.484 329.124C323.484 329.849 323.561 330.464 323.713 330.971C323.866 331.478 324.085 331.864 324.371 332.128C324.66 332.393 325.008 332.525 325.414 332.525ZM329.878 333.31V332.574L332.641 329.549C332.965 329.195 333.232 328.887 333.442 328.625C333.652 328.361 333.807 328.113 333.908 327.881C334.012 327.647 334.064 327.401 334.064 327.145C334.064 326.851 333.993 326.596 333.851 326.381C333.712 326.166 333.521 325.999 333.279 325.882C333.036 325.765 332.764 325.706 332.461 325.706C332.14 325.706 331.859 325.773 331.619 325.907C331.382 326.037 331.198 326.221 331.067 326.458C330.939 326.696 330.875 326.974 330.875 327.292H329.91C329.91 326.802 330.023 326.371 330.25 326.001C330.476 325.63 330.784 325.341 331.173 325.134C331.566 324.927 332.006 324.823 332.494 324.823C332.984 324.823 333.419 324.927 333.798 325.134C334.177 325.341 334.474 325.62 334.689 325.972C334.904 326.324 335.012 326.715 335.012 327.145C335.012 327.453 334.956 327.754 334.844 328.049C334.735 328.34 334.545 328.666 334.272 329.026C334.002 329.383 333.628 329.819 333.148 330.334L331.268 332.345V332.41H335.159V333.31H329.878ZM339.676 333.424C339.136 333.424 338.655 333.331 338.233 333.146C337.813 332.961 337.48 332.703 337.232 332.373C336.986 332.041 336.853 331.655 336.831 331.217H337.861C337.883 331.486 337.976 331.719 338.139 331.916C338.303 332.109 338.516 332.259 338.781 332.365C339.045 332.472 339.338 332.525 339.66 332.525C340.019 332.525 340.338 332.462 340.616 332.337C340.894 332.211 341.112 332.037 341.27 331.813C341.428 331.59 341.507 331.331 341.507 331.037C341.507 330.729 341.431 330.458 341.278 330.223C341.126 329.986 340.902 329.801 340.608 329.667C340.314 329.534 339.954 329.467 339.529 329.467H338.859V328.568H339.529C339.861 328.568 340.153 328.508 340.404 328.388C340.657 328.268 340.855 328.099 340.996 327.881C341.141 327.663 341.213 327.407 341.213 327.113C341.213 326.829 341.15 326.582 341.025 326.373C340.9 326.163 340.723 325.999 340.494 325.882C340.267 325.765 340 325.706 339.692 325.706C339.404 325.706 339.131 325.759 338.875 325.866C338.621 325.969 338.414 326.121 338.254 326.319C338.093 326.516 338.006 326.753 337.992 327.031H337.011C337.027 326.592 337.159 326.208 337.407 325.878C337.655 325.546 337.98 325.287 338.38 325.101C338.784 324.916 339.226 324.823 339.709 324.823C340.227 324.823 340.671 324.928 341.041 325.138C341.412 325.345 341.697 325.619 341.896 325.96C342.095 326.3 342.194 326.668 342.194 327.063C342.194 327.535 342.07 327.937 341.822 328.269C341.577 328.602 341.243 328.832 340.821 328.96V329.026C341.349 329.113 341.762 329.338 342.059 329.7C342.356 330.06 342.505 330.505 342.505 331.037C342.505 331.492 342.381 331.901 342.133 332.263C341.888 332.623 341.552 332.906 341.127 333.113C340.702 333.32 340.218 333.424 339.676 333.424Z" fill="black" fill-opacity="0.6"/>
<rect x="321.065" y="316" width="0.901287" height="0.901287" fill="black" fill-opacity="0.2"/>
<rect x="321.065" y="316.901" width="0.901287" height="2.70386" fill="black" fill-opacity="0.2"/>
<path d="M400.191 330.693H401.303L402.235 331.92L402.481 332.247L403.87 334.094H402.759L401.843 332.868L401.614 332.557L400.191 330.693ZM404.214 329.124C404.214 330.007 404.054 330.77 403.736 331.413C403.417 332.056 402.979 332.552 402.423 332.901C401.867 333.25 401.232 333.424 400.518 333.424C399.804 333.424 399.169 333.25 398.614 332.901C398.058 332.552 397.62 332.056 397.301 331.413C396.983 330.77 396.823 330.007 396.823 329.124C396.823 328.241 396.983 327.478 397.301 326.835C397.62 326.191 398.058 325.695 398.614 325.347C399.169 324.998 399.804 324.823 400.518 324.823C401.232 324.823 401.867 324.998 402.423 325.347C402.979 325.695 403.417 326.191 403.736 326.835C404.054 327.478 404.214 328.241 404.214 329.124ZM403.233 329.124C403.233 328.399 403.111 327.787 402.869 327.288C402.629 326.79 402.303 326.412 401.892 326.156C401.483 325.9 401.025 325.772 400.518 325.772C400.012 325.772 399.552 325.9 399.141 326.156C398.732 326.412 398.406 326.79 398.164 327.288C397.924 327.787 397.804 328.399 397.804 329.124C397.804 329.849 397.924 330.46 398.164 330.959C398.406 331.458 398.732 331.835 399.141 332.091C399.552 332.348 400.012 332.476 400.518 332.476C401.025 332.476 401.483 332.348 401.892 332.091C402.303 331.835 402.629 331.458 402.869 330.959C403.111 330.46 403.233 329.849 403.233 329.124ZM405.771 333.31V332.574L408.535 329.549C408.859 329.195 409.126 328.887 409.336 328.625C409.546 328.361 409.701 328.113 409.802 327.881C409.905 327.647 409.957 327.401 409.957 327.145C409.957 326.851 409.886 326.596 409.745 326.381C409.606 326.166 409.415 325.999 409.172 325.882C408.93 325.765 408.657 325.706 408.355 325.706C408.033 325.706 407.752 325.773 407.513 325.907C407.276 326.037 407.092 326.221 406.961 326.458C406.833 326.696 406.769 326.974 406.769 327.292H405.804C405.804 326.802 405.917 326.371 406.143 326.001C406.369 325.63 406.677 325.341 407.067 325.134C407.459 324.927 407.9 324.823 408.387 324.823C408.878 324.823 409.313 324.927 409.691 325.134C410.07 325.341 410.367 325.62 410.583 325.972C410.798 326.324 410.905 326.715 410.905 327.145C410.905 327.453 410.85 327.754 410.738 328.049C410.629 328.34 410.438 328.666 410.166 329.026C409.896 329.383 409.521 329.819 409.041 330.334L407.161 332.345V332.41H411.053V333.31H405.771ZM415.978 333.31V332.574L418.742 329.549C419.066 329.195 419.333 328.887 419.543 328.625C419.753 328.361 419.908 328.113 420.009 327.881C420.112 327.647 420.164 327.401 420.164 327.145C420.164 326.851 420.093 326.596 419.952 326.381C419.813 326.166 419.622 325.999 419.379 325.882C419.137 325.765 418.864 325.706 418.562 325.706C418.24 325.706 417.96 325.773 417.72 325.907C417.483 326.037 417.299 326.221 417.168 326.458C417.04 326.696 416.976 326.974 416.976 327.292H416.011C416.011 326.802 416.124 326.371 416.35 326.001C416.577 325.63 416.885 325.341 417.274 325.134C417.667 324.927 418.107 324.823 418.595 324.823C419.085 324.823 419.52 324.927 419.899 325.134C420.277 325.341 420.574 325.62 420.79 325.972C421.005 326.324 421.113 326.715 421.113 327.145C421.113 327.453 421.057 327.754 420.945 328.049C420.836 328.34 420.645 328.666 420.373 329.026C420.103 329.383 419.728 329.819 419.249 330.334L417.368 332.345V332.41H421.26V333.31H415.978ZM425.679 333.424C425.063 333.424 424.538 333.256 424.105 332.921C423.672 332.583 423.34 332.094 423.112 331.454C422.883 330.811 422.768 330.034 422.768 329.124C422.768 328.219 422.883 327.446 423.112 326.806C423.343 326.163 423.676 325.672 424.109 325.334C424.545 324.994 425.068 324.823 425.679 324.823C426.289 324.823 426.811 324.994 427.244 325.334C427.68 325.672 428.013 326.163 428.242 326.806C428.473 327.446 428.589 328.219 428.589 329.124C428.589 330.034 428.475 330.811 428.246 331.454C428.017 332.094 427.686 332.583 427.252 332.921C426.819 333.256 426.295 333.424 425.679 333.424ZM425.679 332.525C426.289 332.525 426.763 332.23 427.101 331.642C427.439 331.053 427.608 330.214 427.608 329.124C427.608 328.399 427.53 327.782 427.375 327.272C427.222 326.762 427.002 326.374 426.713 326.107C426.427 325.84 426.082 325.706 425.679 325.706C425.074 325.706 424.601 326.005 424.26 326.602C423.92 327.196 423.749 328.036 423.749 329.124C423.749 329.849 423.826 330.464 423.978 330.971C424.131 331.478 424.35 331.864 424.636 332.128C424.925 332.393 425.273 332.525 425.679 332.525ZM430.143 333.31V332.574L432.906 329.549C433.23 329.195 433.497 328.887 433.707 328.625C433.917 328.361 434.072 328.113 434.173 327.881C434.277 327.647 434.328 327.401 434.328 327.145C434.328 326.851 434.258 326.596 434.116 326.381C433.977 326.166 433.786 325.999 433.544 325.882C433.301 325.765 433.028 325.706 432.726 325.706C432.404 325.706 432.124 325.773 431.884 325.907C431.647 326.037 431.463 326.221 431.332 326.458C431.204 326.696 431.14 326.974 431.14 327.292H430.175C430.175 326.802 430.288 326.371 430.515 326.001C430.741 325.63 431.049 325.341 431.438 325.134C431.831 324.927 432.271 324.823 432.759 324.823C433.249 324.823 433.684 324.927 434.063 325.134C434.441 325.341 434.739 325.62 434.954 325.972C435.169 326.324 435.277 326.715 435.277 327.145C435.277 327.453 435.221 327.754 435.109 328.049C435 328.34 434.809 328.666 434.537 329.026C434.267 329.383 433.892 329.819 433.413 330.334L431.532 332.345V332.41H435.424V333.31H430.143ZM439.941 333.424C439.401 333.424 438.92 333.331 438.498 333.146C438.078 332.961 437.744 332.703 437.496 332.373C437.251 332.041 437.118 331.655 437.096 331.217H438.126C438.148 331.486 438.24 331.719 438.404 331.916C438.567 332.109 438.781 332.259 439.046 332.365C439.31 332.472 439.603 332.525 439.925 332.525C440.284 332.525 440.603 332.462 440.881 332.337C441.159 332.211 441.377 332.037 441.535 331.813C441.693 331.59 441.772 331.331 441.772 331.037C441.772 330.729 441.696 330.458 441.543 330.223C441.391 329.986 441.167 329.801 440.873 329.667C440.579 329.534 440.219 329.467 439.794 329.467H439.123V328.568H439.794C440.126 328.568 440.418 328.508 440.669 328.388C440.922 328.268 441.12 328.099 441.261 327.881C441.406 327.663 441.478 327.407 441.478 327.113C441.478 326.829 441.415 326.582 441.29 326.373C441.165 326.163 440.987 325.999 440.758 325.882C440.532 325.765 440.265 325.706 439.957 325.706C439.668 325.706 439.396 325.759 439.14 325.866C438.886 325.969 438.679 326.121 438.518 326.319C438.358 326.516 438.27 326.753 438.257 327.031H437.276C437.292 326.592 437.424 326.208 437.672 325.878C437.92 325.546 438.244 325.287 438.645 325.101C439.048 324.916 439.491 324.823 439.974 324.823C440.491 324.823 440.936 324.928 441.306 325.138C441.677 325.345 441.962 325.619 442.161 325.96C442.359 326.3 442.459 326.668 442.459 327.063C442.459 327.535 442.335 327.937 442.087 328.269C441.842 328.602 441.508 328.832 441.085 328.96V329.026C441.614 329.113 442.027 329.338 442.324 329.7C442.621 330.06 442.77 330.505 442.77 331.037C442.77 331.492 442.646 331.901 442.398 332.263C442.152 332.623 441.817 332.906 441.392 333.113C440.967 333.32 440.483 333.424 439.941 333.424Z" fill="black" fill-opacity="0.6"/>
<rect x="420.521" y="316" width="0.901287" height="0.901287" fill="black" fill-opacity="0.2"/>
<rect x="420.521" y="316.901" width="0.901287" height="2.70386" fill="black" fill-opacity="0.2"/>
<path d="M499.618 330.693H500.73L501.662 331.92L501.907 332.247L503.297 334.094H502.185L501.27 332.868L501.041 332.557L499.618 330.693ZM503.64 329.124C503.64 330.007 503.481 330.77 503.162 331.413C502.843 332.056 502.406 332.552 501.85 332.901C501.294 333.25 500.659 333.424 499.945 333.424C499.231 333.424 498.596 333.25 498.04 332.901C497.484 332.552 497.047 332.056 496.728 331.413C496.409 330.77 496.25 330.007 496.25 329.124C496.25 328.241 496.409 327.478 496.728 326.835C497.047 326.191 497.484 325.695 498.04 325.347C498.596 324.998 499.231 324.823 499.945 324.823C500.659 324.823 501.294 324.998 501.85 325.347C502.406 325.695 502.843 326.191 503.162 326.835C503.481 327.478 503.64 328.241 503.64 329.124ZM502.659 329.124C502.659 328.399 502.538 327.787 502.296 327.288C502.056 326.79 501.73 326.412 501.319 326.156C500.91 325.9 500.452 325.772 499.945 325.772C499.438 325.772 498.979 325.9 498.568 326.156C498.159 326.412 497.833 326.79 497.591 327.288C497.351 327.787 497.231 328.399 497.231 329.124C497.231 329.849 497.351 330.46 497.591 330.959C497.833 331.458 498.159 331.835 498.568 332.091C498.979 332.348 499.438 332.476 499.945 332.476C500.452 332.476 500.91 332.348 501.319 332.091C501.73 331.835 502.056 331.458 502.296 330.959C502.538 330.46 502.659 329.849 502.659 329.124ZM508.027 333.424C507.487 333.424 507.006 333.331 506.584 333.146C506.164 332.961 505.83 332.703 505.582 332.373C505.337 332.041 505.203 331.655 505.182 331.217H506.212C506.233 331.486 506.326 331.719 506.49 331.916C506.653 332.109 506.867 332.259 507.131 332.365C507.396 332.472 507.689 332.525 508.01 332.525C508.37 332.525 508.689 332.462 508.967 332.337C509.245 332.211 509.463 332.037 509.621 331.813C509.779 331.59 509.858 331.331 509.858 331.037C509.858 330.729 509.782 330.458 509.629 330.223C509.476 329.986 509.253 329.801 508.959 329.667C508.664 329.534 508.305 329.467 507.879 329.467H507.209V328.568H507.879C508.212 328.568 508.504 328.508 508.754 328.388C509.008 328.268 509.205 328.099 509.347 327.881C509.491 327.663 509.564 327.407 509.564 327.113C509.564 326.829 509.501 326.582 509.376 326.373C509.25 326.163 509.073 325.999 508.844 325.882C508.618 325.765 508.351 325.706 508.043 325.706C507.754 325.706 507.482 325.759 507.225 325.866C506.972 325.969 506.765 326.121 506.604 326.319C506.443 326.516 506.356 326.753 506.342 327.031H505.361C505.378 326.592 505.51 326.208 505.758 325.878C506.006 325.546 506.33 325.287 506.731 325.101C507.134 324.916 507.577 324.823 508.059 324.823C508.577 324.823 509.021 324.928 509.392 325.138C509.763 325.345 510.047 325.619 510.246 325.96C510.445 326.3 510.545 326.668 510.545 327.063C510.545 327.535 510.421 327.937 510.173 328.269C509.927 328.602 509.594 328.832 509.171 328.96V329.026C509.7 329.113 510.113 329.338 510.41 329.7C510.707 330.06 510.855 330.505 510.855 331.037C510.855 331.492 510.731 331.901 510.483 332.263C510.238 332.623 509.903 332.906 509.478 333.113C509.053 333.32 508.569 333.424 508.027 333.424ZM515.765 333.31V332.574L518.528 329.549C518.852 329.195 519.119 328.887 519.329 328.625C519.539 328.361 519.694 328.113 519.795 327.881C519.899 327.647 519.951 327.401 519.951 327.145C519.951 326.851 519.88 326.596 519.738 326.381C519.599 326.166 519.408 325.999 519.166 325.882C518.923 325.765 518.651 325.706 518.348 325.706C518.027 325.706 517.746 325.773 517.506 325.907C517.269 326.037 517.085 326.221 516.954 326.458C516.826 326.696 516.762 326.974 516.762 327.292H515.797C515.797 326.802 515.911 326.371 516.137 326.001C516.363 325.63 516.671 325.341 517.061 325.134C517.453 324.927 517.893 324.823 518.381 324.823C518.871 324.823 519.306 324.927 519.685 325.134C520.064 325.341 520.361 325.62 520.576 325.972C520.791 326.324 520.899 326.715 520.899 327.145C520.899 327.453 520.843 327.754 520.731 328.049C520.622 328.34 520.432 328.666 520.159 329.026C519.889 329.383 519.515 329.819 519.035 330.334L517.155 332.345V332.41H521.046V333.31H515.765ZM525.465 333.424C524.849 333.424 524.325 333.256 523.891 332.921C523.458 332.583 523.127 332.094 522.898 331.454C522.669 330.811 522.555 330.034 522.555 329.124C522.555 328.219 522.669 327.446 522.898 326.806C523.13 326.163 523.462 325.672 523.895 325.334C524.331 324.994 524.855 324.823 525.465 324.823C526.075 324.823 526.597 324.994 527.031 325.334C527.467 325.672 527.799 326.163 528.028 326.806C528.26 327.446 528.376 328.219 528.376 329.124C528.376 330.034 528.261 330.811 528.032 331.454C527.803 332.094 527.472 332.583 527.039 332.921C526.606 333.256 526.081 333.424 525.465 333.424ZM525.465 332.525C526.075 332.525 526.55 332.23 526.888 331.642C527.226 331.053 527.394 330.214 527.394 329.124C527.394 328.399 527.317 327.782 527.161 327.272C527.009 326.762 526.788 326.374 526.499 326.107C526.213 325.84 525.868 325.706 525.465 325.706C524.86 325.706 524.387 326.005 524.047 326.602C523.706 327.196 523.536 328.036 523.536 329.124C523.536 329.849 523.612 330.464 523.765 330.971C523.917 331.478 524.137 331.864 524.423 332.128C524.712 332.393 525.059 332.525 525.465 332.525ZM529.929 333.31V332.574L532.692 329.549C533.017 329.195 533.284 328.887 533.493 328.625C533.703 328.361 533.859 328.113 533.959 327.881C534.063 327.647 534.115 327.401 534.115 327.145C534.115 326.851 534.044 326.596 533.902 326.381C533.763 326.166 533.572 325.999 533.33 325.882C533.087 325.765 532.815 325.706 532.512 325.706C532.191 325.706 531.91 325.773 531.67 325.907C531.433 326.037 531.249 326.221 531.118 326.458C530.99 326.696 530.926 326.974 530.926 327.292H529.962C529.962 326.802 530.075 326.371 530.301 326.001C530.527 325.63 530.835 325.341 531.225 325.134C531.617 324.927 532.057 324.823 532.545 324.823C533.036 324.823 533.47 324.927 533.849 325.134C534.228 325.341 534.525 325.62 534.74 325.972C534.955 326.324 535.063 326.715 535.063 327.145C535.063 327.453 535.007 327.754 534.896 328.049C534.787 328.34 534.596 328.666 534.323 329.026C534.053 329.383 533.679 329.819 533.199 330.334L531.319 332.345V332.41H535.21V333.31H529.929ZM539.727 333.424C539.188 333.424 538.707 333.331 538.284 333.146C537.865 332.961 537.531 332.703 537.283 332.373C537.038 332.041 536.904 331.655 536.882 331.217H537.912C537.934 331.486 538.027 331.719 538.19 331.916C538.354 332.109 538.568 332.259 538.832 332.365C539.096 332.472 539.389 332.525 539.711 332.525C540.071 332.525 540.389 332.462 540.667 332.337C540.945 332.211 541.163 332.037 541.322 331.813C541.48 331.59 541.559 331.331 541.559 331.037C541.559 330.729 541.482 330.458 541.33 330.223C541.177 329.986 540.954 329.801 540.659 329.667C540.365 329.534 540.005 329.467 539.58 329.467H538.91V328.568H539.58C539.913 328.568 540.204 328.508 540.455 328.388C540.708 328.268 540.906 328.099 541.048 327.881C541.192 327.663 541.264 327.407 541.264 327.113C541.264 326.829 541.202 326.582 541.076 326.373C540.951 326.163 540.774 325.999 540.545 325.882C540.319 325.765 540.052 325.706 539.744 325.706C539.455 325.706 539.182 325.759 538.926 325.866C538.673 325.969 538.466 326.121 538.305 326.319C538.144 326.516 538.057 326.753 538.043 327.031H537.062C537.078 326.592 537.211 326.208 537.459 325.878C537.707 325.546 538.031 325.287 538.431 325.101C538.835 324.916 539.278 324.823 539.76 324.823C540.278 324.823 540.722 324.928 541.093 325.138C541.463 325.345 541.748 325.619 541.947 325.96C542.146 326.3 542.245 326.668 542.245 327.063C542.245 327.535 542.121 327.937 541.873 328.269C541.628 328.602 541.294 328.832 540.872 328.96V329.026C541.401 329.113 541.813 329.338 542.11 329.7C542.407 330.06 542.556 330.505 542.556 331.037C542.556 331.492 542.432 331.901 542.184 332.263C541.939 332.623 541.604 332.906 541.178 333.113C540.753 333.32 540.27 333.424 539.727 333.424Z" fill="black" fill-opacity="0.6"/>
<rect x="519.976" y="316" width="0.901287" height="0.901287" fill="black" fill-opacity="0.2"/>
<rect x="519.976" y="316.901" width="0.901287" height="2.70386" fill="black" fill-opacity="0.2"/>
<path d="M598.894 330.693H600.006L600.938 331.92L601.183 332.247L602.573 334.094H601.461L600.546 332.868L600.317 332.557L598.894 330.693ZM602.917 329.124C602.917 330.007 602.757 330.77 602.438 331.413C602.12 332.056 601.682 332.552 601.126 332.901C600.57 333.25 599.935 333.424 599.221 333.424C598.507 333.424 597.872 333.25 597.316 332.901C596.76 332.552 596.323 332.056 596.004 331.413C595.685 330.77 595.526 330.007 595.526 329.124C595.526 328.241 595.685 327.478 596.004 326.835C596.323 326.191 596.76 325.695 597.316 325.347C597.872 324.998 598.507 324.823 599.221 324.823C599.935 324.823 600.57 324.998 601.126 325.347C601.682 325.695 602.12 326.191 602.438 326.835C602.757 327.478 602.917 328.241 602.917 329.124ZM601.936 329.124C601.936 328.399 601.814 327.787 601.572 327.288C601.332 326.79 601.006 326.412 600.595 326.156C600.186 325.9 599.728 325.772 599.221 325.772C598.714 325.772 598.255 325.9 597.844 326.156C597.435 326.412 597.109 326.79 596.867 327.288C596.627 327.787 596.507 328.399 596.507 329.124C596.507 329.849 596.627 330.46 596.867 330.959C597.109 331.458 597.435 331.835 597.844 332.091C598.255 332.348 598.714 332.476 599.221 332.476C599.728 332.476 600.186 332.348 600.595 332.091C601.006 331.835 601.332 331.458 601.572 330.959C601.814 330.46 601.936 329.849 601.936 329.124ZM604.278 331.593V330.759L607.957 324.938H608.562V326.23H608.153L605.373 330.628V330.693H610.328V331.593H604.278ZM608.218 333.31V331.339V330.951V324.938H609.183V333.31H608.218ZM615.097 333.31V332.574L617.86 329.549C618.185 329.195 618.452 328.887 618.662 328.625C618.872 328.361 619.027 328.113 619.128 327.881C619.231 327.647 619.283 327.401 619.283 327.145C619.283 326.851 619.212 326.596 619.07 326.381C618.931 326.166 618.741 325.999 618.498 325.882C618.256 325.765 617.983 325.706 617.681 325.706C617.359 325.706 617.078 325.773 616.839 325.907C616.601 326.037 616.418 326.221 616.287 326.458C616.159 326.696 616.095 326.974 616.095 327.292H615.13C615.13 326.802 615.243 326.371 615.469 326.001C615.695 325.63 616.003 325.341 616.393 325.134C616.785 324.927 617.226 324.823 617.713 324.823C618.204 324.823 618.639 324.927 619.017 325.134C619.396 325.341 619.693 325.62 619.908 325.972C620.124 326.324 620.231 326.715 620.231 327.145C620.231 327.453 620.176 327.754 620.064 328.049C619.955 328.34 619.764 328.666 619.492 329.026C619.222 329.383 618.847 329.819 618.367 330.334L616.487 332.345V332.41H620.379V333.31H615.097ZM624.797 333.424C624.182 333.424 623.657 333.256 623.224 332.921C622.79 332.583 622.459 332.094 622.23 331.454C622.001 330.811 621.887 330.034 621.887 329.124C621.887 328.219 622.001 327.446 622.23 326.806C622.462 326.163 622.794 325.672 623.228 325.334C623.664 324.994 624.187 324.823 624.797 324.823C625.408 324.823 625.93 324.994 626.363 325.334C626.799 325.672 627.132 326.163 627.36 326.806C627.592 327.446 627.708 328.219 627.708 329.124C627.708 330.034 627.593 330.811 627.365 331.454C627.136 332.094 626.805 332.583 626.371 332.921C625.938 333.256 625.413 333.424 624.797 333.424ZM624.797 332.525C625.408 332.525 625.882 332.23 626.22 331.642C626.558 331.053 626.727 330.214 626.727 329.124C626.727 328.399 626.649 327.782 626.494 327.272C626.341 326.762 626.121 326.374 625.832 326.107C625.546 325.84 625.201 325.706 624.797 325.706C624.192 325.706 623.72 326.005 623.379 326.602C623.038 327.196 622.868 328.036 622.868 329.124C622.868 329.849 622.944 330.464 623.097 330.971C623.25 331.478 623.469 331.864 623.755 332.128C624.044 332.393 624.391 332.525 624.797 332.525ZM629.261 333.31V332.574L632.025 329.549C632.349 329.195 632.616 328.887 632.826 328.625C633.036 328.361 633.191 328.113 633.292 327.881C633.395 327.647 633.447 327.401 633.447 327.145C633.447 326.851 633.376 326.596 633.235 326.381C633.096 326.166 632.905 325.999 632.662 325.882C632.42 325.765 632.147 325.706 631.845 325.706C631.523 325.706 631.242 325.773 631.003 325.907C630.766 326.037 630.582 326.221 630.451 326.458C630.323 326.696 630.259 326.974 630.259 327.292H629.294C629.294 326.802 629.407 326.371 629.633 326.001C629.859 325.63 630.167 325.341 630.557 325.134C630.95 324.927 631.39 324.823 631.877 324.823C632.368 324.823 632.803 324.927 633.181 325.134C633.56 325.341 633.857 325.62 634.073 325.972C634.288 326.324 634.396 326.715 634.396 327.145C634.396 327.453 634.34 327.754 634.228 328.049C634.119 328.34 633.928 328.666 633.656 329.026C633.386 329.383 633.011 329.819 632.531 330.334L630.651 332.345V332.41H634.543V333.31H629.261ZM639.06 333.424C638.52 333.424 638.039 333.331 637.617 333.146C637.197 332.961 636.863 332.703 636.615 332.373C636.37 332.041 636.236 331.655 636.215 331.217H637.245C637.266 331.486 637.359 331.719 637.523 331.916C637.686 332.109 637.9 332.259 638.164 332.365C638.429 332.472 638.722 332.525 639.043 332.525C639.403 332.525 639.722 332.462 640 332.337C640.278 332.211 640.496 332.037 640.654 331.813C640.812 331.59 640.891 331.331 640.891 331.037C640.891 330.729 640.815 330.458 640.662 330.223C640.509 329.986 640.286 329.801 639.992 329.667C639.697 329.534 639.338 329.467 638.913 329.467H638.242V328.568H638.913C639.245 328.568 639.537 328.508 639.787 328.388C640.041 328.268 640.238 328.099 640.38 327.881C640.524 327.663 640.597 327.407 640.597 327.113C640.597 326.829 640.534 326.582 640.409 326.373C640.283 326.163 640.106 325.999 639.877 325.882C639.651 325.765 639.384 325.706 639.076 325.706C638.787 325.706 638.515 325.759 638.258 325.866C638.005 325.969 637.798 326.121 637.637 326.319C637.476 326.516 637.389 326.753 637.376 327.031H636.394C636.411 326.592 636.543 326.208 636.791 325.878C637.039 325.546 637.363 325.287 637.764 325.101C638.167 324.916 638.61 324.823 639.092 324.823C639.61 324.823 640.054 324.928 640.425 325.138C640.796 325.345 641.08 325.619 641.279 325.96C641.478 326.3 641.578 326.668 641.578 327.063C641.578 327.535 641.454 327.937 641.206 328.269C640.96 328.602 640.627 328.832 640.204 328.96V329.026C640.733 329.113 641.146 329.338 641.443 329.7C641.74 330.06 641.888 330.505 641.888 331.037C641.888 331.492 641.764 331.901 641.516 332.263C641.271 332.623 640.936 332.906 640.511 333.113C640.086 333.32 639.602 333.424 639.06 333.424Z" fill="black" fill-opacity="0.6"/>
<rect x="619.431" y="316" width="0.901287" height="0.901287" fill="black" fill-opacity="0.2"/>
<rect x="619.431" y="316.901" width="0.901287" height="2.70386" fill="black" fill-opacity="0.2"/>
<rect x="718.887" y="316" width="0.901287" height="0.901287" fill="black" fill-opacity="0.2"/>
<rect x="718.887" y="316.901" width="0.901287" height="2.70386" fill="black" fill-opacity="0.2"/>
<rect x="818.342" y="316" width="0.901287" height="0.901287" fill="black" fill-opacity="0.2"/>
<rect x="818.342" y="316.901" width="0.901287" height="2.70386" fill="black" fill-opacity="0.2"/>
<rect x="917.798" y="316" width="0.901287" height="0.901287" fill="black" fill-opacity="0.2"/>
<rect x="917.798" y="316.901" width="0.901287" height="2.70386" fill="black" fill-opacity="0.2"/>
<circle opacity="0.2" cx="347.766" cy="200.488" r="5.40772" fill="#00A39D"/>
<circle cx="347.766" cy="200.487" r="2.70386" fill="#00A39D"/>
<circle opacity="0.2" cx="457.793" cy="219" r="5.40772" fill="#00A39D"/>
<circle cx="457.793" cy="219" r="2.70386" fill="#00A39D"/>
<circle opacity="0.2" cx="565.782" cy="268" r="5.40772" fill="#00A39D"/>
<circle cx="565.782" cy="268" r="2.70386" fill="#00A39D"/>
<path d="M929.44 316.265H930.853L931.564 317.18L932.263 317.994L933.58 319.645H932.028L931.122 318.531L930.657 317.871L929.44 316.265ZM933.699 315.067C933.699 315.925 933.537 316.655 933.211 317.256C932.889 317.858 932.448 318.318 931.89 318.635C931.335 318.95 930.71 319.108 930.016 319.108C929.317 319.108 928.69 318.949 928.134 318.631C927.578 318.314 927.139 317.854 926.817 317.252C926.494 316.651 926.333 315.922 926.333 315.067C926.333 314.209 926.494 313.48 926.817 312.878C927.139 312.276 927.578 311.818 928.134 311.503C928.69 311.185 929.317 311.027 930.016 311.027C930.71 311.027 931.335 311.185 931.89 311.503C932.448 311.818 932.889 312.276 933.211 312.878C933.537 313.48 933.699 314.209 933.699 315.067ZM932.013 315.067C932.013 314.511 931.93 314.043 931.763 313.661C931.6 313.28 931.368 312.991 931.068 312.793C930.769 312.596 930.418 312.498 930.016 312.498C929.614 312.498 929.263 312.596 928.964 312.793C928.664 312.991 928.431 313.28 928.265 313.661C928.101 314.043 928.019 314.511 928.019 315.067C928.019 315.623 928.101 316.091 928.265 316.473C928.431 316.854 928.664 317.144 928.964 317.341C929.263 317.538 929.614 317.637 930.016 317.637C930.418 317.637 930.769 317.538 931.068 317.341C931.368 317.144 931.6 316.854 931.763 316.473C931.93 316.091 932.013 315.623 932.013 315.067ZM938.683 316.488V313.101H940.32V319H938.749V317.928H938.687C938.554 318.274 938.333 318.552 938.023 318.762C937.716 318.972 937.34 319.077 936.897 319.077C936.503 319.077 936.156 318.987 935.857 318.808C935.557 318.629 935.323 318.374 935.154 318.044C934.987 317.713 934.903 317.318 934.9 316.857V313.101H936.536V316.565C936.539 316.913 936.632 317.188 936.817 317.391C937.001 317.593 937.248 317.694 937.558 317.694C937.755 317.694 937.94 317.649 938.111 317.56C938.283 317.468 938.421 317.332 938.526 317.153C938.633 316.973 938.686 316.752 938.683 316.488ZM943.31 319.111C942.934 319.111 942.599 319.046 942.304 318.916C942.01 318.782 941.777 318.586 941.605 318.328C941.436 318.067 941.352 317.742 941.352 317.352C941.352 317.025 941.412 316.749 941.532 316.527C941.653 316.304 941.816 316.125 942.024 315.989C942.231 315.853 942.467 315.751 942.731 315.682C942.997 315.612 943.276 315.564 943.568 315.536C943.911 315.5 944.187 315.467 944.397 315.436C944.607 315.403 944.76 315.354 944.854 315.29C944.949 315.226 944.997 315.131 944.997 315.006V314.983C944.997 314.739 944.92 314.551 944.766 314.418C944.615 314.285 944.4 314.218 944.121 314.218C943.826 314.218 943.592 314.284 943.418 314.414C943.244 314.542 943.129 314.704 943.072 314.898L941.559 314.775C941.636 314.417 941.787 314.107 942.012 313.846C942.238 313.582 942.528 313.38 942.884 313.239C943.243 313.096 943.657 313.024 944.129 313.024C944.456 313.024 944.77 313.062 945.07 313.139C945.372 313.216 945.639 313.335 945.872 313.496C946.108 313.658 946.293 313.865 946.429 314.118C946.565 314.369 946.633 314.67 946.633 315.021V319H945.081V318.182H945.035C944.94 318.366 944.813 318.529 944.655 318.67C944.496 318.808 944.305 318.917 944.082 318.996C943.86 319.073 943.602 319.111 943.31 319.111ZM943.779 317.982C944.02 317.982 944.232 317.935 944.417 317.84C944.601 317.743 944.746 317.612 944.851 317.448C944.956 317.284 945.008 317.099 945.008 316.891V316.265C944.957 316.299 944.886 316.329 944.797 316.358C944.71 316.383 944.611 316.408 944.501 316.431C944.391 316.451 944.281 316.47 944.171 316.488C944.061 316.504 943.961 316.518 943.871 316.53C943.679 316.559 943.511 316.603 943.368 316.665C943.225 316.726 943.113 316.81 943.034 316.914C942.955 317.017 942.915 317.145 942.915 317.299C942.915 317.521 942.996 317.692 943.157 317.809C943.321 317.925 943.528 317.982 943.779 317.982ZM947.902 319V313.101H949.488V314.13H949.55C949.657 313.764 949.838 313.487 950.091 313.3C950.345 313.111 950.637 313.016 950.967 313.016C951.049 313.016 951.137 313.021 951.232 313.032C951.327 313.042 951.41 313.056 951.482 313.074V314.526C951.405 314.503 951.299 314.482 951.163 314.464C951.027 314.446 950.903 314.437 950.79 314.437C950.55 314.437 950.335 314.49 950.145 314.595C949.958 314.697 949.81 314.841 949.7 315.025C949.592 315.209 949.538 315.422 949.538 315.662V319H947.902ZM955.761 313.101V314.33H952.208V313.101H955.761ZM953.015 311.687H954.651V317.187C954.651 317.338 954.674 317.456 954.72 317.541C954.766 317.622 954.83 317.68 954.912 317.713C954.997 317.747 955.094 317.763 955.204 317.763C955.281 317.763 955.358 317.757 955.435 317.744C955.511 317.729 955.57 317.717 955.611 317.71L955.869 318.927C955.787 318.953 955.672 318.982 955.523 319.015C955.374 319.051 955.194 319.073 954.981 319.081C954.587 319.096 954.241 319.044 953.944 318.923C953.65 318.803 953.421 318.616 953.257 318.362C953.093 318.109 953.012 317.789 953.015 317.402V311.687ZM959.452 319.115C958.845 319.115 958.323 318.992 957.885 318.747C957.45 318.498 957.114 318.147 956.879 317.694C956.643 317.238 956.525 316.699 956.525 316.077C956.525 315.47 956.643 314.938 956.879 314.479C957.114 314.021 957.446 313.664 957.874 313.408C958.304 313.152 958.808 313.024 959.387 313.024C959.776 313.024 960.138 313.087 960.474 313.212C960.812 313.335 961.106 313.521 961.357 313.769C961.611 314.017 961.808 314.33 961.949 314.706C962.089 315.08 962.16 315.518 962.16 316.02V316.469H957.178V315.455H960.62C960.62 315.219 960.568 315.011 960.466 314.829C960.364 314.647 960.221 314.505 960.04 314.403C959.86 314.298 959.652 314.245 959.414 314.245C959.165 314.245 958.945 314.303 958.753 314.418C958.564 314.531 958.415 314.683 958.308 314.875C958.2 315.065 958.145 315.276 958.142 315.509V316.473C958.142 316.765 958.196 317.017 958.304 317.229C958.414 317.442 958.569 317.606 958.768 317.721C958.968 317.836 959.205 317.894 959.479 317.894C959.661 317.894 959.827 317.868 959.978 317.817C960.129 317.766 960.259 317.689 960.366 317.587C960.474 317.484 960.556 317.359 960.612 317.21L962.125 317.31C962.048 317.674 961.891 317.991 961.653 318.263C961.417 318.531 961.113 318.741 960.739 318.892C960.367 319.041 959.939 319.115 959.452 319.115ZM963.227 319V313.101H964.814V314.13H964.875C964.983 313.764 965.163 313.487 965.417 313.3C965.67 313.111 965.962 313.016 966.292 313.016C966.374 313.016 966.463 313.021 966.557 313.032C966.652 313.042 966.735 313.056 966.807 313.074V314.526C966.73 314.503 966.624 314.482 966.488 314.464C966.353 314.446 966.228 314.437 966.116 314.437C965.875 314.437 965.66 314.49 965.47 314.595C965.284 314.697 965.135 314.841 965.025 315.025C964.917 315.209 964.864 315.422 964.864 315.662V319H963.227Z" fill="black" fill-opacity="0.6"/>
</svg>
