<svg width="213" height="277" viewBox="0 0 213 277" fill="none" xmlns="http://www.w3.org/2000/svg">
<path d="M123.888 225.018C123.965 225.379 123.968 225.751 123.898 226.113C123.827 226.475 123.684 226.82 123.478 227.125C123.272 227.431 123.006 227.692 122.696 227.892C122.387 228.093 122.04 228.229 121.677 228.293C108.444 230.611 94.8742 230.167 81.8206 226.99C68.7671 223.813 56.5115 217.971 45.8236 209.831C35.1356 201.691 26.2463 191.429 19.7139 179.69C13.1815 167.95 9.14706 154.987 7.86408 141.613C6.58109 128.24 8.07724 114.746 12.2586 101.979C16.4399 89.2115 23.216 77.4466 32.1614 67.4232C41.1068 57.3998 52.0282 49.3343 64.2396 43.7334C76.451 38.1325 89.6887 35.1171 103.121 34.8767C103.49 34.8701 103.856 34.9379 104.198 35.076C104.54 35.2141 104.851 35.4197 105.111 35.6805C105.372 35.9413 105.578 36.252 105.716 36.594C105.854 36.936 105.921 37.3023 105.915 37.671L105.147 79.9725C105.134 80.6695 104.857 81.3356 104.371 81.8355C103.885 82.3355 103.228 82.6319 102.531 82.6647C95.8087 82.9807 89.2204 84.6589 83.1658 87.5973C77.1113 90.5358 71.7166 94.6734 67.309 99.7591C62.9014 104.845 59.5726 110.773 57.5246 117.184C55.4765 123.594 54.7519 130.354 55.3946 137.054C56.0373 143.753 58.0339 150.252 61.2635 156.156C64.493 162.06 68.8881 167.247 74.1822 171.402C79.4764 175.558 85.5593 178.594 92.0621 180.328C98.5649 182.061 105.352 182.456 112.012 181.489C112.702 181.388 113.404 181.554 113.976 181.953C114.548 182.351 114.947 182.952 115.092 183.634L123.888 225.018Z" fill="#E8A838"/>
<path d="M107.251 37.6952C107.258 37.3265 107.339 36.9629 107.489 36.6261C107.639 36.2893 107.856 35.9863 108.126 35.7351C108.396 35.4839 108.714 35.2898 109.061 35.1642C109.407 35.0386 109.776 34.9841 110.144 35.0041C133.433 36.2677 155.497 45.8425 172.328 61.9895C189.158 78.1365 199.639 99.7845 201.866 123.001C204.093 146.218 197.92 169.464 184.466 188.517C171.013 207.569 151.172 221.164 128.548 226.832C128.19 226.922 127.818 226.939 127.453 226.881C127.089 226.824 126.74 226.694 126.427 226.498C126.114 226.303 125.844 226.047 125.632 225.745C125.421 225.443 125.272 225.101 125.195 224.74L116.399 183.356C116.254 182.675 116.374 181.963 116.734 181.366C117.095 180.77 117.669 180.333 118.34 180.144C129.55 176.986 139.295 169.991 145.874 160.381C152.453 150.77 155.448 139.155 154.336 127.561C153.223 115.968 148.075 105.134 139.789 96.9493C131.503 88.765 120.605 83.7508 108.999 82.782C108.304 82.724 107.658 82.4039 107.191 81.8866C106.723 81.3694 106.47 80.6937 106.483 79.9967L107.251 37.6952Z" fill="#61CDBB"/>
<path d="M99.3705 13.4768H101.708L102.884 14.9888L104.04 16.3356L106.219 19.0673H103.652L102.153 17.225L101.384 16.1323L99.3705 13.4768ZM106.416 11.4948C106.416 12.9135 106.147 14.1206 105.609 15.1158C105.075 16.1111 104.347 16.8713 103.424 17.3965C102.505 17.9174 101.471 18.1779 100.323 18.1779C99.1672 18.1779 98.1296 17.9153 97.2105 17.3901C96.2915 16.865 95.5652 16.1048 95.0315 15.1095C94.4979 14.1142 94.2311 12.9093 94.2311 11.4948C94.2311 10.076 94.4979 8.86894 95.0315 7.87367C95.5652 6.8784 96.2915 6.1203 97.2105 5.59937C98.1296 5.07421 99.1672 4.81162 100.323 4.81162C101.471 4.81162 102.505 5.07421 103.424 5.59937C104.347 6.1203 105.075 6.8784 105.609 7.87367C106.147 8.86894 106.416 10.076 106.416 11.4948ZM103.627 11.4948C103.627 10.5757 103.489 9.80068 103.214 9.16963C102.943 8.53859 102.56 8.06001 102.064 7.73391C101.569 7.4078 100.988 7.24474 100.323 7.24474C99.6585 7.24474 99.0782 7.4078 98.5827 7.73391C98.0872 8.06001 97.7018 8.53859 97.4265 9.16963C97.1555 9.80068 97.0199 10.5757 97.0199 11.4948C97.0199 12.4138 97.1555 13.1888 97.4265 13.8199C97.7018 14.4509 98.0872 14.9295 98.5827 15.2556C99.0782 15.5817 99.6585 15.7448 100.323 15.7448C100.988 15.7448 101.569 15.5817 102.064 15.2556C102.56 14.9295 102.943 14.4509 103.214 13.8199C103.489 13.1888 103.627 12.4138 103.627 11.4948ZM114.261 4.9895V18H111.51V7.6005H111.434L108.455 9.46821V7.02875L111.675 4.9895H114.261Z" fill="black"/>
<path d="M86.0929 143.544V139.947L94.4978 132.165C95.2126 131.473 95.8121 130.85 96.2963 130.297C96.7883 129.743 97.161 129.202 97.4147 128.671C97.6683 128.133 97.7951 127.553 97.7951 126.93C97.7951 126.239 97.6376 125.643 97.3224 125.143C97.0073 124.636 96.5769 124.248 96.0312 123.979C95.4854 123.702 94.8667 123.564 94.175 123.564C93.4524 123.564 92.8222 123.71 92.2842 124.002C91.7461 124.294 91.3311 124.713 91.039 125.259C90.7469 125.804 90.6009 126.454 90.6009 127.207H85.8623C85.8623 125.662 86.2121 124.321 86.9115 123.183C87.611 122.046 88.5909 121.166 89.8515 120.543C91.112 119.92 92.5647 119.609 94.2095 119.609C95.9005 119.609 97.3724 119.909 98.6252 120.508C99.8858 121.1 100.866 121.923 101.565 122.976C102.265 124.029 102.614 125.235 102.614 126.596C102.614 127.488 102.438 128.368 102.084 129.236C101.738 130.105 101.119 131.069 100.228 132.13C99.3362 133.183 98.0795 134.447 96.4577 135.923L93.0105 139.301V139.463H102.926V143.544H86.0929ZM118.507 144.063C116.523 144.055 114.817 143.567 113.388 142.599C111.966 141.63 110.87 140.227 110.102 138.39C109.341 136.553 108.964 134.344 108.972 131.761C108.972 129.186 109.352 126.992 110.113 125.178C110.882 123.364 111.977 121.984 113.399 121.039C114.829 120.086 116.531 119.609 118.507 119.609C120.482 119.609 122.18 120.086 123.602 121.039C125.032 121.992 126.131 123.375 126.9 125.189C127.668 126.996 128.049 129.186 128.041 131.761C128.041 134.351 127.657 136.565 126.888 138.402C126.127 140.239 125.036 141.642 123.614 142.61C122.192 143.579 120.49 144.063 118.507 144.063ZM118.507 139.924C119.859 139.924 120.939 139.244 121.746 137.883C122.553 136.523 122.953 134.482 122.945 131.761C122.945 129.97 122.761 128.479 122.392 127.288C122.031 126.096 121.516 125.201 120.847 124.601C120.186 124.002 119.406 123.702 118.507 123.702C117.161 123.702 116.085 124.375 115.278 125.72C114.471 127.065 114.064 129.079 114.056 131.761C114.056 133.575 114.237 135.089 114.598 136.304C114.967 137.51 115.486 138.417 116.155 139.024C116.823 139.624 117.607 139.924 118.507 139.924Z" fill="black"/>
<path d="M175.373 112.007C176.081 112.007 176.763 112.126 177.418 112.364C178.077 112.601 178.664 112.98 179.18 113.5C179.7 114.02 180.11 114.711 180.41 115.572C180.715 116.428 180.87 117.48 180.874 118.726C180.874 119.896 180.742 120.941 180.478 121.86C180.218 122.775 179.843 123.553 179.354 124.194C178.866 124.835 178.276 125.324 177.586 125.66C176.895 125.992 176.124 126.158 175.272 126.158C174.353 126.158 173.541 125.98 172.838 125.626C172.134 125.268 171.566 124.781 171.136 124.167C170.71 123.548 170.452 122.853 170.363 122.082H173.234C173.346 122.584 173.582 122.974 173.941 123.252C174.299 123.526 174.743 123.662 175.272 123.662C176.169 123.662 176.85 123.272 177.317 122.492C177.783 121.708 178.018 120.634 178.023 119.271H177.929C177.722 119.674 177.444 120.022 177.095 120.313C176.745 120.6 176.344 120.822 175.891 120.979C175.443 121.136 174.965 121.214 174.458 121.214C173.647 121.214 172.923 121.024 172.286 120.643C171.649 120.262 171.147 119.737 170.78 119.069C170.412 118.401 170.228 117.639 170.228 116.782C170.224 115.859 170.437 115.036 170.867 114.314C171.297 113.592 171.898 113.027 172.669 112.619C173.445 112.207 174.346 112.003 175.373 112.007ZM175.393 114.294C174.94 114.294 174.537 114.402 174.183 114.617C173.833 114.832 173.555 115.121 173.349 115.484C173.147 115.848 173.048 116.253 173.053 116.702C173.053 117.154 173.151 117.562 173.349 117.926C173.55 118.284 173.824 118.571 174.169 118.787C174.519 118.997 174.918 119.103 175.366 119.103C175.703 119.103 176.014 119.04 176.301 118.914C176.588 118.789 176.837 118.616 177.048 118.396C177.263 118.172 177.431 117.914 177.552 117.623C177.673 117.332 177.734 117.022 177.734 116.695C177.729 116.26 177.626 115.861 177.424 115.498C177.223 115.135 176.945 114.843 176.59 114.623C176.236 114.404 175.837 114.294 175.393 114.294Z" fill="black"/>
<path d="M29.9835 137.815V151.589H27.0714V140.579H26.9907L23.8365 142.557V139.974L27.2463 137.815H29.9835ZM40.8277 137.815V151.589H37.9156V140.579H37.8349L34.6806 142.557V139.974L38.0904 137.815H40.8277Z" fill="black"/>
<path d="M31.1599 268.007H30.4014C30.3566 267.789 30.2781 267.598 30.1659 267.432C30.0558 267.267 29.9213 267.129 29.7622 267.016C29.6052 266.902 29.4309 266.817 29.2393 266.76C29.0476 266.702 28.8478 266.674 28.6398 266.674C28.2606 266.674 27.9171 266.77 27.6092 266.961C27.3034 267.153 27.0597 267.435 26.8782 267.809C26.6988 268.182 26.6091 268.639 26.6091 269.182C26.6091 269.724 26.6988 270.182 26.8782 270.555C27.0597 270.928 27.3034 271.21 27.6092 271.402C27.9171 271.594 28.2606 271.69 28.6398 271.69C28.8478 271.69 29.0476 271.661 29.2393 271.604C29.4309 271.547 29.6052 271.462 29.7622 271.35C29.9213 271.236 30.0558 271.096 30.1659 270.931C30.2781 270.764 30.3566 270.572 30.4014 270.356H31.1599C31.1028 270.676 30.9988 270.963 30.8479 271.216C30.6971 271.468 30.5095 271.683 30.2852 271.861C30.0609 272.036 29.8091 272.17 29.5298 272.261C29.2525 272.353 28.9559 272.399 28.6398 272.399C28.1057 272.399 27.6306 272.269 27.2147 272.008C26.7987 271.747 26.4715 271.376 26.2329 270.894C25.9944 270.413 25.8751 269.842 25.8751 269.182C25.8751 268.521 25.9944 267.95 26.2329 267.469C26.4715 266.988 26.7987 266.617 27.2147 266.356C27.6306 266.095 28.1057 265.964 28.6398 265.964C28.9559 265.964 29.2525 266.01 29.5298 266.102C29.8091 266.194 30.0609 266.328 30.2852 266.506C30.5095 266.681 30.6971 266.895 30.8479 267.148C30.9988 267.399 31.1028 267.685 31.1599 268.007ZM32.7607 266.723V266.05H37.4582V266.723H35.4887V272.313H34.7302V266.723H32.7607ZM45.9116 267.616C45.8749 267.306 45.7261 267.065 45.4651 266.894C45.2041 266.723 44.884 266.637 44.5048 266.637C44.2275 266.637 43.9849 266.682 43.7769 266.772C43.571 266.862 43.4099 266.985 43.2937 267.142C43.1795 267.299 43.1225 267.477 43.1225 267.677C43.1225 267.844 43.1622 267.988 43.2417 268.108C43.3233 268.227 43.4273 268.325 43.5537 268.405C43.6801 268.482 43.8126 268.547 43.9513 268.598C44.0899 268.647 44.2173 268.686 44.3336 268.717L44.9697 268.888C45.1328 268.931 45.3142 268.99 45.5141 269.066C45.7159 269.141 45.9086 269.244 46.0921 269.374C46.2776 269.503 46.4305 269.668 46.5508 269.87C46.6711 270.072 46.7313 270.319 46.7313 270.613C46.7313 270.952 46.6426 271.257 46.4652 271.531C46.2898 271.804 46.033 272.021 45.6945 272.182C45.3581 272.343 44.9493 272.424 44.4681 272.424C44.0196 272.424 43.6312 272.351 43.3029 272.206C42.9767 272.062 42.7198 271.86 42.5322 271.601C42.3467 271.342 42.2417 271.041 42.2172 270.699H43.0001C43.0205 270.935 43.1 271.131 43.2387 271.286C43.3794 271.439 43.5567 271.553 43.7708 271.628C43.9869 271.702 44.2194 271.739 44.4681 271.739C44.7576 271.739 45.0176 271.692 45.248 271.598C45.4784 271.502 45.6609 271.369 45.7954 271.2C45.93 271.029 45.9973 270.829 45.9973 270.601C45.9973 270.393 45.9392 270.224 45.8229 270.093C45.7067 269.963 45.5538 269.857 45.3642 269.775C45.1746 269.694 44.9697 269.622 44.7495 269.561L43.9788 269.341C43.4895 269.2 43.1021 268.999 42.8166 268.738C42.5312 268.477 42.3885 268.136 42.3885 267.714C42.3885 267.363 42.4833 267.057 42.6729 266.796C42.8645 266.533 43.1214 266.329 43.4436 266.185C43.7678 266.038 44.1297 265.964 44.5293 265.964C44.933 265.964 45.2918 266.037 45.6058 266.182C45.9198 266.324 46.1685 266.52 46.352 266.769C46.5376 267.018 46.6354 267.3 46.6456 267.616H45.9116ZM50.5677 272.411C50.115 272.411 49.7246 272.311 49.3963 272.112C49.0701 271.91 48.8183 271.628 48.6409 271.268C48.4656 270.905 48.3779 270.483 48.3779 270.001C48.3779 269.52 48.4656 269.096 48.6409 268.729C48.8183 268.36 49.065 268.073 49.381 267.867C49.6991 267.659 50.0702 267.555 50.4943 267.555C50.7389 267.555 50.9805 267.596 51.2191 267.677C51.4576 267.759 51.6748 267.891 51.8705 268.075C52.0662 268.256 52.2222 268.497 52.3384 268.796C52.4546 269.096 52.5127 269.465 52.5127 269.904V270.209H48.8917V269.585H51.7787C51.7787 269.32 51.7257 269.084 51.6197 268.876C51.5157 268.668 51.3669 268.504 51.1732 268.384C50.9815 268.263 50.7552 268.203 50.4943 268.203C50.2068 268.203 49.958 268.274 49.748 268.417C49.5401 268.558 49.38 268.741 49.2679 268.968C49.1557 269.194 49.0997 269.437 49.0997 269.696V270.111C49.0997 270.466 49.1608 270.767 49.2832 271.014C49.4075 271.258 49.5798 271.445 49.8 271.573C50.0202 271.7 50.2761 271.763 50.5677 271.763C50.7573 271.763 50.9285 271.736 51.0815 271.683C51.2364 271.628 51.37 271.547 51.4821 271.439C51.5942 271.329 51.6809 271.192 51.742 271.029L52.4393 271.225C52.3659 271.461 52.2426 271.669 52.0693 271.849C51.896 272.026 51.6819 272.165 51.427 272.265C51.1722 272.362 50.8857 272.411 50.5677 272.411ZM55.0501 266.05V272.313H54.3284V266.05H55.0501ZM59.0593 272.411C58.6067 272.411 58.2162 272.311 57.888 272.112C57.5618 271.91 57.31 271.628 57.1326 271.268C56.9572 270.905 56.8696 270.483 56.8696 270.001C56.8696 269.52 56.9572 269.096 57.1326 268.729C57.31 268.36 57.5567 268.073 57.8727 267.867C58.1907 267.659 58.5618 267.555 58.9859 267.555C59.2306 267.555 59.4722 267.596 59.7107 267.677C59.9493 267.759 60.1664 267.891 60.3621 268.075C60.5579 268.256 60.7139 268.497 60.8301 268.796C60.9463 269.096 61.0044 269.465 61.0044 269.904V270.209H57.3834V269.585H60.2704C60.2704 269.32 60.2174 269.084 60.1114 268.876C60.0074 268.668 59.8585 268.504 59.6649 268.384C59.4732 268.263 59.2469 268.203 58.9859 268.203C58.6984 268.203 58.4497 268.274 58.2397 268.417C58.0317 268.558 57.8717 268.741 57.7595 268.968C57.6474 269.194 57.5913 269.437 57.5913 269.696V270.111C57.5913 270.466 57.6525 270.767 57.7748 271.014C57.8992 271.258 58.0715 271.445 58.2917 271.573C58.5119 271.7 58.7678 271.763 59.0593 271.763C59.2489 271.763 59.4202 271.736 59.5731 271.683C59.7281 271.628 59.8616 271.547 59.9737 271.439C60.0859 271.329 60.1725 271.192 60.2337 271.029L60.931 271.225C60.8576 271.461 60.7342 271.669 60.5609 271.849C60.3876 272.026 60.1736 272.165 59.9187 272.265C59.6638 272.362 59.3774 272.411 59.0593 272.411ZM66.1475 268.668L65.4991 268.851C65.4583 268.743 65.3982 268.638 65.3186 268.536C65.2412 268.432 65.1352 268.347 65.0006 268.28C64.866 268.212 64.6937 268.179 64.4837 268.179C64.1963 268.179 63.9567 268.245 63.765 268.377C63.5754 268.508 63.4806 268.674 63.4806 268.876C63.4806 269.055 63.5458 269.197 63.6763 269.301C63.8068 269.405 64.0107 269.492 64.288 269.561L64.9853 269.732C65.4053 269.834 65.7183 269.99 65.9242 270.2C66.1301 270.408 66.2331 270.676 66.2331 271.005C66.2331 271.274 66.1556 271.514 66.0007 271.726C65.8477 271.938 65.6337 272.106 65.3584 272.228C65.0832 272.35 64.7631 272.411 64.3981 272.411C63.919 272.411 63.5224 272.307 63.2084 272.099C62.8944 271.891 62.6956 271.588 62.612 271.188L63.2971 271.017C63.3624 271.27 63.4857 271.459 63.6672 271.586C63.8507 271.712 64.0902 271.775 64.3859 271.775C64.7223 271.775 64.9894 271.704 65.1871 271.561C65.387 271.416 65.4869 271.243 65.4869 271.041C65.4869 270.878 65.4298 270.742 65.3156 270.631C65.2014 270.519 65.0261 270.436 64.7896 270.381L64.0066 270.197C63.5764 270.095 63.2604 269.937 63.0586 269.723C62.8587 269.507 62.7588 269.237 62.7588 268.913C62.7588 268.648 62.8333 268.413 62.9821 268.209C63.133 268.005 63.3379 267.845 63.5968 267.729C63.8578 267.613 64.1534 267.555 64.4837 267.555C64.9486 267.555 65.3136 267.657 65.5786 267.861C65.8457 268.064 66.0353 268.334 66.1475 268.668ZM69.4196 272.424C69.1219 272.424 68.8518 272.368 68.6091 272.255C68.3665 272.141 68.1738 271.977 68.0311 271.763C67.8884 271.547 67.817 271.286 67.817 270.98C67.817 270.711 67.87 270.493 67.9761 270.326C68.0821 270.156 68.2238 270.024 68.4012 269.928C68.5786 269.832 68.7743 269.761 68.9884 269.714C69.2045 269.665 69.4216 269.626 69.6398 269.598C69.9252 269.561 70.1566 269.533 70.334 269.515C70.5134 269.495 70.6439 269.461 70.7255 269.414C70.8091 269.367 70.8509 269.286 70.8509 269.17V269.145C70.8509 268.843 70.7683 268.609 70.6032 268.442C70.44 268.274 70.1923 268.191 69.86 268.191C69.5154 268.191 69.2453 268.266 69.0495 268.417C68.8538 268.568 68.7162 268.729 68.6367 268.9L67.9516 268.656C68.0739 268.37 68.237 268.148 68.4409 267.989C68.6469 267.828 68.8711 267.716 69.1138 267.653C69.3584 267.587 69.599 267.555 69.8355 267.555C69.9864 267.555 70.1597 267.573 70.3554 267.61C70.5532 267.644 70.7438 267.717 70.9273 267.827C71.1129 267.937 71.2668 268.103 71.3891 268.325C71.5115 268.548 71.5726 268.845 71.5726 269.218V272.313H70.8509V271.677H70.8142C70.7652 271.779 70.6837 271.888 70.5695 272.005C70.4553 272.121 70.3034 272.22 70.1138 272.301C69.9242 272.383 69.6928 272.424 69.4196 272.424ZM69.5297 271.775C69.8151 271.775 70.0557 271.719 70.2514 271.607C70.4492 271.495 70.5981 271.35 70.698 271.173C70.7999 270.995 70.8509 270.809 70.8509 270.613V269.952C70.8203 269.989 70.753 270.023 70.649 270.053C70.5471 270.082 70.4288 270.107 70.2943 270.13C70.1617 270.15 70.0323 270.169 69.9059 270.185C69.7815 270.199 69.6806 270.211 69.6031 270.222C69.4155 270.246 69.2402 270.286 69.0771 270.341C68.916 270.394 68.7855 270.474 68.6856 270.582C68.5877 270.688 68.5388 270.833 68.5388 271.017C68.5388 271.268 68.6316 271.457 68.8171 271.586C69.0047 271.712 69.2422 271.775 69.5297 271.775ZM73.6077 272.313V267.616H74.3294V272.313H73.6077ZM73.9747 266.833C73.834 266.833 73.7127 266.785 73.6107 266.689C73.5108 266.593 73.4609 266.478 73.4609 266.344C73.4609 266.209 73.5108 266.094 73.6107 265.998C73.7127 265.902 73.834 265.854 73.9747 265.854C74.1154 265.854 74.2357 265.902 74.3356 265.998C74.4375 266.094 74.4885 266.209 74.4885 266.344C74.4885 266.478 74.4375 266.593 74.3356 266.689C74.2357 266.785 74.1154 266.833 73.9747 266.833Z" fill="black"/>
<path d="M139.737 268.007H138.979C138.934 267.789 138.855 267.598 138.743 267.432C138.633 267.267 138.499 267.129 138.34 267.016C138.183 266.902 138.008 266.817 137.817 266.76C137.625 266.702 137.425 266.674 137.217 266.674C136.838 266.674 136.494 266.77 136.187 266.961C135.881 267.153 135.637 267.435 135.456 267.809C135.276 268.182 135.187 268.639 135.187 269.182C135.187 269.724 135.276 270.182 135.456 270.555C135.637 270.928 135.881 271.21 136.187 271.402C136.494 271.594 136.838 271.69 137.217 271.69C137.425 271.69 137.625 271.661 137.817 271.604C138.008 271.547 138.183 271.462 138.34 271.35C138.499 271.236 138.633 271.096 138.743 270.931C138.855 270.764 138.934 270.572 138.979 270.356H139.737C139.68 270.676 139.576 270.963 139.425 271.216C139.274 271.468 139.087 271.683 138.863 271.861C138.638 272.036 138.387 272.17 138.107 272.261C137.83 272.353 137.533 272.399 137.217 272.399C136.683 272.399 136.208 272.269 135.792 272.008C135.376 271.747 135.049 271.376 134.81 270.894C134.572 270.413 134.453 269.842 134.453 269.182C134.453 268.521 134.572 267.95 134.81 267.469C135.049 266.988 135.376 266.617 135.792 266.356C136.208 266.095 136.683 265.964 137.217 265.964C137.533 265.964 137.83 266.01 138.107 266.102C138.387 266.194 138.638 266.328 138.863 266.506C139.087 266.681 139.274 266.895 139.425 267.148C139.576 267.399 139.68 267.685 139.737 268.007ZM141.338 266.723V266.05H146.036V266.723H144.066V272.313H143.308V266.723H141.338ZM150.721 266.723V266.05H155.419V266.723H153.449V272.313H152.691V266.723H150.721ZM157.209 272.313V267.616H157.931V272.313H157.209ZM157.576 266.833C157.435 266.833 157.314 266.785 157.212 266.689C157.112 266.593 157.062 266.478 157.062 266.344C157.062 266.209 157.112 266.094 157.212 265.998C157.314 265.902 157.435 265.854 157.576 265.854C157.717 265.854 157.837 265.902 157.937 265.998C158.039 266.094 158.09 266.209 158.09 266.344C158.09 266.478 158.039 266.593 157.937 266.689C157.837 266.785 157.717 266.833 157.576 266.833ZM161.744 272.411C161.353 272.411 161.007 272.312 160.708 272.115C160.408 271.915 160.173 271.634 160.004 271.271C159.835 270.906 159.75 270.474 159.75 269.977C159.75 269.484 159.835 269.055 160.004 268.692C160.173 268.33 160.409 268.049 160.711 267.851C161.012 267.654 161.361 267.555 161.757 267.555C162.062 267.555 162.304 267.606 162.481 267.708C162.661 267.808 162.797 267.922 162.891 268.05C162.987 268.177 163.061 268.281 163.114 268.362H163.176V266.05H163.897V272.313H163.2V271.592H163.114C163.061 271.677 162.986 271.785 162.888 271.916C162.79 272.044 162.651 272.16 162.469 272.261C162.288 272.361 162.046 272.411 161.744 272.411ZM161.842 271.763C162.132 271.763 162.376 271.688 162.576 271.537C162.776 271.384 162.928 271.173 163.032 270.904C163.136 270.632 163.188 270.319 163.188 269.965C163.188 269.614 163.137 269.307 163.035 269.044C162.933 268.779 162.782 268.573 162.582 268.426C162.383 268.278 162.136 268.203 161.842 268.203C161.536 268.203 161.282 268.282 161.078 268.439C160.876 268.594 160.724 268.805 160.622 269.072C160.522 269.337 160.472 269.634 160.472 269.965C160.472 270.299 160.523 270.603 160.625 270.876C160.729 271.147 160.882 271.363 161.084 271.524C161.288 271.683 161.54 271.763 161.842 271.763ZM167.42 272.424C167.122 272.424 166.852 272.368 166.609 272.255C166.366 272.141 166.174 271.977 166.031 271.763C165.888 271.547 165.817 271.286 165.817 270.98C165.817 270.711 165.87 270.493 165.976 270.326C166.082 270.156 166.224 270.024 166.401 269.928C166.579 269.832 166.774 269.761 166.988 269.714C167.204 269.665 167.422 269.626 167.64 269.598C167.925 269.561 168.157 269.533 168.334 269.515C168.513 269.495 168.644 269.461 168.725 269.414C168.809 269.367 168.851 269.286 168.851 269.17V269.145C168.851 268.843 168.768 268.609 168.603 268.442C168.44 268.274 168.192 268.191 167.86 268.191C167.515 268.191 167.245 268.266 167.05 268.417C166.854 268.568 166.716 268.729 166.637 268.9L165.952 268.656C166.074 268.37 166.237 268.148 166.441 267.989C166.647 267.828 166.871 267.716 167.114 267.653C167.358 267.587 167.599 267.555 167.835 267.555C167.986 267.555 168.16 267.573 168.355 267.61C168.553 267.644 168.744 267.717 168.927 267.827C169.113 267.937 169.267 268.103 169.389 268.325C169.511 268.548 169.573 268.845 169.573 269.218V272.313H168.851V271.677H168.814C168.765 271.779 168.684 271.888 168.569 272.005C168.455 272.121 168.303 272.22 168.114 272.301C167.924 272.383 167.693 272.424 167.42 272.424ZM167.53 271.775C167.815 271.775 168.056 271.719 168.251 271.607C168.449 271.495 168.598 271.35 168.698 271.173C168.8 270.995 168.851 270.809 168.851 270.613V269.952C168.82 269.989 168.753 270.023 168.649 270.053C168.547 270.082 168.429 270.107 168.294 270.13C168.162 270.15 168.032 270.169 167.906 270.185C167.781 270.199 167.681 270.211 167.603 270.222C167.415 270.246 167.24 270.286 167.077 270.341C166.916 270.394 166.785 270.474 166.686 270.582C166.588 270.688 166.539 270.833 166.539 271.017C166.539 271.268 166.632 271.457 166.817 271.586C167.005 271.712 167.242 271.775 167.53 271.775ZM172.28 270.601L172.268 269.708H172.415L174.47 267.616H175.363L173.174 269.83H173.112L172.28 270.601ZM171.608 272.313V266.05H172.329V272.313H171.608ZM174.593 272.313L172.758 269.989L173.271 269.488L175.51 272.313H174.593ZM183.673 267.616C183.636 267.306 183.487 267.065 183.226 266.894C182.965 266.723 182.645 266.637 182.266 266.637C181.989 266.637 181.746 266.682 181.538 266.772C181.332 266.862 181.171 266.985 181.055 267.142C180.941 267.299 180.884 267.477 180.884 267.677C180.884 267.844 180.924 267.988 181.003 268.108C181.085 268.227 181.189 268.325 181.315 268.405C181.441 268.482 181.574 268.547 181.713 268.598C181.851 268.647 181.979 268.686 182.095 268.717L182.731 268.888C182.894 268.931 183.076 268.99 183.275 269.066C183.477 269.141 183.67 269.244 183.853 269.374C184.039 269.503 184.192 269.668 184.312 269.87C184.432 270.072 184.493 270.319 184.493 270.613C184.493 270.952 184.404 271.257 184.226 271.531C184.051 271.804 183.794 272.021 183.456 272.182C183.119 272.343 182.711 272.424 182.229 272.424C181.781 272.424 181.392 272.351 181.064 272.206C180.738 272.062 180.481 271.86 180.294 271.601C180.108 271.342 180.003 271.041 179.979 270.699H180.761C180.782 270.935 180.861 271.131 181 271.286C181.141 271.439 181.318 271.553 181.532 271.628C181.748 271.702 181.981 271.739 182.229 271.739C182.519 271.739 182.779 271.692 183.009 271.598C183.24 271.502 183.422 271.369 183.557 271.2C183.691 271.029 183.759 270.829 183.759 270.601C183.759 270.393 183.7 270.224 183.584 270.093C183.468 269.963 183.315 269.857 183.126 269.775C182.936 269.694 182.731 269.622 182.511 269.561L181.74 269.341C181.251 269.2 180.863 268.999 180.578 268.738C180.292 268.477 180.15 268.136 180.15 267.714C180.15 267.363 180.245 267.057 180.434 266.796C180.626 266.533 180.883 266.329 181.205 266.185C181.529 266.038 181.891 265.964 182.291 265.964C182.694 265.964 183.053 266.037 183.367 266.182C183.681 266.324 183.93 266.52 184.113 266.769C184.299 267.018 184.397 267.3 184.407 267.616H183.673ZM188.329 272.411C187.876 272.411 187.486 272.311 187.158 272.112C186.831 271.91 186.58 271.628 186.402 271.268C186.227 270.905 186.139 270.483 186.139 270.001C186.139 269.52 186.227 269.096 186.402 268.729C186.58 268.36 186.826 268.073 187.142 267.867C187.46 267.659 187.831 267.555 188.256 267.555C188.5 267.555 188.742 267.596 188.98 267.677C189.219 267.759 189.436 267.891 189.632 268.075C189.828 268.256 189.984 268.497 190.1 268.796C190.216 269.096 190.274 269.465 190.274 269.904V270.209H186.653V269.585H189.54C189.54 269.32 189.487 269.084 189.381 268.876C189.277 268.668 189.128 268.504 188.935 268.384C188.743 268.263 188.517 268.203 188.256 268.203C187.968 268.203 187.719 268.274 187.509 268.417C187.301 268.558 187.141 268.741 187.029 268.968C186.917 269.194 186.861 269.437 186.861 269.696V270.111C186.861 270.466 186.922 270.767 187.044 271.014C187.169 271.258 187.341 271.445 187.561 271.573C187.782 271.7 188.037 271.763 188.329 271.763C188.519 271.763 188.69 271.736 188.843 271.683C188.998 271.628 189.131 271.547 189.243 271.439C189.356 271.329 189.442 271.192 189.503 271.029L190.201 271.225C190.127 271.461 190.004 271.669 189.831 271.849C189.657 272.026 189.443 272.165 189.188 272.265C188.933 272.362 188.647 272.411 188.329 272.411ZM192.811 266.05V272.313H192.09V266.05H192.811ZM196.821 272.411C196.368 272.411 195.978 272.311 195.649 272.112C195.323 271.91 195.071 271.628 194.894 271.268C194.719 270.905 194.631 270.483 194.631 270.001C194.631 269.52 194.719 269.096 194.894 268.729C195.071 268.36 195.318 268.073 195.634 267.867C195.952 267.659 196.323 267.555 196.747 267.555C196.992 267.555 197.233 267.596 197.472 267.677C197.711 267.759 197.928 267.891 198.123 268.075C198.319 268.256 198.475 268.497 198.591 268.796C198.708 269.096 198.766 269.465 198.766 269.904V270.209H195.145V269.585H198.032C198.032 269.32 197.979 269.084 197.873 268.876C197.769 268.668 197.62 268.504 197.426 268.384C197.235 268.263 197.008 268.203 196.747 268.203C196.46 268.203 196.211 268.274 196.001 268.417C195.793 268.558 195.633 268.741 195.521 268.968C195.409 269.194 195.353 269.437 195.353 269.696V270.111C195.353 270.466 195.414 270.767 195.536 271.014C195.66 271.258 195.833 271.445 196.053 271.573C196.273 271.7 196.529 271.763 196.821 271.763C197.01 271.763 197.181 271.736 197.334 271.683C197.489 271.628 197.623 271.547 197.735 271.439C197.847 271.329 197.934 271.192 197.995 271.029L198.692 271.225C198.619 271.461 198.496 271.669 198.322 271.849C198.149 272.026 197.935 272.165 197.68 272.265C197.425 272.362 197.139 272.411 196.821 272.411ZM203.909 268.668L203.26 268.851C203.22 268.743 203.159 268.638 203.08 268.536C203.002 268.432 202.896 268.347 202.762 268.28C202.627 268.212 202.455 268.179 202.245 268.179C201.958 268.179 201.718 268.245 201.526 268.377C201.337 268.508 201.242 268.674 201.242 268.876C201.242 269.055 201.307 269.197 201.438 269.301C201.568 269.405 201.772 269.492 202.049 269.561L202.747 269.732C203.167 269.834 203.48 269.99 203.686 270.2C203.891 270.408 203.994 270.676 203.994 271.005C203.994 271.274 203.917 271.514 203.762 271.726C203.609 271.938 203.395 272.106 203.12 272.228C202.844 272.35 202.524 272.411 202.159 272.411C201.68 272.411 201.284 272.307 200.97 272.099C200.656 271.891 200.457 271.588 200.373 271.188L201.058 271.017C201.124 271.27 201.247 271.459 201.428 271.586C201.612 271.712 201.852 271.775 202.147 271.775C202.484 271.775 202.751 271.704 202.948 271.561C203.148 271.416 203.248 271.243 203.248 271.041C203.248 270.878 203.191 270.742 203.077 270.631C202.963 270.519 202.787 270.436 202.551 270.381L201.768 270.197C201.338 270.095 201.022 269.937 200.82 269.723C200.62 269.507 200.52 269.237 200.52 268.913C200.52 268.648 200.595 268.413 200.743 268.209C200.894 268.005 201.099 267.845 201.358 267.729C201.619 267.613 201.915 267.555 202.245 267.555C202.71 267.555 203.075 267.657 203.34 267.861C203.607 268.064 203.797 268.334 203.909 268.668ZM207.181 272.424C206.883 272.424 206.613 272.368 206.37 272.255C206.128 272.141 205.935 271.977 205.792 271.763C205.65 271.547 205.578 271.286 205.578 270.98C205.578 270.711 205.631 270.493 205.737 270.326C205.843 270.156 205.985 270.024 206.162 269.928C206.34 269.832 206.536 269.761 206.75 269.714C206.966 269.665 207.183 269.626 207.401 269.598C207.687 269.561 207.918 269.533 208.095 269.515C208.275 269.495 208.405 269.461 208.487 269.414C208.57 269.367 208.612 269.286 208.612 269.17V269.145C208.612 268.843 208.53 268.609 208.364 268.442C208.201 268.274 207.954 268.191 207.621 268.191C207.277 268.191 207.007 268.266 206.811 268.417C206.615 268.568 206.477 268.729 206.398 268.9L205.713 268.656C205.835 268.37 205.998 268.148 206.202 267.989C206.408 267.828 206.632 267.716 206.875 267.653C207.12 267.587 207.36 267.555 207.597 267.555C207.748 267.555 207.921 267.573 208.117 267.61C208.315 267.644 208.505 267.717 208.689 267.827C208.874 267.937 209.028 268.103 209.15 268.325C209.273 268.548 209.334 268.845 209.334 269.218V272.313H208.612V271.677H208.575C208.527 271.779 208.445 271.888 208.331 272.005C208.217 272.121 208.065 272.22 207.875 272.301C207.686 272.383 207.454 272.424 207.181 272.424ZM207.291 271.775C207.576 271.775 207.817 271.719 208.013 271.607C208.211 271.495 208.359 271.35 208.459 271.173C208.561 270.995 208.612 270.809 208.612 270.613V269.952C208.582 269.989 208.514 270.023 208.41 270.053C208.308 270.082 208.19 270.107 208.056 270.13C207.923 270.15 207.794 270.169 207.667 270.185C207.543 270.199 207.442 270.211 207.364 270.222C207.177 270.246 207.001 270.286 206.838 270.341C206.677 270.394 206.547 270.474 206.447 270.582C206.349 270.688 206.3 270.833 206.3 271.017C206.3 271.268 206.393 271.457 206.578 271.586C206.766 271.712 207.004 271.775 207.291 271.775ZM211.369 272.313V267.616H212.091V272.313H211.369ZM211.736 266.833C211.595 266.833 211.474 266.785 211.372 266.689C211.272 266.593 211.222 266.478 211.222 266.344C211.222 266.209 211.272 266.094 211.372 265.998C211.474 265.902 211.595 265.854 211.736 265.854C211.877 265.854 211.997 265.902 212.097 265.998C212.199 266.094 212.25 266.209 212.25 266.344C212.25 266.478 212.199 266.593 212.097 266.689C211.997 266.785 211.877 266.833 211.736 266.833Z" fill="black"/>
<rect y="261.936" width="15.0582" height="15.0582" fill="#61CDBB"/>
<rect x="108.578" y="261.936" width="15.0582" height="15.0582" fill="#E8A838"/>
</svg>
