<svg width="214" height="277" viewBox="0 0 214 277" fill="none" xmlns="http://www.w3.org/2000/svg">
<path d="M124.425 225.018C124.502 225.379 124.505 225.751 124.435 226.113C124.364 226.475 124.222 226.82 124.015 227.125C123.809 227.431 123.543 227.692 123.233 227.892C122.924 228.093 122.577 228.229 122.214 228.293C108.981 230.611 95.4113 230.167 82.3577 226.99C69.3042 223.813 57.0486 217.971 46.3607 209.831C35.6727 201.691 26.7834 191.429 20.251 179.69C13.7186 167.95 9.68417 154.987 8.40118 141.613C7.1182 128.24 8.61435 114.746 12.7957 101.979C16.977 89.2115 23.7531 77.4466 32.6985 67.4232C41.6439 57.3998 52.5653 49.3343 64.7767 43.7334C76.9881 38.1325 90.2258 35.1171 103.658 34.8767C104.027 34.8701 104.393 34.9379 104.735 35.076C105.077 35.2141 105.388 35.4197 105.649 35.6805C105.909 35.9413 106.115 36.252 106.253 36.594C106.391 36.936 106.459 37.3023 106.452 37.671L105.684 79.9725C105.671 80.6695 105.394 81.3356 104.908 81.8355C104.422 82.3355 103.765 82.6319 103.068 82.6647C96.3458 82.9807 89.7575 84.6589 83.703 87.5973C77.6484 90.5358 72.2537 94.6734 67.8461 99.7591C63.4385 104.845 60.1097 110.773 58.0617 117.184C56.0136 123.594 55.289 130.354 55.9317 137.054C56.5744 143.753 58.571 150.252 61.8006 156.156C65.0301 162.06 69.4252 167.247 74.7193 171.402C80.0135 175.558 86.0964 178.594 92.5992 180.328C99.102 182.061 105.889 182.456 112.549 181.489C113.239 181.388 113.941 181.554 114.513 181.953C115.085 182.351 115.484 182.952 115.629 183.634L124.425 225.018Z" fill="#E8A838"/>
<path d="M107.788 37.6952C107.795 37.3265 107.876 36.9629 108.026 36.6261C108.176 36.2893 108.393 35.9863 108.663 35.7351C108.933 35.4839 109.251 35.2898 109.598 35.1642C109.945 35.0386 110.313 34.9841 110.681 35.0041C133.971 36.2677 156.034 45.8425 172.865 61.9895C189.695 78.1365 200.176 99.7845 202.403 123.001C204.631 146.218 198.457 169.464 185.003 188.517C171.55 207.569 151.709 221.164 129.085 226.832C128.727 226.922 128.355 226.939 127.991 226.881C127.626 226.824 127.277 226.694 126.964 226.498C126.651 226.303 126.381 226.047 126.17 225.745C125.958 225.443 125.809 225.101 125.733 224.74L116.936 183.356C116.791 182.675 116.911 181.963 117.272 181.366C117.632 180.77 118.206 180.333 118.877 180.144C130.087 176.986 139.832 169.991 146.411 160.381C152.99 150.77 155.985 139.155 154.873 127.561C153.761 115.968 148.612 105.134 140.326 96.9493C132.04 88.765 121.143 83.7508 109.536 82.782C108.842 82.724 108.195 82.4039 107.728 81.8866C107.261 81.3694 107.008 80.6937 107.02 79.9967L107.788 37.6952Z" fill="#61CDBB"/>
<path d="M99.9076 13.4768H102.245L103.421 14.9888L104.577 16.3356L106.756 19.0673H104.189L102.69 17.225L101.921 16.1323L99.9076 13.4768ZM106.953 11.4948C106.953 12.9135 106.684 14.1206 106.146 15.1158C105.612 16.1111 104.884 16.8713 103.961 17.3965C103.042 17.9174 102.008 18.1779 100.861 18.1779C99.7043 18.1779 98.6667 17.9153 97.7476 17.3901C96.8286 16.865 96.1023 16.1048 95.5686 15.1095C95.035 14.1142 94.7682 12.9093 94.7682 11.4948C94.7682 10.076 95.035 8.86894 95.5686 7.87367C96.1023 6.8784 96.8286 6.1203 97.7476 5.59937C98.6667 5.07421 99.7043 4.81162 100.861 4.81162C102.008 4.81162 103.042 5.07421 103.961 5.59937C104.884 6.1203 105.612 6.8784 106.146 7.87367C106.684 8.86894 106.953 10.076 106.953 11.4948ZM104.164 11.4948C104.164 10.5757 104.026 9.80068 103.751 9.16963C103.48 8.53859 103.097 8.06001 102.601 7.73391C102.106 7.4078 101.525 7.24474 100.861 7.24474C100.196 7.24474 99.6154 7.4078 99.1198 7.73391C98.6243 8.06001 98.2389 8.53859 97.9636 9.16963C97.6926 9.80068 97.5571 10.5757 97.5571 11.4948C97.5571 12.4138 97.6926 13.1888 97.9636 13.8199C98.2389 14.4509 98.6243 14.9295 99.1198 15.2556C99.6154 15.5817 100.196 15.7448 100.861 15.7448C101.525 15.7448 102.106 15.5817 102.601 15.2556C103.097 14.9295 103.48 14.4509 103.751 13.8199C104.026 13.1888 104.164 12.4138 104.164 11.4948ZM109.138 18V16.0179L113.769 11.7298C114.163 11.3486 114.493 11.0056 114.76 10.7007C115.031 10.3957 115.237 10.0971 115.376 9.80491C115.516 9.50845 115.586 9.18869 115.586 8.84564C115.586 8.46447 115.499 8.13625 115.325 7.86096C115.152 7.58144 114.915 7.36756 114.614 7.21933C114.313 7.06686 113.972 6.99063 113.591 6.99063C113.193 6.99063 112.846 7.0711 112.549 7.23204C112.253 7.39297 112.024 7.62379 111.863 7.92449C111.702 8.22519 111.622 8.58306 111.622 8.99811H109.011C109.011 8.14684 109.204 7.4078 109.589 6.78099C109.974 6.15418 110.514 5.66925 111.209 5.3262C111.903 4.98315 112.704 4.81162 113.61 4.81162C114.542 4.81162 115.353 4.9768 116.043 5.30714C116.738 5.63325 117.278 6.08642 117.663 6.66664C118.049 7.24686 118.241 7.91178 118.241 8.66141C118.241 9.15269 118.144 9.63762 117.949 10.1162C117.759 10.5948 117.418 11.1263 116.926 11.7107C116.435 12.291 115.743 12.9877 114.849 13.8008L112.95 15.6622V15.7511H118.413V18H109.138Z" fill="black"/>
<path d="M86.63 143.544V139.947L95.0349 132.165C95.7497 131.473 96.3492 130.85 96.8334 130.297C97.3254 129.743 97.6981 129.202 97.9518 128.671C98.2054 128.133 98.3322 127.553 98.3322 126.93C98.3322 126.239 98.1747 125.643 97.8595 125.143C97.5444 124.636 97.114 124.248 96.5683 123.979C96.0226 123.702 95.4038 123.564 94.7121 123.564C93.9896 123.564 93.3593 123.71 92.8213 124.002C92.2832 124.294 91.8682 124.713 91.5761 125.259C91.284 125.804 91.138 126.454 91.138 127.207H86.3995C86.3995 125.662 86.7492 124.321 87.4486 123.183C88.1481 122.046 89.1281 121.166 90.3886 120.543C91.6491 119.92 93.1018 119.609 94.7466 119.609C96.4376 119.609 97.9095 119.909 99.1624 120.508C100.423 121.1 101.403 121.923 102.102 122.976C102.802 124.029 103.151 125.235 103.151 126.596C103.151 127.488 102.975 128.368 102.621 129.236C102.275 130.105 101.657 131.069 100.765 132.13C99.8733 133.183 98.6166 134.447 96.9949 135.923L93.5476 139.301V139.463H103.463V143.544H86.63ZM119.044 144.063C117.061 144.055 115.354 143.567 113.925 142.599C112.503 141.63 111.407 140.227 110.639 138.39C109.878 136.553 109.501 134.344 109.509 131.761C109.509 129.186 109.889 126.992 110.65 125.178C111.419 123.364 112.514 121.984 113.936 121.039C115.366 120.086 117.068 119.609 119.044 119.609C121.019 119.609 122.718 120.086 124.14 121.039C125.569 121.992 126.668 123.375 127.437 125.189C128.206 126.996 128.586 129.186 128.578 131.761C128.578 134.351 128.194 136.565 127.425 138.402C126.664 140.239 125.573 141.642 124.151 142.61C122.729 143.579 121.027 144.063 119.044 144.063ZM119.044 139.924C120.396 139.924 121.476 139.244 122.283 137.883C123.09 136.523 123.49 134.482 123.482 131.761C123.482 129.97 123.298 128.479 122.929 127.288C122.568 126.096 122.053 125.201 121.384 124.601C120.723 124.002 119.943 123.702 119.044 123.702C117.699 123.702 116.622 124.375 115.815 125.72C115.008 127.065 114.601 129.079 114.593 131.761C114.593 133.575 114.774 135.089 115.135 136.304C115.504 137.51 116.023 138.417 116.692 139.024C117.36 139.624 118.144 139.924 119.044 139.924Z" fill="black"/>
<path d="M175.91 112.007C176.619 112.007 177.3 112.126 177.955 112.364C178.614 112.601 179.201 112.98 179.717 113.5C180.237 114.02 180.647 114.711 180.948 115.572C181.252 116.428 181.407 117.48 181.412 118.726C181.412 119.896 181.279 120.941 181.015 121.86C180.755 122.775 180.38 123.553 179.892 124.194C179.403 124.835 178.813 125.324 178.123 125.66C177.432 125.992 176.661 126.158 175.809 126.158C174.89 126.158 174.079 125.98 173.375 125.626C172.671 125.268 172.104 124.781 171.673 124.167C171.247 123.548 170.989 122.853 170.9 122.082H173.772C173.884 122.584 174.119 122.974 174.478 123.252C174.836 123.526 175.28 123.662 175.809 123.662C176.706 123.662 177.388 123.272 177.854 122.492C178.32 121.708 178.556 120.634 178.56 119.271H178.466C178.26 119.674 177.982 120.022 177.632 120.313C177.282 120.6 176.881 120.822 176.428 120.979C175.98 121.136 175.502 121.214 174.996 121.214C174.184 121.214 173.46 121.024 172.823 120.643C172.187 120.262 171.684 119.737 171.317 119.069C170.949 118.401 170.765 117.639 170.765 116.782C170.761 115.859 170.974 115.036 171.404 114.314C171.835 113.592 172.435 113.027 173.207 112.619C173.982 112.207 174.884 112.003 175.91 112.007ZM175.93 114.294C175.478 114.294 175.074 114.402 174.72 114.617C174.37 114.832 174.092 115.121 173.886 115.484C173.684 115.848 173.585 116.253 173.59 116.702C173.59 117.154 173.689 117.562 173.886 117.926C174.088 118.284 174.361 118.571 174.706 118.787C175.056 118.997 175.455 119.103 175.904 119.103C176.24 119.103 176.551 119.04 176.838 118.914C177.125 118.789 177.374 118.616 177.585 118.396C177.8 118.172 177.968 117.914 178.089 117.623C178.21 117.332 178.271 117.022 178.271 116.695C178.266 116.26 178.163 115.861 177.961 115.498C177.76 115.135 177.482 114.843 177.128 114.623C176.773 114.404 176.374 114.294 175.93 114.294Z" fill="black"/>
<path d="M30.5206 137.815V151.589H27.6085V140.579H27.5278L24.3736 142.557V139.974L27.7834 137.815H30.5206ZM41.3648 137.815V151.589H38.4527V140.579H38.372L35.2178 142.557V139.974L38.6275 137.815H41.3648Z" fill="black"/>
<path d="M31.697 268.007H30.9385C30.8937 267.789 30.8152 267.598 30.703 267.432C30.5929 267.267 30.4584 267.129 30.2993 267.016C30.1424 266.902 29.968 266.817 29.7764 266.76C29.5847 266.702 29.3849 266.674 29.1769 266.674C28.7977 266.674 28.4542 266.77 28.1463 266.961C27.8405 267.153 27.5968 267.435 27.4154 267.809C27.2359 268.182 27.1462 268.639 27.1462 269.182C27.1462 269.724 27.2359 270.182 27.4154 270.555C27.5968 270.928 27.8405 271.21 28.1463 271.402C28.4542 271.594 28.7977 271.69 29.1769 271.69C29.3849 271.69 29.5847 271.661 29.7764 271.604C29.968 271.547 30.1424 271.462 30.2993 271.35C30.4584 271.236 30.5929 271.096 30.703 270.931C30.8152 270.764 30.8937 270.572 30.9385 270.356H31.697C31.6399 270.676 31.5359 270.963 31.385 271.216C31.2342 271.468 31.0466 271.683 30.8223 271.861C30.598 272.036 30.3462 272.17 30.0669 272.261C29.7896 272.353 29.493 272.399 29.1769 272.399C28.6428 272.399 28.1677 272.269 27.7518 272.008C27.3358 271.747 27.0086 271.376 26.7701 270.894C26.5315 270.413 26.4122 269.842 26.4122 269.182C26.4122 268.521 26.5315 267.95 26.7701 267.469C27.0086 266.988 27.3358 266.617 27.7518 266.356C28.1677 266.095 28.6428 265.964 29.1769 265.964C29.493 265.964 29.7896 266.01 30.0669 266.102C30.3462 266.194 30.598 266.328 30.8223 266.506C31.0466 266.681 31.2342 266.895 31.385 267.148C31.5359 267.399 31.6399 267.685 31.697 268.007ZM33.2978 266.723V266.05H37.9953V266.723H36.0258V272.313H35.2673V266.723H33.2978ZM46.4487 267.616C46.412 267.306 46.2632 267.065 46.0022 266.894C45.7413 266.723 45.4212 266.637 45.0419 266.637C44.7646 266.637 44.522 266.682 44.314 266.772C44.1081 266.862 43.9471 266.985 43.8308 267.142C43.7167 267.299 43.6596 267.477 43.6596 267.677C43.6596 267.844 43.6993 267.988 43.7788 268.108C43.8604 268.227 43.9644 268.325 44.0908 268.405C44.2172 268.482 44.3497 268.547 44.4884 268.598C44.627 268.647 44.7544 268.686 44.8707 268.717L45.5068 268.888C45.6699 268.931 45.8514 268.99 46.0512 269.066C46.253 269.141 46.4457 269.244 46.6292 269.374C46.8147 269.503 46.9676 269.668 47.0879 269.87C47.2082 270.072 47.2684 270.319 47.2684 270.613C47.2684 270.952 47.1797 271.257 47.0023 271.531C46.827 271.804 46.5701 272.021 46.2316 272.182C45.8952 272.343 45.4864 272.424 45.0052 272.424C44.5567 272.424 44.1683 272.351 43.84 272.206C43.5138 272.062 43.2569 271.86 43.0693 271.601C42.8838 271.342 42.7788 271.041 42.7543 270.699H43.5372C43.5576 270.935 43.6371 271.131 43.7758 271.286C43.9165 271.439 44.0938 271.553 44.3079 271.628C44.5241 271.702 44.7565 271.739 45.0052 271.739C45.2947 271.739 45.5547 271.692 45.7851 271.598C46.0155 271.502 46.198 271.369 46.3325 271.2C46.4671 271.029 46.5344 270.829 46.5344 270.601C46.5344 270.393 46.4763 270.224 46.3601 270.093C46.2438 269.963 46.0909 269.857 45.9013 269.775C45.7117 269.694 45.5068 269.622 45.2866 269.561L44.5159 269.341C44.0266 269.2 43.6392 268.999 43.3537 268.738C43.0683 268.477 42.9256 268.136 42.9256 267.714C42.9256 267.363 43.0204 267.057 43.21 266.796C43.4017 266.533 43.6585 266.329 43.9807 266.185C44.3049 266.038 44.6668 265.964 45.0664 265.964C45.4701 265.964 45.8289 266.037 46.1429 266.182C46.4569 266.324 46.7056 266.52 46.8891 266.769C47.0747 267.018 47.1725 267.3 47.1827 267.616H46.4487ZM51.1048 272.411C50.6521 272.411 50.2617 272.311 49.9334 272.112C49.6072 271.91 49.3554 271.628 49.178 271.268C49.0027 270.905 48.915 270.483 48.915 270.001C48.915 269.52 49.0027 269.096 49.178 268.729C49.3554 268.36 49.6021 268.073 49.9181 267.867C50.2362 267.659 50.6073 267.555 51.0314 267.555C51.276 267.555 51.5176 267.596 51.7562 267.677C51.9947 267.759 52.2119 267.891 52.4076 268.075C52.6033 268.256 52.7593 268.497 52.8755 268.796C52.9917 269.096 53.0499 269.465 53.0499 269.904V270.209H49.4288V269.585H52.3159C52.3159 269.32 52.2628 269.084 52.1568 268.876C52.0528 268.668 51.904 268.504 51.7103 268.384C51.5187 268.263 51.2923 268.203 51.0314 268.203C50.7439 268.203 50.4951 268.274 50.2851 268.417C50.0772 268.558 49.9171 268.741 49.805 268.968C49.6928 269.194 49.6368 269.437 49.6368 269.696V270.111C49.6368 270.466 49.6979 270.767 49.8203 271.014C49.9446 271.258 50.1169 271.445 50.3371 271.573C50.5573 271.7 50.8132 271.763 51.1048 271.763C51.2944 271.763 51.4656 271.736 51.6186 271.683C51.7735 271.628 51.9071 271.547 52.0192 271.439C52.1313 271.329 52.218 271.192 52.2792 271.029L52.9765 271.225C52.9031 271.461 52.7797 271.669 52.6064 271.849C52.4331 272.026 52.219 272.165 51.9642 272.265C51.7093 272.362 51.4228 272.411 51.1048 272.411ZM55.5872 266.05V272.313H54.8655V266.05H55.5872ZM59.5964 272.411C59.1438 272.411 58.7533 272.311 58.4251 272.112C58.0989 271.91 57.8471 271.628 57.6697 271.268C57.4943 270.905 57.4067 270.483 57.4067 270.001C57.4067 269.52 57.4943 269.096 57.6697 268.729C57.8471 268.36 58.0938 268.073 58.4098 267.867C58.7279 267.659 59.0989 267.555 59.523 267.555C59.7677 267.555 60.0093 267.596 60.2478 267.677C60.4864 267.759 60.7035 267.891 60.8993 268.075C61.095 268.256 61.251 268.497 61.3672 268.796C61.4834 269.096 61.5415 269.465 61.5415 269.904V270.209H57.9205V269.585H60.8075C60.8075 269.32 60.7545 269.084 60.6485 268.876C60.5445 268.668 60.3957 268.504 60.202 268.384C60.0103 268.263 59.784 268.203 59.523 268.203C59.2355 268.203 58.9868 268.274 58.7768 268.417C58.5688 268.558 58.4088 268.741 58.2966 268.968C58.1845 269.194 58.1284 269.437 58.1284 269.696V270.111C58.1284 270.466 58.1896 270.767 58.3119 271.014C58.4363 271.258 58.6086 271.445 58.8288 271.573C59.049 271.7 59.3049 271.763 59.5964 271.763C59.786 271.763 59.9573 271.736 60.1102 271.683C60.2652 271.628 60.3987 271.547 60.5109 271.439C60.623 271.329 60.7096 271.192 60.7708 271.029L61.4681 271.225C61.3947 271.461 61.2714 271.669 61.098 271.849C60.9247 272.026 60.7107 272.165 60.4558 272.265C60.2009 272.362 59.9145 272.411 59.5964 272.411ZM66.6846 268.668L66.0362 268.851C65.9954 268.743 65.9353 268.638 65.8558 268.536C65.7783 268.432 65.6723 268.347 65.5377 268.28C65.4031 268.212 65.2308 268.179 65.0208 268.179C64.7334 268.179 64.4938 268.245 64.3021 268.377C64.1125 268.508 64.0177 268.674 64.0177 268.876C64.0177 269.055 64.083 269.197 64.2134 269.301C64.3439 269.405 64.5478 269.492 64.8251 269.561L65.5224 269.732C65.9424 269.834 66.2554 269.99 66.4613 270.2C66.6672 270.408 66.7702 270.676 66.7702 271.005C66.7702 271.274 66.6927 271.514 66.5378 271.726C66.3848 271.938 66.1708 272.106 65.8955 272.228C65.6203 272.35 65.3002 272.411 64.9352 272.411C64.4561 272.411 64.0595 272.307 63.7455 272.099C63.4315 271.891 63.2327 271.588 63.1492 271.188L63.8342 271.017C63.8995 271.27 64.0228 271.459 64.2043 271.586C64.3878 271.712 64.6273 271.775 64.923 271.775C65.2594 271.775 65.5265 271.704 65.7243 271.561C65.9241 271.416 66.024 271.243 66.024 271.041C66.024 270.878 65.9669 270.742 65.8527 270.631C65.7385 270.519 65.5632 270.436 65.3267 270.381L64.5437 270.197C64.1135 270.095 63.7975 269.937 63.5957 269.723C63.3959 269.507 63.296 269.237 63.296 268.913C63.296 268.648 63.3704 268.413 63.5192 268.209C63.6701 268.005 63.875 267.845 64.1339 267.729C64.3949 267.613 64.6905 267.555 65.0208 267.555C65.4857 267.555 65.8507 267.657 66.1157 267.861C66.3828 268.064 66.5724 268.334 66.6846 268.668ZM69.9567 272.424C69.659 272.424 69.3889 272.368 69.1462 272.255C68.9036 272.141 68.7109 271.977 68.5682 271.763C68.4255 271.547 68.3541 271.286 68.3541 270.98C68.3541 270.711 68.4072 270.493 68.5132 270.326C68.6192 270.156 68.7609 270.024 68.9383 269.928C69.1157 269.832 69.3114 269.761 69.5255 269.714C69.7416 269.665 69.9587 269.626 70.1769 269.598C70.4623 269.561 70.6937 269.533 70.8711 269.515C71.0506 269.495 71.181 269.461 71.2626 269.414C71.3462 269.367 71.388 269.286 71.388 269.17V269.145C71.388 268.843 71.3054 268.609 71.1403 268.442C70.9772 268.274 70.7294 268.191 70.3971 268.191C70.0525 268.191 69.7824 268.266 69.5866 268.417C69.3909 268.568 69.2533 268.729 69.1738 268.9L68.4887 268.656C68.611 268.37 68.7742 268.148 68.978 267.989C69.184 267.828 69.4082 267.716 69.6509 267.653C69.8955 267.587 70.1361 267.555 70.3726 267.555C70.5235 267.555 70.6968 267.573 70.8925 267.61C71.0903 267.644 71.2809 267.717 71.4644 267.827C71.65 267.937 71.8039 268.103 71.9262 268.325C72.0486 268.548 72.1097 268.845 72.1097 269.218V272.313H71.388V271.677H71.3513C71.3024 271.779 71.2208 271.888 71.1066 272.005C70.9924 272.121 70.8405 272.22 70.6509 272.301C70.4613 272.383 70.2299 272.424 69.9567 272.424ZM70.0668 271.775C70.3522 271.775 70.5928 271.719 70.7886 271.607C70.9863 271.495 71.1352 271.35 71.2351 271.173C71.337 270.995 71.388 270.809 71.388 270.613V269.952C71.3574 269.989 71.2901 270.023 71.1861 270.053C71.0842 270.082 70.9659 270.107 70.8314 270.13C70.6988 270.15 70.5694 270.169 70.443 270.185C70.3186 270.199 70.2177 270.211 70.1402 270.222C69.9526 270.246 69.7773 270.286 69.6142 270.341C69.4531 270.394 69.3226 270.474 69.2227 270.582C69.1248 270.688 69.0759 270.833 69.0759 271.017C69.0759 271.268 69.1687 271.457 69.3542 271.586C69.5418 271.712 69.7793 271.775 70.0668 271.775ZM74.1448 272.313V267.616H74.8666V272.313H74.1448ZM74.5118 266.833C74.3711 266.833 74.2498 266.785 74.1479 266.689C74.0479 266.593 73.998 266.478 73.998 266.344C73.998 266.209 74.0479 266.094 74.1479 265.998C74.2498 265.902 74.3711 265.854 74.5118 265.854C74.6525 265.854 74.7728 265.902 74.8727 265.998C74.9746 266.094 75.0256 266.209 75.0256 266.344C75.0256 266.478 74.9746 266.593 74.8727 266.689C74.7728 266.785 74.6525 266.833 74.5118 266.833Z" fill="black"/>
<path d="M140.275 268.007H139.516C139.471 267.789 139.393 267.598 139.281 267.432C139.17 267.267 139.036 267.129 138.877 267.016C138.72 266.902 138.546 266.817 138.354 266.76C138.162 266.702 137.962 266.674 137.754 266.674C137.375 266.674 137.032 266.77 136.724 266.961C136.418 267.153 136.174 267.435 135.993 267.809C135.813 268.182 135.724 268.639 135.724 269.182C135.724 269.724 135.813 270.182 135.993 270.555C136.174 270.928 136.418 271.21 136.724 271.402C137.032 271.594 137.375 271.69 137.754 271.69C137.962 271.69 138.162 271.661 138.354 271.604C138.546 271.547 138.72 271.462 138.877 271.35C139.036 271.236 139.17 271.096 139.281 270.931C139.393 270.764 139.471 270.572 139.516 270.356H140.275C140.217 270.676 140.113 270.963 139.963 271.216C139.812 271.468 139.624 271.683 139.4 271.861C139.176 272.036 138.924 272.17 138.644 272.261C138.367 272.353 138.07 272.399 137.754 272.399C137.22 272.399 136.745 272.269 136.329 272.008C135.913 271.747 135.586 271.376 135.348 270.894C135.109 270.413 134.99 269.842 134.99 269.182C134.99 268.521 135.109 267.95 135.348 267.469C135.586 266.988 135.913 266.617 136.329 266.356C136.745 266.095 137.22 265.964 137.754 265.964C138.07 265.964 138.367 266.01 138.644 266.102C138.924 266.194 139.176 266.328 139.4 266.506C139.624 266.681 139.812 266.895 139.963 267.148C140.113 267.399 140.217 267.685 140.275 268.007ZM141.875 266.723V266.05H146.573V266.723H144.603V272.313H143.845V266.723H141.875ZM151.258 266.723V266.05H155.956V266.723H153.986V272.313H153.228V266.723H151.258ZM157.746 272.313V267.616H158.468V272.313H157.746ZM158.113 266.833C157.973 266.833 157.851 266.785 157.749 266.689C157.65 266.593 157.6 266.478 157.6 266.344C157.6 266.209 157.65 266.094 157.749 265.998C157.851 265.902 157.973 265.854 158.113 265.854C158.254 265.854 158.374 265.902 158.474 265.998C158.576 266.094 158.627 266.209 158.627 266.344C158.627 266.478 158.576 266.593 158.474 266.689C158.374 266.785 158.254 266.833 158.113 266.833ZM162.282 272.411C161.89 272.411 161.545 272.312 161.245 272.115C160.945 271.915 160.711 271.634 160.541 271.271C160.372 270.906 160.288 270.474 160.288 269.977C160.288 269.484 160.372 269.055 160.541 268.692C160.711 268.33 160.946 268.049 161.248 267.851C161.55 267.654 161.898 267.555 162.294 267.555C162.6 267.555 162.841 267.606 163.019 267.708C163.198 267.808 163.335 267.922 163.428 268.05C163.524 268.177 163.599 268.281 163.652 268.362H163.713V266.05H164.435V272.313H163.737V271.592H163.652C163.599 271.677 163.523 271.785 163.425 271.916C163.328 272.044 163.188 272.16 163.006 272.261C162.825 272.361 162.583 272.411 162.282 272.411ZM162.379 271.763C162.669 271.763 162.914 271.688 163.113 271.537C163.313 271.384 163.465 271.173 163.569 270.904C163.673 270.632 163.725 270.319 163.725 269.965C163.725 269.614 163.674 269.307 163.572 269.044C163.47 268.779 163.319 268.573 163.12 268.426C162.92 268.278 162.673 268.203 162.379 268.203C162.074 268.203 161.819 268.282 161.615 268.439C161.413 268.594 161.261 268.805 161.159 269.072C161.059 269.337 161.009 269.634 161.009 269.965C161.009 270.299 161.06 270.603 161.162 270.876C161.266 271.147 161.419 271.363 161.621 271.524C161.825 271.683 162.078 271.763 162.379 271.763ZM167.957 272.424C167.659 272.424 167.389 272.368 167.146 272.255C166.904 272.141 166.711 271.977 166.568 271.763C166.426 271.547 166.354 271.286 166.354 270.98C166.354 270.711 166.407 270.493 166.513 270.326C166.619 270.156 166.761 270.024 166.938 269.928C167.116 269.832 167.311 269.761 167.526 269.714C167.742 269.665 167.959 269.626 168.177 269.598C168.462 269.561 168.694 269.533 168.871 269.515C169.051 269.495 169.181 269.461 169.263 269.414C169.346 269.367 169.388 269.286 169.388 269.17V269.145C169.388 268.843 169.306 268.609 169.14 268.442C168.977 268.274 168.73 268.191 168.397 268.191C168.053 268.191 167.782 268.266 167.587 268.417C167.391 268.568 167.253 268.729 167.174 268.9L166.489 268.656C166.611 268.37 166.774 268.148 166.978 267.989C167.184 267.828 167.408 267.716 167.651 267.653C167.896 267.587 168.136 267.555 168.373 267.555C168.524 267.555 168.697 267.573 168.893 267.61C169.09 267.644 169.281 267.717 169.465 267.827C169.65 267.937 169.804 268.103 169.926 268.325C170.049 268.548 170.11 268.845 170.11 269.218V272.313H169.388V271.677H169.351C169.302 271.779 169.221 271.888 169.107 272.005C168.993 272.121 168.841 272.22 168.651 272.301C168.461 272.383 168.23 272.424 167.957 272.424ZM168.067 271.775C168.352 271.775 168.593 271.719 168.789 271.607C168.986 271.495 169.135 271.35 169.235 271.173C169.337 270.995 169.388 270.809 169.388 270.613V269.952C169.357 269.989 169.29 270.023 169.186 270.053C169.084 270.082 168.966 270.107 168.831 270.13C168.699 270.15 168.569 270.169 168.443 270.185C168.319 270.199 168.218 270.211 168.14 270.222C167.953 270.246 167.777 270.286 167.614 270.341C167.453 270.394 167.323 270.474 167.223 270.582C167.125 270.688 167.076 270.833 167.076 271.017C167.076 271.268 167.169 271.457 167.354 271.586C167.542 271.712 167.779 271.775 168.067 271.775ZM172.818 270.601L172.805 269.708H172.952L175.007 267.616H175.9L173.711 269.83H173.65L172.818 270.601ZM172.145 272.313V266.05H172.867V272.313H172.145ZM175.13 272.313L173.295 269.989L173.809 269.488L176.047 272.313H175.13ZM184.21 267.616C184.173 267.306 184.025 267.065 183.764 266.894C183.503 266.723 183.183 266.637 182.803 266.637C182.526 266.637 182.283 266.682 182.075 266.772C181.87 266.862 181.708 266.985 181.592 267.142C181.478 267.299 181.421 267.477 181.421 267.677C181.421 267.844 181.461 267.988 181.54 268.108C181.622 268.227 181.726 268.325 181.852 268.405C181.979 268.482 182.111 268.547 182.25 268.598C182.388 268.647 182.516 268.686 182.632 268.717L183.268 268.888C183.431 268.931 183.613 268.99 183.813 269.066C184.014 269.141 184.207 269.244 184.391 269.374C184.576 269.503 184.729 269.668 184.849 269.87C184.97 270.072 185.03 270.319 185.03 270.613C185.03 270.952 184.941 271.257 184.764 271.531C184.588 271.804 184.331 272.021 183.993 272.182C183.657 272.343 183.248 272.424 182.767 272.424C182.318 272.424 181.93 272.351 181.601 272.206C181.275 272.062 181.018 271.86 180.831 271.601C180.645 271.342 180.54 271.041 180.516 270.699H181.299C181.319 270.935 181.399 271.131 181.537 271.286C181.678 271.439 181.855 271.553 182.069 271.628C182.285 271.702 182.518 271.739 182.767 271.739C183.056 271.739 183.316 271.692 183.547 271.598C183.777 271.502 183.959 271.369 184.094 271.2C184.229 271.029 184.296 270.829 184.296 270.601C184.296 270.393 184.238 270.224 184.121 270.093C184.005 269.963 183.852 269.857 183.663 269.775C183.473 269.694 183.268 269.622 183.048 269.561L182.277 269.341C181.788 269.2 181.401 268.999 181.115 268.738C180.83 268.477 180.687 268.136 180.687 267.714C180.687 267.363 180.782 267.057 180.971 266.796C181.163 266.533 181.42 266.329 181.742 266.185C182.066 266.038 182.428 265.964 182.828 265.964C183.232 265.964 183.59 266.037 183.904 266.182C184.218 266.324 184.467 266.52 184.651 266.769C184.836 267.018 184.934 267.3 184.944 267.616H184.21ZM188.866 272.411C188.414 272.411 188.023 272.311 187.695 272.112C187.369 271.91 187.117 271.628 186.939 271.268C186.764 270.905 186.676 270.483 186.676 270.001C186.676 269.52 186.764 269.096 186.939 268.729C187.117 268.36 187.364 268.073 187.68 267.867C187.998 267.659 188.369 267.555 188.793 267.555C189.037 267.555 189.279 267.596 189.518 267.677C189.756 267.759 189.973 267.891 190.169 268.075C190.365 268.256 190.521 268.497 190.637 268.796C190.753 269.096 190.811 269.465 190.811 269.904V270.209H187.19V269.585H190.077C190.077 269.32 190.024 269.084 189.918 268.876C189.814 268.668 189.665 268.504 189.472 268.384C189.28 268.263 189.054 268.203 188.793 268.203C188.505 268.203 188.257 268.274 188.047 268.417C187.839 268.558 187.679 268.741 187.566 268.968C187.454 269.194 187.398 269.437 187.398 269.696V270.111C187.398 270.466 187.459 270.767 187.582 271.014C187.706 271.258 187.878 271.445 188.099 271.573C188.319 271.7 188.575 271.763 188.866 271.763C189.056 271.763 189.227 271.736 189.38 271.683C189.535 271.628 189.668 271.547 189.781 271.439C189.893 271.329 189.979 271.192 190.041 271.029L190.738 271.225C190.664 271.461 190.541 271.669 190.368 271.849C190.195 272.026 189.98 272.165 189.726 272.265C189.471 272.362 189.184 272.411 188.866 272.411ZM193.349 266.05V272.313H192.627V266.05H193.349ZM197.358 272.411C196.905 272.411 196.515 272.311 196.187 272.112C195.86 271.91 195.608 271.628 195.431 271.268C195.256 270.905 195.168 270.483 195.168 270.001C195.168 269.52 195.256 269.096 195.431 268.729C195.608 268.36 195.855 268.073 196.171 267.867C196.489 267.659 196.86 267.555 197.284 267.555C197.529 267.555 197.771 267.596 198.009 267.677C198.248 267.759 198.465 267.891 198.661 268.075C198.856 268.256 199.012 268.497 199.129 268.796C199.245 269.096 199.303 269.465 199.303 269.904V270.209H195.682V269.585H198.569C198.569 269.32 198.516 269.084 198.41 268.876C198.306 268.668 198.157 268.504 197.963 268.384C197.772 268.263 197.545 268.203 197.284 268.203C196.997 268.203 196.748 268.274 196.538 268.417C196.33 268.558 196.17 268.741 196.058 268.968C195.946 269.194 195.89 269.437 195.89 269.696V270.111C195.89 270.466 195.951 270.767 196.073 271.014C196.198 271.258 196.37 271.445 196.59 271.573C196.81 271.7 197.066 271.763 197.358 271.763C197.547 271.763 197.719 271.736 197.872 271.683C198.027 271.628 198.16 271.547 198.272 271.439C198.384 271.329 198.471 271.192 198.532 271.029L199.23 271.225C199.156 271.461 199.033 271.669 198.859 271.849C198.686 272.026 198.472 272.165 198.217 272.265C197.962 272.362 197.676 272.411 197.358 272.411ZM204.446 268.668L203.798 268.851C203.757 268.743 203.697 268.638 203.617 268.536C203.54 268.432 203.434 268.347 203.299 268.28C203.165 268.212 202.992 268.179 202.782 268.179C202.495 268.179 202.255 268.245 202.064 268.377C201.874 268.508 201.779 268.674 201.779 268.876C201.779 269.055 201.844 269.197 201.975 269.301C202.105 269.405 202.309 269.492 202.587 269.561L203.284 269.732C203.704 269.834 204.017 269.99 204.223 270.2C204.429 270.408 204.532 270.676 204.532 271.005C204.532 271.274 204.454 271.514 204.299 271.726C204.146 271.938 203.932 272.106 203.657 272.228C203.382 272.35 203.062 272.411 202.697 272.411C202.218 272.411 201.821 272.307 201.507 272.099C201.193 271.891 200.994 271.588 200.911 271.188L201.596 271.017C201.661 271.27 201.784 271.459 201.966 271.586C202.149 271.712 202.389 271.775 202.684 271.775C203.021 271.775 203.288 271.704 203.486 271.561C203.685 271.416 203.785 271.243 203.785 271.041C203.785 270.878 203.728 270.742 203.614 270.631C203.5 270.519 203.325 270.436 203.088 270.381L202.305 270.197C201.875 270.095 201.559 269.937 201.357 269.723C201.157 269.507 201.057 269.237 201.057 268.913C201.057 268.648 201.132 268.413 201.281 268.209C201.432 268.005 201.636 267.845 201.895 267.729C202.156 267.613 202.452 267.555 202.782 267.555C203.247 267.555 203.612 267.657 203.877 267.861C204.144 268.064 204.334 268.334 204.446 268.668ZM207.718 272.424C207.42 272.424 207.15 272.368 206.908 272.255C206.665 272.141 206.472 271.977 206.33 271.763C206.187 271.547 206.116 271.286 206.116 270.98C206.116 270.711 206.169 270.493 206.275 270.326C206.381 270.156 206.522 270.024 206.7 269.928C206.877 269.832 207.073 269.761 207.287 269.714C207.503 269.665 207.72 269.626 207.938 269.598C208.224 269.561 208.455 269.533 208.633 269.515C208.812 269.495 208.942 269.461 209.024 269.414C209.108 269.367 209.149 269.286 209.149 269.17V269.145C209.149 268.843 209.067 268.609 208.902 268.442C208.739 268.274 208.491 268.191 208.159 268.191C207.814 268.191 207.544 268.266 207.348 268.417C207.152 268.568 207.015 268.729 206.935 268.9L206.25 268.656C206.372 268.37 206.536 268.148 206.739 267.989C206.945 267.828 207.17 267.716 207.412 267.653C207.657 267.587 207.898 267.555 208.134 267.555C208.285 267.555 208.458 267.573 208.654 267.61C208.852 267.644 209.042 267.717 209.226 267.827C209.411 267.937 209.565 268.103 209.688 268.325C209.81 268.548 209.871 268.845 209.871 269.218V272.313H209.149V271.677H209.113C209.064 271.779 208.982 271.888 208.868 272.005C208.754 272.121 208.602 272.22 208.412 272.301C208.223 272.383 207.991 272.424 207.718 272.424ZM207.828 271.775C208.114 271.775 208.354 271.719 208.55 271.607C208.748 271.495 208.897 271.35 208.997 271.173C209.098 270.995 209.149 270.809 209.149 270.613V269.952C209.119 269.989 209.052 270.023 208.948 270.053C208.846 270.082 208.727 270.107 208.593 270.13C208.46 270.15 208.331 270.169 208.204 270.185C208.08 270.199 207.979 270.211 207.902 270.222C207.714 270.246 207.539 270.286 207.376 270.341C207.215 270.394 207.084 270.474 206.984 270.582C206.886 270.688 206.837 270.833 206.837 271.017C206.837 271.268 206.93 271.457 207.116 271.586C207.303 271.712 207.541 271.775 207.828 271.775ZM211.906 272.313V267.616H212.628V272.313H211.906ZM212.273 266.833C212.133 266.833 212.011 266.785 211.909 266.689C211.809 266.593 211.759 266.478 211.759 266.344C211.759 266.209 211.809 266.094 211.909 265.998C212.011 265.902 212.133 265.854 212.273 265.854C212.414 265.854 212.534 265.902 212.634 265.998C212.736 266.094 212.787 266.209 212.787 266.344C212.787 266.478 212.736 266.593 212.634 266.689C212.534 266.785 212.414 266.833 212.273 266.833Z" fill="black"/>
<rect x="0.537109" y="261.936" width="15.0582" height="15.0582" fill="#61CDBB"/>
<rect x="109.115" y="261.936" width="15.0582" height="15.0582" fill="#E8A838"/>
</svg>
