<svg width="214" height="277" viewBox="0 0 214 277" fill="none" xmlns="http://www.w3.org/2000/svg">
<path d="M123.962 225.018C124.039 225.379 124.042 225.751 123.972 226.113C123.901 226.475 123.759 226.82 123.552 227.125C123.346 227.431 123.08 227.692 122.771 227.892C122.461 228.093 122.114 228.229 121.751 228.293C108.518 230.611 94.9484 230.167 81.8948 226.99C68.8413 223.813 56.5857 217.971 45.8978 209.831C35.2099 201.691 26.3205 191.429 19.7881 179.69C13.2557 167.95 9.22128 154.987 7.93829 141.613C6.65531 128.24 8.15146 114.746 12.3328 101.979C16.5141 89.2115 23.2902 77.4466 32.2356 67.4232C41.181 57.3998 52.1024 49.3343 64.3138 43.7334C76.5252 38.1325 89.7629 35.1171 103.195 34.8767C103.564 34.8701 103.93 34.9379 104.272 35.076C104.614 35.2141 104.925 35.4197 105.186 35.6805C105.446 35.9413 105.652 36.252 105.79 36.594C105.928 36.936 105.996 37.3023 105.989 37.671L105.221 79.9725C105.208 80.6695 104.931 81.3356 104.445 81.8355C103.96 82.3355 103.302 82.6319 102.605 82.6647C95.8829 82.9807 89.2946 84.6589 83.2401 87.5973C77.1855 90.5358 71.7908 94.6734 67.3832 99.7591C62.9756 104.845 59.6468 110.773 57.5988 117.184C55.5507 123.594 54.8261 130.354 55.4688 137.054C56.1115 143.753 58.1082 150.252 61.3377 156.156C64.5672 162.06 68.9623 167.247 74.2565 171.402C79.5506 175.558 85.6335 178.594 92.1363 180.328C98.6391 182.061 105.426 182.456 112.086 181.489C112.776 181.388 113.478 181.554 114.05 181.953C114.622 182.351 115.021 182.952 115.166 183.634L123.962 225.018Z" fill="#E8A838"/>
<path d="M107.325 37.6952C107.332 37.3265 107.413 36.9629 107.563 36.6261C107.714 36.2893 107.93 35.9863 108.2 35.7351C108.47 35.4839 108.788 35.2898 109.135 35.1642C109.482 35.0386 109.85 34.9841 110.218 35.0041C133.508 36.2677 155.571 45.8425 172.402 61.9895C189.232 78.1365 199.713 99.7845 201.94 123.001C204.168 146.218 197.994 169.464 184.54 188.517C171.087 207.569 151.246 221.164 128.622 226.832C128.264 226.922 127.892 226.939 127.528 226.881C127.163 226.824 126.814 226.694 126.501 226.498C126.189 226.303 125.918 226.047 125.707 225.745C125.495 225.443 125.346 225.101 125.27 224.74L116.473 183.356C116.328 182.675 116.448 181.963 116.809 181.366C117.169 180.77 117.743 180.333 118.414 180.144C129.624 176.986 139.37 169.991 145.948 160.381C152.527 150.77 155.522 139.155 154.41 127.561C153.298 115.968 148.149 105.134 139.863 96.9493C131.577 88.765 120.68 83.7508 109.074 82.782C108.379 82.724 107.732 82.4039 107.265 81.8866C106.798 81.3694 106.545 80.6937 106.557 79.9967L107.325 37.6952Z" fill="#61CDBB"/>
<path d="M99.4448 13.4768H101.783L102.958 14.9888L104.114 16.3356L106.293 19.0673H103.727L102.227 17.225L101.459 16.1323L99.4448 13.4768ZM106.49 11.4948C106.49 12.9135 106.221 14.1206 105.683 15.1158C105.15 16.1111 104.421 16.8713 103.498 17.3965C102.579 17.9174 101.545 18.1779 100.398 18.1779C99.2415 18.1779 98.2039 17.9153 97.2849 17.3901C96.3658 16.865 95.6395 16.1048 95.1059 15.1095C94.5722 14.1142 94.3054 12.9093 94.3054 11.4948C94.3054 10.076 94.5722 8.86894 95.1059 7.87367C95.6395 6.8784 96.3658 6.1203 97.2849 5.59937C98.2039 5.07421 99.2415 4.81162 100.398 4.81162C101.545 4.81162 102.579 5.07421 103.498 5.59937C104.421 6.1203 105.15 6.8784 105.683 7.87367C106.221 8.86894 106.49 10.076 106.49 11.4948ZM103.701 11.4948C103.701 10.5757 103.564 9.80068 103.288 9.16963C103.017 8.53859 102.634 8.06001 102.138 7.73391C101.643 7.4078 101.063 7.24474 100.398 7.24474C99.7328 7.24474 99.1526 7.4078 98.6571 7.73391C98.1616 8.06001 97.7762 8.53859 97.5009 9.16963C97.2298 9.80068 97.0943 10.5757 97.0943 11.4948C97.0943 12.4138 97.2298 13.1888 97.5009 13.8199C97.7762 14.4509 98.1616 14.9295 98.6571 15.2556C99.1526 15.5817 99.7328 15.7448 100.398 15.7448C101.063 15.7448 101.643 15.5817 102.138 15.2556C102.634 14.9295 103.017 14.4509 103.288 13.8199C103.564 13.1888 103.701 12.4138 103.701 11.4948ZM113.484 18.1779C112.535 18.1779 111.691 18.0148 110.949 17.6887C110.212 17.3584 109.63 16.9052 109.202 16.3292C108.779 15.749 108.561 15.0798 108.548 14.3217H111.318C111.335 14.6394 111.439 14.9189 111.629 15.1603C111.824 15.3975 112.082 15.5817 112.404 15.713C112.726 15.8443 113.088 15.9099 113.49 15.9099C113.91 15.9099 114.28 15.8358 114.602 15.6876C114.924 15.5394 115.176 15.3339 115.358 15.0714C115.54 14.8088 115.631 14.506 115.631 14.1629C115.631 13.8156 115.534 13.5086 115.339 13.2418C115.149 12.9707 114.873 12.759 114.513 12.6065C114.158 12.454 113.734 12.3778 113.243 12.3778H112.029V10.3576H113.243C113.658 10.3576 114.024 10.2856 114.342 10.1416C114.664 9.99761 114.914 9.79856 115.091 9.54445C115.269 9.2861 115.358 8.9854 115.358 8.64235C115.358 8.31624 115.28 8.03037 115.123 7.78473C114.971 7.53485 114.755 7.34003 114.475 7.20027C114.2 7.06051 113.878 6.99063 113.51 6.99063C113.137 6.99063 112.796 7.05839 112.487 7.19392C112.178 7.32521 111.93 7.51367 111.743 7.75932C111.557 8.00496 111.458 8.29295 111.445 8.62329H108.808C108.821 7.87367 109.035 7.21298 109.45 6.64123C109.865 6.06948 110.424 5.62266 111.127 5.30079C111.835 4.97468 112.633 4.81162 113.522 4.81162C114.42 4.81162 115.206 4.97468 115.879 5.30079C116.553 5.6269 117.076 6.06736 117.448 6.62217C117.825 7.17274 118.012 7.79108 118.007 8.47718C118.012 9.20563 117.785 9.81338 117.328 10.3004C116.874 10.7875 116.284 11.0966 115.555 11.2279V11.3296C116.512 11.4524 117.241 11.7849 117.741 12.327C118.244 12.8648 118.494 13.5382 118.49 14.3472C118.494 15.0883 118.28 15.7469 117.849 16.3229C117.421 16.8989 116.83 17.352 116.076 17.6824C115.322 18.0127 114.458 18.1779 113.484 18.1779Z" fill="black"/>
<path d="M86.1673 143.544V139.947L94.5721 132.165C95.2869 131.473 95.8864 130.85 96.3707 130.297C96.8626 129.743 97.2354 129.202 97.489 128.671C97.7427 128.133 97.8695 127.553 97.8695 126.93C97.8695 126.239 97.7119 125.643 97.3968 125.143C97.0816 124.636 96.6512 124.248 96.1055 123.979C95.5598 123.702 94.941 123.564 94.2493 123.564C93.5268 123.564 92.8965 123.71 92.3585 124.002C91.8205 124.294 91.4054 124.713 91.1133 125.259C90.8213 125.804 90.6752 126.454 90.6752 127.207H85.9367C85.9367 125.662 86.2864 124.321 86.9859 123.183C87.6853 122.046 88.6653 121.166 89.9258 120.543C91.1863 119.92 92.639 119.609 94.2839 119.609C95.9748 119.609 97.4467 119.909 98.6996 120.508C99.9601 121.1 100.94 121.923 101.64 122.976C102.339 124.029 102.689 125.235 102.689 126.596C102.689 127.488 102.512 128.368 102.158 129.236C101.812 130.105 101.194 131.069 100.302 132.13C99.4106 133.183 98.1539 134.447 96.5321 135.923L93.0848 139.301V139.463H103V143.544H86.1673ZM118.581 144.063C116.598 144.055 114.891 143.567 113.462 142.599C112.04 141.63 110.945 140.227 110.176 138.39C109.415 136.553 109.038 134.344 109.046 131.761C109.046 129.186 109.427 126.992 110.188 125.178C110.956 123.364 112.051 121.984 113.473 121.039C114.903 120.086 116.605 119.609 118.581 119.609C120.556 119.609 122.255 120.086 123.677 121.039C125.106 121.992 126.206 123.375 126.974 125.189C127.743 126.996 128.123 129.186 128.116 131.761C128.116 134.351 127.731 136.565 126.963 138.402C126.202 140.239 125.11 141.642 123.688 142.61C122.266 143.579 120.564 144.063 118.581 144.063ZM118.581 139.924C119.934 139.924 121.014 139.244 121.821 137.883C122.628 136.523 123.027 134.482 123.02 131.761C123.02 129.97 122.835 128.479 122.466 127.288C122.105 126.096 121.59 125.201 120.921 124.601C120.26 124.002 119.48 123.702 118.581 123.702C117.236 123.702 116.16 124.375 115.353 125.72C114.546 127.065 114.138 129.079 114.131 131.761C114.131 133.575 114.311 135.089 114.672 136.304C115.041 137.51 115.56 138.417 116.229 139.024C116.898 139.624 117.682 139.924 118.581 139.924Z" fill="black"/>
<path d="M175.447 112.007C176.156 112.007 176.837 112.126 177.492 112.364C178.151 112.601 178.738 112.98 179.254 113.5C179.774 114.02 180.184 114.711 180.485 115.572C180.79 116.428 180.944 117.48 180.949 118.726C180.949 119.896 180.816 120.941 180.552 121.86C180.292 122.775 179.918 123.553 179.429 124.194C178.94 124.835 178.35 125.324 177.66 125.66C176.97 125.992 176.198 126.158 175.346 126.158C174.427 126.158 173.616 125.98 172.912 125.626C172.208 125.268 171.641 124.781 171.21 124.167C170.784 123.548 170.527 122.853 170.437 122.082H173.309C173.421 122.584 173.656 122.974 174.015 123.252C174.374 123.526 174.817 123.662 175.346 123.662C176.243 123.662 176.925 123.272 177.391 122.492C177.857 121.708 178.093 120.634 178.097 119.271H178.003C177.797 119.674 177.519 120.022 177.169 120.313C176.819 120.6 176.418 120.822 175.965 120.979C175.517 121.136 175.039 121.214 174.533 121.214C173.721 121.214 172.997 121.024 172.36 120.643C171.724 120.262 171.222 119.737 170.854 119.069C170.486 118.401 170.302 117.639 170.302 116.782C170.298 115.859 170.511 115.036 170.941 114.314C171.372 113.592 171.973 113.027 172.744 112.619C173.519 112.207 174.421 112.003 175.447 112.007ZM175.468 114.294C175.015 114.294 174.611 114.402 174.257 114.617C173.907 114.832 173.629 115.121 173.423 115.484C173.221 115.848 173.123 116.253 173.127 116.702C173.127 117.154 173.226 117.562 173.423 117.926C173.625 118.284 173.898 118.571 174.244 118.787C174.593 118.997 174.992 119.103 175.441 119.103C175.777 119.103 176.089 119.04 176.375 118.914C176.662 118.789 176.911 118.616 177.122 118.396C177.337 118.172 177.505 117.914 177.626 117.623C177.747 117.332 177.808 117.022 177.808 116.695C177.803 116.26 177.7 115.861 177.499 115.498C177.297 115.135 177.019 114.843 176.665 114.623C176.31 114.404 175.911 114.294 175.468 114.294Z" fill="black"/>
<path d="M30.0577 137.815V151.589H27.1456V140.579H27.0649L23.9107 142.557V139.974L27.3205 137.815H30.0577ZM40.9019 137.815V151.589H37.9898V140.579H37.9091L34.7549 142.557V139.974L38.1646 137.815H40.9019Z" fill="black"/>
<path d="M31.2341 268.007H30.4756C30.4308 267.789 30.3523 267.598 30.2402 267.432C30.1301 267.267 29.9955 267.129 29.8365 267.016C29.6795 266.902 29.5051 266.817 29.3135 266.76C29.1218 266.702 28.922 266.674 28.7141 266.674C28.3348 266.674 27.9913 266.77 27.6834 266.961C27.3776 267.153 27.1339 267.435 26.9525 267.809C26.773 268.182 26.6833 268.639 26.6833 269.182C26.6833 269.724 26.773 270.182 26.9525 270.555C27.1339 270.928 27.3776 271.21 27.6834 271.402C27.9913 271.594 28.3348 271.69 28.7141 271.69C28.922 271.69 29.1218 271.661 29.3135 271.604C29.5051 271.547 29.6795 271.462 29.8365 271.35C29.9955 271.236 30.1301 271.096 30.2402 270.931C30.3523 270.764 30.4308 270.572 30.4756 270.356H31.2341C31.177 270.676 31.073 270.963 30.9222 271.216C30.7713 271.468 30.5837 271.683 30.3594 271.861C30.1351 272.036 29.8833 272.17 29.604 272.261C29.3267 272.353 29.0301 272.399 28.7141 272.399C28.1799 272.399 27.7048 272.269 27.2889 272.008C26.873 271.747 26.5457 271.376 26.3072 270.894C26.0686 270.413 25.9493 269.842 25.9493 269.182C25.9493 268.521 26.0686 267.95 26.3072 267.469C26.5457 266.988 26.873 266.617 27.2889 266.356C27.7048 266.095 28.1799 265.964 28.7141 265.964C29.0301 265.964 29.3267 266.01 29.604 266.102C29.8833 266.194 30.1351 266.328 30.3594 266.506C30.5837 266.681 30.7713 266.895 30.9222 267.148C31.073 267.399 31.177 267.685 31.2341 268.007ZM32.8349 266.723V266.05H37.5324V266.723H35.5629V272.313H34.8044V266.723H32.8349ZM45.9859 267.616C45.9492 267.306 45.8003 267.065 45.5393 266.894C45.2784 266.723 44.9583 266.637 44.579 266.637C44.3017 266.637 44.0591 266.682 43.8512 266.772C43.6452 266.862 43.4842 266.985 43.3679 267.142C43.2538 267.299 43.1967 267.477 43.1967 267.677C43.1967 267.844 43.2364 267.988 43.316 268.108C43.3975 268.227 43.5015 268.325 43.6279 268.405C43.7543 268.482 43.8868 268.547 44.0255 268.598C44.1641 268.647 44.2916 268.686 44.4078 268.717L45.0439 268.888C45.207 268.931 45.3885 268.99 45.5883 269.066C45.7901 269.141 45.9828 269.244 46.1663 269.374C46.3518 269.503 46.5047 269.668 46.625 269.87C46.7453 270.072 46.8055 270.319 46.8055 270.613C46.8055 270.952 46.7168 271.257 46.5394 271.531C46.3641 271.804 46.1072 272.021 45.7687 272.182C45.4323 272.343 45.0235 272.424 44.5423 272.424C44.0938 272.424 43.7054 272.351 43.3771 272.206C43.0509 272.062 42.794 271.86 42.6064 271.601C42.4209 271.342 42.3159 271.041 42.2914 270.699H43.0743C43.0947 270.935 43.1743 271.131 43.3129 271.286C43.4536 271.439 43.631 271.553 43.845 271.628C44.0612 271.702 44.2936 271.739 44.5423 271.739C44.8319 271.739 45.0918 271.692 45.3222 271.598C45.5526 271.502 45.7351 271.369 45.8696 271.2C46.0042 271.029 46.0715 270.829 46.0715 270.601C46.0715 270.393 46.0134 270.224 45.8972 270.093C45.781 269.963 45.628 269.857 45.4384 269.775C45.2488 269.694 45.0439 269.622 44.8237 269.561L44.053 269.341C43.5637 269.2 43.1763 268.999 42.8908 268.738C42.6054 268.477 42.4627 268.136 42.4627 267.714C42.4627 267.363 42.5575 267.057 42.7471 266.796C42.9388 266.533 43.1957 266.329 43.5178 266.185C43.842 266.038 44.2039 265.964 44.6035 265.964C45.0072 265.964 45.366 266.037 45.68 266.182C45.994 266.324 46.2428 266.52 46.4263 266.769C46.6118 267.018 46.7097 267.3 46.7199 267.616H45.9859ZM50.6419 272.411C50.1892 272.411 49.7988 272.311 49.4705 272.112C49.1443 271.91 48.8925 271.628 48.7151 271.268C48.5398 270.905 48.4521 270.483 48.4521 270.001C48.4521 269.52 48.5398 269.096 48.7151 268.729C48.8925 268.36 49.1392 268.073 49.4553 267.867C49.7733 267.659 50.1444 267.555 50.5685 267.555C50.8131 267.555 51.0547 267.596 51.2933 267.677C51.5318 267.759 51.749 267.891 51.9447 268.075C52.1404 268.256 52.2964 268.497 52.4126 268.796C52.5289 269.096 52.587 269.465 52.587 269.904V270.209H48.9659V269.585H51.853C51.853 269.32 51.8 269.084 51.6939 268.876C51.59 268.668 51.4411 268.504 51.2474 268.384C51.0558 268.263 50.8295 268.203 50.5685 268.203C50.281 268.203 50.0323 268.274 49.8222 268.417C49.6143 268.558 49.4542 268.741 49.3421 268.968C49.23 269.194 49.1739 269.437 49.1739 269.696V270.111C49.1739 270.466 49.2351 270.767 49.3574 271.014C49.4818 271.258 49.654 271.445 49.8742 271.573C50.0944 271.7 50.3503 271.763 50.6419 271.763C50.8315 271.763 51.0028 271.736 51.1557 271.683C51.3106 271.628 51.4442 271.547 51.5563 271.439C51.6684 271.329 51.7551 271.192 51.8163 271.029L52.5136 271.225C52.4402 271.461 52.3168 271.669 52.1435 271.849C51.9702 272.026 51.7561 272.165 51.5013 272.265C51.2464 272.362 50.9599 272.411 50.6419 272.411ZM55.1243 266.05V272.313H54.4026V266.05H55.1243ZM59.1335 272.411C58.6809 272.411 58.2905 272.311 57.9622 272.112C57.636 271.91 57.3842 271.628 57.2068 271.268C57.0314 270.905 56.9438 270.483 56.9438 270.001C56.9438 269.52 57.0314 269.096 57.2068 268.729C57.3842 268.36 57.6309 268.073 57.9469 267.867C58.265 267.659 58.636 267.555 59.0601 267.555C59.3048 267.555 59.5464 267.596 59.7849 267.677C60.0235 267.759 60.2406 267.891 60.4364 268.075C60.6321 268.256 60.7881 268.497 60.9043 268.796C61.0205 269.096 61.0786 269.465 61.0786 269.904V270.209H57.4576V269.585H60.3446C60.3446 269.32 60.2916 269.084 60.1856 268.876C60.0816 268.668 59.9328 268.504 59.7391 268.384C59.5474 268.263 59.3211 268.203 59.0601 268.203C58.7726 268.203 58.5239 268.274 58.3139 268.417C58.1059 268.558 57.9459 268.741 57.8337 268.968C57.7216 269.194 57.6655 269.437 57.6655 269.696V270.111C57.6655 270.466 57.7267 270.767 57.849 271.014C57.9734 271.258 58.1457 271.445 58.3659 271.573C58.5861 271.7 58.842 271.763 59.1335 271.763C59.3231 271.763 59.4944 271.736 59.6473 271.683C59.8023 271.628 59.9358 271.547 60.048 271.439C60.1601 271.329 60.2468 271.192 60.3079 271.029L61.0052 271.225C60.9318 271.461 60.8085 271.669 60.6352 271.849C60.4619 272.026 60.2478 272.165 59.9929 272.265C59.7381 272.362 59.4516 272.411 59.1335 272.411ZM66.2217 268.668L65.5733 268.851C65.5325 268.743 65.4724 268.638 65.3929 268.536C65.3154 268.432 65.2094 268.347 65.0748 268.28C64.9402 268.212 64.768 268.179 64.558 268.179C64.2705 268.179 64.0309 268.245 63.8392 268.377C63.6496 268.508 63.5548 268.674 63.5548 268.876C63.5548 269.055 63.6201 269.197 63.7506 269.301C63.881 269.405 64.0849 269.492 64.3622 269.561L65.0595 269.732C65.4795 269.834 65.7925 269.99 65.9984 270.2C66.2043 270.408 66.3073 270.676 66.3073 271.005C66.3073 271.274 66.2298 271.514 66.0749 271.726C65.922 271.938 65.7079 272.106 65.4326 272.228C65.1574 272.35 64.8373 272.411 64.4723 272.411C63.9932 272.411 63.5966 272.307 63.2826 272.099C62.9686 271.891 62.7699 271.588 62.6863 271.188L63.3713 271.017C63.4366 271.27 63.5599 271.459 63.7414 271.586C63.9249 271.712 64.1644 271.775 64.4601 271.775C64.7965 271.775 65.0636 271.704 65.2614 271.561C65.4612 271.416 65.5611 271.243 65.5611 271.041C65.5611 270.878 65.504 270.742 65.3898 270.631C65.2756 270.519 65.1003 270.436 64.8638 270.381L64.0809 270.197C63.6507 270.095 63.3346 269.937 63.1328 269.723C62.933 269.507 62.8331 269.237 62.8331 268.913C62.8331 268.648 62.9075 268.413 63.0563 268.209C63.2072 268.005 63.4121 267.845 63.671 267.729C63.932 267.613 64.2277 267.555 64.558 267.555C65.0228 267.555 65.3878 267.657 65.6528 267.861C65.9199 268.064 66.1095 268.334 66.2217 268.668ZM69.4938 272.424C69.1961 272.424 68.926 272.368 68.6834 272.255C68.4407 272.141 68.2481 271.977 68.1053 271.763C67.9626 271.547 67.8913 271.286 67.8913 270.98C67.8913 270.711 67.9443 270.493 68.0503 270.326C68.1563 270.156 68.298 270.024 68.4754 269.928C68.6528 269.832 68.8485 269.761 69.0626 269.714C69.2787 269.665 69.4958 269.626 69.714 269.598C69.9994 269.561 70.2309 269.533 70.4082 269.515C70.5877 269.495 70.7181 269.461 70.7997 269.414C70.8833 269.367 70.9251 269.286 70.9251 269.17V269.145C70.9251 268.843 70.8425 268.609 70.6774 268.442C70.5143 268.274 70.2665 268.191 69.9342 268.191C69.5896 268.191 69.3195 268.266 69.1238 268.417C68.928 268.568 68.7904 268.729 68.7109 268.9L68.0258 268.656C68.1481 268.37 68.3113 268.148 68.5151 267.989C68.7211 267.828 68.9453 267.716 69.188 267.653C69.4326 267.587 69.6732 267.555 69.9097 267.555C70.0606 267.555 70.2339 267.573 70.4296 267.61C70.6274 267.644 70.8181 267.717 71.0016 267.827C71.1871 267.937 71.341 268.103 71.4634 268.325C71.5857 268.548 71.6469 268.845 71.6469 269.218V272.313H70.9251V271.677H70.8884C70.8395 271.779 70.7579 271.888 70.6437 272.005C70.5296 272.121 70.3777 272.22 70.188 272.301C69.9984 272.383 69.767 272.424 69.4938 272.424ZM69.6039 271.775C69.8893 271.775 70.1299 271.719 70.3257 271.607C70.5234 271.495 70.6723 271.35 70.7722 271.173C70.8741 270.995 70.9251 270.809 70.9251 270.613V269.952C70.8945 269.989 70.8272 270.023 70.7232 270.053C70.6213 270.082 70.503 270.107 70.3685 270.13C70.236 270.15 70.1065 270.169 69.9801 270.185C69.8557 270.199 69.7548 270.211 69.6773 270.222C69.4897 270.246 69.3144 270.286 69.1513 270.341C68.9902 270.394 68.8597 270.474 68.7598 270.582C68.6619 270.688 68.613 270.833 68.613 271.017C68.613 271.268 68.7058 271.457 68.8913 271.586C69.0789 271.712 69.3164 271.775 69.6039 271.775ZM73.6819 272.313V267.616H74.4037V272.313H73.6819ZM74.0489 266.833C73.9082 266.833 73.7869 266.785 73.685 266.689C73.5851 266.593 73.5351 266.478 73.5351 266.344C73.5351 266.209 73.5851 266.094 73.685 265.998C73.7869 265.902 73.9082 265.854 74.0489 265.854C74.1896 265.854 74.3099 265.902 74.4098 265.998C74.5117 266.094 74.5627 266.209 74.5627 266.344C74.5627 266.478 74.5117 266.593 74.4098 266.689C74.3099 266.785 74.1896 266.833 74.0489 266.833Z" fill="black"/>
<path d="M139.812 268.007H139.053C139.008 267.789 138.93 267.598 138.818 267.432C138.708 267.267 138.573 267.129 138.414 267.016C138.257 266.902 138.083 266.817 137.891 266.76C137.699 266.702 137.5 266.674 137.292 266.674C136.912 266.674 136.569 266.77 136.261 266.961C135.955 267.153 135.711 267.435 135.53 267.809C135.351 268.182 135.261 268.639 135.261 269.182C135.261 269.724 135.351 270.182 135.53 270.555C135.711 270.928 135.955 271.21 136.261 271.402C136.569 271.594 136.912 271.69 137.292 271.69C137.5 271.69 137.699 271.661 137.891 271.604C138.083 271.547 138.257 271.462 138.414 271.35C138.573 271.236 138.708 271.096 138.818 270.931C138.93 270.764 139.008 270.572 139.053 270.356H139.812C139.755 270.676 139.651 270.963 139.5 271.216C139.349 271.468 139.161 271.683 138.937 271.861C138.713 272.036 138.461 272.17 138.182 272.261C137.904 272.353 137.608 272.399 137.292 272.399C136.757 272.399 136.282 272.269 135.866 272.008C135.45 271.747 135.123 271.376 134.885 270.894C134.646 270.413 134.527 269.842 134.527 269.182C134.527 268.521 134.646 267.95 134.885 267.469C135.123 266.988 135.45 266.617 135.866 266.356C136.282 266.095 136.757 265.964 137.292 265.964C137.608 265.964 137.904 266.01 138.182 266.102C138.461 266.194 138.713 266.328 138.937 266.506C139.161 266.681 139.349 266.895 139.5 267.148C139.651 267.399 139.755 267.685 139.812 268.007ZM141.412 266.723V266.05H146.11V266.723H144.14V272.313H143.382V266.723H141.412ZM150.796 266.723V266.05H155.493V266.723H153.524V272.313H152.765V266.723H150.796ZM157.283 272.313V267.616H158.005V272.313H157.283ZM157.65 266.833C157.51 266.833 157.388 266.785 157.287 266.689C157.187 266.593 157.137 266.478 157.137 266.344C157.137 266.209 157.187 266.094 157.287 265.998C157.388 265.902 157.51 265.854 157.65 265.854C157.791 265.854 157.911 265.902 158.011 265.998C158.113 266.094 158.164 266.209 158.164 266.344C158.164 266.478 158.113 266.593 158.011 266.689C157.911 266.785 157.791 266.833 157.65 266.833ZM161.819 272.411C161.427 272.411 161.082 272.312 160.782 272.115C160.482 271.915 160.248 271.634 160.079 271.271C159.909 270.906 159.825 270.474 159.825 269.977C159.825 269.484 159.909 269.055 160.079 268.692C160.248 268.33 160.483 268.049 160.785 267.851C161.087 267.654 161.435 267.555 161.831 267.555C162.137 267.555 162.378 267.606 162.556 267.708C162.735 267.808 162.872 267.922 162.966 268.05C163.061 268.177 163.136 268.281 163.189 268.362H163.25V266.05H163.972V272.313H163.274V271.592H163.189C163.136 271.677 163.06 271.785 162.963 271.916C162.865 272.044 162.725 272.16 162.544 272.261C162.362 272.361 162.12 272.411 161.819 272.411ZM161.917 271.763C162.206 271.763 162.451 271.688 162.651 271.537C162.85 271.384 163.002 271.173 163.106 270.904C163.21 270.632 163.262 270.319 163.262 269.965C163.262 269.614 163.211 269.307 163.109 269.044C163.007 268.779 162.856 268.573 162.657 268.426C162.457 268.278 162.21 268.203 161.917 268.203C161.611 268.203 161.356 268.282 161.152 268.439C160.95 268.594 160.798 268.805 160.696 269.072C160.596 269.337 160.546 269.634 160.546 269.965C160.546 270.299 160.597 270.603 160.699 270.876C160.803 271.147 160.956 271.363 161.158 271.524C161.362 271.683 161.615 271.763 161.917 271.763ZM167.494 272.424C167.196 272.424 166.926 272.368 166.683 272.255C166.441 272.141 166.248 271.977 166.105 271.763C165.963 271.547 165.891 271.286 165.891 270.98C165.891 270.711 165.944 270.493 166.05 270.326C166.156 270.156 166.298 270.024 166.475 269.928C166.653 269.832 166.849 269.761 167.063 269.714C167.279 269.665 167.496 269.626 167.714 269.598C168 269.561 168.231 269.533 168.408 269.515C168.588 269.495 168.718 269.461 168.8 269.414C168.883 269.367 168.925 269.286 168.925 269.17V269.145C168.925 268.843 168.843 268.609 168.677 268.442C168.514 268.274 168.267 268.191 167.934 268.191C167.59 268.191 167.32 268.266 167.124 268.417C166.928 268.568 166.79 268.729 166.711 268.9L166.026 268.656C166.148 268.37 166.311 268.148 166.515 267.989C166.721 267.828 166.945 267.716 167.188 267.653C167.433 267.587 167.673 267.555 167.91 267.555C168.061 267.555 168.234 267.573 168.43 267.61C168.628 267.644 168.818 267.717 169.002 267.827C169.187 267.937 169.341 268.103 169.463 268.325C169.586 268.548 169.647 268.845 169.647 269.218V272.313H168.925V271.677H168.888C168.84 271.779 168.758 271.888 168.644 272.005C168.53 272.121 168.378 272.22 168.188 272.301C167.999 272.383 167.767 272.424 167.494 272.424ZM167.604 271.775C167.889 271.775 168.13 271.719 168.326 271.607C168.524 271.495 168.672 271.35 168.772 271.173C168.874 270.995 168.925 270.809 168.925 270.613V269.952C168.895 269.989 168.827 270.023 168.723 270.053C168.621 270.082 168.503 270.107 168.369 270.13C168.236 270.15 168.107 270.169 167.98 270.185C167.856 270.199 167.755 270.211 167.677 270.222C167.49 270.246 167.314 270.286 167.151 270.341C166.99 270.394 166.86 270.474 166.76 270.582C166.662 270.688 166.613 270.833 166.613 271.017C166.613 271.268 166.706 271.457 166.891 271.586C167.079 271.712 167.317 271.775 167.604 271.775ZM172.355 270.601L172.343 269.708H172.489L174.545 267.616H175.438L173.248 269.83H173.187L172.355 270.601ZM171.682 272.313V266.05H172.404V272.313H171.682ZM174.667 272.313L172.832 269.989L173.346 269.488L175.584 272.313H174.667ZM183.747 267.616C183.711 267.306 183.562 267.065 183.301 266.894C183.04 266.723 182.72 266.637 182.34 266.637C182.063 266.637 181.821 266.682 181.613 266.772C181.407 266.862 181.246 266.985 181.129 267.142C181.015 267.299 180.958 267.477 180.958 267.677C180.958 267.844 180.998 267.988 181.077 268.108C181.159 268.227 181.263 268.325 181.389 268.405C181.516 268.482 181.648 268.547 181.787 268.598C181.926 268.647 182.053 268.686 182.169 268.717L182.805 268.888C182.968 268.931 183.15 268.99 183.35 269.066C183.552 269.141 183.744 269.244 183.928 269.374C184.113 269.503 184.266 269.668 184.386 269.87C184.507 270.072 184.567 270.319 184.567 270.613C184.567 270.952 184.478 271.257 184.301 271.531C184.125 271.804 183.869 272.021 183.53 272.182C183.194 272.343 182.785 272.424 182.304 272.424C181.855 272.424 181.467 272.351 181.139 272.206C180.812 272.062 180.555 271.86 180.368 271.601C180.182 271.342 180.077 271.041 180.053 270.699H180.836C180.856 270.935 180.936 271.131 181.074 271.286C181.215 271.439 181.392 271.553 181.606 271.628C181.823 271.702 182.055 271.739 182.304 271.739C182.593 271.739 182.853 271.692 183.084 271.598C183.314 271.502 183.497 271.369 183.631 271.2C183.766 271.029 183.833 270.829 183.833 270.601C183.833 270.393 183.775 270.224 183.659 270.093C183.542 269.963 183.389 269.857 183.2 269.775C183.01 269.694 182.805 269.622 182.585 269.561L181.814 269.341C181.325 269.2 180.938 268.999 180.652 268.738C180.367 268.477 180.224 268.136 180.224 267.714C180.224 267.363 180.319 267.057 180.509 266.796C180.7 266.533 180.957 266.329 181.279 266.185C181.603 266.038 181.965 265.964 182.365 265.964C182.769 265.964 183.127 266.037 183.441 266.182C183.755 266.324 184.004 266.52 184.188 266.769C184.373 267.018 184.471 267.3 184.481 267.616H183.747ZM188.403 272.411C187.951 272.411 187.56 272.311 187.232 272.112C186.906 271.91 186.654 271.628 186.477 271.268C186.301 270.905 186.214 270.483 186.214 270.001C186.214 269.52 186.301 269.096 186.477 268.729C186.654 268.36 186.901 268.073 187.217 267.867C187.535 267.659 187.906 267.555 188.33 267.555C188.575 267.555 188.816 267.596 189.055 267.677C189.293 267.759 189.51 267.891 189.706 268.075C189.902 268.256 190.058 268.497 190.174 268.796C190.29 269.096 190.348 269.465 190.348 269.904V270.209H186.727V269.585H189.614C189.614 269.32 189.561 269.084 189.455 268.876C189.351 268.668 189.203 268.504 189.009 268.384C188.817 268.263 188.591 268.203 188.33 268.203C188.042 268.203 187.794 268.274 187.584 268.417C187.376 268.558 187.216 268.741 187.104 268.968C186.991 269.194 186.935 269.437 186.935 269.696V270.111C186.935 270.466 186.996 270.767 187.119 271.014C187.243 271.258 187.415 271.445 187.636 271.573C187.856 271.7 188.112 271.763 188.403 271.763C188.593 271.763 188.764 271.736 188.917 271.683C189.072 271.628 189.206 271.547 189.318 271.439C189.43 271.329 189.517 271.192 189.578 271.029L190.275 271.225C190.202 271.461 190.078 271.669 189.905 271.849C189.732 272.026 189.518 272.165 189.263 272.265C189.008 272.362 188.721 272.411 188.403 272.411ZM192.886 266.05V272.313H192.164V266.05H192.886ZM196.895 272.411C196.442 272.411 196.052 272.311 195.724 272.112C195.397 271.91 195.146 271.628 194.968 271.268C194.793 270.905 194.705 270.483 194.705 270.001C194.705 269.52 194.793 269.096 194.968 268.729C195.146 268.36 195.392 268.073 195.708 267.867C196.026 267.659 196.397 267.555 196.822 267.555C197.066 267.555 197.308 267.596 197.546 267.677C197.785 267.759 198.002 267.891 198.198 268.075C198.394 268.256 198.55 268.497 198.666 268.796C198.782 269.096 198.84 269.465 198.84 269.904V270.209H195.219V269.585H198.106C198.106 269.32 198.053 269.084 197.947 268.876C197.843 268.668 197.694 268.504 197.501 268.384C197.309 268.263 197.083 268.203 196.822 268.203C196.534 268.203 196.285 268.274 196.075 268.417C195.867 268.558 195.707 268.741 195.595 268.968C195.483 269.194 195.427 269.437 195.427 269.696V270.111C195.427 270.466 195.488 270.767 195.61 271.014C195.735 271.258 195.907 271.445 196.127 271.573C196.348 271.7 196.603 271.763 196.895 271.763C197.085 271.763 197.256 271.736 197.409 271.683C197.564 271.628 197.697 271.547 197.809 271.439C197.922 271.329 198.008 271.192 198.069 271.029L198.767 271.225C198.693 271.461 198.57 271.669 198.397 271.849C198.223 272.026 198.009 272.165 197.754 272.265C197.499 272.362 197.213 272.411 196.895 272.411ZM203.983 268.668L203.335 268.851C203.294 268.743 203.234 268.638 203.154 268.536C203.077 268.432 202.971 268.347 202.836 268.28C202.702 268.212 202.529 268.179 202.319 268.179C202.032 268.179 201.792 268.245 201.601 268.377C201.411 268.508 201.316 268.674 201.316 268.876C201.316 269.055 201.381 269.197 201.512 269.301C201.642 269.405 201.846 269.492 202.124 269.561L202.821 269.732C203.241 269.834 203.554 269.99 203.76 270.2C203.966 270.408 204.069 270.676 204.069 271.005C204.069 271.274 203.991 271.514 203.836 271.726C203.683 271.938 203.469 272.106 203.194 272.228C202.919 272.35 202.599 272.411 202.234 272.411C201.755 272.411 201.358 272.307 201.044 272.099C200.73 271.891 200.531 271.588 200.448 271.188L201.133 271.017C201.198 271.27 201.321 271.459 201.503 271.586C201.686 271.712 201.926 271.775 202.222 271.775C202.558 271.775 202.825 271.704 203.023 271.561C203.223 271.416 203.323 271.243 203.323 271.041C203.323 270.878 203.265 270.742 203.151 270.631C203.037 270.519 202.862 270.436 202.625 270.381L201.842 270.197C201.412 270.095 201.096 269.937 200.894 269.723C200.694 269.507 200.594 269.237 200.594 268.913C200.594 268.648 200.669 268.413 200.818 268.209C200.969 268.005 201.174 267.845 201.432 267.729C201.693 267.613 201.989 267.555 202.319 267.555C202.784 267.555 203.149 267.657 203.414 267.861C203.681 268.064 203.871 268.334 203.983 268.668ZM207.255 272.424C206.958 272.424 206.687 272.368 206.445 272.255C206.202 272.141 206.009 271.977 205.867 271.763C205.724 271.547 205.653 271.286 205.653 270.98C205.653 270.711 205.706 270.493 205.812 270.326C205.918 270.156 206.059 270.024 206.237 269.928C206.414 269.832 206.61 269.761 206.824 269.714C207.04 269.665 207.257 269.626 207.475 269.598C207.761 269.561 207.992 269.533 208.17 269.515C208.349 269.495 208.48 269.461 208.561 269.414C208.645 269.367 208.687 269.286 208.687 269.17V269.145C208.687 268.843 208.604 268.609 208.439 268.442C208.276 268.274 208.028 268.191 207.696 268.191C207.351 268.191 207.081 268.266 206.885 268.417C206.689 268.568 206.552 268.729 206.472 268.9L205.787 268.656C205.91 268.37 206.073 268.148 206.277 267.989C206.483 267.828 206.707 267.716 206.949 267.653C207.194 267.587 207.435 267.555 207.671 267.555C207.822 267.555 207.995 267.573 208.191 267.61C208.389 267.644 208.579 267.717 208.763 267.827C208.949 267.937 209.102 268.103 209.225 268.325C209.347 268.548 209.408 268.845 209.408 269.218V272.313H208.687V271.677H208.65C208.601 271.779 208.519 271.888 208.405 272.005C208.291 272.121 208.139 272.22 207.949 272.301C207.76 272.383 207.528 272.424 207.255 272.424ZM207.365 271.775C207.651 271.775 207.891 271.719 208.087 271.607C208.285 271.495 208.434 271.35 208.534 271.173C208.636 270.995 208.687 270.809 208.687 270.613V269.952C208.656 269.989 208.589 270.023 208.485 270.053C208.383 270.082 208.264 270.107 208.13 270.13C207.997 270.15 207.868 270.169 207.742 270.185C207.617 270.199 207.516 270.211 207.439 270.222C207.251 270.246 207.076 270.286 206.913 270.341C206.752 270.394 206.621 270.474 206.521 270.582C206.423 270.688 206.374 270.833 206.374 271.017C206.374 271.268 206.467 271.457 206.653 271.586C206.84 271.712 207.078 271.775 207.365 271.775ZM211.443 272.313V267.616H212.165V272.313H211.443ZM211.81 266.833C211.67 266.833 211.548 266.785 211.446 266.689C211.346 266.593 211.297 266.478 211.297 266.344C211.297 266.209 211.346 266.094 211.446 265.998C211.548 265.902 211.67 265.854 211.81 265.854C211.951 265.854 212.071 265.902 212.171 265.998C212.273 266.094 212.324 266.209 212.324 266.344C212.324 266.478 212.273 266.593 212.171 266.689C212.071 266.785 211.951 266.833 211.81 266.833Z" fill="black"/>
<rect x="0.0743408" y="261.936" width="15.0582" height="15.0582" fill="#61CDBB"/>
<rect x="108.652" y="261.936" width="15.0582" height="15.0582" fill="#E8A838"/>
</svg>
