<svg width="268" height="278" viewBox="0 0 268 278" fill="none" xmlns="http://www.w3.org/2000/svg">
<path d="M204.422 70.2478C204.695 70.0001 205.015 69.81 205.364 69.6889C205.712 69.5677 206.081 69.518 206.449 69.5427C206.817 69.5673 207.176 69.6659 207.506 69.8325C207.835 69.9991 208.127 70.2303 208.364 70.5123C217.023 80.7841 223.465 92.7355 227.284 105.616C231.103 118.496 232.218 132.027 230.558 145.359C228.898 158.69 224.5 171.535 217.639 183.085C210.778 194.636 201.602 204.643 190.689 212.478C179.775 220.313 167.36 225.807 154.222 228.614C141.084 231.421 127.507 231.482 114.345 228.792C101.182 226.101 88.7182 220.718 77.7355 212.981C66.7528 205.243 57.4886 195.318 50.5249 183.829C50.3337 183.514 50.2081 183.163 50.1554 182.798C50.1028 182.433 50.1243 182.061 50.2186 181.705C50.3128 181.348 50.478 181.014 50.7042 180.723C50.9304 180.432 51.2129 180.189 51.535 180.009L88.483 159.398C89.0918 159.058 89.8069 158.963 90.4834 159.131C91.1598 159.299 91.7468 159.719 92.1253 160.304C95.7796 165.956 100.544 170.806 106.129 174.561C111.714 178.316 118.003 180.898 124.615 182.15C131.228 183.401 138.026 183.297 144.597 181.843C151.168 180.388 157.375 177.615 162.842 173.69C168.309 169.765 172.922 164.771 176.401 159.01C179.88 153.249 182.152 146.841 183.081 140.176C184.009 133.51 183.574 126.725 181.802 120.233C180.03 113.74 176.958 107.676 172.772 102.406C172.338 101.86 172.128 101.17 172.185 100.475C172.242 99.7803 172.561 99.1331 173.077 98.6649L204.422 70.2478Z" fill="#E8A838"/>
<path d="M50.8839 178.842C50.5618 179.022 50.2069 179.135 49.8402 179.174C49.4735 179.214 49.1026 179.179 48.7497 179.072C48.3968 178.965 48.0691 178.788 47.7861 178.551C47.5031 178.315 47.2707 178.023 47.1028 177.695C36.4815 156.93 33.6601 133.045 39.1512 110.377C44.6424 87.7088 58.0817 67.7622 77.0282 54.1601C95.9747 40.5579 119.171 34.2024 142.405 36.248C165.639 38.2936 187.368 48.6047 203.646 65.3082C203.904 65.5724 204.105 65.8856 204.239 66.2294C204.373 66.5731 204.436 66.9403 204.424 67.3089C204.413 67.6775 204.327 68.0401 204.173 68.3749C204.018 68.7097 203.797 69.0099 203.524 69.2577L172.18 97.6747C171.663 98.1429 170.988 98.3971 170.291 98.3857C169.594 98.3743 168.928 98.0981 168.427 97.6132C160.059 89.5122 149.112 84.6073 137.497 83.7546C125.882 82.9019 114.336 86.1557 104.875 92.9479C95.4142 99.7401 88.6393 109.639 85.733 120.917C82.8268 132.195 83.9737 144.136 88.9737 154.655C89.273 155.284 89.3215 156.004 89.1095 156.668C88.8974 157.332 88.4407 157.891 87.8319 158.23L50.8839 178.842Z" fill="#61CDBB"/>
<path d="M128.371 14.4768H130.708L131.884 15.9888L133.04 17.3356L135.219 20.0673H132.652L131.153 18.225L130.384 17.1323L128.371 14.4768ZM135.416 12.4948C135.416 13.9135 135.147 15.1206 134.609 16.1158C134.075 17.1111 133.347 17.8713 132.424 18.3965C131.505 18.9174 130.471 19.1779 129.324 19.1779C128.167 19.1779 127.13 18.9153 126.211 18.3901C125.292 17.865 124.565 17.1048 124.032 16.1095C123.498 15.1142 123.231 13.9093 123.231 12.4948C123.231 11.076 123.498 9.86894 124.032 8.87367C124.565 7.8784 125.292 7.1203 126.211 6.59937C127.13 6.07421 128.167 5.81162 129.324 5.81162C130.471 5.81162 131.505 6.07421 132.424 6.59937C133.347 7.1203 134.075 7.8784 134.609 8.87367C135.147 9.86894 135.416 11.076 135.416 12.4948ZM132.627 12.4948C132.627 11.5757 132.489 10.8007 132.214 10.1696C131.943 9.53859 131.56 9.06001 131.064 8.73391C130.569 8.4078 129.988 8.24474 129.324 8.24474C128.659 8.24474 128.078 8.4078 127.583 8.73391C127.087 9.06001 126.702 9.53859 126.427 10.1696C126.156 10.8007 126.02 11.5757 126.02 12.4948C126.02 13.4138 126.156 14.1888 126.427 14.8199C126.702 15.4509 127.087 15.9295 127.583 16.2556C128.078 16.5817 128.659 16.7448 129.324 16.7448C129.988 16.7448 130.569 16.5817 131.064 16.2556C131.56 15.9295 131.943 15.4509 132.214 14.8199C132.489 14.1888 132.627 13.4138 132.627 12.4948ZM137.404 16.713V14.5467L142.836 5.9895H144.703V8.98802H143.598L140.174 14.4069V14.5086H147.892V16.713H137.404ZM143.649 19V16.0523L143.7 15.093V5.9895H146.279V19H143.649Z" fill="black"/>
<path d="M115.093 144.544V140.947L123.498 133.165C124.213 132.473 124.812 131.85 125.296 131.297C125.788 130.743 126.161 130.202 126.415 129.671C126.668 129.133 126.795 128.553 126.795 127.93C126.795 127.239 126.638 126.643 126.323 126.143C126.007 125.636 125.577 125.248 125.031 124.979C124.486 124.702 123.867 124.564 123.175 124.564C122.453 124.564 121.822 124.71 121.284 125.002C120.746 125.294 120.331 125.713 120.039 126.259C119.747 126.804 119.601 127.454 119.601 128.207H114.862C114.862 126.662 115.212 125.321 115.912 124.183C116.611 123.046 117.591 122.166 118.852 121.543C120.112 120.92 121.565 120.609 123.21 120.609C124.901 120.609 126.373 120.909 127.625 121.508C128.886 122.1 129.866 122.923 130.565 123.976C131.265 125.029 131.614 126.235 131.614 127.596C131.614 128.488 131.438 129.368 131.084 130.236C130.738 131.105 130.12 132.069 129.228 133.13C128.336 134.183 127.08 135.447 125.458 136.923L122.011 140.301V140.463H131.926V144.544H115.093ZM147.507 145.063C145.524 145.055 143.817 144.567 142.388 143.599C140.966 142.63 139.87 141.227 139.102 139.39C138.341 137.553 137.964 135.344 137.972 132.761C137.972 130.186 138.352 127.992 139.113 126.178C139.882 124.364 140.977 122.984 142.399 122.039C143.829 121.086 145.531 120.609 147.507 120.609C149.482 120.609 151.181 121.086 152.603 122.039C154.032 122.992 155.131 124.375 155.9 126.189C156.669 127.996 157.049 130.186 157.041 132.761C157.041 135.351 156.657 137.565 155.888 139.402C155.127 141.239 154.036 142.642 152.614 143.61C151.192 144.579 149.49 145.063 147.507 145.063ZM147.507 140.924C148.859 140.924 149.939 140.244 150.746 138.883C151.553 137.523 151.953 135.482 151.945 132.761C151.945 130.97 151.761 129.479 151.392 128.288C151.031 127.096 150.516 126.201 149.847 125.601C149.186 125.002 148.406 124.702 147.507 124.702C146.162 124.702 145.085 125.375 144.278 126.72C143.471 128.065 143.064 130.079 143.056 132.761C143.056 134.575 143.237 136.089 143.598 137.304C143.967 138.51 144.486 139.417 145.155 140.024C145.823 140.624 146.607 140.924 147.507 140.924Z" fill="black"/>
<path d="M204.373 113.007C205.081 113.007 205.763 113.126 206.417 113.364C207.077 113.601 207.664 113.98 208.179 114.5C208.7 115.02 209.11 115.711 209.41 116.572C209.715 117.428 209.87 118.48 209.874 119.726C209.874 120.896 209.742 121.941 209.477 122.86C209.217 123.775 208.843 124.553 208.354 125.194C207.866 125.835 207.276 126.324 206.586 126.66C205.895 126.992 205.124 127.158 204.272 127.158C203.353 127.158 202.541 126.98 201.837 126.626C201.133 126.268 200.566 125.781 200.136 125.167C199.71 124.548 199.452 123.853 199.362 123.082H202.234C202.346 123.584 202.582 123.974 202.94 124.252C203.299 124.526 203.743 124.662 204.272 124.662C205.169 124.662 205.85 124.272 206.317 123.492C206.783 122.708 207.018 121.634 207.023 120.271H206.929C206.722 120.674 206.444 121.022 206.095 121.313C205.745 121.6 205.344 121.822 204.891 121.979C204.442 122.136 203.965 122.214 203.458 122.214C202.647 122.214 201.923 122.024 201.286 121.643C200.649 121.262 200.147 120.737 199.779 120.069C199.412 119.401 199.228 118.639 199.228 117.782C199.223 116.859 199.436 116.036 199.867 115.314C200.297 114.592 200.898 114.027 201.669 113.619C202.445 113.207 203.346 113.003 204.373 113.007ZM204.393 115.294C203.94 115.294 203.537 115.402 203.182 115.617C202.833 115.832 202.555 116.121 202.349 116.484C202.147 116.848 202.048 117.253 202.053 117.702C202.053 118.154 202.151 118.562 202.349 118.926C202.55 119.284 202.824 119.571 203.169 119.787C203.519 119.997 203.918 120.103 204.366 120.103C204.702 120.103 205.014 120.04 205.301 119.914C205.588 119.789 205.837 119.616 206.048 119.396C206.263 119.172 206.431 118.914 206.552 118.623C206.673 118.332 206.734 118.022 206.734 117.695C206.729 117.26 206.626 116.861 206.424 116.498C206.222 116.135 205.944 115.843 205.59 115.623C205.236 115.404 204.837 115.294 204.393 115.294Z" fill="black"/>
<path d="M58.9834 138.815V152.589H56.0713V141.579H55.9906L52.8364 143.557V140.974L56.2461 138.815H58.9834ZM69.8275 138.815V152.589H66.9154V141.579H66.8347L63.6805 143.557V140.974L67.0903 138.815H69.8275Z" fill="black"/>
<path d="M60.1598 269.007H59.4013C59.3564 268.789 59.2779 268.598 59.1658 268.432C59.0557 268.267 58.9211 268.129 58.7621 268.016C58.6051 267.902 58.4308 267.817 58.2391 267.76C58.0475 267.702 57.8477 267.674 57.6397 267.674C57.2605 267.674 56.9169 267.77 56.6091 267.961C56.3032 268.153 56.0596 268.435 55.8781 268.809C55.6987 269.182 55.609 269.639 55.609 270.182C55.609 270.724 55.6987 271.182 55.8781 271.555C56.0596 271.928 56.3032 272.21 56.6091 272.402C56.9169 272.594 57.2605 272.69 57.6397 272.69C57.8477 272.69 58.0475 272.661 58.2391 272.604C58.4308 272.547 58.6051 272.462 58.7621 272.35C58.9211 272.236 59.0557 272.096 59.1658 271.931C59.2779 271.764 59.3564 271.572 59.4013 271.356H60.1598C60.1027 271.676 59.9987 271.963 59.8478 272.216C59.6969 272.468 59.5094 272.683 59.2851 272.861C59.0608 273.036 58.809 273.17 58.5297 273.261C58.2524 273.353 57.9557 273.399 57.6397 273.399C57.1055 273.399 56.6305 273.269 56.2145 273.008C55.7986 272.747 55.4714 272.376 55.2328 271.894C54.9943 271.413 54.875 270.842 54.875 270.182C54.875 269.521 54.9943 268.95 55.2328 268.469C55.4714 267.988 55.7986 267.617 56.2145 267.356C56.6305 267.095 57.1055 266.964 57.6397 266.964C57.9557 266.964 58.2524 267.01 58.5297 267.102C58.809 267.194 59.0608 267.328 59.2851 267.506C59.5094 267.681 59.6969 267.895 59.8478 268.148C59.9987 268.399 60.1027 268.685 60.1598 269.007ZM61.7605 267.723V267.05H66.4581V267.723H64.4885V273.313H63.7301V267.723H61.7605ZM74.9115 268.616C74.8748 268.306 74.726 268.065 74.465 267.894C74.204 267.723 73.8839 267.637 73.5047 267.637C73.2274 267.637 72.9848 267.682 72.7768 267.772C72.5709 267.862 72.4098 267.985 72.2936 268.142C72.1794 268.299 72.1223 268.477 72.1223 268.677C72.1223 268.844 72.1621 268.988 72.2416 269.108C72.3232 269.227 72.4271 269.325 72.5536 269.405C72.68 269.482 72.8125 269.547 72.9511 269.598C73.0898 269.647 73.2172 269.686 73.3334 269.717L73.9696 269.888C74.1327 269.931 74.3141 269.99 74.5139 270.066C74.7158 270.141 74.9085 270.244 75.092 270.374C75.2775 270.503 75.4304 270.668 75.5507 270.87C75.671 271.072 75.7311 271.319 75.7311 271.613C75.7311 271.952 75.6425 272.257 75.4651 272.531C75.2897 272.804 75.0328 273.021 74.6944 273.182C74.358 273.343 73.9492 273.424 73.468 273.424C73.0194 273.424 72.631 273.351 72.3028 273.206C71.9766 273.062 71.7197 272.86 71.5321 272.601C71.3465 272.342 71.2415 272.041 71.2171 271.699H72C72.0204 271.935 72.0999 272.131 72.2386 272.286C72.3792 272.439 72.5566 272.553 72.7707 272.628C72.9868 272.702 73.2193 272.739 73.468 272.739C73.7575 272.739 74.0175 272.692 74.2479 272.598C74.4783 272.502 74.6607 272.369 74.7953 272.2C74.9299 272.029 74.9971 271.829 74.9971 271.601C74.9971 271.393 74.939 271.224 74.8228 271.093C74.7066 270.963 74.5537 270.857 74.3641 270.775C74.1745 270.694 73.9696 270.622 73.7494 270.561L72.9787 270.341C72.4893 270.2 72.1019 269.999 71.8165 269.738C71.5311 269.477 71.3883 269.136 71.3883 268.714C71.3883 268.363 71.4832 268.057 71.6728 267.796C71.8644 267.533 72.1213 267.329 72.4435 267.185C72.7676 267.038 73.1295 266.964 73.5292 266.964C73.9329 266.964 74.2917 267.037 74.6057 267.182C74.9197 267.324 75.1684 267.52 75.3519 267.769C75.5375 268.018 75.6353 268.3 75.6455 268.616H74.9115ZM79.5675 273.411C79.1149 273.411 78.7245 273.311 78.3962 273.112C78.07 272.91 77.8182 272.628 77.6408 272.268C77.4655 271.905 77.3778 271.483 77.3778 271.001C77.3778 270.52 77.4655 270.096 77.6408 269.729C77.8182 269.36 78.0649 269.073 78.3809 268.867C78.699 268.659 79.0701 268.555 79.4941 268.555C79.7388 268.555 79.9804 268.596 80.219 268.677C80.4575 268.759 80.6746 268.891 80.8704 269.075C81.0661 269.256 81.2221 269.497 81.3383 269.796C81.4545 270.096 81.5126 270.465 81.5126 270.904V271.209H77.8916V270.585H80.7786C80.7786 270.32 80.7256 270.084 80.6196 269.876C80.5156 269.668 80.3668 269.504 80.1731 269.384C79.9814 269.263 79.7551 269.203 79.4941 269.203C79.2067 269.203 78.9579 269.274 78.7479 269.417C78.5399 269.558 78.3799 269.741 78.2678 269.968C78.1556 270.194 78.0995 270.437 78.0995 270.696V271.111C78.0995 271.466 78.1607 271.767 78.283 272.014C78.4074 272.258 78.5797 272.445 78.7999 272.573C79.0201 272.7 79.276 272.763 79.5675 272.763C79.7572 272.763 79.9284 272.736 80.0813 272.683C80.2363 272.628 80.3698 272.547 80.482 272.439C80.5941 272.329 80.6808 272.192 80.7419 272.029L81.4392 272.225C81.3658 272.461 81.2425 272.669 81.0692 272.849C80.8959 273.026 80.6818 273.165 80.4269 273.265C80.1721 273.362 79.8856 273.411 79.5675 273.411ZM84.05 267.05V273.313H83.3282V267.05H84.05ZM88.0592 273.411C87.6066 273.411 87.2161 273.311 86.8879 273.112C86.5616 272.91 86.3098 272.628 86.1325 272.268C85.9571 271.905 85.8694 271.483 85.8694 271.001C85.8694 270.52 85.9571 270.096 86.1325 269.729C86.3098 269.36 86.5565 269.073 86.8726 268.867C87.1906 268.659 87.5617 268.555 87.9858 268.555C88.2305 268.555 88.4721 268.596 88.7106 268.677C88.9492 268.759 89.1663 268.891 89.362 269.075C89.5578 269.256 89.7137 269.497 89.8299 269.796C89.9462 270.096 90.0043 270.465 90.0043 270.904V271.209H86.3832V270.585H89.2703C89.2703 270.32 89.2173 270.084 89.1112 269.876C89.0073 269.668 88.8584 269.504 88.6647 269.384C88.4731 269.263 88.2468 269.203 87.9858 269.203C87.6983 269.203 87.4496 269.274 87.2396 269.417C87.0316 269.558 86.8715 269.741 86.7594 269.968C86.6473 270.194 86.5912 270.437 86.5912 270.696V271.111C86.5912 271.466 86.6524 271.767 86.7747 272.014C86.8991 272.258 87.0714 272.445 87.2916 272.573C87.5117 272.7 87.7676 272.763 88.0592 272.763C88.2488 272.763 88.4201 272.736 88.573 272.683C88.7279 272.628 88.8615 272.547 88.9736 272.439C89.0858 272.329 89.1724 272.192 89.2336 272.029L89.9309 272.225C89.8575 272.461 89.7341 272.669 89.5608 272.849C89.3875 273.026 89.1734 273.165 88.9186 273.265C88.6637 273.362 88.3773 273.411 88.0592 273.411ZM95.1473 269.668L94.499 269.851C94.4582 269.743 94.398 269.638 94.3185 269.536C94.2411 269.432 94.135 269.347 94.0005 269.28C93.8659 269.212 93.6936 269.179 93.4836 269.179C93.1961 269.179 92.9566 269.245 92.7649 269.377C92.5753 269.508 92.4805 269.674 92.4805 269.876C92.4805 270.055 92.5457 270.197 92.6762 270.301C92.8067 270.405 93.0106 270.492 93.2879 270.561L93.9852 270.732C94.4052 270.834 94.7181 270.99 94.9241 271.2C95.13 271.408 95.233 271.676 95.233 272.005C95.233 272.274 95.1555 272.514 95.0005 272.726C94.8476 272.938 94.6335 273.106 94.3583 273.228C94.083 273.35 93.7629 273.411 93.398 273.411C92.9188 273.411 92.5223 273.307 92.2083 273.099C91.8943 272.891 91.6955 272.588 91.6119 272.188L92.297 272.017C92.3622 272.27 92.4856 272.459 92.667 272.586C92.8505 272.712 93.0901 272.775 93.3857 272.775C93.7222 272.775 93.9892 272.704 94.187 272.561C94.3868 272.416 94.4867 272.243 94.4867 272.041C94.4867 271.878 94.4296 271.742 94.3155 271.631C94.2013 271.519 94.0259 271.436 93.7894 271.381L93.0065 271.197C92.5763 271.095 92.2603 270.937 92.0584 270.723C91.8586 270.507 91.7587 270.237 91.7587 269.913C91.7587 269.648 91.8331 269.413 91.982 269.209C92.1329 269.005 92.3378 268.845 92.5967 268.729C92.8577 268.613 93.1533 268.555 93.4836 268.555C93.9485 268.555 94.3134 268.657 94.5785 268.861C94.8456 269.064 95.0352 269.334 95.1473 269.668ZM98.4195 273.424C98.1218 273.424 97.8516 273.368 97.609 273.255C97.3664 273.141 97.1737 272.977 97.031 272.763C96.8883 272.547 96.8169 272.286 96.8169 271.98C96.8169 271.711 96.8699 271.493 96.9759 271.326C97.082 271.156 97.2237 271.024 97.401 270.928C97.5784 270.832 97.7742 270.761 97.9882 270.714C98.2044 270.665 98.4215 270.626 98.6397 270.598C98.9251 270.561 99.1565 270.533 99.3339 270.515C99.5133 270.495 99.6438 270.461 99.7254 270.414C99.809 270.367 99.8508 270.286 99.8508 270.17V270.145C99.8508 269.843 99.7682 269.609 99.603 269.442C99.4399 269.274 99.1922 269.191 98.8599 269.191C98.5153 269.191 98.2451 269.266 98.0494 269.417C97.8537 269.568 97.7161 269.729 97.6365 269.9L96.9515 269.656C97.0738 269.37 97.2369 269.148 97.4408 268.989C97.6467 268.828 97.871 268.716 98.1136 268.653C98.3583 268.587 98.5989 268.555 98.8354 268.555C98.9863 268.555 99.1596 268.573 99.3553 268.61C99.5531 268.644 99.7437 268.717 99.9272 268.827C100.113 268.937 100.267 269.103 100.389 269.325C100.511 269.548 100.573 269.845 100.573 270.218V273.313H99.8508V272.677H99.8141C99.7651 272.779 99.6836 272.888 99.5694 273.005C99.4552 273.121 99.3033 273.22 99.1137 273.301C98.9241 273.383 98.6927 273.424 98.4195 273.424ZM98.5296 272.775C98.815 272.775 99.0556 272.719 99.2513 272.607C99.4491 272.495 99.5979 272.35 99.6978 272.173C99.7998 271.995 99.8508 271.809 99.8508 271.613V270.952C99.8202 270.989 99.7529 271.023 99.6489 271.053C99.547 271.082 99.4287 271.107 99.2941 271.13C99.1616 271.15 99.0321 271.169 98.9057 271.185C98.7814 271.199 98.6804 271.211 98.603 271.222C98.4154 271.246 98.24 271.286 98.0769 271.341C97.9159 271.394 97.7854 271.474 97.6855 271.582C97.5876 271.688 97.5387 271.833 97.5387 272.017C97.5387 272.268 97.6314 272.457 97.817 272.586C98.0046 272.712 98.2421 272.775 98.5296 272.775ZM102.608 273.313V268.616H103.329V273.313H102.608ZM102.975 267.833C102.834 267.833 102.713 267.785 102.611 267.689C102.511 267.593 102.461 267.478 102.461 267.344C102.461 267.209 102.511 267.094 102.611 266.998C102.713 266.902 102.834 266.854 102.975 266.854C103.115 266.854 103.236 266.902 103.335 266.998C103.437 267.094 103.488 267.209 103.488 267.344C103.488 267.478 103.437 267.593 103.335 267.689C103.236 267.785 103.115 267.833 102.975 267.833Z" fill="black"/>
<path d="M168.737 269.007H167.979C167.934 268.789 167.855 268.598 167.743 268.432C167.633 268.267 167.499 268.129 167.34 268.016C167.183 267.902 167.008 267.817 166.817 267.76C166.625 267.702 166.425 267.674 166.217 267.674C165.838 267.674 165.494 267.77 165.187 267.961C164.881 268.153 164.637 268.435 164.456 268.809C164.276 269.182 164.187 269.639 164.187 270.182C164.187 270.724 164.276 271.182 164.456 271.555C164.637 271.928 164.881 272.21 165.187 272.402C165.494 272.594 165.838 272.69 166.217 272.69C166.425 272.69 166.625 272.661 166.817 272.604C167.008 272.547 167.183 272.462 167.34 272.35C167.499 272.236 167.633 272.096 167.743 271.931C167.855 271.764 167.934 271.572 167.979 271.356H168.737C168.68 271.676 168.576 271.963 168.425 272.216C168.274 272.468 168.087 272.683 167.863 272.861C167.638 273.036 167.387 273.17 167.107 273.261C166.83 273.353 166.533 273.399 166.217 273.399C165.683 273.399 165.208 273.269 164.792 273.008C164.376 272.747 164.049 272.376 163.81 271.894C163.572 271.413 163.453 270.842 163.453 270.182C163.453 269.521 163.572 268.95 163.81 268.469C164.049 267.988 164.376 267.617 164.792 267.356C165.208 267.095 165.683 266.964 166.217 266.964C166.533 266.964 166.83 267.01 167.107 267.102C167.387 267.194 167.638 267.328 167.863 267.506C168.087 267.681 168.274 267.895 168.425 268.148C168.576 268.399 168.68 268.685 168.737 269.007ZM170.338 267.723V267.05H175.036V267.723H173.066V273.313H172.308V267.723H170.338ZM179.721 267.723V267.05H184.419V267.723H182.449V273.313H181.691V267.723H179.721ZM186.209 273.313V268.616H186.931V273.313H186.209ZM186.576 267.833C186.435 267.833 186.314 267.785 186.212 267.689C186.112 267.593 186.062 267.478 186.062 267.344C186.062 267.209 186.112 267.094 186.212 266.998C186.314 266.902 186.435 266.854 186.576 266.854C186.717 266.854 186.837 266.902 186.937 266.998C187.039 267.094 187.09 267.209 187.09 267.344C187.09 267.478 187.039 267.593 186.937 267.689C186.837 267.785 186.717 267.833 186.576 267.833ZM190.744 273.411C190.353 273.411 190.007 273.312 189.708 273.115C189.408 272.915 189.173 272.634 189.004 272.271C188.835 271.906 188.75 271.474 188.75 270.977C188.75 270.484 188.835 270.055 189.004 269.692C189.173 269.33 189.409 269.049 189.711 268.851C190.012 268.654 190.361 268.555 190.757 268.555C191.062 268.555 191.304 268.606 191.481 268.708C191.661 268.808 191.797 268.922 191.891 269.05C191.987 269.177 192.061 269.281 192.114 269.362H192.176V267.05H192.897V273.313H192.2V272.592H192.114C192.061 272.677 191.986 272.785 191.888 272.916C191.79 273.044 191.651 273.16 191.469 273.261C191.288 273.361 191.046 273.411 190.744 273.411ZM190.842 272.763C191.132 272.763 191.376 272.688 191.576 272.537C191.776 272.384 191.928 272.173 192.032 271.904C192.136 271.632 192.188 271.319 192.188 270.965C192.188 270.614 192.137 270.307 192.035 270.044C191.933 269.779 191.782 269.573 191.582 269.426C191.383 269.278 191.136 269.203 190.842 269.203C190.536 269.203 190.282 269.282 190.078 269.439C189.876 269.594 189.724 269.805 189.622 270.072C189.522 270.337 189.472 270.634 189.472 270.965C189.472 271.299 189.523 271.603 189.625 271.876C189.729 272.147 189.882 272.363 190.084 272.524C190.288 272.683 190.54 272.763 190.842 272.763ZM196.42 273.424C196.122 273.424 195.852 273.368 195.609 273.255C195.366 273.141 195.174 272.977 195.031 272.763C194.888 272.547 194.817 272.286 194.817 271.98C194.817 271.711 194.87 271.493 194.976 271.326C195.082 271.156 195.224 271.024 195.401 270.928C195.579 270.832 195.774 270.761 195.988 270.714C196.204 270.665 196.422 270.626 196.64 270.598C196.925 270.561 197.157 270.533 197.334 270.515C197.513 270.495 197.644 270.461 197.725 270.414C197.809 270.367 197.851 270.286 197.851 270.17V270.145C197.851 269.843 197.768 269.609 197.603 269.442C197.44 269.274 197.192 269.191 196.86 269.191C196.515 269.191 196.245 269.266 196.05 269.417C195.854 269.568 195.716 269.729 195.637 269.9L194.952 269.656C195.074 269.37 195.237 269.148 195.441 268.989C195.647 268.828 195.871 268.716 196.114 268.653C196.358 268.587 196.599 268.555 196.835 268.555C196.986 268.555 197.16 268.573 197.355 268.61C197.553 268.644 197.744 268.717 197.927 268.827C198.113 268.937 198.267 269.103 198.389 269.325C198.511 269.548 198.573 269.845 198.573 270.218V273.313H197.851V272.677H197.814C197.765 272.779 197.684 272.888 197.569 273.005C197.455 273.121 197.303 273.22 197.114 273.301C196.924 273.383 196.693 273.424 196.42 273.424ZM196.53 272.775C196.815 272.775 197.056 272.719 197.251 272.607C197.449 272.495 197.598 272.35 197.698 272.173C197.8 271.995 197.851 271.809 197.851 271.613V270.952C197.82 270.989 197.753 271.023 197.649 271.053C197.547 271.082 197.429 271.107 197.294 271.13C197.162 271.15 197.032 271.169 196.906 271.185C196.781 271.199 196.681 271.211 196.603 271.222C196.415 271.246 196.24 271.286 196.077 271.341C195.916 271.394 195.785 271.474 195.686 271.582C195.588 271.688 195.539 271.833 195.539 272.017C195.539 272.268 195.632 272.457 195.817 272.586C196.005 272.712 196.242 272.775 196.53 272.775ZM201.28 271.601L201.268 270.708H201.415L203.47 268.616H204.363L202.174 270.83H202.112L201.28 271.601ZM200.608 273.313V267.05H201.329V273.313H200.608ZM203.593 273.313L201.758 270.989L202.271 270.488L204.51 273.313H203.593ZM212.673 268.616C212.636 268.306 212.487 268.065 212.226 267.894C211.965 267.723 211.645 267.637 211.266 267.637C210.989 267.637 210.746 267.682 210.538 267.772C210.332 267.862 210.171 267.985 210.055 268.142C209.941 268.299 209.884 268.477 209.884 268.677C209.884 268.844 209.924 268.988 210.003 269.108C210.085 269.227 210.189 269.325 210.315 269.405C210.441 269.482 210.574 269.547 210.713 269.598C210.851 269.647 210.979 269.686 211.095 269.717L211.731 269.888C211.894 269.931 212.076 269.99 212.275 270.066C212.477 270.141 212.67 270.244 212.853 270.374C213.039 270.503 213.192 270.668 213.312 270.87C213.432 271.072 213.493 271.319 213.493 271.613C213.493 271.952 213.404 272.257 213.226 272.531C213.051 272.804 212.794 273.021 212.456 273.182C212.119 273.343 211.711 273.424 211.229 273.424C210.781 273.424 210.392 273.351 210.064 273.206C209.738 273.062 209.481 272.86 209.294 272.601C209.108 272.342 209.003 272.041 208.979 271.699H209.761C209.782 271.935 209.861 272.131 210 272.286C210.141 272.439 210.318 272.553 210.532 272.628C210.748 272.702 210.981 272.739 211.229 272.739C211.519 272.739 211.779 272.692 212.009 272.598C212.24 272.502 212.422 272.369 212.557 272.2C212.691 272.029 212.759 271.829 212.759 271.601C212.759 271.393 212.7 271.224 212.584 271.093C212.468 270.963 212.315 270.857 212.126 270.775C211.936 270.694 211.731 270.622 211.511 270.561L210.74 270.341C210.251 270.2 209.863 269.999 209.578 269.738C209.292 269.477 209.15 269.136 209.15 268.714C209.15 268.363 209.245 268.057 209.434 267.796C209.626 267.533 209.883 267.329 210.205 267.185C210.529 267.038 210.891 266.964 211.291 266.964C211.694 266.964 212.053 267.037 212.367 267.182C212.681 267.324 212.93 267.52 213.113 267.769C213.299 268.018 213.397 268.3 213.407 268.616H212.673ZM217.329 273.411C216.876 273.411 216.486 273.311 216.158 273.112C215.831 272.91 215.58 272.628 215.402 272.268C215.227 271.905 215.139 271.483 215.139 271.001C215.139 270.52 215.227 270.096 215.402 269.729C215.58 269.36 215.826 269.073 216.142 268.867C216.46 268.659 216.831 268.555 217.256 268.555C217.5 268.555 217.742 268.596 217.98 268.677C218.219 268.759 218.436 268.891 218.632 269.075C218.828 269.256 218.984 269.497 219.1 269.796C219.216 270.096 219.274 270.465 219.274 270.904V271.209H215.653V270.585H218.54C218.54 270.32 218.487 270.084 218.381 269.876C218.277 269.668 218.128 269.504 217.935 269.384C217.743 269.263 217.517 269.203 217.256 269.203C216.968 269.203 216.719 269.274 216.509 269.417C216.301 269.558 216.141 269.741 216.029 269.968C215.917 270.194 215.861 270.437 215.861 270.696V271.111C215.861 271.466 215.922 271.767 216.044 272.014C216.169 272.258 216.341 272.445 216.561 272.573C216.782 272.7 217.037 272.763 217.329 272.763C217.519 272.763 217.69 272.736 217.843 272.683C217.998 272.628 218.131 272.547 218.243 272.439C218.356 272.329 218.442 272.192 218.503 272.029L219.201 272.225C219.127 272.461 219.004 272.669 218.831 272.849C218.657 273.026 218.443 273.165 218.188 273.265C217.933 273.362 217.647 273.411 217.329 273.411ZM221.811 267.05V273.313H221.09V267.05H221.811ZM225.821 273.411C225.368 273.411 224.978 273.311 224.649 273.112C224.323 272.91 224.071 272.628 223.894 272.268C223.719 271.905 223.631 271.483 223.631 271.001C223.631 270.52 223.719 270.096 223.894 269.729C224.071 269.36 224.318 269.073 224.634 268.867C224.952 268.659 225.323 268.555 225.747 268.555C225.992 268.555 226.233 268.596 226.472 268.677C226.711 268.759 226.928 268.891 227.123 269.075C227.319 269.256 227.475 269.497 227.591 269.796C227.708 270.096 227.766 270.465 227.766 270.904V271.209H224.145V270.585H227.032C227.032 270.32 226.979 270.084 226.873 269.876C226.769 269.668 226.62 269.504 226.426 269.384C226.235 269.263 226.008 269.203 225.747 269.203C225.46 269.203 225.211 269.274 225.001 269.417C224.793 269.558 224.633 269.741 224.521 269.968C224.409 270.194 224.353 270.437 224.353 270.696V271.111C224.353 271.466 224.414 271.767 224.536 272.014C224.66 272.258 224.833 272.445 225.053 272.573C225.273 272.7 225.529 272.763 225.821 272.763C226.01 272.763 226.181 272.736 226.334 272.683C226.489 272.628 226.623 272.547 226.735 272.439C226.847 272.329 226.934 272.192 226.995 272.029L227.692 272.225C227.619 272.461 227.496 272.669 227.322 272.849C227.149 273.026 226.935 273.165 226.68 273.265C226.425 273.362 226.139 273.411 225.821 273.411ZM232.909 269.668L232.26 269.851C232.22 269.743 232.159 269.638 232.08 269.536C232.002 269.432 231.896 269.347 231.762 269.28C231.627 269.212 231.455 269.179 231.245 269.179C230.958 269.179 230.718 269.245 230.526 269.377C230.337 269.508 230.242 269.674 230.242 269.876C230.242 270.055 230.307 270.197 230.438 270.301C230.568 270.405 230.772 270.492 231.049 270.561L231.747 270.732C232.167 270.834 232.48 270.99 232.686 271.2C232.891 271.408 232.994 271.676 232.994 272.005C232.994 272.274 232.917 272.514 232.762 272.726C232.609 272.938 232.395 273.106 232.12 273.228C231.844 273.35 231.524 273.411 231.159 273.411C230.68 273.411 230.284 273.307 229.97 273.099C229.656 272.891 229.457 272.588 229.373 272.188L230.058 272.017C230.124 272.27 230.247 272.459 230.428 272.586C230.612 272.712 230.852 272.775 231.147 272.775C231.484 272.775 231.751 272.704 231.948 272.561C232.148 272.416 232.248 272.243 232.248 272.041C232.248 271.878 232.191 271.742 232.077 271.631C231.963 271.519 231.787 271.436 231.551 271.381L230.768 271.197C230.338 271.095 230.022 270.937 229.82 270.723C229.62 270.507 229.52 270.237 229.52 269.913C229.52 269.648 229.595 269.413 229.743 269.209C229.894 269.005 230.099 268.845 230.358 268.729C230.619 268.613 230.915 268.555 231.245 268.555C231.71 268.555 232.075 268.657 232.34 268.861C232.607 269.064 232.797 269.334 232.909 269.668ZM236.181 273.424C235.883 273.424 235.613 273.368 235.37 273.255C235.128 273.141 234.935 272.977 234.792 272.763C234.65 272.547 234.578 272.286 234.578 271.98C234.578 271.711 234.631 271.493 234.737 271.326C234.843 271.156 234.985 271.024 235.162 270.928C235.34 270.832 235.536 270.761 235.75 270.714C235.966 270.665 236.183 270.626 236.401 270.598C236.687 270.561 236.918 270.533 237.095 270.515C237.275 270.495 237.405 270.461 237.487 270.414C237.57 270.367 237.612 270.286 237.612 270.17V270.145C237.612 269.843 237.53 269.609 237.364 269.442C237.201 269.274 236.954 269.191 236.621 269.191C236.277 269.191 236.007 269.266 235.811 269.417C235.615 269.568 235.477 269.729 235.398 269.9L234.713 269.656C234.835 269.37 234.998 269.148 235.202 268.989C235.408 268.828 235.632 268.716 235.875 268.653C236.12 268.587 236.36 268.555 236.597 268.555C236.748 268.555 236.921 268.573 237.117 268.61C237.315 268.644 237.505 268.717 237.689 268.827C237.874 268.937 238.028 269.103 238.15 269.325C238.273 269.548 238.334 269.845 238.334 270.218V273.313H237.612V272.677H237.575C237.527 272.779 237.445 272.888 237.331 273.005C237.217 273.121 237.065 273.22 236.875 273.301C236.686 273.383 236.454 273.424 236.181 273.424ZM236.291 272.775C236.576 272.775 236.817 272.719 237.013 272.607C237.211 272.495 237.359 272.35 237.459 272.173C237.561 271.995 237.612 271.809 237.612 271.613V270.952C237.582 270.989 237.514 271.023 237.41 271.053C237.308 271.082 237.19 271.107 237.056 271.13C236.923 271.15 236.794 271.169 236.667 271.185C236.543 271.199 236.442 271.211 236.364 271.222C236.177 271.246 236.001 271.286 235.838 271.341C235.677 271.394 235.547 271.474 235.447 271.582C235.349 271.688 235.3 271.833 235.3 272.017C235.3 272.268 235.393 272.457 235.578 272.586C235.766 272.712 236.004 272.775 236.291 272.775ZM240.369 273.313V268.616H241.091V273.313H240.369ZM240.736 267.833C240.595 267.833 240.474 267.785 240.372 267.689C240.272 267.593 240.222 267.478 240.222 267.344C240.222 267.209 240.272 267.094 240.372 266.998C240.474 266.902 240.595 266.854 240.736 266.854C240.877 266.854 240.997 266.902 241.097 266.998C241.199 267.094 241.25 267.209 241.25 267.344C241.25 267.478 241.199 267.593 241.097 267.689C240.997 267.785 240.877 267.833 240.736 267.833Z" fill="black"/>
<rect x="29" y="262.936" width="15.0582" height="15.0582" fill="#61CDBB"/>
<rect x="137.578" y="262.936" width="15.0582" height="15.0582" fill="#E8A838"/>
</svg>
